<?xml version="1.0" encoding="UTF-8"?>
<svg id="uuid-56d8603c-9040-4358-8092-4a30bf00b082" data-name="Calque 1" xmlns="http://www.w3.org/2000/svg" width="250" height="250" viewBox="0 0 250 250">
  <path d="M195.7,40.75c-6.58,.02-30.97,14.73-32.65,19.77,9.91-8.62,20.56-15.37,32.65-19.77Z" style="fill: #fff;"/>
  <path d="M176.4,208.77c-10.83,.23-21.66,.65-32.49,.93-9.87,.25-19.75,.43-29.62,.63-1.71,.03-3.41,0-5.29,0,0-4.02-.02-7.79,0-11.56,.04-5.08,.94-9.99,2.88-14.71,1.02-2.49,2.21-4.94,2.94-7.52,.63-2.26,.99-4.67,.98-7.01,0-2.52-.72-5.03-.85-7.56-.5-9.31-2.18-18.41-4.61-27.39-.13-.48-.2-1.3,.07-1.5,1.1-.84,.52-1.74,.21-2.57-1.62-4.36-3.28-8.7-4.93-13.04-1.07-2.82-2.15-5.65-3.23-8.45,4.64-.31,9.02-.61,13.56-.92,.1,.25,.32,.8,.55,1.34,1.81,4.25,4.44,7.82,8.64,9.96,1.36,.7,2.96,.93,4.34,1.59,3.01,1.45,5.99-.2,6.07-3.59,.05-2.27-.07-4.55-.25-6.81-.15-1.91-.49-3.81-.77-5.92,6.61,2.73,13.19,3.7,19.95,3.73,.42,0,1.07,.37,1.23,.74,1.24,2.85,4.45,4.04,7.46,2.77,5.45-2.29,10.9-4.61,16.14-7.34,2.6-1.35,5.1-3.32,6.96-5.58,5.79-7.04,12.57-12.95,19.6-18.66,3.7-3.01,7.06-6.45,10.57-9.69v56.41c-.44-.18-.89-.32-1.31-.54-6.13-3.13-12.55-5.41-19.29-6.81-.4-.08-.83-.06-1.25-.08-.04,.18-.08,.36-.12,.55,7.76,1.51,14.98,4.44,21.97,7.96m-35.12,9.75c-4.94-3.59-25.32-8.26-27.71-6.91,4.47,.92,9.22,1.74,13.88,2.9,4.65,1.16,9.22,2.66,13.83,4.01Zm30.87-42.44c-5.48-.18-21.39,6.19-21.64,8.55,6.75-4.13,14.24-6.22,21.64-8.55Z" style="fill: #fff;"/>
  <path d="M36.95,213.64v-2.61c20.29-.35,40.59-.71,61.23-1.07-.68-11.7-.39-23.45,5.63-34.69-3.3,.72-6,1.34-8.7,1.91-5.64,1.19-11.25,1.36-16.88-.25-2.34-.67-4.88-.66-7.23-1.32-3.56-1-7.09-2.18-10.53-3.54-2.74-1.08-3.94-3.85-3.19-6.47,.73-2.55,3.08-4.14,5.98-3.73,1.81,.26,3.56,.98,5.35,1.46,2.7,.73,5.4,1.47,8.12,2.15,1.1,.27,2.29,.23,3.36,.57,7.16,2.28,13.99,.42,20.77-1.65,3.03-.93,3.04-1.28,2.87-4.35-.52-9.33-2.72-18.35-5.32-27.25-1.9-6.5-4.36-12.84-6.5-19.28-.34-1.01-.83-1.41-1.8-1.17-1.38,.34-2.84,.56-4.1,1.16-5.72,2.72-11.39,5.54-17.05,8.37-1.05,.53-1.67,.58-2.85-.18-9.41-6.07-7.69-18.2-2.57-23.27,2.72-2.69,5.6-5.22,8.34-7.76-.87-2.07-1.65-4.13-2.62-6.09-.2-.4-1.14-.58-1.74-.59-1.72-.03-3.49,.35-5.17,.1-4.52-.66-7.5-3.56-8.95-7.66-5.28-14.94-1.58-29,12.26-38.32,3.86-2.6,8.29-3.56,12.91-3.77,7.96-.36,15.48,1.17,22.27,5.46,4.65,2.94,8.17,6.85,9.11,12.5,.51,3.04,.37,6.06-.86,8.98-.25,.59-.41,1.45-.17,1.99,2.02,4.48,1.49,8.89-.28,13.24-.52,1.28-.46,2.08,.71,2.84,1.84,1.2,3.62,2.49,5.58,3.63-.69-2.19-1.28-4.25-.24-6.44,1.69-3.59,6.05-4.42,8.95-1.73,1.51,1.41,3.12,2.75,4.84,3.87,.79,.52,1.97,.6,2.97,.6,4.35,0,8.71-.29,13.05-.14,4.59,.16,9.05-.04,13.29-2.06,1.5-.72,3.1-1.41,4.72-1.64,1.1-.15,2.69,.19,3.37,.94,.56,.61,.25,2.17,.08,3.28-.37,2.39-2.11,3.57-4.15,4.54-.82,.39-1.55,1.12-2.11,1.86-1.44,1.9-3.35,2.24-5.58,2.15-6.32-.24-12.63-.38-18.95-.55-.1,0-.21,.1-.38,.19-.18,1.06-.5,2.17-.51,3.28,0,.48,.5,1.12,.96,1.42,5.26,3.49,11.21,4.66,17.39,4.99,1.37,.07,2.73,.15,3.67,.21,2.59-3.49,4.9-6.9,7.51-10.06,7.36-8.89,13.27-18.76,19.44-28.45,2.69-4.24,5.08-8.67,7.54-13.05,1.76-3.12,4.7-4.36,7.46-3.03,2.73,1.32,3.89,4.57,2.22,7.73-2.88,5.44-5.93,10.81-9.22,16.02-6.11,9.66-12.08,19.43-19.48,28.2-.42,.5-.76,1.06-1.44,2.01,.83-.32,1.28-.39,1.59-.63,2.61-2.08,5.54-3.87,7.7-6.34,4.99-5.71,10.35-10.95,16.32-15.61,5.96-4.65,11.4-9.87,16.28-15.66,1.11-1.32,2.3-2.65,4.27-2.61v14.37c-3.51,3.24-6.86,6.68-10.57,9.69-7.04,5.71-13.81,11.63-19.6,18.66-1.86,2.26-4.36,4.22-6.96,5.58-5.23,2.73-10.69,5.05-16.14,7.34-3.01,1.26-6.22,.08-7.46-2.77-.16-.37-.81-.74-1.23-.74-6.76-.03-13.34-1-19.95-3.73,.28,2.12,.62,4.01,.77,5.92,.18,2.26,.3,4.54,.25,6.81-.08,3.38-3.06,5.04-6.07,3.59-1.38-.67-2.98-.9-4.34-1.59-4.2-2.14-6.83-5.71-8.64-9.96-.23-.54-.45-1.09-.55-1.34-4.54,.31-8.92,.61-13.56,.92,1.07,2.81,2.15,5.63,3.23,8.45,1.65,4.35,3.32,8.69,4.93,13.04,.31,.83,.89,1.73-.21,2.57-.26,.2-.19,1.02-.07,1.5,2.43,8.98,4.11,18.08,4.61,27.39,.14,2.53,.85,5.04,.85,7.56,0,2.34-.35,4.75-.98,7.01-.72,2.58-1.91,5.03-2.94,7.52-1.94,4.71-2.84,9.63-2.88,14.71-.03,3.77,0,7.53,0,11.56,1.88,0,3.58,.03,5.29,0,9.87-.2,19.75-.38,29.62-.63,10.83-.28,21.66-.7,32.49-.93M109.1,92.58c-2.8-1.73-5.92-3.66-9.29-5.75-.1,3.3-1.85,5.05-4.31,6.33,.3,.67,.5,1.3,.84,1.84,.42,.67,.92,1.79,1.43,1.81,3.78,.15,7.56,.08,11.33,.08v-4.32Zm-35.36,11.83c.1,.13,.2,.27,.31,.4,3.97-1.48,7.93-2.95,12.01-4.47-.54-1.26-1.19-2.75-1.94-4.51-3.57,2.95-6.97,5.77-10.37,8.58Z"/>
  <path d="M169.43,34c-2.88,1.9-5.86,3.66-8.6,5.75-4.32,3.28-8.48,6.78-12.7,10.2-.66,.54-1.29,1.12-1.93,1.68l-.43-.42c.39-.44,.76-.89,1.18-1.3,5.81-5.64,12.24-10.48,19.08-14.79,.55-.35,1.07-.74,1.6-1.11,.6,0,1.2,0,1.8,0Z"/>
  <path d="M216.5,128.13c-6.99-3.52-14.21-6.45-21.97-7.96,.04-.18,.08-.36,.12-.55,.42,.02,.84,0,1.25,.08,6.74,1.4,13.16,3.68,19.29,6.81,.42,.21,.87,.36,1.31,.54v1.08Z"/>
  <path d="M195.7,40.75c-12.08,4.4-22.73,11.15-32.65,19.77,1.68-5.04,26.07-19.75,32.65-19.77Z"/>
  <path d="M181.38,137.88c-4.61-1.35-9.18-2.85-13.83-4.01-4.66-1.16-9.41-1.98-13.88-2.9,2.39-1.35,22.77,3.32,27.71,6.91Z"/>
  <path d="M212.25,95.44c-7.4,2.32-14.88,4.42-21.64,8.55,.25-2.36,16.16-8.73,21.64-8.55Z"/>
  <path d="M109.1,92.58v4.32c-3.77,0-7.56,.07-11.33-.08-.5-.02-1.01-1.14-1.43-1.81-.34-.54-.54-1.17-.84-1.84,2.47-1.28,4.22-3.03,4.31-6.33,3.37,2.09,6.49,4.02,9.29,5.75Z" style="fill: #fff;"/>
  <path d="M73.74,104.41c3.4-2.81,6.8-5.62,10.37-8.58,.76,1.76,1.4,3.26,1.94,4.51-4.07,1.51-8.04,2.99-12.01,4.47-.1-.13-.2-.27-.31-.4Z" style="fill: #fff;"/>
</svg>