<?xml version="1.0" encoding="UTF-8"?>
<svg id="uuid-cbf05ca7-c558-4e08-b097-48f885ca4ca2" data-name="Calque 2" xmlns="http://www.w3.org/2000/svg" width="250" height="250" viewBox="0 0 250 250">
  <path d="M182.62,191.27h11.26c5.6,4.47,11.28,.18,17,.11-.06,.59-.11,1.16-.18,1.8-.71-.42-1.22-.72-2.08-1.23,.48,2.93-1.02,2.75-2.8,2.39-3.81-.78-7.53-.94-10.8,1.77-.38,.32-1.25,.36-1.76,.17-2.09-.77-4.14-1.63-6.17-2.54-1.81-.81-3.79,.79-3.92,3.42-.13,2.7-.03,5.41-.03,8.3h-6.38c1.1-2.46,5.13-2.57,4.62-6.31-4.89,.45-9.59,.88-14.42,1.32,1.07-2.23,2.08-4.18,2.95-6.2,.59-1.37,.13-2.37-1.5-2.23-4.19,.38-8.37,.8-12.54,1.34-.87,.11-1.65,.83-2.48,1.27,.56,.86,.92,2.1,1.71,2.53,2.88,1.54,5.91,2.8,8.88,4.17h0c-.29,.32-.58,.63-.88,.95,.12,.15,.24,.3,.36,.45,.69-.27,1.38-.54,1.93-.76,.79,1.31,1.56,2.58,2.41,3.99h-6.54c3.49-3.81-2.85-2.88-2.25-5.37,0-.02-.92-.47-1.27-.34-2.67,.95-4.75,2.37-3.53,5.63h-13.24c2.04-1.09,3.99-2,5.79-3.15,.69-.44,1.58-1.92,1.42-2.1-.7-.81-1.78-1.88-2.65-1.83-3.34,.21-6.66,.81-9.98,1.27-1.99,.28-1.88,1.28-.81,2.51,1.03,1.18,2.15,2.29,3.64,3.87h-28.57c1.31-1.42-.07-5.53-2.64-5.85-3.26-.4-6.58-.49-9.87-.38-.7,.02-1.78,1.4-1.93,2.28-.24,1.4,.16,2.9,.3,4.44h-8.23c1.96-.14,2.1-1.25,1.79-2.83-.41-2.14-.67-4.31-1.01-6.46-.19-1.2-.42-2.39-.63-3.59-.19,0-.37,.01-.56,.02-.33,.71-.65,1.41-.87,1.88-2.51-.55-4.97-1.09-7.62-1.67-.08,1.18-.14,1.66-.13,2.14,.02,3.38,.27,3.59,3.72,3.37,1.31-.08,2.62-.16,3.92-.24,.02,.24,.04,.48,.05,.72-.83,.11-1.66,.28-2.49,.32-4.95,.26-5.24-.3-4.57,5.7,.02,.2,.03,.4,.08,1.04h-23.03c1.44-6.64,2.75-13.45,5.71-19.81,.71-1.54,1.74-1.12,2.51-.26,.62,.7,.88,1.74,1.28,2.61-1.38,1.03-2.46,5.15-1.35,6.45,.55,.64,2.26,.31,3.44,.35,.91,.03,1.94,.21,2.7-.15,1.42-.67,3.25-1.39,3.87-2.62,1-1.98,1.16-4.39,1.66-6.56-1.57,.5-1.69-.91-1.77-2.96,7.87-1.4,15.83-2.82,24.09-4.29-2.85,4.14-1.36,7.69,3.19,8.3,1.79,.24,3.63,.29,5.43,.2,2.81-.15,3.86-1.44,3.75-4.27-.15-3.73,1.65-5.82,5.26-6.15,.74-.07,1.47-.3,2.21-.3,5.54,0,11-2.33,16.62-.65,.28,.08,.7-.26,1.05-.42,.69-.32,1.36-.86,2.08-.94,3.61-.4,7.23-.69,10.86-.99,2.89-.23,5.78-.41,8.69-.61-.32,1.26-.54,2.22-.8,3.16-.47,1.71-.22,3.6,1.49,3.94,2.44,.47,5.15,.54,7.49-.12,.78-.22,.9-3.19,1.09-4.92,.09-.79-.39-1.65-.66-2.68,1.15-.13,2.17-.24,3.22-.36-.15,6.02,0,6.24,3.9,6.4,5.58,.23,6.64-.61,7.15-5.61,.41,.58,.84,1.26,.79,1.9-.09,1.22-.4,2.43-.72,3.61-.31,1.15-.2,2.18,1.19,2.06,2.93-.24,5.86-.63,8.76-1.15,.62-.11,1.45-.98,1.58-1.62,.48-2.47,.72-4.99,1.11-8.03,4.18-.37,8.31-.73,12.43-1.1,.04-.21,.07-.43,.11-.64-2.09-.32-4.22-1.07-6.26-.87-6.56,.66-13.06,2.17-19.63,2.45-12.05,.52-24.13,.42-36.19,.49-1.52,0-3.03-.53-4.73-.84-.7,1.02-9.86,1.9-17.78,1.39-.32-.64-.64-1.27-1.23-2.44-.42,1.32-.65,2.04-1,3.13-2.93-1.08-6.23,1.64-9.01-1.18-2.43,3.19-6.14,1.42-9.39,2.32v-2.62l-.68-.57c-.27,3.44-2.53,3.62-4.86,3.83-3.29,.31-6.56,.81-9.85,1.08-.97,.08-1.98-.35-2.44-.44-5.96,2.45-11.96,1.9-17.65,2.69-.37-.72-.63-1.25-1.14-2.26-.65,2.68-2.43,2.77-4.24,3.02-4.24,.56-8.48,1.16-12.67,2-.97,.19-2.2,1.22-2.51,2.14-.97,2.88-1.66,5.87-2.29,8.85-.9,4.27-1.96,8.52-.58,12.94,.49,1.57,.45,3.31,.69,5.27h11.99c.26,.47,.57,1.04,.73,1.32,1.06-.7,1.87-1.68,2.75-1.74,4.61-.32,9.24-.53,13.86-.56,9.88-.08,19.76,.08,29.64-.07,16.61-.26,33.21-.7,49.82-1.02,4.71-.09,9.42-.1,14.13,0,1.99,.05,3.98,.53,5.97,.77,.52,.06,1.17,.12,1.59-.11,3.59-2,7.44-.86,11.17-.95,2.18-.06,4.37,.21,6.56,.28,.97,.03,1.95-.13,2.93-.15,4.53-.1,9.07-.03,13.59-.33,3.19-.21,4.09-1.25,4.56-4.51,1.01-7.08,1.96-14.16,2.82-21.25,.11-.88-.4-1.91-.81-2.78-1.27-2.68-2.61-5.32-3.97-7.96-.19-.37-.58-.64-.87-.95-.44,.77-.47,1.39-.24,1.88,1.19,2.53,2.47,5.02,3.67,7.55,.34,.72,.86,1.57,.74,2.27-.47,2.78-1.16,5.53-1.76,8.29-.35-1.34-.38-2.74-.35-4.14,.09-4.19-.57-4.87-5.58-5.2,.69,.86,1.15,1.44,1.74,2.17h-11.47c-.24-.96-.39-1.54-.38-1.51-1.94,.52-3.62,1.07-5.33,1.42-5.66,1.16-8.09,2.63-6.99,7.62,.11,.48,.07,.99,.09,1.47-.66-1.54-1.32-3.08-1.99-4.62-.3-.69-.53-1.84-.97-1.94-.63-.13-1.6,.34-2.11,.87-1.71,1.77-3.25,3.7-4.89,5.53-.65,.72-1.4,1.35-2.14,2.06,.45,.34,.61,.55,.7,.52,3.24-.92,6.36-.73,9.41,.79,.35,.17,1.34-.15,1.45-.45,.32-.88,.35-1.87,.49-2.82Zm-31.55-95.57s.06,.05,.06,.05c.08-1.23,.33-2.48,.21-3.69-.11-1.14-.34-2.95-.99-3.19-1.12-.41-2.69-.06-3.91,.41-.93,.36-1.68,1.31-2.36,2.13-3.28,3.97-5.04,8.46-4.12,14.02-25.34-2.08-50.36-.13-75.97,1.04,5.85-6.3,11.27-12.14,16.91-18.23,.56,2.35,.85,4.23,1.45,6,1.33,3.89,5.54,4.91,8.52,2.08,.89-.84,1.45-2.02,2.33-2.88,2.79-2.73,5.66-5.38,8.45-8.01,.23,5.82,1.52,8.75,4.38,9.86,2.57,1,9.42,.04,11.4-2.09-2.71,.41-4.84,.72-6.96,1.07-4.01,.67-7.02-1.44-7.2-5.49-.08-1.88,.7-3.81,1.17-5.7,.18-.71,.6-1.35,.9-2.03l-.6-.57c-.96,.64-2.08,1.14-2.86,1.95-3.77,3.92-7.36,8.02-11.21,11.86-1.04,1.04-2.75,1.94-4.17,1.96-1.94,.02-2.76-1.81-3.15-3.61-.12-.56-.23-1.13-.4-1.69-.43-1.46-.88-2.9-1.32-4.35-1.37,.96-2.93,1.74-4.07,2.92-5.05,5.22-9.96,10.57-14.98,15.83-1.68,1.76-4.32,1.83-6.2,.6,.56-3.99,1.47-7.79,1.57-11.62,.21-8.42,.06-16.84-.03-25.26-.03-3.14,.14-6.38-.59-9.37-1-4.1,.35-7.85,.4-11.36,2.91,0,5.45,.11,7.98-.02,9.16-.48,18.31-1.05,27.46-1.56,5.69-.32,11.39-.51,17.07-.96,4.44-.35,8.84-1.28,13.28-1.45,18.8-.72,37.49,.58,56.06,3.56,4.46,.71,8.91,1.45,13.56,2.2-.17,1.08-.33,1.87-.4,2.67-.74,8.38-1.95,16.76-2.05,25.14-.1,8.48,.9,16.97,1.45,25.45,.13,1.99,.33,3.93-2.22,4.77,1.22,1.74,2.36,1.3,2.9-.01,.55-1.32,.8-2.89,.71-4.32-.28-4.28-.91-8.54-1.19-12.81-.94-14.32-.52-28.56,2.89-42.59,.49-2-1.48-6.61-3.3-7.53-.42-.21-.96-.17-2.2-.35,1.13,1.22,1.74,1.88,2.41,2.61-1.95,2.28-3.94,1.2-6.12,.63-5.55-1.46-11.13-3.42-16.77-3.69-7.26-.35-14.58,.76-21.88,1.23-3.36,.22-6.73,.45-10.09,.6-9.73,.45-19.46,1.03-29.2,1.25-16.66,.38-33.33,.47-50.15,3.07v-3.76c-1.25,1.49-2.03,3.07-2.74,4.68-.12,.28,.01,.72,.12,1.05,.22,.68,.76,1.37,.72,2.02-.23,3.54-.6,7.06-.93,10.6-.27-.09-.54-.19-.82-.28-.4,.76-1.18,1.56-1.12,2.28,.1,1.12-1.16,3.14,1.64,3.16,.59,0,1.66,1.62,1.67,2.5,.14,8.75,.29,17.51,.04,26.25-.1,3.65-1.07,7.29-1.82,10.9-.31,1.47,.22,2.04,1.48,2.22,2.67,.37,5.35,.98,8.02,.96,15.68-.14,31.3-1.04,46.92-2.71,8.09-.87,16.37,.11,24.56,.26-1.49,.54-2.98,.54-4.46,.54-6.61,0-13.22-.02-19.83,.03-.91,0-1.82,.34-2.73,.53,.04,.23,.08,.47,.12,.7,.83,.13,1.67,.25,2.85,.43-.74,.57-1.22,.97-1.74,1.34-19.89,13.96-39.78,27.92-59.66,41.9-.57,.4-.94,1.1-1.83,2.19h9.42c37.21,0,74.43,0,111.64,.03,1.98,0,3.97,.38,5.01,.49,7.84-1.74,14.96-1.26,22.38-.79-.75-1.71-.74-3.39-2.92-3.39-.54,0-1.1-.68-1.62-1.08-16.96-13.07-33.91-26.15-50.87-39.22-.42-.33-.98-.48-1.47-.71,1.66-.73,3.09-.58,3.8-1.22,1.62-1.47,2.71-2.05,3.18-.09,1.41-.42,2.68-1.18,3.89-1.08,8.14,.64,16.27,1.37,24.39,2.27,4.58,.51,9.12,1.43,13.69,2.05,.8,.11,1.69-.36,2.53-.56-.06-.25-.12-.51-.18-.76-14.04-1.76-28.08-3.51-42.22-5.28,3.58-8.82,8.76-17.32,14.32-25.75-.98,.32-1.9,.79-2.38,1.55-2.81,4.48-5.49,9.03-8.27,13.52-.42,.68-1.12,1.18-1.69,1.77Zm-18.38-8.96c-1.69,.12-3.08-.02-4.29,.37-1.53,.49-3.66,1.06-4.2,2.22-1.22,2.61-1.92,5.57-2.27,8.46-.45,3.75,2.14,5.49,5.19,3.31,2.95-2.11,5.53-4.9,7.73-7.81,1.01-1.33,.72-3.65,1.06-5.78,11.28-3.52,21.93-9.38,30.56-18.61,.45-.48,.95-1,1.14-1.6,.22-.69,.13-1.48,.17-2.23-.64,.21-1.39,.28-1.92,.66-3.89,2.8-7.69,5.71-11.61,8.47-1.26,.89-2.73,1.54-4.17,2.1-1.64,.64-2.55-.14-2.05-1.79,.87-2.91,2-5.74,3.08-8.79-.47,.15-1.58,.2-1.74,.61-1.06,2.76-2.09,5.55-2.78,8.42-.52,2.16,1.08,3.68,3.2,2.98,2.15-.71,4.18-1.88,6.14-3.06,2.05-1.24,3.94-2.73,5.9-4.11-7.46,8.39-17.1,12.75-27.52,15.92-.46-1.56-.72-2.42-.98-3.28-.22,.03-.43,.07-.65,.1v3.43Zm-43.43-23.8c-4.42,5.55-8.44,10.29-14.12,13.31-5.48,2.91-10.02,1.19-11.78-4.76-.51-1.72-.51-3.81-.07-5.56,1.42-5.64,5.95-8.71,10.49-11.6,.87-.55,2.36-.14,3.56-.14,.83,0,1.67,.08,2.5,.12,0-.26,.01-.52,.02-.78-2.46-1.13-5.21-1.99-7.54-.15-3.2,2.54-6.42,5.28-8.85,8.52-3.39,4.51-2.42,11.2,1.44,15,3,2.96,7.54,2.76,12.74-.56,.21-.13,.45-.24,.62-.41,4.44-4.4,8.88-8.8,13.29-13.23,.22-.22,.13-.73,.22-1.29-3.78,.2-7.38,.39-10.97,.58,0,.31,.02,.63,.03,.94h8.43Zm41.35,127.21c-.04-.28-.09-.57-.13-.85-.74,0-1.5-.09-2.23,.02-2.69,.4-5.35,1.13-8.05,1.24-2.38,.09-2.57,1.62-2.94,3.22-.4,1.73-1.33,3.63,1.24,4.55-1.69,2.53,.02,6.23,3.1,6.15,2.8-.08,5.71-.76,8.28-1.85,1.08-.46,1.42-2.65,2.1-4.06-1.18-.2-2.36-.41-3.54-.61-.26-.05-.52-.09-1.38-.24,1.9-.79,3.24-1.31,4.56-1.9,.98-.44,2.38-5.7,1.71-7.12-.33-.7-1.3-1.1-1.99-1.64,1.81,4.63,.61,7.53-3.96,8.8-1.81,.51-3.72,.73-5.59,.96-1.14,.14-2.31,.03-3.45,.03-.06-3.38,.96-5.15,4.14-5.27,2.13-.08,4.24-.54,6.36-.88,.6-.1,1.17-.35,1.75-.53Zm-8.54-2.98c1.65,0,2.64,.05,3.62,0,5.37-.32,8.44-3.04,8.95-7.72,.14-1.26-.21-1.79-1.39-1.61-5.85,.91-11.7,1.84-17.54,2.85-1.68,.29-1.48,1.76-.64,2.38,2.31,1.73,3.57,5.65,6.99,4.11Zm-14.93-113.87c1.54-3.78,3.07-7.55,4.6-11.32-.27-.18-.53-.35-.8-.53-.73,.76-1.51,1.48-2.18,2.28-2.49,2.99-2.66,2.97-6.08,.96-1-.59-2.32-1.03-3.44-.92-2.81,.27-6.66,4.6-6.87,7.39-.17,2.13,1.1,3.69,3.2,3.36,1.72-.27,3.48-1,4.98-1.93,2.41-1.49,4.62-3.32,6.96-5.04q-1.18,4.82-.37,5.75Zm30.2,106.71c4.23-.3,7.98-.53,11.73-.87,.58-.05,1.11-.61,1.66-.93-.66-.18-1.33-.56-1.97-.51-2.46,.19-5.02,1.12-7.34,.69-6.04-1.13-5.81,0-5.21,5.78,.04,.41,.14,.81,.18,1.22,.15,1.68,.91,2.51,2.74,2.33,4.35-.41,8.71-.67,13.05-1.11,.93-.09,1.81-.71,2.96-1.19-2.03-2.12-2.43-4.12-1.87-6.48,.61-2.56-.32-3.4-4.1-3.49,.9,.73,1.44,1.06,1.83,1.51,.38,.43,.84,.98,.86,1.5,.1,2.16,.04,4.33,.04,6.84-4.29,.34-9.01,.72-14,1.12-.21-2.45-.39-4.54-.56-6.41Zm-13.26-120.06c-1.36,.22-2.72,.31-3.97,.7-.7,.22-1.52,.83-1.79,1.47-1.33,3.18-2.58,6.41-3.66,9.68-.34,1.05-.05,2.3-.05,3.46,.4,.26,.8,.52,1.19,.79,.16-.56,.22-1.16,.49-1.66,1.43-2.69,2.95-5.33,4.36-8.03,2.05-3.92,2.02-3.93,6.29-2.38,1.19,.43,2.41,.78,3.61,1.17,.09-.25,.18-.49,.26-.74-1.54-2.43-5.92-.92-6.75-4.46Zm-23.75,138.9c1.5-.4,3.92-1.37,6.41-1.6,2.92-.27,2.79-1.99,2.56-3.96-.24-2.07-.99-3.7-3.56-3.29-2.42,.38-4.92,.52-7.25,1.23-1.71,.52-3.64,1.38-3.18,3.95,.5,2.8,1.3,3.57,5.03,3.67Zm48.38-131.96c-2.26-3.18-7.62-4.28-10.37-2.6,.46-1.46,.85-2.7,1.24-3.94-.22-.08-.44-.16-.67-.25-2.73,5.56-5.47,11.12-8.2,16.68,.16,.15,.33,.31,.49,.46,.57-.6,1.22-1.14,1.69-1.81,2.01-2.91,4.01-5.83,5.91-8.81,1.28-1.99,2.75-2.52,4.96-1.44,1.56,.76,3.29,1.15,4.95,1.71Zm2.57,124.61c0-.2,0-.39,0-.59-.35-.11-.7-.31-1.06-.31-3.29-.03-6.59-.13-9.87,.03-1.43,.07-2.87,.64-4.24,1.16-.51,.19-1.15,.86-1.18,1.35-.16,2.65,3.34,5.31,5.91,4.66,1.74-.44,3.49-.89,5.26-1.14,1.59-.22,2.75-.42,2.12-2.54-.37-1.24,.11-2.27,1.74-2.24,.44,0,.88-.24,1.32-.37Zm10.72-109.01c.07,.25,.15,.5,.22,.75,3.45-.07,6.32-1.73,9.01-3.82,2.13-1.66,1.76-3.87,1.26-6.11-.93-4.1,4.42-9.88,8.35-9.11,.52,.1,1.13-.25,1.7-.4-.52-.4-1-1.07-1.56-1.15-4.89-.67-10.94,5.91-9.93,10.73,.78,3.72,.49,4.57-2.83,6.39-1.98,1.08-4.14,1.82-6.22,2.71Zm5.36,103.76c-1.12-.68-2.33-1.54-3.64-2.18-1.58-.77-3.24-.32-3.73,1.25-.58,1.84-.46,3.9-.55,5.86,0,.14,.84,.44,1.29,.45,2.06,.04,4.14,.13,6.19-.03,1.43-.11,2.79-.61,2.77-2.51-.02-2.04,0-4.09,0-6.13-.26-.09-.52-.17-.78-.26-.52,1.19-1.04,2.38-1.55,3.54Zm-76.44-3.99c-.41,.09-1.3,.25-2.17,.52-.86,.26-1.82,1.09-2.49,.88-3.3-1.01-4.62,1.69-6.03,3.45-.73,.92-.29,3.11,.23,4.49,.19,.51,2.17,.61,3.28,.45,1.69-.24,3.3-.98,4.98-1.3,1.39-.27,1.84-.71,1.7-2.28-.16-1.88,.28-3.82,.51-6.21Zm104.64-8.91c-.4,4.95,1.3,6.31,5.96,4.61,.54-.2,1.07-.52,1.62-.58,2.26-.24,2.66-1.66,2.25-3.52-.4-1.8-2.23-3.02-3.9-2.54-1.98,.57-3.92,1.33-5.93,2.02ZM62.8,206.19c3.16-.76,6.17-1.44,9.13-2.26,.26-.07,.56-1.38,.33-1.63-1.6-1.68-2.87-4.14-5.98-2.87-.56,.23-1.45-.18-2.12-.45-2-.83-2.47,.62-2.42,1.91,.06,1.68,.65,3.35,1.07,5.31Z" style="fill: #fff;"/>
  <path d="M151.07,95.7c.57-.58,1.27-1.09,1.69-1.77,2.78-4.49,5.46-9.05,8.27-13.52,.47-.75,1.39-1.23,2.38-1.55-5.56,8.43-10.74,16.93-14.32,25.75,14.14,1.77,28.18,3.53,42.22,5.28,.06,.25,.12,.51,.18,.76-.85,.2-1.73,.67-2.53,.56-4.57-.62-9.11-1.55-13.69-2.05-8.11-.9-16.25-1.63-24.39-2.27-1.21-.1-2.48,.67-3.89,1.08-.47-1.95-1.56-1.38-3.18,.09-.71,.64-2.14,.49-3.8,1.22,.49,.23,1.05,.39,1.47,.71,16.96,13.06,33.92,26.14,50.87,39.22,.52,.4,1.08,1.08,1.62,1.08,2.18,0,2.17,1.68,2.92,3.39-7.42-.46-14.54-.95-22.38,.79-1.05-.11-3.03-.49-5.01-.49-37.21-.04-74.43-.03-111.64-.03h-9.42c.9-1.09,1.26-1.79,1.83-2.19,19.87-13.98,39.77-27.94,59.66-41.9,.52-.36,1-.77,1.74-1.34-1.18-.18-2.01-.31-2.85-.43-.04-.23-.08-.47-.12-.7,.91-.18,1.82-.52,2.73-.53,6.61-.05,13.22-.03,19.83-.03,1.48,0,2.97,0,4.46-.54-8.19-.15-16.48-1.13-24.56-.26-15.62,1.67-31.24,2.58-46.92,2.71-2.67,.02-5.35-.58-8.02-.96-1.25-.17-1.78-.75-1.48-2.22,.75-3.61,1.72-7.25,1.82-10.9,.25-8.74,.1-17.5-.04-26.25-.01-.88-1.09-2.5-1.67-2.5-2.8-.01-1.55-2.03-1.64-3.16-.06-.72,.72-1.52,1.12-2.28,.27,.09,.54,.19,.82,.28,.32-3.53,.69-7.06,.93-10.6,.04-.65-.5-1.33-.72-2.02-.11-.33-.24-.77-.12-1.05,.71-1.61,1.49-3.19,2.74-4.68v3.76c16.82-2.6,33.49-2.69,50.15-3.07,9.74-.22,19.46-.8,29.2-1.25,3.37-.15,6.73-.38,10.09-.6,7.3-.47,14.62-1.58,21.88-1.23,5.64,.27,11.23,2.23,16.77,3.69,2.18,.57,4.17,1.65,6.12-.63-.67-.73-1.28-1.39-2.41-2.61,1.24,.19,1.78,.14,2.2,.35,1.82,.92,3.78,5.53,3.3,7.53-3.41,14.03-3.83,28.27-2.89,42.59,.28,4.28,.91,8.54,1.19,12.81,.09,1.43-.16,3-.71,4.32-.54,1.31-1.68,1.75-2.9,.01,2.55-.84,2.35-2.78,2.22-4.77-.56-8.48-1.55-16.97-1.45-25.45,.1-8.39,1.31-16.76,2.05-25.14,.07-.8,.24-1.59,.4-2.67-4.65-.76-9.11-1.49-13.56-2.2-18.57-2.98-37.26-4.28-56.06-3.56-4.44,.17-8.84,1.1-13.28,1.45-5.68,.44-11.38,.63-17.07,.96-9.15,.52-18.31,1.09-27.46,1.56-2.53,.13-5.08,.02-7.98,.02-.05,3.51-1.4,7.25-.4,11.36,.73,3,.56,6.24,.59,9.37,.09,8.42,.24,16.85,.03,25.26-.1,3.83-1.01,7.64-1.57,11.62,1.88,1.23,4.53,1.16,6.2-.6,5.02-5.25,9.92-10.61,14.98-15.83,1.14-1.18,2.7-1.96,4.07-2.92,.44,1.45,.89,2.9,1.32,4.35,.16,.55,.27,1.12,.4,1.69,.39,1.81,1.22,3.64,3.15,3.61,1.41-.02,3.13-.91,4.17-1.96,3.85-3.84,7.44-7.93,11.21-11.86,.78-.82,1.9-1.31,2.86-1.95l.6,.57c-.31,.67-.73,1.32-.9,2.03-.47,1.89-1.25,3.82-1.17,5.7,.18,4.05,3.19,6.16,7.2,5.49,2.12-.35,4.25-.66,6.96-1.07-1.98,2.13-8.83,3.09-11.4,2.09-2.86-1.12-4.15-4.04-4.38-9.86-2.79,2.63-5.66,5.28-8.45,8.01-.88,.86-1.44,2.04-2.33,2.88-2.97,2.82-7.18,1.8-8.52-2.08-.6-1.77-.89-3.64-1.45-6-5.65,6.09-11.07,11.93-16.91,18.23,25.61-1.17,50.63-3.13,75.97-1.04-.93-5.55,.83-10.04,4.12-14.02,.68-.82,1.43-1.78,2.36-2.13,1.21-.47,2.79-.82,3.91-.41,.65,.24,.88,2.06,.99,3.19,.12,1.21-.12,2.46-.2,3.7-.42-.29-1.17-.54-1.22-.89-.14-.96,0-1.97,.05-2.95,.12-2.02-.67-2.57-2.46-1.7-3.56,1.73-7.39,9.63-6.41,13.41,.17,.65,.81,1.53,1.38,1.67,3.51,.84,4.77,.13,6.18-3.09,.69-1.58,1.5-3.12,2.17-4.72,.22-.54,.16-1.19,.23-1.79Zm20.13,56.8c.06-.24,.12-.47,.18-.71-.95-.44-1.86-.97-2.85-1.29-4.15-1.36-8.28-2.84-12.5-3.93-3.3-.86-5.54-2.52-6.07-5.96-.46-2.96-2.07-4.15-5.03-4.65-2.85-.48-5.97-1.32-8.23-3-4.13-3.08-8.13-6.53-10.23-11.54-.16-.38-.36-.74-.62-1.28-.6,.69-.96,.91-.98,1.16-.26,3.59-3.08,4.03-5.72,4.68-1.68,.41-3.4,.69-5.03,1.25-.73,.25-1.54,.91-1.84,1.59-.44,1.03-.65,2.24-.63,3.37,.04,1.75-.84,2.18-2.37,2.46-1.99,.36-4.13,.72-5.81,1.74-2.67,1.61-5.09,3.67-7.46,5.71-2.53,2.18-5.26,2.3-8.32,1.56-1.26-.31-2.78-.41-3.96,.01-2.94,1.07-5.73,2.54-8.62,3.76-.76,.32-1.64,.33-2.47,.48-.1-.35-.2-.7-.3-1.05,4.52-1.78,9.04-3.58,13.58-5.33,.33-.13,.86-.03,1.19,.15,3.55,1.98,6.4,.74,9.16-1.72,3.94-3.52,7.89-7.12,13.64-6.84,.23-1.25,.5-2.21,.57-3.18,.22-2.8,1.55-4.18,4.48-4.43,2.1-.18,4.16-1.01,6.18-1.7,.68-.23,1.39-.82,1.75-1.44,.9-1.52,1.62-3.16,2.37-4.68-1.42-1.53-2.95-3.19-4.48-4.84,.17-.21,.35-.42,.52-.63,.71,.4,1.75,.63,2.08,1.24,1.53,2.87,4.05,3.02,6.8,2.86,1.32-.08,2.64-.03,3.97,0,2.5,.04,4.33,1.11,4.95,3.64,.4,1.61,1.24,2.21,2.91,2.37,3.9,.38,7.21,1.71,8.32,6.11,.24,.94,1.22,1.71,1.92,2.51,1.13,1.29,2.43,2.44,3.43,3.82,2.13,2.93,3.96,5.53,8.46,5.46,5.61-.09,10.71,2.44,15.34,5.62,1.91,1.31,3.73,2.77,5.64,4.21-1.14,.9-2.38,1.27-3.99-.44-1.62-1.71-3.5-3.3-5.55-4.43-4.37-2.41-9.09-3.87-14.17-3.91-1.66-.01-3.1-.24-4.27-1.89-1.92-2.73-4.26-5.16-6.38-7.75-.68-.82-1.57-1.66-1.8-2.62-.96-4.01-3.98-4.97-7.42-5.28-1.99-.17-3.23-.92-3.68-2.96-.39-1.78-1.49-2.96-3.43-2.99-2.46-.04-4.92-.01-8.03-.01,.76,1.59,1.25,2.8,1.89,3.92,3.17,5.48,7.47,9.79,13.45,12.12,1.75,.68,3.67,1.07,5.54,1.23,1.8,.15,2.68,1.08,3.22,2.58,.31,.85,.63,1.71,.82,2.59,.54,2.6,2.02,4.1,4.64,4.82,4.37,1.2,8.68,2.63,12.97,4.08,1.3,.44,2.46,1.3,3.7,1.92,.89,.45,1.81,1.16,2.73,1.18,4.87,.12,9.75,.07,14.63,.05,.59,0,1.18-.16,2.09-.29-1.15-1.3-1.91-2.48-2.96-3.29-16.92-13.11-33.87-26.18-50.84-39.23-.68-.53-1.59-1.06-2.4-1.07-6.77-.09-13.54-.08-20.31-.02-.74,0-1.57,.44-2.21,.89-18.33,12.96-36.66,25.93-54.94,38.98-.89,.63-1.29,1.94-1.92,2.93,1.13,.44,2.26,1.27,3.39,1.28,36.29,.07,72.59,.06,108.88,.06,.8,0,1.6,0,2.39,0Zm22.86-104.09c-.23-.94-.25-2.01-.77-2.71-.26-.34-1.46,.12-2.22,.05-1.84-.18-3.7-.32-5.51-.71-5.52-1.19-10.98-3.23-16.54-3.55-6.75-.39-13.58,.63-20.38,1.07-.72,.05-1.42,.3-2.13,.45,.03-.12,.06-.25,.09-.37,15.6,1.89,31.21,3.79,47.46,5.76Zm-84.97-3.69c-14.84-.06-29.73,.07-44.51,2.4,14.84-.8,29.67-1.6,44.51-2.4Z"/>
  <path d="M163.98,201.35c-2.97-1.37-6-2.63-8.88-4.17-.79-.42-1.15-1.66-1.71-2.53,.82-.44,1.61-1.16,2.48-1.27,4.17-.54,8.35-.96,12.54-1.34,1.64-.15,2.09,.86,1.5,2.23-.87,2.02-1.88,3.98-2.95,6.2,4.82-.44,9.52-.87,14.42-1.32,.51,3.74-3.52,3.85-4.62,6.31h6.38c0-2.89-.1-5.6,.03-8.3,.13-2.64,2.11-4.23,3.92-3.42,2.03,.91,4.08,1.77,6.17,2.54,.51,.19,1.38,.15,1.76-.17,3.28-2.72,7-2.56,10.8-1.77,1.78,.36,3.27,.54,2.8-2.39,.86,.51,1.38,.81,2.08,1.23,.06-.65,.12-1.22,.18-1.8-5.72,.06-11.4,4.35-17-.11h-11.26l.06,.07c-.03-.49,0-1-.1-1.48-1.1-4.99,1.33-6.46,6.99-7.62,1.72-.35,3.39-.9,5.33-1.42,0-.03,.14,.55,.38,1.51h11.47c-.59-.73-1.05-1.32-1.74-2.17,5.01,.33,5.67,1.01,5.58,5.2-.03,1.4,0,2.8,.35,4.14,.61-2.76,1.29-5.5,1.76-8.29,.12-.7-.39-1.55-.74-2.27-1.2-2.53-2.48-5.02-3.67-7.55-.23-.49-.2-1.11,.24-1.88,.3,.31,.68,.58,.87,.95,1.35,2.64,2.7,5.28,3.97,7.96,.41,.87,.92,1.89,.81,2.78-.86,7.09-1.81,14.18-2.82,21.25-.46,3.26-1.37,4.3-4.56,4.51-4.52,.3-9.06,.23-13.59,.33-.98,.02-1.96,.18-2.93,.15-2.19-.06-4.38-.33-6.56-.28-3.73,.09-7.58-1.05-11.17,.95-.42,.24-1.06,.17-1.59,.11-1.99-.24-3.98-.72-5.97-.77-4.71-.11-9.42-.1-14.13,0-16.61,.32-33.21,.76-49.82,1.02-9.88,.15-19.76-.01-29.64,.07-4.62,.04-9.25,.24-13.86,.56-.88,.06-1.69,1.04-2.75,1.74-.16-.28-.47-.85-.73-1.32h-11.99c-.24-1.97-.2-3.7-.69-5.27-1.38-4.42-.32-8.68,.58-12.94,.63-2.98,1.31-5.97,2.29-8.85,.31-.91,1.54-1.94,2.51-2.14,4.19-.83,8.43-1.43,12.67-2,1.82-.24,3.59-.34,4.24-3.02,.51,1,.78,1.53,1.14,2.26,5.69-.79,11.69-.24,17.65-2.69,.45,.09,1.47,.52,2.44,.44,3.29-.27,6.56-.78,9.85-1.08,2.33-.22,4.59-.39,4.86-3.83l.68,.57v2.62c3.25-.89,6.96,.87,9.39-2.32,2.78,2.82,6.08,.1,9.01,1.18,.35-1.09,.58-1.81,1-3.13,.58,1.16,.91,1.8,1.23,2.43,7.92,.51,17.08-.37,17.78-1.39,1.7,.32,3.22,.85,4.73,.84,12.07-.07,24.14,.03,36.19-.49,6.56-.28,13.07-1.79,19.63-2.45,2.04-.21,4.17,.55,6.26,.87-.04,.21-.07,.43-.11,.64-4.12,.36-8.25,.73-12.43,1.1-.4,3.04-.63,5.56-1.11,8.03-.12,.64-.95,1.51-1.58,1.62-2.9,.52-5.83,.91-8.76,1.15-1.39,.11-1.5-.91-1.19-2.06,.32-1.19,.63-2.4,.72-3.61,.05-.64-.38-1.32-.79-1.9-.51,4.99-1.57,5.84-7.15,5.61-3.91-.16-4.05-.39-3.9-6.4-1.05,.12-2.07,.23-3.22,.36,.27,1.03,.75,1.89,.66,2.68-.19,1.74-.31,4.7-1.09,4.92-2.34,.66-5.06,.59-7.49,.12-1.72-.33-1.96-2.23-1.49-3.94,.26-.94,.48-1.9,.8-3.16-2.91,.2-5.81,.38-8.69,.61-3.62,.29-7.25,.59-10.86,.99-.72,.08-1.39,.62-2.08,.94-.35,.16-.76,.5-1.05,.42-5.62-1.68-11.07,.65-16.62,.65-.74,0-1.47,.23-2.21,.3-3.62,.34-5.41,2.43-5.26,6.15,.11,2.83-.94,4.13-3.75,4.27-1.8,.09-3.64,.04-5.43-.2-4.54-.62-6.04-4.16-3.19-8.3-8.26,1.47-16.21,2.89-24.09,4.29,.08,2.05,.2,3.46,1.77,2.96-.5,2.16-.66,4.57-1.66,6.56-.62,1.23-2.45,1.95-3.87,2.62-.76,.36-1.79,.18-2.7,.15-1.19-.04-2.89,.29-3.44-.35-1.12-1.3-.03-5.42,1.35-6.45-.41-.87-.66-1.9-1.28-2.61-.77-.86-1.79-1.28-2.51,.26-2.95,6.36-4.27,13.17-5.71,19.81h23.03c-.05-.64-.06-.84-.08-1.04-.67-6-.38-5.44,4.57-5.7,.83-.04,1.66-.21,2.49-.32-.02-.24-.04-.48-.05-.72-1.31,.08-2.62,.15-3.92,.24-3.45,.22-3.7,0-3.72-3.37,0-.48,.06-.96,.13-2.14,2.66,.58,5.11,1.12,7.62,1.67,.22-.47,.54-1.18,.87-1.88,.19,0,.37-.01,.56-.02,.21,1.2,.44,2.39,.63,3.59,.34,2.15,.59,4.32,1.01,6.46,.31,1.58,.17,2.69-1.79,2.83h8.23c-.14-1.54-.53-3.04-.3-4.44,.15-.88,1.23-2.25,1.93-2.28,3.28-.11,6.61-.02,9.87,.38,2.57,.32,3.95,4.43,2.64,5.85h28.57c-1.5-1.58-2.61-2.7-3.64-3.87-1.07-1.23-1.19-2.23,.81-2.51,3.33-.46,6.64-1.06,9.98-1.27,.88-.05,1.95,1.02,2.65,1.83,.16,.18-.73,1.66-1.42,2.1-1.8,1.15-3.75,2.06-5.79,3.15h13.24c-1.21-3.26,.87-4.68,3.53-5.63,.36-.13,1.28,.32,1.27,.34-.59,2.49,5.74,1.56,2.25,5.37h6.54c-.85-1.4-1.61-2.67-2.41-3.99-.56,.22-1.24,.49-1.93,.76-.12-.15-.24-.3-.36-.45,.29-.32,.58-.63,.88-.95,1.61-2.4,3.21-4.81,4.82-7.21-.19-.26-.38-.52-.56-.78-4.28,.48-8.56,.96-12.84,1.43-.04,.33-.09,.66-.13,.99,2.3,1.21,4.63,2.37,6.87,3.68,.73,.43,1.24,1.25,1.85,1.89Zm-115.11-9.93c.08,.19,.16,.38,.24,.56,3.79-1.9,6.25-1.51,6.19,.65-1.41,0-3.04-.46-4.16,.11-1.72,.87-3.05,1.33-4.26-.27-.53,1.61-1.03,3.09-1.55,4.67,4.27,1.2,8.05-.99,12.02-1.79,.2-.04,.37-.52,.45-.83,.63-2.36,1.23-4.72,1.83-7.07-5.03-1.41-10.09,2.43-14.72-1.42-.58,2.16-1.03,3.85-1.44,5.39h5.41Zm8.17,5.38c-4.94,1.73-9.69,2.86-15.3,1.03,.79,3.9,1.45,7.13,2.08,10.19,3.33,0,6.46,.09,9.57-.08,.57-.03,1.38-1.04,1.56-1.74,.77-2.94,1.34-5.94,2.09-9.4Zm152.42-.71c-2.36-.25-4.46-.42-6.54-.69-5.39-.7-7.44,1.17-7.47,6.52-.01,2.25,.9,2.75,2.87,2.3,2.95-.67,5.93-1.24,8.87-1.95,.63-.15,1.55-.64,1.65-1.12,.37-1.73,.46-3.53,.63-5.06Zm-.43-5.67v-6.57c-2.31-.12-4.45-.32-6.59-.32-5.06,0-7.11,1.68-6.97,5.59,.06,1.62,.66,2.75,2.52,2.55,3.58-.39,7.16-.81,11.04-1.26Zm-125.92-13.58c-.28,4.19,0,4.42,3.89,3.55,.47-.11,.97-.06,1.45-.12,3.24-.43,6.48-.87,9.66-1.3v-3.92c-5.1,.61-9.99,1.19-15,1.79Zm98.99,3.76c2.41-.4,4.76-.69,7.05-1.23,.56-.13,1.18-1.03,1.33-1.67,.37-1.66,.48-3.38,.78-5.71-2.73,.45-5.41,.85-8.07,1.38-.33,.07-.69,.82-.73,1.28-.17,1.79-.22,3.59-.35,5.95Zm-72.82,.95c-2.89,.16-5.55,.25-8.19,.47-.94,.08-1.85,.48-2.77,.73,.39,1.26,.6,3.5,1.21,3.61,2.76,.52,5.71,.91,8.42,.42,2.39-.43,.69-3.14,1.32-4.71,.08-.2,.01-.45,.01-.52Zm3.1-4.29c6.3-.65,12.5-1.29,18.71-1.93,.11-.27,.21-.55,.32-.82-1.07-.57-2.12-1.54-3.22-1.61-2.15-.15-4.33,.21-7.2,.41,1.13,.68,1.62,.97,2.25,1.35-1.2,1.38-2.03,.99-2.95,0-.5-.54-1.21-1.27-1.81-1.25-2.51,.05-5.01,.35-7.74,.57,.63,1.25,1.13,2.25,1.65,3.29Zm-15.04,30.24c4.06-.71,7.83-1.37,11.83-2.06-.83-1.54-1.29-2.4-1.79-3.31-3.46-.24-6.92-.48-10.83-.75,.29,2.23,.5,3.88,.79,6.12Zm95.21-17.6v-6.2c-6.17-.54-9.11,1.69-8.29,6.58,2.69-.12,5.41-.25,8.29-.38Zm-121.93-11.38c.54,1.89,1.02,3.54,1.5,5.24,3.42-.91,6.49-1.72,9.68-2.57-.17-1.37-.33-2.62-.51-4.02-3.52,.44-6.77,.85-10.67,1.34Zm-12.95,7.06c2.75,.04,4.19-2.1,4.16-6.21-2.35,.35-4.71,.65-7.04,1.06-3.65,.65-3.73,.77-3.95,4.6,2.37,.08,4.9,.93,6.98-1.43-.05,.66-.1,1.32-.15,1.98Zm74.25-12.96c-.08,.35-.17,.69-.25,1.04,1.15,.41,2.33,1.23,3.46,1.16,5.1-.29,10.18-.84,15.27-1.26,4.08-.34,8.16-.63,12.27-.95h-30.75Zm-69.92,12.82c2.93-.58,5.51-1.09,8.14-1.6-.35-2.06-.61-3.57-.87-5.04q-5.58-.16-7.27,6.64Zm37.82-6.64c3.76-.48,7.23-.92,10.7-1.36,.11-.22,.22-.43,.32-.65-.92-.86-1.81-2.41-2.78-2.46-2.73-.15-5.5,.32-8.24,.54v3.92Zm79.16,22.53c-.06-.17-.13-.34-.19-.51-3.8,.37-7.61,.74-11.55,1.12,2.88,5.1,4.5,5.39,8.73,1.84,.99-.83,2.01-1.63,3.02-2.45Zm-13.74-25.55c-1.85-.18-3.39-.33-4.94-.47-2.23-.2-2.19,1.54-2.41,2.95-.26,1.66,.9,2.21,2.22,2.23,1.6,.02,3.2-.22,4.89-.35,.08-1.51,.14-2.8,.23-4.37Zm-92.5,14.67c-2.39,.37-4.77,.73-7.15,1.1v4.03c1.17-.14,2.21-.33,3.26-.39,3.86-.21,4.35-.79,3.89-4.73Zm98.04-12.19c2,0,3.87,.28,5.57-.12,.86-.2,1.43-1.65,2.13-2.54-.73-.43-1.43-1.16-2.2-1.24-1.78-.19-3.59-.06-5.5-.06v3.95Zm-82.87,26.63c-.36-1.1-.69-2.12-1-3.06-2.3,.18-4.31,.34-6.82,.55,.32,1.37,.23,2.95,.97,3.61,.62,.55,2.22,.1,3.35-.09,1.11-.19,2.17-.61,3.5-1Zm58.26-3.55c-3.58-1.9-6.78-1.02-10.16,.27,3.04,3.65,4.2,3.61,10.16-.27Zm63.62,2.62c-.13-.29-.25-.59-.38-.88-3.41,.81-6.83,1.61-10.24,2.44-3.85,.93-5.04,.05-5.14-3.84-.01-.49-.07-.98-.12-1.62-.93,.24-1.76,.45-2.39,.61,.57,1.33,1.05,2.62,1.67,3.84,.29,.57,.84,1.45,1.25,1.44,4.35-.1,8.71-.28,13.05-.61,.8-.06,1.54-.9,2.3-1.38Zm-25.36-3.41c3.2-.72,6.05-1.36,8.91-2,0-.22-.01-.44-.02-.66-2.62-.79-5.23-1.57-8.39-2.52-.17,1.73-.33,3.42-.49,5.18Zm-111.68-11.71c.15-.18,.31-.37,.46-.55-.19-.91-.38-1.82-.63-3.05-2.39,.55-4.52,1.04-6.78,1.56,1.74,4.46,4.83,.82,6.95,2.04Zm112.45,16.6h6.55c-.27-1.05-.48-1.86-.53-2.02-2.32-.11-4.23-.21-6.3-.31,.11,.9,.19,1.59,.28,2.33Zm-135.25-24.02c-4.24,.05-4.3,.1-4.49,3.42,1.03,.31,2.09,.63,3.36,1.02,.4-1.59,.74-2.92,1.13-4.44Zm110.72,23.34c-1.05-.87-1.64-1.61-2.41-1.92-.68-.27-1.7-.3-2.28,.04-.4,.23-.43,1.3-.4,1.98,.02,.34,.62,.96,.87,.92,1.31-.22,2.59-.61,4.22-1.03Zm-74.22-6.79c-2.34-.79-4.3-1.46-6.45-2.19q.06,2.72,6.45,2.19Zm14.59-18.05c3.49,1.66,6.59-.41,9.83-1.16-3.28,.39-6.55,.77-9.83,1.16Z"/>
  <path d="M132.69,86.74v-3.43c.22-.03,.43-.07,.65-.1,.26,.86,.51,1.72,.98,3.28,10.42-3.17,20.06-7.53,27.52-15.92-1.96,1.38-3.85,2.87-5.9,4.11-1.96,1.18-3.99,2.35-6.14,3.06-2.12,.7-3.73-.82-3.2-2.98,.69-2.87,1.72-5.66,2.78-8.42,.16-.41,1.27-.46,1.74-.61-1.09,3.05-2.21,5.88-3.08,8.79-.5,1.65,.41,2.43,2.05,1.79,1.45-.57,2.91-1.21,4.17-2.1,3.91-2.76,7.72-5.67,11.61-8.47,.52-.38,1.27-.45,1.92-.66-.04,.75,.05,1.54-.17,2.23-.19,.59-.7,1.12-1.14,1.6-8.63,9.23-19.28,15.09-30.56,18.61-.34,2.13-.05,4.44-1.06,5.78-2.2,2.9-4.78,5.7-7.73,7.81-3.05,2.19-5.64,.45-5.19-3.31,.35-2.89,1.05-5.85,2.27-8.46,.54-1.16,2.68-1.73,4.2-2.22,1.22-.39,2.6-.25,4.29-.37Zm-2.42,3.52c-.02,.18-.03,.36-.05,.54-.51,.06-1.06,.25-1.54,.15-3-.62-4.1,0-4.87,2.99-.32,1.27-.52,2.58-.61,3.89-.18,2.57,1.12,3.49,3.31,2.05,2.1-1.37,4.15-3.05,5.67-5.01,1.15-1.48,2.45-4.1,1.87-5.37-.97-2.12-3.7-1.32-5.8-.9-.04,0-.06,.11-.17,.29,.72,.45,1.45,.91,2.19,1.37Z"/>
  <path d="M89.26,62.94h-8.43c0-.31-.02-.63-.03-.94,3.59-.19,7.18-.38,10.97-.58-.08,.56,0,1.07-.22,1.29-4.41,4.43-8.85,8.83-13.29,13.23-.17,.17-.41,.28-.62,.41-5.19,3.32-9.73,3.52-12.74,.56-3.86-3.8-4.83-10.49-1.44-15,2.43-3.24,5.65-5.99,8.85-8.52,2.33-1.85,5.08-.99,7.54,.15,0,.26-.01,.52-.02,.78-.83-.04-1.67-.12-2.5-.12-1.2,0-2.69-.42-3.56,.14-4.53,2.89-9.07,5.96-10.49,11.6-.44,1.75-.44,3.84,.07,5.56,1.76,5.95,6.3,7.67,11.78,4.76,5.68-3.01,9.7-7.76,14.12-13.31Z"/>
  <path d="M130.61,190.15c-.58,.18-1.16,.44-1.75,.53-2.11,.34-4.23,.8-6.36,.88-3.18,.12-4.2,1.89-4.14,5.27,1.13,0,2.3,.11,3.45-.03,1.88-.22,3.78-.45,5.59-.96,4.57-1.28,5.77-4.17,3.96-8.8,.68,.54,1.66,.93,1.99,1.64,.67,1.42-.73,6.68-1.71,7.12-1.32,.59-2.67,1.12-4.56,1.9,.85,.15,1.12,.2,1.38,.24,1.18,.2,2.36,.41,3.54,.61-.68,1.41-1.02,3.6-2.1,4.06-2.57,1.09-5.48,1.77-8.28,1.85-3.09,.08-4.79-3.62-3.1-6.15-2.56-.92-1.64-2.81-1.24-4.55,.37-1.6,.56-3.13,2.94-3.22,2.69-.1,5.36-.83,8.05-1.24,.73-.11,1.48-.02,2.23-.02,.04,.28,.09,.57,.13,.85Zm-.44,8.9c-2.32,.65-4.38,1.23-6.55,1.84v-2.87c-1.88,.83-3.36,1.47-4.89,2.15,1.7,3.09,3.99,3.46,6.44,2.79,2-.54,4.63-.48,5-3.9Z"/>
  <path d="M122.07,187.17c-3.43,1.55-4.68-2.38-6.99-4.11-.84-.62-1.04-2.1,.64-2.38,5.84-1,11.69-1.93,17.54-2.85,1.18-.18,1.53,.35,1.39,1.61-.51,4.68-3.58,7.41-8.95,7.72-.99,.06-1.98,0-3.62,0Zm11.05-7.57c-5.21,.82-10.06,1.59-14.91,2.36-.06,.27-.12,.55-.18,.82,1.07,.35,2.55,.37,3.15,1.1,1.94,2.4,3.81,.77,5.68,.21,1.81-.55,3.56-1.28,5.76-2.08,.08-.39,.28-1.32,.51-2.4Z"/>
  <path d="M107.14,73.3q-.81-.93,.37-5.75c-2.34,1.72-4.55,3.54-6.96,5.04-1.49,.93-3.25,1.65-4.98,1.93-2.1,.33-3.37-1.23-3.2-3.36,.22-2.79,4.06-7.12,6.87-7.39,1.11-.11,2.44,.34,3.44,.92,3.42,2.01,3.59,2.03,6.08-.96,.67-.81,1.45-1.52,2.18-2.28,.27,.18,.53,.35,.8,.53-1.53,3.77-3.06,7.54-4.6,11.32Zm-1.79-5.55c-1.63-.9-2.71-1.64-3.9-2.11-.78-.31-2.03-.63-2.52-.24-1.7,1.35-3.3,2.89-4.65,4.59-.45,.56-.4,2.15,.07,2.63,.49,.5,1.98,.63,2.67,.25,2.78-1.52,5.42-3.3,8.33-5.12Z"/>
  <path d="M137.34,180.01c.16,1.87,.34,3.96,.56,6.41,4.99-.4,9.71-.78,14-1.12,0-2.5,.06-4.67-.04-6.84-.02-.52-.48-1.06-.86-1.5-.39-.45-.93-.78-1.83-1.51,3.78,.09,4.71,.93,4.1,3.49-.56,2.36-.16,4.36,1.87,6.48-1.15,.48-2.03,1.1-2.96,1.19-4.34,.44-8.7,.69-13.05,1.11-1.83,.17-2.59-.65-2.74-2.33-.04-.41-.13-.81-.18-1.22-.6-5.78-.82-6.9,5.21-5.78,2.32,.43,4.88-.5,7.34-.69,.64-.05,1.31,.33,1.97,.51-.55,.32-1.08,.87-1.66,.93-3.75,.34-7.5,.57-11.73,.87Z"/>
  <path d="M124.08,59.95c.83,3.54,5.2,2.03,6.75,4.46-.09,.25-.18,.49-.26,.74-1.21-.39-2.42-.74-3.61-1.17-4.28-1.55-4.24-1.55-6.29,2.38-1.41,2.7-2.93,5.34-4.36,8.03-.27,.5-.33,1.11-.49,1.66-.4-.26-.8-.52-1.19-.79,0-1.16-.29-2.41,.05-3.46,1.07-3.28,2.33-6.5,3.66-9.68,.27-.64,1.09-1.25,1.79-1.47,1.25-.39,2.61-.48,3.97-.7Zm-2.96,2.44c-.33-.17-.67-.33-1-.5-1.06,2.3-2.13,4.61-3.19,6.91l.64,.32c1.18-2.24,2.37-4.49,3.55-6.73Z"/>
  <path d="M100.33,198.85c-3.72-.1-4.52-.88-5.03-3.67-.46-2.57,1.47-3.43,3.18-3.95,2.33-.7,4.82-.84,7.25-1.23,2.58-.41,3.32,1.22,3.56,3.29,.23,1.97,.36,3.69-2.56,3.96-2.49,.23-4.91,1.21-6.41,1.6Zm7.08-6.9c-2.31,.25-3.93,.46-5.56,.58-.73,.05-1.52-.25-2.21-.07-1.39,.36-3.07,.62-2.83,2.71,.23,2.03,1.56,2.61,3.35,2.2,2.62-.59,5.2-1.32,8.06-2.06-.34-1.42-.64-2.63-.81-3.36Z"/>
  <path d="M148.71,66.89c-1.66-.56-3.39-.95-4.95-1.71-2.21-1.08-3.68-.55-4.96,1.44-1.91,2.98-3.91,5.9-5.91,8.81-.46,.67-1.12,1.21-1.69,1.81-.16-.15-.33-.31-.49-.46,2.73-5.56,5.47-11.12,8.2-16.68,.22,.08,.44,.16,.67,.25-.39,1.24-.78,2.48-1.24,3.94,2.75-1.68,8.11-.58,10.37,2.6Z"/>
  <path d="M151.27,191.5c-.44,.13-.88,.38-1.32,.37-1.64-.03-2.11,1-1.74,2.24,.63,2.12-.53,2.32-2.12,2.54-1.77,.25-3.52,.7-5.26,1.14-2.57,.65-6.07-2.01-5.91-4.66,.03-.49,.67-1.15,1.18-1.35,1.37-.52,2.81-1.09,4.24-1.16,3.28-.17,6.58-.06,9.87-.03,.35,0,.7,.2,1.06,.31,0,.2,0,.39,0,.59Zm-4.64,.69c-3.4,.24-6.82-1.16-9.85,1.09,1.25,3.41,1.73,3.68,4.83,2.84,1.64-.44,3.27-.88,5.02-1.34v-2.59Z"/>
  <path d="M161.99,82.5c2.08-.89,4.24-1.63,6.22-2.71,3.32-1.82,3.61-2.67,2.83-6.39-1.01-4.81,5.04-11.4,9.93-10.73,.56,.08,1.04,.75,1.56,1.15-.57,.14-1.18,.5-1.7,.4-3.94-.76-9.28,5.01-8.35,9.11,.51,2.24,.88,4.45-1.26,6.11-2.69,2.09-5.56,3.75-9.01,3.82-.07-.25-.15-.5-.22-.75Z"/>
  <path d="M167.35,186.26c.51-1.16,1.03-2.35,1.55-3.54,.26,.09,.52,.17,.78,.26,0,2.04-.02,4.09,0,6.13,.02,1.9-1.34,2.4-2.77,2.51-2.05,.16-4.13,.08-6.19,.03-.45,0-1.3-.31-1.29-.45,.08-1.97-.03-4.03,.55-5.86,.49-1.57,2.15-2.03,3.73-1.25,1.31,.64,2.52,1.5,3.64,2.18Zm.95,3.62c-.89-.97-1.38-1.77-2.09-2.24-1.32-.88-2.76-1.57-4.15-2.34-.59,1.38-1.19,2.75-1.75,4.14-.07,.16,.11,.42,.12,.45h7.87Z"/>
  <path d="M90.91,182.27c-.23,2.4-.68,4.33-.51,6.21,.14,1.57-.31,2.01-1.7,2.28-1.68,.32-3.29,1.06-4.98,1.3-1.1,.16-3.09,.06-3.28-.45-.52-1.39-.96-3.58-.23-4.49,1.41-1.77,2.73-4.46,6.03-3.45,.68,.21,1.64-.62,2.49-.88,.87-.27,1.76-.42,2.17-.52Zm-2.19,2.35q-7.92,2.22-6.99,6.44c2.34-.63,4.67-1.26,6.99-1.89v-4.54Z"/>
  <path d="M182.62,191.27c-.14,.95-.17,1.94-.49,2.82-.11,.3-1.1,.62-1.45,.45-3.05-1.51-6.17-1.71-9.41-.79-.09,.03-.25-.18-.7-.52,.75-.71,1.5-1.34,2.14-2.06,1.65-1.83,3.19-3.76,4.89-5.53,.51-.53,1.48-1,2.11-.87,.44,.1,.67,1.25,.97,1.94,.67,1.54,1.33,3.08,1.99,4.62,0,0-.06-.07-.06-.07Zm-1.51,1.32c-.8-2.1-1.52-4.02-2.35-6.22-1.45,1.77-2.78,3.4-4.33,5.29,2.45,.34,4.44,.62,6.68,.93Z"/>
  <path d="M195.55,173.36c2.02-.7,3.95-1.45,5.93-2.02,1.67-.48,3.5,.74,3.9,2.54,.41,1.86,0,3.28-2.25,3.52-.55,.06-1.08,.38-1.62,.58-4.66,1.7-6.36,.34-5.96-4.61Zm8.65,2.15c-.08-.37-.16-.73-.23-1.1h-6.93c-.16,1.4-.05,2.95,1.76,2.76,1.84-.2,3.61-1.08,5.4-1.66Z"/>
  <path d="M62.8,206.19c-.42-1.96-1.01-3.63-1.07-5.31-.05-1.28,.43-2.73,2.42-1.91,.67,.28,1.57,.68,2.12,.45,3.11-1.27,4.38,1.19,5.98,2.87,.23,.24-.07,1.55-.33,1.63-2.96,.82-5.96,1.5-9.13,2.26Zm.99-1.67c2.29-.62,4.2-1.14,6.19-1.69-1.01-2.09-3.75-2.62-6.54-1.57,.09,.84,.18,1.72,.35,3.26Z"/>
  <path d="M171.2,152.5c-.8,0-1.6,0-2.39,0-36.29,0-72.59,.01-108.88-.06-1.13,0-2.26-.83-3.39-1.28,.63-.99,1.04-2.3,1.92-2.93,18.27-13.05,36.6-26.02,54.94-38.98,.64-.45,1.47-.89,2.21-.89,6.77-.07,13.54-.07,20.31,.02,.81,.01,1.72,.55,2.4,1.07,16.97,13.05,33.92,26.12,50.84,39.23,1.05,.81,1.81,1.99,2.96,3.29-.91,.13-1.5,.28-2.09,.29-4.88,.02-9.76,.07-14.63-.05-.92-.02-1.84-.73-2.73-1.18-1.24-.62-2.4-1.48-3.7-1.92-4.29-1.45-8.6-2.87-12.97-4.08-2.62-.72-4.1-2.22-4.64-4.82-.18-.88-.51-1.74-.82-2.59-.55-1.5-1.43-2.42-3.22-2.58-1.87-.16-3.79-.55-5.54-1.23-5.98-2.33-10.28-6.64-13.45-12.12-.65-1.11-1.13-2.32-1.89-3.92,3.12,0,5.57-.03,8.03,.01,1.94,.03,3.05,1.21,3.43,2.99,.44,2.04,1.69,2.79,3.68,2.96,3.44,.3,6.47,1.27,7.42,5.28,.23,.96,1.13,1.8,1.8,2.62,2.13,2.59,4.46,5.02,6.38,7.75,1.16,1.65,2.61,1.88,4.27,1.89,5.08,.03,9.79,1.5,14.17,3.91,2.05,1.13,3.93,2.72,5.55,4.43,1.62,1.71,2.85,1.34,3.99,.44-1.91-1.43-3.72-2.9-5.64-4.21-4.63-3.17-9.73-5.71-15.34-5.62-4.49,.07-6.33-2.53-8.46-5.46-1-1.38-2.3-2.53-3.43-3.82-.7-.8-1.68-1.57-1.92-2.51-1.11-4.4-4.42-5.73-8.32-6.11-1.68-.16-2.51-.76-2.91-2.37-.62-2.52-2.45-3.59-4.95-3.64-1.32-.02-2.65-.07-3.97,0-2.75,.17-5.27,.02-6.8-2.86-.32-.61-1.37-.84-2.08-1.24-.17,.21-.35,.42-.52,.63,1.53,1.65,3.06,3.3,4.48,4.84-.76,1.52-1.47,3.16-2.37,4.68-.37,.62-1.07,1.21-1.75,1.44-2.03,.69-4.09,1.52-6.18,1.7-2.93,.25-4.26,1.64-4.48,4.43-.08,.97-.34,1.93-.57,3.18-5.75-.29-9.69,3.32-13.64,6.84-2.76,2.46-5.61,3.71-9.16,1.72-.33-.18-.86-.28-1.19-.15-4.54,1.75-9.05,3.54-13.58,5.33,.1,.35,.2,.7,.3,1.05,.83-.15,1.72-.16,2.47-.48,2.89-1.22,5.68-2.69,8.62-3.76,1.18-.43,2.7-.32,3.96-.01,3.06,.74,5.79,.62,8.32-1.56,2.37-2.04,4.79-4.1,7.46-5.71,1.68-1.01,3.82-1.38,5.81-1.74,1.53-.28,2.41-.71,2.37-2.46-.02-1.13,.18-2.34,.63-3.37,.3-.68,1.11-1.34,1.84-1.59,1.63-.56,3.35-.84,5.03-1.25,2.64-.65,5.46-1.08,5.72-4.68,.02-.25,.38-.47,.98-1.16,.26,.54,.46,.9,.62,1.28,2.09,5,6.1,8.46,10.23,11.54,2.26,1.68,5.37,2.52,8.23,3,2.96,.5,4.57,1.68,5.03,4.65,.53,3.44,2.77,5.1,6.07,5.96,4.22,1.1,8.35,2.57,12.5,3.93,.99,.32,1.9,.86,2.85,1.29-.06,.24-.12,.47-.18,.71Zm-47.24-19.37c3.07,1.36,5.63,2.39,8.09,3.63,.96,.48,2.19,1.27,2.46,2.17,1.04,3.48,3.59,4.34,6.74,4.66,1.86,.19,3.34,.92,3.94,3.08,.77,2.77,2.99,4.06,5.77,4.3,2.47,.21,4.95,.29,7.42,.35,.39,0,.8-.41,1.2-.63-2.9-.79-5.65-.96-8.4-1.15-2.28-.16-4.13-1.22-4.64-3.44-.65-2.85-2.74-3.79-5.05-3.9-3.35-.15-4.98-1.87-6.05-4.74-.27-.74-1.14-1.56-1.89-1.76-3.3-.87-6.48-1.84-8.39-5.18-.53,.41-.91,.7-1.28,1-2.28,1.86-4.44,3.88-6.87,5.53-2.16,1.47-4.67,2.42-6.93,3.77-7.74,4.65-15.49,9.2-25.02,8.77-.59-.03-1.2,.52-1.8,.79,5.11,1.1,13.3-.41,17.44-2.67,5.93-3.23,11.89-6.41,17.83-9.62,.35-.19,.7-.43,.99-.7,1.65-1.56,3.29-3.15,4.43-4.24Zm-63.59,17.36c2.93,1.04,3.66-.64,4.58-1.91,.37-.51,.5-1.35,.96-1.59,4.82-2.45,8.24-7.64,14.44-7.43,.46,.01,.97-.25,1.38-.5,3.49-2.17,6.97-4.36,10.44-6.56,1.11-.71,2.08-1.79,3.28-2.18,5.16-1.68,8.92-5.14,12.41-9.09,2.63-2.98,5.58-5.6,9.61-6.63,.65-.17,1.22-.69,1.82-1.05-.08-.2-.17-.4-.25-.6-.52,.05-1.05,.04-1.55,.15-4.83,1.11-8.06,4.48-11.45,7.78-2.8,2.73-6.04,5.02-9.22,7.32-1.97,1.43-4.29,2.38-6.29,3.77-4.32,3.01-8.47,6.28-14.07,6.62-.92,.06-1.87,.63-2.68,1.16-2.82,1.86-5.68,3.69-8.35,5.76-1.74,1.35-3.18,3.09-5.06,4.97Z" style="fill: #fff;"/>
  <path d="M194.06,48.41c-16.25-1.97-31.86-3.87-47.46-5.76-.03,.12-.06,.25-.09,.37,.71-.16,1.41-.41,2.13-.45,6.79-.44,13.63-1.46,20.38-1.07,5.56,.32,11.02,2.36,16.54,3.55,1.8,.39,3.67,.54,5.51,.71,.76,.07,1.96-.39,2.22-.05,.52,.7,.54,1.77,.77,2.71Z" style="fill: #fff;"/>
  <path d="M151.07,95.7c-.07,.6,0,1.25-.23,1.79-.66,1.6-1.47,3.13-2.17,4.72-1.41,3.22-2.67,3.93-6.18,3.09-.57-.14-1.21-1.02-1.38-1.67-.98-3.79,2.85-11.69,6.41-13.41,1.79-.87,2.58-.32,2.46,1.7-.06,.99-.19,1.99-.05,2.95,.05,.35,.8,.6,1.22,.89,0,0-.07-.06-.07-.06Z" style="fill: #fff;"/>
  <path d="M109.09,44.71c-14.84,.8-29.67,1.6-44.51,2.4,14.77-2.33,29.67-2.46,44.51-2.4Z" style="fill: #fff;"/>
  <path d="M48.88,191.42h-5.41c.41-1.54,.87-3.24,1.44-5.39,4.62,3.85,9.68,.01,14.72,1.42-.6,2.34-1.2,4.71-1.83,7.07-.08,.3-.25,.79-.45,.83-3.97,.81-7.75,2.99-12.02,1.79,.52-1.58,1.02-3.06,1.55-4.67,1.21,1.61,2.55,1.14,4.26,.27,1.12-.56,2.75-.11,4.16-.11,.06-2.16-2.4-2.55-6.19-.65-.08-.19-.16-.38-.24-.56Z" style="fill: #fff;"/>
  <path d="M57.04,196.8c-.75,3.46-1.32,6.46-2.09,9.4-.18,.69-.99,1.71-1.56,1.74-3.12,.17-6.25,.08-9.57,.08-.62-3.07-1.28-6.29-2.08-10.19,5.61,1.83,10.36,.71,15.3-1.03Zm-11.79,7.04c.16,1.02,.37,2.29,.66,4.13,1.57-2.29,2.79-4.07,4.03-5.88,.78,.89,1.36,1.55,1.93,2.21,.26-.18,.52-.37,.78-.55-.63-1.03-1.25-2.07-1.88-3.1-1,.61-1.99,1.25-3,1.84-.71,.42-1.46,.79-2.52,1.35Z" style="fill: #fff;"/>
  <path d="M209.46,196.09c-.17,1.53-.25,3.33-.63,5.06-.1,.48-1.02,.97-1.65,1.12-2.94,.71-5.91,1.28-8.87,1.95-1.97,.45-2.88-.05-2.87-2.3,.02-5.35,2.08-7.21,7.47-6.52,2.08,.27,4.18,.44,6.54,.69Z" style="fill: #fff;"/>
  <path d="M209.03,190.42c-3.89,.45-7.46,.88-11.04,1.26-1.86,.2-2.46-.93-2.52-2.55-.14-3.92,1.91-5.6,6.97-5.59,2.14,0,4.28,.2,6.59,.32v6.57Z" style="fill: #fff;"/>
  <path d="M83.11,176.84c5.01-.6,9.9-1.18,15-1.79v3.92c-3.18,.43-6.42,.87-9.66,1.3-.48,.06-.98,.01-1.45,.12-3.88,.87-4.16,.65-3.89-3.55Z" style="fill: #fff;"/>
  <path d="M182.1,180.61c.13-2.36,.18-4.16,.35-5.95,.04-.46,.41-1.21,.73-1.28,2.66-.53,5.35-.93,8.07-1.38-.3,2.33-.41,4.05-.78,5.71-.14,.64-.77,1.54-1.33,1.67-2.29,.54-4.64,.83-7.05,1.23Z" style="fill: #fff;"/>
  <path d="M109.28,181.56c0,.07,.07,.32-.01,.52-.63,1.57,1.07,4.27-1.32,4.71-2.71,.49-5.67,.09-8.42-.42-.61-.11-.82-2.35-1.21-3.61,.92-.25,1.83-.65,2.77-.73,2.64-.22,5.3-.31,8.19-.47Z" style="fill: #fff;"/>
  <path d="M112.38,177.27c-.53-1.04-1.03-2.04-1.65-3.29,2.73-.23,5.23-.52,7.74-.57,.6-.01,1.31,.72,1.81,1.25,.92,.99,1.75,1.38,2.95,0-.63-.38-1.12-.67-2.25-1.35,2.87-.2,5.05-.55,7.2-.41,1.11,.07,2.15,1.05,3.22,1.61-.11,.27-.21,.55-.32,.82-6.21,.64-12.41,1.28-18.71,1.93Z" style="fill: #fff;"/>
  <path d="M97.35,207.51c-.29-2.23-.5-3.89-.79-6.12,3.91,.27,7.38,.51,10.83,.75,.49,.91,.96,1.77,1.79,3.31-4,.7-7.77,1.35-11.83,2.06Z" style="fill: #fff;"/>
  <path d="M163.98,201.35c-.61-.64-1.11-1.46-1.85-1.89-2.24-1.31-4.57-2.46-6.87-3.68,.04-.33,.09-.66,.13-.99,4.28-.48,8.56-.96,12.84-1.43,.19,.26,.38,.52,.56,.78-1.61,2.4-3.21,4.81-4.82,7.21,0,0,0,0,0,0Z" style="fill: #fff;"/>
  <path d="M192.56,189.91c-2.88,.13-5.6,.25-8.29,.38-.82-4.89,2.12-7.12,8.29-6.58v6.2Z" style="fill: #fff;"/>
  <path d="M70.63,178.53c3.91-.49,7.16-.9,10.67-1.34,.18,1.39,.34,2.65,.51,4.02-3.19,.85-6.26,1.66-9.68,2.57-.49-1.7-.96-3.35-1.5-5.24Z" style="fill: #fff;"/>
  <path d="M57.68,185.59c.05-.66,.1-1.32,.15-1.98-2.08,2.36-4.62,1.52-6.98,1.43,.23-3.83,.3-3.96,3.95-4.6,2.33-.41,4.69-.71,7.04-1.06,.03,4.11-1.41,6.25-4.16,6.21Z" style="fill: #fff;"/>
  <path d="M131.93,172.63h30.75c-4.12,.32-8.2,.61-12.27,.95-5.09,.42-10.17,.97-15.27,1.26-1.13,.06-2.3-.75-3.46-1.16,.08-.35,.17-.69,.25-1.04Z" style="fill: #fff;"/>
  <path d="M62.01,185.45q1.7-6.81,7.27-6.64c.25,1.47,.51,2.99,.87,5.04-2.62,.52-5.21,1.03-8.14,1.6Z" style="fill: #fff;"/>
  <path d="M99.83,178.8v-3.92c2.75-.22,5.51-.69,8.24-.54,.97,.05,1.85,1.6,2.78,2.46-.11,.22-.22,.43-.32,.65-3.47,.44-6.94,.88-10.7,1.36Z" style="fill: #fff;"/>
  <path d="M178.99,201.33c-1.01,.82-2.02,1.62-3.02,2.45-4.23,3.55-5.85,3.26-8.73-1.84,3.95-.38,7.75-.75,11.55-1.12,.06,.17,.13,.34,.19,.51Z" style="fill: #fff;"/>
  <path d="M165.25,175.78c-.08,1.57-.15,2.86-.23,4.37-1.69,.13-3.3,.37-4.89,.35-1.32-.02-2.48-.57-2.22-2.23,.22-1.41,.17-3.15,2.41-2.95,1.54,.14,3.08,.29,4.94,.47Z" style="fill: #fff;"/>
  <path d="M72.75,190.46c.46,3.94-.03,4.52-3.89,4.73-1.05,.06-2.09,.25-3.26,.39v-4.03c2.38-.37,4.76-.73,7.15-1.1Z" style="fill: #fff;"/>
  <path d="M170.79,178.27v-3.95c1.91,0,3.72-.13,5.5,.06,.77,.08,1.47,.8,2.2,1.24-.7,.89-1.27,2.33-2.13,2.54-1.7,.4-3.57,.12-5.57,.12Z" style="fill: #fff;"/>
  <path d="M87.92,204.9c-1.33,.39-2.39,.82-3.5,1-1.13,.19-2.73,.64-3.35,.09-.74-.65-.65-2.24-.97-3.61,2.51-.2,4.52-.36,6.82-.55,.31,.94,.64,1.96,1,3.06Z" style="fill: #fff;"/>
  <path d="M146.18,201.35c-5.96,3.89-7.12,3.92-10.16,.27,3.38-1.29,6.58-2.17,10.16-.27Z" style="fill: #fff;"/>
  <path d="M209.81,203.97c-.77,.48-1.5,1.32-2.3,1.38-4.34,.33-8.69,.51-13.05,.61-.41,0-.96-.87-1.25-1.44-.61-1.22-1.1-2.51-1.67-3.84,.62-.16,1.46-.37,2.39-.61,.05,.64,.11,1.13,.12,1.62,.1,3.89,1.29,4.77,5.14,3.84,3.41-.83,6.83-1.63,10.24-2.44,.13,.29,.25,.59,.38,.88Z" style="fill: #fff;"/>
  <path d="M184.45,200.56c.17-1.76,.33-3.45,.49-5.18,3.16,.95,5.78,1.73,8.39,2.52,0,.22,.01,.44,.02,.66-2.86,.64-5.71,1.28-8.91,2Z" style="fill: #fff;"/>
  <path d="M72.77,188.85c-2.12-1.22-5.21,2.42-6.95-2.04,2.25-.52,4.39-1.01,6.78-1.56,.26,1.23,.44,2.14,.63,3.05-.15,.18-.31,.37-.46,.55Z" style="fill: #fff;"/>
  <path d="M185.22,205.45c-.09-.74-.17-1.44-.28-2.33,2.07,.1,3.98,.19,6.3,.31,.04,.17,.25,.98,.53,2.02h-6.55Z" style="fill: #fff;"/>
  <path d="M49.97,181.43c-.39,1.52-.73,2.85-1.13,4.44-1.27-.38-2.33-.71-3.36-1.02,.19-3.32,.25-3.37,4.49-3.42Z" style="fill: #fff;"/>
  <path d="M160.69,204.77c-1.63,.42-2.91,.81-4.22,1.03-.25,.04-.85-.58-.87-.92-.04-.68,0-1.75,.4-1.98,.59-.34,1.61-.31,2.28-.04,.77,.3,1.36,1.05,2.41,1.92Z" style="fill: #fff;"/>
  <path d="M86.47,197.98q-6.39,.53-6.45-2.19c2.15,.73,4.12,1.4,6.45,2.19Z" style="fill: #fff;"/>
  <path d="M101.07,179.93c3.28-.39,6.55-.77,9.83-1.16-3.24,.75-6.34,2.82-9.83,1.16Z" style="fill: #fff;"/>
  <path d="M130.27,90.26c-.73-.46-1.46-.91-2.19-1.37,.1-.19,.13-.29,.17-.29,2.1-.42,4.83-1.22,5.8,.9,.58,1.28-.72,3.89-1.87,5.37-1.52,1.97-3.57,3.64-5.67,5.01-2.19,1.43-3.49,.52-3.31-2.05,.09-1.31,.28-2.62,.61-3.89,.77-3,1.87-3.61,4.87-2.99,.48,.1,1.02-.09,1.54-.15,.02-.18,.03-.36,.05-.54Z" style="fill: #fff;"/>
  <path d="M130.17,199.05c-.38,3.43-3.01,3.36-5,3.9-2.44,.66-4.73,.29-6.44-2.79,1.53-.67,3.01-1.32,4.89-2.15v2.87c2.17-.61,4.23-1.19,6.55-1.84Z" style="fill: #fff;"/>
  <path d="M133.12,179.6c-.23,1.08-.43,2.01-.51,2.4-2.2,.81-3.95,1.54-5.76,2.08-1.87,.56-3.74,2.19-5.68-.21-.59-.73-2.07-.75-3.15-1.1,.06-.27,.12-.55,.18-.82,4.85-.77,9.7-1.53,14.91-2.36Z" style="fill: #fff;"/>
  <path d="M105.35,67.74c-2.91,1.82-5.55,3.6-8.33,5.12-.69,.38-2.18,.26-2.67-.25-.47-.48-.52-2.07-.07-2.63,1.35-1.7,2.95-3.24,4.65-4.59,.49-.39,1.74-.07,2.52,.24,1.19,.47,2.27,1.21,3.9,2.11Z" style="fill: #fff;"/>
  <path d="M121.11,62.39c-1.18,2.24-2.37,4.49-3.55,6.73l-.64-.32c1.06-2.3,2.13-4.61,3.19-6.91,.33,.17,.67,.33,1,.5Z" style="fill: #fff;"/>
  <path d="M107.41,191.95c.18,.73,.47,1.94,.81,3.36-2.86,.74-5.44,1.47-8.06,2.06-1.79,.41-3.12-.18-3.35-2.2-.24-2.09,1.44-2.34,2.83-2.71,.68-.18,1.47,.12,2.21,.07,1.63-.12,3.25-.33,5.56-.58Z" style="fill: #fff;"/>
  <path d="M146.63,192.19v2.59c-1.75,.47-3.39,.9-5.02,1.34-3.1,.84-3.58,.57-4.83-2.84,3.03-2.25,6.45-.86,9.85-1.09Z" style="fill: #fff;"/>
  <path d="M168.3,189.88h-7.87s-.19-.29-.12-.45c.56-1.39,1.16-2.76,1.75-4.14,1.39,.77,2.83,1.46,4.15,2.34,.71,.47,1.21,1.27,2.09,2.24Z" style="fill: #fff;"/>
  <path d="M88.72,184.62v4.54c-2.32,.63-4.65,1.26-6.99,1.89q-.92-4.22,6.99-6.44Z" style="fill: #fff;"/>
  <path d="M181.11,192.59c-2.24-.31-4.23-.59-6.68-.93,1.54-1.89,2.88-3.52,4.33-5.29,.83,2.2,1.56,4.11,2.35,6.22Z" style="fill: #fff;"/>
  <path d="M204.2,175.51c-1.8,.58-3.56,1.46-5.4,1.66-1.81,.19-1.92-1.36-1.76-2.76h6.93c.08,.37,.16,.73,.23,1.1Z" style="fill: #fff;"/>
  <path d="M63.79,204.52c-.16-1.53-.26-2.42-.35-3.26,2.79-1.05,5.53-.52,6.54,1.57-1.99,.54-3.9,1.06-6.19,1.69Z" style="fill: #fff;"/>
  <path d="M123.96,133.13c-1.14,1.1-2.78,2.68-4.43,4.24-.29,.28-.64,.51-.99,.7-5.94,3.21-11.9,6.38-17.83,9.62-4.14,2.26-12.33,3.77-17.44,2.67,.6-.28,1.22-.82,1.8-.79,9.53,.43,17.28-4.12,25.02-8.77,2.25-1.35,4.76-2.3,6.93-3.77,2.42-1.64,4.59-3.67,6.87-5.53,.37-.3,.75-.59,1.28-1,1.92,3.33,5.09,4.3,8.39,5.18,.75,.2,1.61,1.03,1.89,1.76,1.07,2.87,2.7,4.59,6.05,4.74,2.31,.1,4.39,1.04,5.05,3.9,.51,2.23,2.36,3.28,4.64,3.44,2.75,.19,5.51,.37,8.4,1.15-.4,.22-.8,.64-1.2,.63-2.48-.06-4.95-.14-7.42-.35-2.78-.23-4.99-1.53-5.77-4.3-.61-2.17-2.08-2.89-3.94-3.08-3.15-.32-5.71-1.18-6.74-4.66-.27-.9-1.49-1.68-2.46-2.17-2.46-1.23-5.02-2.27-8.09-3.63Z"/>
  <path d="M60.37,150.49c1.88-1.88,3.32-3.62,5.06-4.97,2.67-2.07,5.52-3.9,8.35-5.76,.81-.53,1.76-1.11,2.68-1.16,5.6-.34,9.74-3.61,14.07-6.62,2-1.39,4.32-2.35,6.29-3.77,3.18-2.3,6.42-4.6,9.22-7.32,3.39-3.31,6.62-6.68,11.45-7.78,.5-.12,1.03-.11,1.55-.15,.08,.2,.17,.4,.25,.6-.6,.36-1.17,.88-1.82,1.05-4.03,1.03-6.98,3.65-9.61,6.63-3.49,3.95-7.25,7.41-12.41,9.09-1.2,.39-2.17,1.47-3.28,2.18-3.47,2.21-6.95,4.39-10.44,6.56-.41,.25-.92,.52-1.38,.5-6.19-.2-9.61,4.98-14.44,7.43-.47,.24-.6,1.08-.96,1.59-.92,1.27-1.64,2.95-4.58,1.91Z"/>
  <path d="M45.25,203.84c1.06-.57,1.81-.93,2.52-1.35,1.01-.59,2-1.22,3-1.84,.63,1.03,1.25,2.07,1.88,3.1-.26,.18-.52,.37-.78,.55-.58-.66-1.15-1.32-1.93-2.21-1.24,1.81-2.46,3.59-4.03,5.88-.29-1.84-.5-3.11-.66-4.13Z"/>
</svg>