<?xml version="1.0" encoding="UTF-8"?>
<svg id="uuid-1968f9f4-3f76-42a3-8b43-c76d76f57fcd" data-name="Calque 1" xmlns="http://www.w3.org/2000/svg" width="250" height="250" viewBox="0 0 250 250">
  <path d="M38.8,167.05c1.49-.81,2.94-1.65,3.54-3.41-1.36,.6-2.53,1.43-3.62,2.36-.16,.13,.07,.72,.12,1.1-2.02,.68-3.13,2-2.9,4.15,.95-1.4,1.9-2.8,2.85-4.21Zm30.93,14.41c-.59-.67-1.13-1.38-1.77-2-.74-.73-1.57-1.37-2.43-2.12-.63,.61-.96,1.32,.31,1.99,1.31,.69,2.62,1.4,3.94,2.1,.96,1.06,2.24,1.53,3.35,.68,.74-.57,.97-1.81,1.43-2.75,.88-1.29,1.75-2.57,2.79-4.1-2.04,.23-3.05,2.08-2.71,4.16-1.33,1.14-2.67,2.23-4.61,1.84-.09-.02-.21,.15-.31,.22Zm-30.91-74.47c-2.92,1.2-5.05,3.09-5.64,6.35-2.14,1.51-2.48,5.12-.39,8.65,.42-3.17,.77-5.77,1.12-8.38,1.42-1.83,2.87-3.64,4.26-5.49,.29-.38,.4-.88,.6-1.33,1.5-.2,2.99-.41,4.49-.61-.04-.2-.09-.41-.13-.61-1.56,.01-3.21-.36-4.31,1.42Zm33,46.79c.36-.34,1.04-.68,1.04-1.03,.04-3.27-.02-6.55-.12-9.82,0-.32-.43-.62-.9-1.26,0,4.41,0,8.25,.02,12.1,.2,1.81,.4,3.61,.61,5.42,.27-.04,.54-.09,.8-.13-.49-1.76,.65-3.87-1.45-5.28Zm-2.07-27.96l.06,.05c-.41-.18-.84-.53-1.24-.5-1.45,.11-2.47-.1-3.13-1.72-.37-.91-1.65-1.46-2.52-2.17-.13,.16-.27,.32-.4,.47,.36,.44,.66,.94,1.08,1.31,1.63,1.42,2.21,3.15,1.77,5.26-.08,.39,.08,.82,.02,1.21-.54,3.13,1.7,6.55-1.5,9.64,2.5-.32,2.54-2.08,3.06-3.43,1.08,.28,2.07,.8,2.99,.71,1.65-.16,1.78,.74,1.79,1.92,0,1.08,0,2.17,0,3.25,.23,.03,.46,.06,.69,.09,.09-3.22,.93-6.17,2.76-8.77,.17,.7,.52,1.41,.47,2.09-.45,7.13-1.03,14.26-1.4,21.4-.09,1.82-.47,3.91,1.27,5.41,1.72-1.09-.83-4.02,1.93-4.18-1.67-9.41-.16-18.36,2.29-27.4,.75,.72,1.29,1.23,1.83,1.75,.24-.86,.13-1.44,.04-2.02-.61-4.07,.74-6.17,4.43-8.08,2.57-1.33,5.1-1.23,7.73-.78,1.84,.32,3.84,.46,5.45,1.3,3.77,1.96,5.82,5.25,6.19,9.55,.07,.78,.33,1.54,.51,2.32,1.6-5.31-1.24-9.11-4.61-12.18-4.84-4.41-10.63-2.78-16.45-1.13,1.56-2.65,3.39-4.27,6.42-4.09,.65,.04,1.31-.24,2.26-.43-3.51-2.61-6.69-.01-10.2-.24,.89-.81,1.56-1.42,2.23-2.02l-.48-.44c-4.69,2.32-6.67,7.13-9.33,11.06,.06,.69,.12,1.38,.18,2.08-.15-.13-.38-.4-.44-.37-1.75,.93-3.08,.12-4.42-.95-.26-.21-.87,.02-1.32,.04Zm45.52,31.59c.27-.12,.53-.23,.8-.35,0-1.41-.43-3.01,.09-4.19,1.1-2.5,.61-4.96,.44-7.43-.39-5.74-1.12-11.46-1.31-17.19-.21-6.73-4.77-12.47-11.39-12.97-2.71-.21-5.86-.38-8.19,2.34,.82,.16,1.47,.41,2.1,.37,1.61-.09,3.22-.26,4.82-.48,3.55-.49,5.9,1.02,7.63,4.09,1.98,3.51,2.78,7.3,2.99,11.22,.41,7.45,.64,14.91,1.03,22.37,.04,.76,.64,1.49,.98,2.23Zm-61.38-24.2c-.01-.39-.02-.78-.03-1.17-2.64,0-5.28-.02-7.92,.03-.24,0-.57,.38-.68,.66-.63,1.54,.21,3.81,1.5,5.05,1.78,1.7,7.08,.96,8.5-.13,1.59-1.23,1.61-3.82,.11-4.87-.37,3.64-.95,4.35-3.47,4.24-3.65-.17-5.14-1.11-5.2-3.31,2.4-.16,4.79-.33,7.19-.49Zm-19.96-9.55c.65,1.19,1.37,2.08,1.63,3.09,.27,1.02,.25,2.18,.05,3.22-.25,1.3-.45,2.86-2.32,2.93-2.71,.11-4.09-.77-4.2-2.79-.07-1.38,.1-2.77,.16-4.15-1.5,.97-2.13,5-.71,6.34,.9,.85,2.39,1.42,3.63,1.46,1.44,.04,2.9-.65,4.64-1.09-.05-.09,.17,.3,.64,1.12v-12.46c-.84,.74-.98,1.78-1.57,2.25-.48,.38-1.51,.08-1.96,.08Zm1.85,76.38l.6,.36c3.51-3.25,7.03-6.5,10.54-9.76-.13-.17-.26-.35-.39-.52-.26-.02-.58-.14-.76-.04-3.94,2.31-7.5,5.07-10.17,8.83-.16,.22,.11,.74,.18,1.13Zm60.52-66.87c-2.22,.26-4.23,.48-6.24,.74-.22,.03-.49,.24-.61,.44-.7,1.16,1.13,5.29,2.44,5.36,1.56,.08,3.14,.08,4.68-.12,1.84-.24,2.58-1.51,2.04-3.11-1.33,2.09-4.05,3.05-6.57,1.94-.84-.37-1.29-1.65-2.22-2.93,4.4,.44,6.15-.21,6.48-2.32Zm-12.03-5.99c-.13,2.49,.78,3.54,2.89,3.59,2.59,.07,4.53-1.33,4.49-3.26,0-.27-.27-.77-.41-.77-.33,0-.83,.16-.96,.41-.71,1.35-1.83,1.18-2.98,.89-.96-.24-1.9-.54-3.03-.86Zm14.18,3.63c.14,.23,.28,.45,.42,.68,.65-.52,1.58-.91,1.88-1.58,.4-.91,.31-2.04,.43-3.07-.41-.03-1.1-.22-1.18-.07-.72,1.33-1.67,.69-2.63,.45-.51-.13-1.22-.23-1.58,.02-.28,.21-.39,1.14-.17,1.45,.34,.47,1.02,.85,1.6,.94,.63,.1,1.31-.21,1.98-.29,.12-.01,.27,.23,.47,.42-.44,.38-.83,.71-1.22,1.05Zm-43.04-6.58c-.58,1.09,.04,2.97,1.24,3.81,1.25,.88,3.08,.5,4.37-1.08,.34-.42,.25-1.21,.35-1.82q-2.32,1.36-5.97-.91Zm.91-16.57c-.8-1.66-8.29-3.03-12.69-1.73,4.6,.63,8.69,1.19,12.69,1.73Zm-9.16,15.97c-.3-.23-.61-.45-.91-.68-.82,3.22-2.57,2.28-4.56,1.46,.02,.95,.07,1.99,.58,2.33,1.4,.95,2.94,.49,4.04-.6,.56-.56,.58-1.66,.85-2.52Zm-1.16-7.52c-3.15-.54-7.84,2.2-8.19,4.17,2.68-1.37,5.44-2.77,8.19-4.17Zm19.24-1.5l-.45,.32c1.9,2.78,3.81,5.57,5.71,8.35,1.18-1.3-1.51-5.75-5.26-8.66Zm33.62,27.92c3.46-.43,5.83-1.6,7.29-4.38-2.26,1.36-4.52,2.72-7.29,4.38Zm-39.73-32.73c1.99,1.47,3.88,2.87,5.77,4.27-1.18-2.71-4.12-4.71-5.77-4.27Zm20,60.92c2.18-.65,2.14-2.16,1.65-2.87-.58-.84-1.91-1.17-2.93-1.69-.04-.02-.36,.33-.33,.41,.12,.27,.3,.64,.53,.7,1.67,.44,2.44,1.29,1.08,3.44Zm-21.43-51.19c-1.34-1.47-5.54-2.12-6.33-1.24,1.98,.39,3.9,.77,6.33,1.24Zm-13.81,23.74l.61-.68c-1.07-.9-2.13-1.79-3.2-2.69-.17,.2-.35,.39-.52,.59,1.04,.93,2.08,1.85,3.12,2.78Z" style="fill: #fff;"/>
  <path d="M226.5,203.38v21.62H22.5c0-6.12,0-12.24,0-18.36,1.42-.06,2.83-.14,4.25-.16,13.17-.2,26.33-.42,39.5-.59,20.02-.25,40.04-.44,60.05-.7,15.67-.2,31.34-.44,47.01-.68,14.01-.22,28.02-.46,42.03-.73,3.72-.07,7.44-.26,11.16-.4Z" style="fill: #fff;"/>
  <path d="M226.5,203.38c-3.72,.14-7.44,.33-11.16,.4-14.01,.27-28.02,.51-42.03,.73-15.67,.25-31.34,.49-47.01,.68-20.02,.25-40.04,.45-60.05,.7-13.17,.17-26.33,.38-39.5,.59-1.42,.02-2.83,.11-4.25,.16,0-.68,0-1.36,0-2.04,1.69-.06,3.38-.17,5.07-.18,1.65,0,3.14-.13,4.31-1.61,.42-.53,1.51-.51,2.3-.75,.1,.19,.2,.38,.3,.57-.27,.38-.54,.75-.93,1.3h32.23c.07-.18,.13-.36,.2-.54-.82-.62-1.65-1.22-2.45-1.86-.72-.57-1.17-1.19-.07-1.84,.45,.1,.91,.21,1.38,.31,2.3-.25,2.51-.08,2.59,1.49,1.48,.69,2.65,1.27,3.85,1.78,.57,.24,1.19,.48,1.8,.48,4.48,0,8.96-.02,13.44-.13,.51-.01,1.29-.46,1.47-.9,1.49-3.71,2.85-7.47,4.29-11.2,.66-1.7,1.46-3.35,2.14-5.04,.79-1.95,1.25-3.66-.06-5.9-.86-1.47-.13-3.9-.06-5.9,.17-5.25,.38-10.49,.55-15.74,0-.3-.17-.6-.25-.89-3.73,3-7.36,5.92-10.99,8.84-.22-.2-.45-.4-.67-.59,1.2-4.84,5.28-7.73,8.38-11.29,2.1,1.13,3.39,.44,3.42-1.95,.05-3.31,.01-6.63,.01-9.38-2.96-1.43-5.66-2.73-8.36-4.04,.16-.32,.31-.64,.47-.95,1.85,1.05,3.6,2.49,5.59,3.02,1.94,.52,4.12,.11,6.2,.11,.03,.21,.07,.41,.1,.62-.63,.2-1.26,.39-2.06,.64,0,3.3-.17,6.68,.1,10.02,.09,1.09,.77,2.55,2.5,2.67,.49,.04,1.01,.61,1.4,1.05,2.99,3.31,5.93,6.67,8.94,9.96,.46,.5,1.24,.71,2.28,1.27-.53,.82-.9,1.85-1.63,2.44-1.88,1.5-1.81,3.94,.45,5.45,.35-.64,.62-1.34,1.07-1.88,.23-.28,.79-.32,1.21-.37,.08-.01,.37,.48,.31,.65-.47,1.28-1.01,2.55-1.52,3.81l.05-.06c-1.11-.75-2.31-1.41-3.33-2.28-1.62-1.38-.85-3.19-.19-4.56,.71-1.49,.38-2.19-.69-3.26-3.62-3.6-7.1-7.35-11.13-11.58,.44,7.38,.89,14.2,1.23,21.02,.07,1.32-.29,2.66-.44,3.99-.12,1.12-.43,2.13,1.07,2.87,.75,.37,1.1,1.77,1.42,2.77,1.22,3.82,2.33,7.67,3.52,11.5,.46,1.5,1.02,2.96,1.57,4.54h20.55c0-3.19,.03-6.14,0-9.09-.18-13.56-.35-27.12-.57-40.67-.28-17.47-.62-34.94-.92-52.42-.2-11.58-.38-23.17-.5-34.75-.02-1.87-.43-2.81-2.53-2.42-1.12,.21-2.31,.11-3.45,.01-.33-.03-.61-.55-.92-.84,.38-.2,.76-.56,1.15-.57,2.76-.08,5.52-.1,8.28-.11,4.34-.01,8.69,.02,13.03,0,14.26-.03,28.51-.09,42.77-.11,7.86-.01,15.71,.02,23.57,.09,.63,0,1.25,.48,1.87,.73-.07,.22-.15,.44-.22,.65-.45,.04-.98-.05-1.32,.16-.56,.36-1.41,.92-1.41,1.4-.09,11.98-.07,23.96-.1,35.94-.02,10.93-.06,21.87-.12,32.8-.12,19.19-.28,38.39-.41,57.58-.02,3.45,0,6.9,0,10.62h22.91v1.22Zm-39.2-122.95h.03c.18-.37,.48-.72,.51-1.08,.34-4.45,.6-8.91,.97-13.36,.12-1.48-.34-2.02-1.87-2.01-6.82,.05-13.65,0-20.47-.01-5.89-.01-11.79-.02-17.68-.04-7.25-.03-14.5-.06-21.74-.14-1.62-.02-2.19,.45-2.14,2.22,.31,11.51,.47,23.03,.7,34.55,.24,11.65,.52,23.3,.75,34.95,.26,13.27,.51,26.54,.72,39.81,.14,8.73,.22,17.47,.26,26.2,0,1.26,.39,1.63,1.64,1.6,7.04-.13,14.09-.16,21.13-.26,14.32-.2,28.64-.43,42.96-.62,2.82-.04,5.65,0,8.51,0,.27-46.27,.54-92.16,.81-138.25-3.89,0-7.67-.02-11.46,.01-1.08,0-1.29,.58-1.34,1.72-.17,4.53-.55,9.05-.87,13.57-.06,.87-.2,1.69-1.42,1.16Zm-97.77,123h12.62c1.1-1.97-2.65-3.15-.1-5.08-2.76-.43-2.12-3.06-3.09-4.57-1.01-1.58-1.37-3.58-2.21-5.97-3.3,5.16-5.2,10.28-7.21,15.62Z"/>
  <path d="M64.83,200.02c-.46-.1-.93-.21-1.38-.31-2.18,.66-3.33-1.2-4.78-2.12-2.65-1.67-5.06-3.73-7.68-5.46-2.26-1.49-2.26-1.76-1.79-4.36,.39-2.16,.11-4.44,.12-6.66,.03-3.73,.11-7.46,.07-11.19,0-.7-.51-1.4-.79-2.1-.19-.49-.6-.99-.56-1.45,.47-6.1,.97-12.21,1.54-18.3,.31-3.3,.53-3.45-2.67-3.54-.7-.02-1.39-.24-2.11-.76,5.99-.23,12.14,.7,17.47-3.23,.1,.26,.2,.52,.3,.78-.73,.49-1.4,1.17-2.2,1.42-2.24,.7-4.5,1.37-6.81,1.75-1.5,.25-2.22,.47-2.07,2.31,.3,3.57,.16,7.18,.36,10.76,.04,.63,.74,1.48,1.35,1.79,4.64,2.33,9.43,4.38,13.23,8.11,.79,.77,1.95,1.16,3.05,1.79,.51-.71,.96-1.33,1.41-1.96,.2,.06,.4,.13,.6,.19-.67,1.93-1.33,3.85-2.13,6.17-.56,.11-1.33,.05-1.79-1.28-.32-.9-.97-1.9-1.75-2.4-3.57-2.25-7.25-4.33-10.88-6.49-.84-.5-1.63-1.09-2.62-1.75-.26,.51-.61,.89-.62,1.28-.24,8.24-.4,16.48-.7,24.72-.06,1.73,.61,2.34,2.15,2.77,1.66,.47,3.21,1.31,4.87,2.01-.17,.2-.35,.4-.34,.39,1.4,.72,2.81,1.44,4.42,2.26-.65,.51-1,.78-1.44,1.13,.28,.15,.46,.33,.6,.3,2.48-.55,2.98,1.79,4.31,2.92l-.72,.51Z"/>
  <path d="M75.94,127.1l-.18-2.08c2.66-3.92,4.64-8.74,9.33-11.06l.48,.44c-.67,.61-1.34,1.21-2.23,2.02,3.51,.23,6.68-2.37,10.2,.24-.95,.19-1.61,.47-2.26,.43-3.03-.18-4.86,1.44-6.42,4.09,5.83-1.64,11.62-3.28,16.45,1.13,3.37,3.07,6.21,6.87,4.61,12.18-.17-.77-.44-1.54-.51-2.32-.37-4.3-2.42-7.59-6.19-9.55-1.61-.84-3.6-.98-5.45-1.3-2.63-.46-5.15-.56-7.73,.78-3.69,1.91-5.04,4.01-4.43,8.08,.09,.58,.2,1.16-.04,2.02-.54-.52-1.08-1.03-1.83-1.75-2.46,9.04-3.97,17.99-2.29,27.4-2.76,.16-.21,3.09-1.93,4.18-1.73-1.51-1.36-3.6-1.27-5.41,.37-7.14,.95-14.26,1.4-21.4,.04-.68-.31-1.39-.47-2.09l-.07,.08c.61-.03,1.22-.06,2.14-.1,1.27-5.51,3.72-10.87,7.68-15.61-1.59,.65-3.08,1.43-4.09,2.61-2.15,2.54-3.39,5.56-3.73,8.92-.06,.63-.52,1.23-.8,1.84-.12-.05-.24-.1-.35-.15v-3.7l-.02,.06Z"/>
  <path d="M115.27,157.42c-.34-.74-.94-1.47-.98-2.23-.39-7.45-.62-14.91-1.03-22.37-.21-3.92-1.01-7.7-2.99-11.22-1.73-3.07-4.08-4.58-7.63-4.09-1.6,.22-3.21,.39-4.82,.48-.63,.04-1.28-.22-2.1-.37,2.33-2.71,5.49-2.54,8.19-2.34,6.62,.5,11.17,6.24,11.39,12.97,.18,5.74,.92,11.46,1.31,17.19,.17,2.47,.66,4.93-.44,7.43-.52,1.18-.09,2.78-.09,4.19-.27,.12-.53,.23-.8,.35Z"/>
  <path d="M75.18,133.15c-1.83,2.6-2.67,5.55-2.76,8.77-.23-.03-.46-.06-.69-.09,0-1.08,0-2.17,0-3.25,0-1.18-.13-2.08-1.79-1.92-.92,.09-1.91-.43-2.99-.71-.52,1.35-.56,3.11-3.06,3.43,3.2-3.09,.96-6.51,1.5-9.64,.07-.39-.1-.83-.02-1.21,.44-2.11-.14-3.84-1.77-5.26-.42-.37-.72-.87-1.08-1.31,.13-.16,.27-.32,.4-.47,.87,.71,2.15,1.26,2.52,2.17,.66,1.63,1.68,1.83,3.13,1.72,.4-.03,.82,.33,1.24,.5-.88,.41-2.46,.75-2.51,1.25-.24,2.24-.34,4.58,.08,6.78,.35,1.84,3.29,2.46,4.43,1.21,1.86-2.05,1.23-7.14-1.08-8.64-.33-.21-.65-.44-.98-.66,.45-.03,1.06-.25,1.32-.04,1.34,1.07,2.67,1.88,4.42,.95,.06-.03,.29,.24,.44,.37,0,0,.02-.06,.02-.06-2.05,1.82-.94,4.08-.85,6.2l.07-.08Z"/>
  <path d="M53.89,133.22c-2.4,.16-4.79,.33-7.19,.49,.06,2.19,1.54,3.14,5.19,3.31,2.52,.12,3.1-.59,3.47-4.24,1.5,1.05,1.49,3.65-.11,4.87-1.41,1.09-6.72,1.83-8.5,.13-1.29-1.23-2.13-3.51-1.5-5.05,.11-.28,.45-.65,.68-.66,2.64-.05,5.28-.03,7.92-.03,.01,.39,.02,.78,.03,1.17Z"/>
  <path d="M33.93,123.68c.44,0,1.47,.31,1.96-.08,.59-.47,.73-1.52,1.57-2.25v12.46c-.47-.82-.69-1.21-.64-1.12-1.74,.45-3.2,1.13-4.64,1.09-1.24-.04-2.73-.61-3.63-1.46-1.42-1.34-.79-5.36,.71-6.34-.06,1.38-.23,2.77-.16,4.15,.11,2.02,1.49,2.89,4.2,2.79,1.87-.07,2.06-1.63,2.32-2.93,.2-1.04,.22-2.21-.05-3.22-.26-1.01-.98-1.9-1.63-3.09Z"/>
  <path d="M35.78,200.05c-.07-.38-.34-.91-.18-1.13,2.67-3.76,6.23-6.52,10.17-8.83,.18-.11,.5,.02,.76,.04,.13,.17,.26,.35,.39,.52-3.51,3.25-7.03,6.5-10.54,9.76l-.6-.36Z"/>
  <path d="M96.3,133.18c-.33,2.11-2.07,2.75-6.48,2.32,.93,1.28,1.37,2.57,2.22,2.93,2.53,1.1,5.25,.15,6.57-1.94,.54,1.59-.2,2.87-2.04,3.11-1.54,.2-3.12,.2-4.68,.12-1.31-.07-3.14-4.2-2.44-5.36,.12-.2,.39-.41,.61-.44,2-.26,4.01-.48,6.24-.74Z"/>
  <path d="M84.27,127.19c1.13,.32,2.07,.62,3.03,.86,1.15,.29,2.27,.47,2.98-.89,.13-.25,.63-.4,.96-.41,.14,0,.4,.49,.41,.77,.05,1.93-1.9,3.33-4.49,3.26-2.11-.06-3.02-1.1-2.89-3.59Z"/>
  <path d="M98.45,130.82c.39-.33,.78-.67,1.22-1.05-.21-.19-.36-.43-.47-.42-.67,.08-1.35,.38-1.98,.29-.58-.09-1.26-.47-1.6-.94-.23-.31-.12-1.24,.17-1.45,.35-.26,1.06-.15,1.58-.02,.96,.23,1.91,.88,2.63-.45,.08-.15,.77,.04,1.18,.07-.12,1.03-.03,2.16-.43,3.07-.29,.67-1.23,1.06-1.88,1.58-.14-.23-.28-.45-.42-.68Z"/>
  <path d="M55.42,124.24q3.65,2.27,5.97,.91c-.1,.62,0,1.4-.35,1.82-1.3,1.58-3.12,1.96-4.37,1.08-1.21-.85-1.82-2.73-1.24-3.81Z"/>
  <path d="M33.92,113.61c-.35,2.61-.7,5.21-1.12,8.38-2.09-3.53-1.75-7.13,.39-8.65,.25,.09,.49,.18,.74,.27Z"/>
  <path d="M56.32,107.67c-4-.55-8.09-1.1-12.69-1.73,4.4-1.3,11.89,.07,12.69,1.73Z"/>
  <path d="M47.16,123.64c-.27,.86-.29,1.97-.85,2.52-1.1,1.08-2.64,1.54-4.04,.6-.51-.35-.56-1.38-.58-2.33,1.99,.82,3.74,1.76,4.56-1.46,.3,.23,.61,.45,.91,.68Z"/>
  <path d="M71.84,153.78v-12.1c.47,.64,.9,.94,.9,1.26,.09,3.27,.15,6.55,.12,9.82,0,.35-.68,.68-1.04,1.03,0,0,.02,0,.02,0Z"/>
  <path d="M46,116.12c-2.75,1.4-5.5,2.8-8.19,4.17,.34-1.97,5.04-4.71,8.19-4.17Z"/>
  <path d="M65.24,114.63c3.74,2.92,6.44,7.36,5.26,8.66-1.9-2.78-3.81-5.57-5.71-8.35l.45-.32Z"/>
  <path d="M120.49,170.42c-.06-.63-.31-1.32-.15-1.88,.42-1.42-.5-1.77-1.47-2.13-1.07-.4-2.15-.78-3.14-1.4,1.5-.6,4.5,.6,5.37,1.79,1.06,1.44,.11,2.48-.67,3.56l.05,.05Z"/>
  <path d="M33.92,113.61c-.25-.09-.49-.18-.74-.27,.59-3.27,2.72-5.16,5.64-6.36,0-.07-.01-.14-.04-.2-.2,.45-.31,.95-.6,1.33-1.4,1.85-2.84,3.66-4.26,5.49Z"/>
  <path d="M111.78,178.17c.25-.09,.52-.3,.74-.25,2.29,.45,3.99-.14,4.8-2.52,.03-.09,.6,0,.91,0,0,0-.06-.03-.06-.03-1.05,3.99-3.38,5-6.35,2.75,0,0-.05,.06-.05,.06Z"/>
  <path d="M98.87,142.55c2.76-1.66,5.03-3.02,7.29-4.38-1.46,2.77-3.83,3.95-7.29,4.38Z"/>
  <path d="M59.14,109.83c1.65-.44,4.59,1.56,5.77,4.27-1.89-1.4-3.78-2.8-5.77-4.27Z"/>
  <path d="M79.13,170.75c1.36-2.16,.59-3.01-1.08-3.44-.23-.06-.41-.44-.53-.7-.03-.08,.29-.43,.33-.41,1.02,.52,2.36,.85,2.93,1.69,.49,.71,.53,2.22-1.65,2.87Z"/>
  <path d="M74.56,179.35c-.46,.94-.69,2.18-1.43,2.75-1.11,.85-2.4,.38-3.35-.68l-.05,.05c.1-.08,.23-.25,.31-.23,1.94,.39,3.28-.7,4.61-1.84,0,0-.09-.05-.09-.05Z"/>
  <path d="M69.77,181.41c-1.31-.7-2.62-1.4-3.94-2.1-1.26-.67-.94-1.38-.31-1.99,.87,.75,1.69,1.4,2.43,2.12,.64,.62,1.18,1.33,1.77,2.01,0,0,.05-.05,.05-.05Z"/>
  <path d="M38.85,167.1c-.05-.38-.28-.97-.13-1.1,1.09-.92,2.26-1.75,3.62-2.36-.6,1.76-2.06,2.6-3.54,3.41l.05,.05Z"/>
  <path d="M74.56,179.35s.09,.05,.09,.05c-.34-2.08,.67-3.92,2.71-4.16-1.04,1.53-1.92,2.82-2.79,4.1Z"/>
  <path d="M120.44,170.36c-.76,1.66-1.52,3.32-2.28,4.99,0,0,.06,.03,.07,.04-.84-1.45,.62-4.7,2.26-4.98,0,0-.05-.05-.05-.05Z"/>
  <path d="M38.8,167.05c-.95,1.4-1.9,2.8-2.85,4.21-.23-2.16,.87-3.47,2.9-4.15,0,0-.05-.05-.05-.05Z"/>
  <path d="M57.7,119.56c-2.43-.48-4.35-.85-6.33-1.24,.79-.88,4.99-.23,6.33,1.24Z"/>
  <path d="M71.82,153.78c2.1,1.41,.96,3.52,1.45,5.28-.27,.04-.54,.09-.8,.13-.2-1.81-.4-3.61-.62-5.42,0,0-.03,0-.03,0Z"/>
  <path d="M38.78,106.8c.03,.06,.04,.12,.04,.2,1.1-1.78,2.76-1.41,4.31-1.42,.04,.2,.09,.41,.13,.61-1.5,.2-2.99,.41-4.49,.61Z"/>
  <path d="M43.89,143.3c-1.04-.93-2.08-1.85-3.12-2.78,.17-.2,.35-.39,.52-.59,1.07,.9,2.13,1.79,3.2,2.69l-.61,.68Z"/>
  <path d="M187.3,80.42c1.22,.54,1.36-.29,1.42-1.16,.32-4.52,.7-9.04,.87-13.57,.04-1.13,.26-1.71,1.34-1.72,3.78-.03,7.57-.01,11.46-.01-.27,46.08-.54,91.97-.81,138.25-2.85,0-5.68-.03-8.51,0-14.32,.2-28.64,.42-42.96,.62-7.04,.1-14.09,.13-21.13,.26-1.25,.02-1.64-.34-1.64-1.6-.04-8.73-.12-17.47-.26-26.2-.21-13.27-.46-26.54-.72-39.81-.23-11.65-.51-23.3-.75-34.95-.23-11.52-.4-23.03-.7-34.55-.05-1.76,.53-2.23,2.14-2.22,7.25,.08,14.5,.11,21.74,.14,5.89,.03,11.79,.03,17.68,.04,6.82,.01,13.65,.06,20.47,.01,1.53-.01,1.99,.53,1.87,2.01-.36,4.45-.63,8.91-.97,13.36-.03,.37-.33,.72-.5,1.08-.09,2.08-.2,4.16-.31,6.24,.19,.05,.39,.1,.58,.16,.16-.32,.44-.63,.47-.97,.13-1.18-.03-2.44,.32-3.54,.4-1.26-.21-1.57-1.11-1.88Zm-38.76,47.25c-1.15-.19-1.12,.52-1.11,1.35,.03,4.27,0,8.53,0,12.8,0,1.94,0,3.87,0,5.81,.36,0,.71,0,1.07-.01,0-6.65,0-13.3-.02-19.96v-14.52c-.23-.02-.45-.05-.68-.07-.15,.26-.44,.53-.44,.79-.01,4.03-.03,8.06,.08,12.09,.02,.58,.72,1.15,1.11,1.72Zm-7.4,23.4c-1,.05-2,.08-3,.15-2.29,.17-4.59,.35-6.93,.54,.53-11.9-.31-31.23-1.18-31.9,0,5.27,0,10.66,0,16.05,0,4.84,.42,9.72-.11,14.5-.36,3.27,.51,5.4,2.88,7.35,1.77,1.45,4.9,1.78,6.41,.46-1.68-.31-3.43-.37-4.95-.99-1.59-.65-3.07-1.77-2.77-4.14,1.58-.14,3.18-.01,4.6-.47,1.67-.54,3.89,.61,5.02-1.58h5.14l-.05-.72c-1.73-.33-3.44-.38-5.05,.76Zm24.81-2.73c-.21,.01-.43,.03-.64,.04-.05,.31-.06,.64-.15,.94-.58,2.08,.75,4.47-1,6.38-.08,.09,.09,.53,.26,.71,.79,.87,1.49,1.95,2.47,2.52,2.24,1.29,4.57,2.5,6.98,3.42,3.64,1.4,9.73,.26,10.95-4.05-2.87,3.11-6.44,4.27-9.96,3.4-3.3-.81-6.67-2.33-8.89-5.25,.06-.27,.12-.55,.18-.82h14.65c0-.32-.01-.63-.02-.95h-14.82v-6.34Zm20.37-33.17c-.35-.02-.69-.03-1.04-.05,.07,1.33,.24,2.66,.19,3.98-.09,2.18-.45,4.36-.47,6.55-.05,4.57,.03,9.14,.11,13.71,0,.49,.38,.97,.58,1.46,.22-.48,.64-.96,.64-1.45,.05-3.2,0-6.39,0-9.59,0-4.87,0-9.74,0-14.62Zm-20.11,13.52c-.3,0-.6-.01-.9-.02v19.32c.27-.11,.86-.24,.86-.37,.05-6.31,.04-12.62,.04-18.93Zm-35.89-43.36c-1.45,2.91-1.15,14.21,0,15.02v-15.02Zm36.19,18.5c-.94,1.04-1.55,11.4,0,13.3v-13.3Zm-18.51-13.32c.35-4.62,2.3-9.15,1.09-13.87-.25,4.63-1.71,9.19-1.09,13.87Zm39.05,2.33c-.16,.02-.31,.04-.47,.06-.38,2.56-.8,5.12-1.12,7.7-.04,.33,.38,.72,.58,1.09,.22-.26,.59-.49,.63-.77,.27-1.95,.52-3.9,.66-5.86,.05-.73-.18-1.47-.29-2.21Zm-57.45,20.61c.24,.02,.48,.04,.73,.06v-8.97c-1.11,2.92-.95,5.92-.73,8.91Zm36.49,14.95v-8.94c-.3,0-.6,0-.9,.01,0,2.82-.02,5.64,.04,8.45,0,.17,.58,.33,.86,.48Zm-18.71-24.75v8.75c1.35-1.29,1.42-7.51,0-8.75Zm21.49-29.42c-1.49,1.74-1.67,6.74-.57,7.82,.2-2.73,.38-5.28,.57-7.82Zm-19.55,1.69v-7.68c-.19,.01-.37,.03-.56,.04-.1,2.6-.61,5.22,.56,7.65Zm17.03,27.06c.17,0,.35-.02,.52-.03,.75-3.4,.66-7.01-.52-7.94v7.96Zm-35.69-32.22c-.2-.01-.4-.02-.6-.04v6.62c.2,0,.4,0,.6,0v-6.59Zm38.2-4.42c-.2,0-.39,0-.59,0,.11,2.32-.93,4.68,.05,6.98,.18,0,.36,0,.54,0v-6.97Zm-22.26,90.45l-.25-.61c-2.07,.76-4.14,1.52-6.65,2.45,3.15,.86,4.95-.71,6.9-1.84Zm21.69-73.85c-.35-.03-.69-.06-1.04-.09-.13,1.81-.26,3.62-.39,5.44,.32,.02,.63,.05,.95,.07,.16-1.81,.32-3.61,.48-5.42Zm-20.09,65.66c-.25,.01-.5,.02-.75,.03v4c.25,0,.5,0,.75,0v-4.04Zm38.13-43.98c-.24-.07-.49-.14-.73-.21-.16,1.08-.38,2.15-.42,3.23,0,.26,.6,.54,1.15,.99v-4.01Zm-56.77-19.71c1.88-1.1,1.25-2.49,1.39-3.62,.01-.11-.39-.27-.6-.4-.21,.75-.45,1.49-.63,2.25-.1,.41-.08,.85-.16,1.77Z" style="fill: #fff;"/>
  <path d="M89.53,203.43c2.01-5.34,3.91-10.46,7.21-15.62,.85,2.39,1.2,4.39,2.21,5.97,.97,1.52,.33,4.14,3.09,4.57-2.54,1.93,1.21,3.11,.1,5.08h-12.62Z" style="fill: #fff;"/>
  <path d="M75.11,133.24c-.08-2.12-1.2-4.37,.85-6.2v3.7c.12,.05,.24,.1,.35,.15,.28-.61,.73-1.2,.8-1.84,.34-3.37,1.58-6.38,3.73-8.92,1-1.19,2.5-1.96,4.09-2.61-3.96,4.75-6.41,10.11-7.68,15.61-.92,.04-1.53,.07-2.14,.1Z" style="fill: #fff;"/>
  <path d="M69.76,125.83c.33,.22,.65,.44,.98,.66,2.31,1.5,2.94,6.58,1.08,8.64-1.14,1.26-4.09,.64-4.43-1.21-.41-2.2-.32-4.54-.08-6.78,.05-.5,1.64-.84,2.51-1.25,0,0-.06-.05-.06-.05Z" style="fill: #fff;"/>
  <path d="M141.09,151.02c-1.12,2.19-3.35,1.04-5.01,1.58-1.42,.46-3.02,.33-4.6,.47-.3,2.37,1.18,3.49,2.77,4.14,1.52,.62,3.27,.68,4.95,.99-1.51,1.32-4.64,.99-6.41-.46-2.36-1.94-3.24-4.07-2.88-7.35,.53-4.78,.12-9.66,.11-14.5,0-5.39,0-10.78,0-16.05,.88,.66,1.71,20,1.18,31.9,2.34-.18,4.64-.37,6.93-.54,1-.07,2-.1,3-.15l-.05-.05Z"/>
  <path d="M165.95,148.34v6.34h14.82c0,.32,.01,.63,.02,.95h-14.65c-.06,.27-.12,.55-.18,.82,2.21,2.92,5.58,4.44,8.89,5.25,3.53,.87,7.09-.29,9.96-3.4-1.22,4.31-7.32,5.45-10.95,4.05-2.41-.93-4.73-2.13-6.98-3.42-.98-.57-1.67-1.64-2.47-2.52-.16-.18-.34-.62-.26-.71,1.75-1.91,.43-4.3,1-6.38,.08-.3,.1-.63,.15-.94,.21-.01,.42-.03,.64-.04Z"/>
  <path d="M186.32,115.17c0,4.87,0,9.74,0,14.62,0,3.2,.05,6.39,0,9.59,0,.48-.42,.96-.64,1.45-.2-.49-.57-.97-.58-1.46-.08-4.57-.16-9.14-.11-13.71,.02-2.18,.38-4.36,.47-6.55,.05-1.32-.12-2.65-.19-3.98,.35,.02,.69,.03,1.04,.05Z"/>
  <path d="M148.49,127.67v19.95c-.36,0-.71,0-1.07,.01,0-1.94,0-3.87,0-5.81,0-4.27,.03-8.53,0-12.8,0-.83-.04-1.54,1.11-1.35h-.04Z"/>
  <path d="M166.21,128.69c0,6.31,0,12.62-.04,18.93,0,.13-.59,.26-.86,.37v-19.32c.3,0,.6,.01,.9,.02Z"/>
  <path d="M130.32,85.33v15.02c-1.15-.81-1.45-12.11,0-15.02Z"/>
  <path d="M166.51,103.83v13.3c-1.55-1.9-.94-12.26,0-13.3Z"/>
  <path d="M148.01,90.51c-.62-4.68,.84-9.24,1.09-13.87,1.21,4.72-.74,9.25-1.09,13.87Z"/>
  <path d="M148.54,127.67c-.39-.57-1.09-1.13-1.11-1.72-.11-4.03-.1-8.06-.08-12.09,0-.26,.29-.53,.44-.79,.23,.02,.45,.05,.68,.07,0,4.84,0,9.68,.01,14.52,.01,0,.06,0,.06,0Z"/>
  <path d="M187.05,92.84c.11,.74,.34,1.48,.29,2.21-.15,1.96-.4,3.92-.66,5.86-.04,.28-.41,.51-.63,.77-.21-.36-.63-.76-.58-1.09,.32-2.57,.73-5.13,1.12-7.7,.16-.02,.31-.04,.47-.06Z"/>
  <path d="M129.6,113.45c-.22-3-.39-5.99,.73-8.91v8.97c-.24-.02-.48-.04-.73-.06Z"/>
  <path d="M166.1,128.41c-.29-.15-.86-.31-.86-.48-.06-2.82-.04-5.63-.04-8.45,.3,0,.6,0,.9-.01v8.94Z"/>
  <path d="M147.39,103.66c1.42,1.25,1.35,7.46,0,8.75v-8.75Z"/>
  <path d="M168.87,74.24c-.18,2.55-.37,5.1-.57,7.82-1.11-1.08-.93-6.09,.57-7.82Z"/>
  <path d="M149.32,75.93c-1.17-2.42-.66-5.05-.56-7.65,.19-.01,.37-.03,.56-.04v7.68Z"/>
  <path d="M166.36,102.99v-7.96c1.18,.93,1.27,4.53,.52,7.94-.17,0-.35,.02-.52,.03Z"/>
  <path d="M130.66,70.77v6.59c-.2,0-.4,0-.6,0v-6.62c.2,.01,.4,.02,.6,.04Z"/>
  <path d="M168.86,66.35v6.97c-.18,0-.36,0-.54,0-.98-2.3,.06-4.66-.05-6.98,.2,0,.39,0,.59,0Z"/>
  <path d="M146.6,156.79c-1.95,1.13-3.74,2.71-6.9,1.84,2.51-.92,4.58-1.69,6.65-2.45l.25,.61Z"/>
  <path d="M187.3,80.42c.9,.31,1.51,.62,1.11,1.88-.35,1.1-.19,2.36-.32,3.54-.04,.34-.31,.65-.47,.97-.19-.05-.39-.1-.58-.16,.11-2.08,.22-4.16,.31-6.24-.01,0-.05,0-.05,0Z"/>
  <path d="M168.29,82.95c-.16,1.81-.32,3.61-.48,5.42-.32-.02-.63-.05-.95-.07,.13-1.81,.26-3.62,.39-5.44,.35,.03,.69,.06,1.04,.09Z"/>
  <path d="M141.13,151.07c1.61-1.14,3.32-1.09,5.05-.76l.05,.72c-1.71,0-3.43,0-5.14,0,0,0,.04,.04,.04,.04Z"/>
  <path d="M148.2,148.6v4.04c-.25,0-.5,0-.75,0v-4c.25-.01,.5-.02,.75-.03Z"/>
  <path d="M186.33,104.63v4.01c-.55-.45-1.16-.73-1.15-.99,.04-1.08,.26-2.15,.42-3.23,.24,.07,.49,.14,.73,.21Z"/>
  <path d="M129.56,84.91c.08-.93,.06-1.36,.16-1.77,.18-.76,.42-1.5,.63-2.25,.21,.14,.61,.29,.6,.4-.13,1.13,.5,2.52-1.39,3.62Z"/>
</svg>