<?xml version="1.0" encoding="UTF-8"?>
<svg id="uuid-9f66c3b9-c3e0-491a-bf25-ae2c603290c3" data-name="Calque 2" xmlns="http://www.w3.org/2000/svg" width="250" height="250" viewBox="0 0 250 250">
  <path d="M68.15,64.52c.71-.05,1.37-.12,2.02-.12,31.11-.05,62.21-.11,93.32-.11,1.91,0,3.16-.24,3.24-2.56,.09-2.63-1.56-2.32-3.26-2.36-3.73-.07-7.45-.26-11.18-.41,.01-.38,.02-.76,.04-1.13,4.56,0,9.12-.03,13.68,.01,2.5,.02,2.57-1.89,2.46-3.44-.18-2.48,1.38-5.54-1.85-7.21-.46-.24-1.15-.04-1.73-.05-3.21-.08-6.41-.24-9.62-.24-30.52,.07-61.04,.15-91.56,.28-.67,0-1.89,.46-1.91,.76-.17,3.01-.2,6.03-.05,9.04,.02,.32,1.4,.81,2.16,.82,4.04,.08,8.09,.04,12.14,.04,0,.29,.01,.58,.02,.87-4.93,.23-9.87,.64-14.8,.62-2.82-.01-3.01,1.68-2.35,3.32,.42,1.04,2.14,1.55,3.29,2.31-2.14,3.27-2.29,4.62-.34,6.43,1.75,1.61,3.79,1.96,5.84,.56,2.09-1.43,2.2-3.73,.45-7.41Zm124.5,141.92H55.11c1.09,.75,2.22,1.04,3.34,1.02,7.06-.14,14.12-.57,21.17-.51,37.44,.29,74.87,.7,112.31,1.05,.81,0,1.63-.11,1.97-.14,1.01-54.14,2.02-107.89,3.03-161.93,.04,.02-.38-.35-.82-.38-7.91-.51-15.83-1.06-23.75-1.42-2.2-.1-4.44,.53-6.65,.52-27.91-.18-55.83-.42-83.74-.65-1.16,0-2.33-.12-3.49-.18-7.45-.34-14.89-.65-22.34-1.02-2.19-.11-3.21,.83-3.21,3.02,.02,7.28-.06,14.56,.04,21.83,.05,3.3,.61,6.58,.63,9.88,.12,27.91,.2,55.82,.22,83.73,0,7.86-.26,15.73-.33,23.59-.05,5.35,0,10.7,.07,16.04,.01,1.1,.29,2.2,.45,3.3,.31-.02,.61-.04,.92-.06V44.86c5.99,0,11.41-.05,16.83,0,20.32,.23,40.65,.46,60.97,.76,16.32,.24,32.64,.56,48.95,.89,4.53,.09,9.05,.37,13.7,.57-.92,53.33-1.83,106.37-2.73,159.35Zm-116.14-20.59c2.51,0,4.92,.23,7.26-.11,1-.14,2.41-1.34,2.62-2.29,.54-2.43,.71-4.98,.67-7.48-.1-6.97-2.18-8.5-8.98-6.83-.55,.14-1.08,.37-1.59,.55-.23,1.05-.45,2.03-.65,2.97-2.78-2.77-5.77-1.79-9.01-1.22v13.3c3.53-.03,6.97,1.94,9.14-2.37,.16,1.03,.28,1.83,.54,3.47Zm-1.79-96.93c.02,.24,.05,.48,.07,.72h78.94c0-.24,0-.48,0-.72H74.71Zm108.96-38.41c-3.47,0-5.85,2.16-5.89,5.36-.04,2.92,2.56,5.44,5.66,5.5,3.19,.06,5.92-2.55,5.87-5.61-.04-2.98-2.47-5.24-5.64-5.25Zm-107.77,112.38l.09,.66h76.52c0-.22,0-.44,0-.66H75.91Zm91.5-64.02c-.23,0-.47,0-.7,0v55.23c.23,0,.47,0,.7,0v-55.23Zm-103.99-20.85c-.02,2.73,1.68,4.36,4.55,4.37,2.3,.01,4.19-1.87,4.26-4.25,.07-2.6-1.92-4.76-4.44-4.79-2.61-.03-4.35,1.83-4.37,4.67Zm-2.72,74.03c.22,.02,.44,.04,.66,.06v-51.48c-.22,0-.44,0-.66,0v51.42Zm4.61,25.87c-.23-2.46-.4-4.97-.76-7.45-.08-.56-.86-1.02-1.32-1.53-.35,.46-.88,.88-1.03,1.4-1.32,4.85-1.4,9.74-.03,14.59,.17,.59,.75,1.06,1.14,1.58,.43-.54,1.15-1.03,1.25-1.62,.36-2.28,.51-4.6,.75-6.98Z" style="fill: #fff;"/>
  <path d="M68.15,64.52c1.76,3.68,1.64,5.99-.45,7.41-2.06,1.41-4.1,1.06-5.84-.56-1.95-1.8-1.8-3.15,.34-6.43-1.15-.75-2.87-1.27-3.29-2.31-.66-1.64-.47-3.33,2.35-3.32,4.93,.02,9.87-.39,14.8-.62,0-.29-.01-.58-.02-.87-4.05,0-8.09,.04-12.14-.04-.76-.02-2.15-.5-2.16-.82-.15-3.01-.11-6.03,.05-9.04,.02-.3,1.24-.76,1.91-.76,30.52-.12,61.04-.21,91.56-.28,3.21,0,6.41,.16,9.62,.24,.58,.01,1.27-.19,1.73,.05,3.24,1.68,1.67,4.73,1.85,7.21,.11,1.55,.05,3.46-2.46,3.44-4.56-.04-9.12-.01-13.68-.01-.01,.38-.02,.76-.04,1.13,3.73,.14,7.45,.33,11.18,.41,1.7,.03,3.35-.27,3.26,2.36-.08,2.32-1.33,2.56-3.24,2.56-31.11,0-62.21,.06-93.32,.11-.66,0-1.32,.08-2.02,.12Z"/>
  <path d="M192.65,206.44c.91-52.97,1.82-106.02,2.73-159.35-4.65-.2-9.18-.48-13.7-.57-16.32-.33-32.64-.65-48.95-.89-20.32-.3-40.65-.53-60.97-.76-5.42-.06-10.84,0-16.83,0V204.14c-.31,.02-.61,.04-.92,.06-.16-1.1-.44-2.2-.45-3.3-.07-5.35-.11-10.7-.07-16.04,.07-7.86,.34-15.73,.33-23.59-.02-27.91-.1-55.82-.22-83.73-.01-3.29-.58-6.58-.63-9.88-.1-7.28-.02-14.56-.04-21.83,0-2.19,1.01-3.13,3.21-3.02,7.44,.37,14.89,.68,22.34,1.02,1.16,.05,2.33,.17,3.49,.18,27.91,.23,55.83,.47,83.74,.65,2.22,.01,4.45-.62,6.65-.52,7.92,.37,15.84,.91,23.75,1.42,.44,.03,.86,.4,.82,.38-1.01,54.04-2.02,107.79-3.03,161.93-.34,.02-1.16,.14-1.97,.14-37.44-.36-74.87-.76-112.31-1.05-7.06-.05-14.11,.37-21.17,.51-1.12,.02-2.25-.27-3.34-1.02H192.65Z"/>
  <path d="M76.51,185.85c-.25-1.64-.38-2.45-.54-3.47-2.17,4.31-5.61,2.34-9.14,2.37v-13.3c3.23-.57,6.23-1.56,9.01,1.22,.21-.94,.42-1.92,.65-2.97,.51-.18,1.03-.41,1.59-.55,6.8-1.66,8.88-.14,8.98,6.83,.04,2.5-.14,5.05-.67,7.48-.21,.94-1.62,2.14-2.62,2.29-2.34,.34-4.75,.11-7.26,.11Z"/>
  <path d="M74.71,88.92h79.01c0,.24,0,.48,0,.72H74.78c-.02-.24-.05-.48-.07-.72Z"/>
  <path d="M183.67,50.51c3.17,0,5.6,2.27,5.64,5.25,.04,3.06-2.68,5.66-5.87,5.61-3.1-.06-5.7-2.58-5.66-5.5,.04-3.2,2.42-5.37,5.89-5.36Z"/>
  <path d="M75.91,162.89h76.61c0,.22,0,.44,0,.66H75.99l-.09-.66Z"/>
  <path d="M167.4,98.87v55.23c-.23,0-.47,0-.7,0v-55.23c.23,0,.47,0,.7,0Z"/>
  <path d="M63.41,78.02c.02-2.84,1.76-4.7,4.37-4.67,2.52,.03,4.51,2.19,4.44,4.79-.07,2.38-1.95,4.27-4.26,4.25-2.88-.02-4.58-1.65-4.55-4.37Z"/>
  <path d="M60.7,152.05v-51.42c.22,0,.44,0,.66,0v51.48c-.22-.02-.44-.04-.66-.06Z"/>
  <path d="M65.31,177.92c-.24,2.38-.39,4.69-.75,6.98-.09,.59-.81,1.08-1.25,1.62-.39-.52-.98-.99-1.14-1.58-1.37-4.86-1.29-9.74,.03-14.59,.14-.52,.67-.94,1.03-1.4,.46,.51,1.24,.97,1.32,1.53,.36,2.48,.53,4.99,.76,7.45Z"/>
</svg>