<?xml version="1.0" encoding="UTF-8"?>
<svg id="uuid-b7d2b4ed-5084-48f0-8ab0-a92a4940bbd1" data-name="Calque 2" xmlns="http://www.w3.org/2000/svg" width="250" height="250" viewBox="0 0 250 250">
  <path d="M195.71,121.34c-.2-.22-.4-.44-.6-.65-.81,.45-1.82,.71-2.39,1.37-2.02,2.34-4.34,4.57-5.73,7.27-3.26,6.33-4.35,13.05-1.14,19.81,1.68,3.53,4.82,4.44,8.18,2.39,1.71-1.04,3.49-2.35,4.59-3.97,6.57-9.68,9.55-20.42,8.37-32.09-.7-6.91-5.7-9.89-12.5-8.22-7.01,1.72-11.11,6.49-13.35,12.89-1.72,4.92-2.56,10.14-4.09,15.13-.82,2.69-1.99,5.38-3.53,7.71-1.48,2.24-3.79,2.13-5.64,.17-3.15-3.34-4.83-7.31-5.05-11.93-.24-4.98-.4-9.97-1.01-14.91-.21-1.7-1.4-4.28-2.66-4.64-2.34-.67-3.96,1.62-4.92,3.62-1.38,2.86-2.29,5.94-3.62,8.83-.72,1.56-1.88,2.92-2.84,4.37-1.55-1.34-3.15-2.63-4.63-4.05-.5-.48-.78-1.26-1.02-1.94-1.16-3.28-2.45-6.53-3.34-9.88-1.04-3.91-3.04-6.9-6.27-9.42-16.41-12.79-32.65-25.81-49.1-38.55-2.38-1.84-4.25-4.29-7.7-5.14-4.19-1.03-8.28-1.52-12.52-1.45-5.92,.1-8.91,3.46-8.68,9.3,.28,6.98,4.8,11.61,9.57,15.23,18.95,14.39,38.34,28.2,57.48,42.35,1.62,1.2,2.96,1.22,4.65,.85,4.73-1.04,9.47-2.03,13.5-2.89,2.18,2.63,3.89,4.98,5.91,7.03,1.45,1.46,3.23,1.34,4.24-.69,1.15-2.33,2-4.81,3.11-7.17,1.18-2.49,2.23-5.11,3.85-7.29,1.41-1.9,2.81-1.45,3.16,.92,.62,4.19,1.28,8.43,1.25,12.64-.03,5.68,.98,10.82,4.54,15.41,3.11,4.01,6.81,4.1,9.46-.17,1.19-1.92,2.22-4.03,2.85-6.2,1.46-5.02,2.4-10.19,3.99-15.17,1.98-6.22,5.6-11.3,12.44-12.68,7.34-1.48,10.2,.62,10.74,6.64,.39,4.33,.17,8.86-.67,13.12-1.28,6.51-3.41,12.84-8.04,17.92-.97,1.06-2.21,2.01-3.51,2.61-3.47,1.6-6.6-.82-7.15-5.57-.94-8.09,1.31-15.04,7.66-20.44,.83-.7,1.46-1.63,2.18-2.46Zm42.47,49.32c.07,.18,.14,.36,.21,.54-.48-.05-1.04-.28-1.41-.1-.81,.38-1.85,.81-2.17,1.51-.32,.7-.21,2.16,.29,2.55,.79,.61,2.45,1.15,3.04,.73,1.53-1.08,2.18-3.3,4.49-3.53,.11-.01,.34-1.01,.15-1.31-.45-.68-1.16-1.73-1.7-1.69-.99,.08-1.93,.83-2.89,1.3Zm-40.28-10.12c3.91,.02,6.6-3.17,4.9-5.02-2.07-2.26-4.25,.5-6.39,.92-.38,.07-.93,1.91-.6,2.45,.54,.89,1.73,1.39,2.1,1.65Zm-155.62,8.59c-3.56,.96-10.05,10.99-8.96,14.24,2.89-4.59,5.77-9.18,8.96-14.24Zm61.3-36.55c2.7,3.22,3.92,3.9,5.12,2.92,1.43-1.16,1.99-3.46,1.1-4.49-1.14-1.32-3.08-.85-6.22,1.57Zm5.12-78.59c1.99,.88,2.5,4.24,5.32,2.61,1.58-.91,1.94-3.43,1.03-4.45-1.17-1.32-3.19-.79-6.35,1.84Zm84.97,176.21c.14,.18,.28,.36,.42,.54,2.45-1.36,4.89-2.72,7.14-3.97v-4.51c-2.51,2.63-5.04,5.29-7.56,7.94Zm5.33,3.07c-1.82,2.71-3.4,5.05-4.97,7.39l.35,.29c1.1-1.06,2.2-2.13,3.31-3.19,.13,.13,.26,.26,.39,.39-.18,.54-.36,1.08-.55,1.62,.13,.09,.27,.19,.4,.28,1.23-1.37,2.46-2.74,3.82-4.27-.69,.06-1.27,.12-1.6,.15-.38-.88-.74-1.7-1.16-2.67Zm29.18-72.95c-.03,.34-.06,.68-.09,1.03,.8,.67,1.69,1.95,2.38,1.85,.89-.13,1.61-1.36,2.41-2.12-.73-.71-1.37-1.83-2.21-2.01-.71-.15-1.65,.79-2.48,1.25Zm1.14,45.79c-.18-.34-.36-.69-.54-1.03-.59-.42-1.31-1.29-1.73-1.16-.67,.21-1.13,1.07-1.68,1.66,.62,.52,1.19,1.35,1.87,1.45,.63,.1,1.38-.58,2.08-.92Zm-166.88,10.58c.73-1.13,1.45-2.24,2.17-3.34-.36-.23-.72-.46-1.07-.7-.59,1.17-1.17,2.33-1.75,3.5,0,.02,.11,.09,.65,.54Zm136.65,.27c.02-.26,.04-.52,.05-.78-2.72-.32-5.45-.65-8.17-.97-.04,.3-.07,.6-.11,.9,2.74,.28,5.48,.57,8.22,.85ZM18.79,50.28c.23-.03,.46-.06,.69-.09-.34-2.96-.67-5.92-1.01-8.88-.21,.03-.41,.05-.62,.08,.31,2.96,.62,5.93,.93,8.89ZM246.6,191.34c-.97-.65-1.52-1.3-2.03-1.28-.51,.03-1.36,.73-1.37,1.15-.02,.51,.71,1.47,1.09,1.46,.63-.02,1.24-.67,2.31-1.33Zm-9,3.82c-1.13-.66-1.75-1.26-2.4-1.31-.34-.03-.99,.9-1.05,1.44-.04,.38,.74,1.26,1.02,1.2,.69-.13,1.3-.67,2.43-1.34Zm-47.91,13.89c-.03,.24-.05,.47-.08,.71,2.38,.48,4.77,.96,7.15,1.44l.14-.75c-2.4-.47-4.81-.94-7.21-1.41ZM35.64,14.86c.03,.32,.06,.63,.1,.95,1.79-.24,3.58-.48,5.37-.72-.05-.31-.1-.62-.15-.93-1.77,.23-3.54,.46-5.31,.7ZM237.18,227.27c-.15,.27-.3,.53-.45,.8,1.71,.56,3.42,1.12,5.13,1.68,.1-.28,.19-.56,.29-.84l-4.97-1.64Z" style="fill: #fff;"/>
  <path d="M1.49,137.27c2.41,2.71,5.6,2.92,8.95,3.1,1.68,.09,3.56,.85,4.15,2.95,.06,.22,.23,.57,.39,.59,4.71,.63,5.65,5.09,8.14,7.98,.05,.05,.15,.06,.37,.14,.25-.15,.56-.44,.92-.55,.56-.17,1.16-.22,1.74-.33,.1,.61,.38,1.27,.26,1.84-.18,.87-.4,1.93-1.01,2.47-2.3,2.04-1.52,4.36-.84,6.67,.48,1.64,.86,3.11-.6,4.52-.44,.43-.61,1.41-.5,2.08,.43,2.75-.2,5.21-1.68,7.52-.2,.32-.16,.96-.4,1.07-3.33,1.51-1.03,2.32,.37,3.26,.54,.36,1.16,.64,1.62,1.08,1.86,1.75,3.71,2.17,5.77,.31,.45-.41,1.12-.57,2.07-1.02,.26,1.21,.91,2.39,.59,3.13-.84,1.92,.28,2.66,1.48,3.58,.7,.54,1.26,1.25,1.93,1.84,1.26,1.1,2.45,2.21,4.44,1.51,2.05-.71,3.32,.48,2.54,2.56-1.01,2.7,.85,4.06,2.16,5.63,.81,.97,2.05,1.56,3.45,.43,.5-.41,1.44-.28,2.14-.39,.14,.49,.27,.73,.22,.78-3.26,3.26,.2,6.81-.44,10.17-.04,.19,.14,.55,.31,.63,3.25,1.55,2.75,4.42,2.29,7.87,1.94-1.17,3.36-2.16,4.89-2.9,.67-.33,1.58-.16,2.39-.22-.29,.76-.41,1.7-.93,2.25-.7,.75-1.72,1.2-2.37,1.62,.25,.98,.48,1.88,.74,2.86,3.48-.46,7.33-.97,11.18-1.48-.25,.27-.5,.53-.75,.8,1.29,.79,2.59,1.58,4.3,2.63,1.92-3.12,3.81-6.17,5.7-9.23,.13,.07,.25,.14,.38,.21-1.13,2.23-2.35,4.41-3.36,6.7-.37,.84-.22,1.9-.31,2.86,1.1-.21,2.2-.41,3.29-.66,.28-.06,.52-.31,.52-.31,.39,1.04,.52,2.21,1.16,2.94,1.58,1.84,3.7,3.17,4.41,5.76,.19,.71,1.45,1.12,2.45,1.82-.12,.65-.37,1.51-.41,2.37-.09,2.17,.72,4.13,2.88,4.6,2.75,.6,3.96,2.23,4.51,4.72H1.49v-108.73Z"/>
  <path d="M212.56,246c.32-2.4,.84-4.8,.86-7.21,0-.93-.92-2.41-1.75-2.7-1.54-.54-3.49-1.61-5.31,.55,.19-1.84,.39-3.68,.57-5.4-3.09-3.37-4.39-.05-6.38,1.47,.06-2.05,2.01-2.7,2.92-4.15-.31-.11-.64-.22-1.79-.62,1.34-.71,2.32-1.24,3.31-1.77-.16-.23-.32-.45-.48-.68-.58-.08-1.16-.17-2.13-.3,.88-.81,1.5-1.38,2.13-1.95-2.88-4.35,.18-11.12,4.83-13.23-.77-.93-2.46-1.91-.05-2.8-1.48-2.3-2.93-4.54-4.58-7.1,.92-2.72,2.42-5.5,6.33-5.79,2.76-.2,5.6,1.18,6.23,3.41,.43,1.52,.51,3.38,0,4.83-.46,1.33-1.92,2.32-2.85,3.36,.8,.32,1.78,.71,3.29,1.32,.1-.03,.83-.29,1.7-.59-.83-1.78-.65-3.54,1.35-4.13,.96-.28,2.84,.29,3.3,1.07,1.17,1.98,.03,3.63-1.67,5.08,.81-.25,1.62-.5,2.54-.78,.68,.96,1.39,1.98,2.1,2.99,2.48-.86,3.53-.07,4.35,2.36,.57,1.68,1.87,3.11,2.86,4.68-.14,.06-.64,.26-1.45,.6,2.73,3.76,5.96,6.38,10.46,7.37-.23,.44-.58,1.12-.84,1.63-2.51-.48-4.9-.94-7.23-1.39-.46,1.61-.86,3-1.15,4.03,.69,1.96,1.35,3.81,2,5.66-.23,.13-.46,.25-.69,.38-.55-.49-1.09-.98-1.81-1.61-1.22,2.48-3.21,2.02-5.55,2.05-2.11,.03-4.9-2.04-6.81,1.22-.77,1.32-.99,2.24-.54,3.5,.14,.38,.6,.78,.53,1.08-.23,.94-.65,1.83-.99,2.75-.65-.52-1.47-.92-1.9-1.58-.44-.68-.51-1.61-.89-2.96-.5,.89-.72,1.28-.9,1.6-.66-.33-1.32-.66-1.98-.98-.34,.7-.78,1.37-1,2.11-.25,.84-.31,1.74-.45,2.62h-.49Z"/>
  <path d="M15.27,0c-.17,1.13-.34,2.26-.54,3.59,.59-.44,1.27-.96,2.09-1.58,1.33,1.01,2.61,2.85,4.66,.69,.29-.31,2.67,.48,2.9,1.16,.89,2.57,3.35,2.2,5.13,3.37-.4,.38-.81,.77-1.33,1.26,3.38,2.37,7.07,2.91,10.92,2.97,.63,.01,1.24,.62,2.42,1.25-3.31,.72-5.71,1.24-8.09,1.76,.21,1.72,.4,3.24,.53,4.36,1.46,1.49,2.81,2.87,4.16,4.25-.16,.2-.33,.41-.49,.61-.72-.21-1.43-.41-2.34-.68-.07,2.8-2.06,3.1-4.08,4.09-1.91,.93-5.28,.12-5.76,3.83-.21,1.62,0,2.61,1.04,3.61,.29,.28,.85,.49,.89,.8,.14,.89,.08,1.8,.1,2.7-.8-.19-1.7-.21-2.36-.62-.73-.45-1.24-1.27-2.28-1.64,.04,.43,.08,.85,.12,1.28q-2.16,1.36-2.33,4.27c-.63-1.93-1.38-3.84-1.85-5.81-.4-1.66-1.77-2.8-3.36-2.23-1.38,.49-2.67,1.27-4.27,2.06-.37-1.2-.92-2.96-1.46-4.68q-3.08-.54-4.82,3.84-1.28-.64,.61-4.67-1.24-.28-.09-3.27c-.76,.15-1.39,.27-2.35,.45,.5-1.09,.85-1.87,.98-2.16-.97-1.6-1.76-2.91-2.55-4.22,0-6.89,0-13.78,0-20.66C3.46,0,5.43,0,7.4,0c-.34,1.62-.68,3.24-.97,4.61,.8-.06,1.82-.13,3.4-.24,.13-.07,.83-.48,1.13-.66C10.58,2.43,10.22,1.22,9.86,0c1.8,0,3.61,0,5.41,0Z"/>
  <path d="M219.45,0c1.7,6.34,3.4,12.68,5.12,19.08,.64-.93,1.14-1.66,1.64-2.39l.66,.23c-.17-2.41-.34-4.82-.51-7.23,.17-.02,.34-.05,.52-.07,.16,.92,.42,1.84,.47,2.77,.2,3.59,.22,7.2,.55,10.78,.1,1.04,.77,2.52,1.58,2.88,1.09,.48,2.48,1.77,3.9,.27,.53-.57,1.31-.9,2-1.35,2.38,2.32,2.44,3.16,.51,6.02-.67,.99-.74,1.57,.7,2.25,2.81,1.33,2.78,2.42,.48,4.69-.39,.39-.43,1.11-.68,1.67-.29,.65-.63,1.28-.95,1.92-.41-.21-.82-.42-1.23-.63,.38-.64,.73-1.29,1.14-1.91,.12-.19,.37-.3,.8-.63-.42-.52-.82-1.01-1.18-1.46-2.3,3.44-5.47,4.39-9.57,4.35-.05-1.04-.1-2.11-.15-3.22-.55-.22-1.36-.55-2.15-.87,.77-2.99,1.24-3.22,3.74-1.74-.23-1.65-.45-3.17-.72-5.09-2.36,.73-4.7,1.45-7.03,2.18-.05-.13-.1-.26-.15-.4,1.54-.73,3.05-1.52,4.62-2.19,3.37-1.45,3.72-4.05,.67-6.2-2.4-1.69-4.97-3.13-7.31-5.03,2.26,1.07,4.52,2.14,6.79,3.22C221.98,14.63,220.22,7.32,218.46,0,218.79,0,219.12,0,219.45,0Z"/>
  <path d="M1.49,43.3c.41-1.9,.8-3.8,1.23-5.7,.11-.5,.37-.96,.56-1.43,.69,.46,1.38,.92,2.25,1.5,.06-.04,.57-.38,1.08-.71,.15,.09,.31,.17,.46,.26-.65,1.68-1.3,3.37-2.16,5.62-.31-1.11-.46-1.64-.81-2.89-.61,1.54-.94,2.55-1.41,3.48-.27,.52-.79,.9-1.2,1.35,0-.49,0-.98,0-1.48Z"/>
  <path d="M9.86,0c.36,1.22,.72,2.43,1.1,3.71-.3,.18-1,.59-1.13,.66-1.58,.11-2.6,.19-3.4,.24C6.71,3.24,7.05,1.62,7.4,0,8.22,0,9.04,0,9.86,0Z" style="fill: #fff;"/>
  <path d="M195.71,121.34c-.72,.83-1.35,1.76-2.18,2.46-6.35,5.4-8.6,12.35-7.66,20.44,.55,4.76,3.69,7.17,7.15,5.57,1.3-.6,2.54-1.55,3.51-2.61,4.63-5.07,6.76-11.41,8.04-17.92,.84-4.26,1.05-8.79,.67-13.12-.54-6.02-3.4-8.13-10.74-6.64-6.84,1.38-10.46,6.47-12.44,12.68-1.58,4.97-2.53,10.15-3.99,15.17-.63,2.16-1.65,4.28-2.85,6.2-2.65,4.27-6.35,4.18-9.46,.17-3.56-4.59-4.57-9.73-4.54-15.41,.02-4.21-.63-8.45-1.25-12.64-.35-2.37-1.75-2.82-3.16-.92-1.62,2.18-2.68,4.8-3.85,7.29-1.11,2.35-1.96,4.84-3.11,7.17-1,2.03-2.79,2.15-4.24,.69-2.03-2.04-3.73-4.4-5.91-7.03-4.02,.86-8.76,1.85-13.5,2.89-1.69,.37-3.03,.35-4.65-.85-19.14-14.15-38.53-27.96-57.48-42.35-4.77-3.62-9.29-8.26-9.57-15.23-.24-5.84,2.76-9.2,8.68-9.3,4.24-.07,8.33,.41,12.52,1.45,3.45,.85,5.32,3.29,7.7,5.14,16.45,12.74,32.69,25.76,49.1,38.55,3.24,2.52,5.23,5.51,6.27,9.42,.89,3.35,2.19,6.6,3.34,9.88,.24,.69,.52,1.46,1.02,1.94,1.48,1.42,3.08,2.71,4.63,4.05,.96-1.45,2.12-2.81,2.84-4.37,1.33-2.89,2.24-5.97,3.62-8.83,.96-1.99,2.59-4.29,4.92-3.62,1.26,.36,2.45,2.94,2.66,4.64,.62,4.94,.77,9.93,1.01,14.91,.22,4.62,1.9,8.59,5.05,11.93,1.85,1.97,4.16,2.07,5.64-.17,1.54-2.34,2.7-5.03,3.53-7.71,1.53-4.99,2.37-10.21,4.09-15.13,2.24-6.4,6.34-11.17,13.35-12.89,6.8-1.67,11.8,1.3,12.5,8.22,1.18,11.67-1.8,22.42-8.37,32.09-1.1,1.62-2.88,2.93-4.59,3.97-3.36,2.04-6.51,1.14-8.18-2.39-3.21-6.76-2.12-13.47,1.14-19.81,1.39-2.7,3.71-4.93,5.73-7.27,.57-.65,1.58-.92,2.39-1.37,.2,.22,.4,.44,.6,.65Zm-94.35-41.15c-.29-.37-.53-.82-.89-1.11-7.14-5.65-14.3-11.29-21.47-16.94-4.9,6.65-9.72,13.19-14.63,19.84,19.57,14.37,38.99,28.63,58.47,42.93,4.18-6.09,8.31-12.1,12.5-18.2-8.13-6.44-16.09-12.79-24.1-19.09-2.41-1.89-4.93-3.64-7.4-5.46-.82-.66-1.65-1.31-2.47-1.97Zm-25.56-19.22c-3.92-2.76-12.89-3.21-16.7-1.13-1.47,.8-2.84,2.49-3.42,4.08-1.69,4.67,1.13,11.19,6.36,15.24,4.59-6.06,9.17-12.13,13.76-18.19Zm-12.78,19.93c.32,.07,.65,.14,.97,.21,4.82-6.55,9.64-13.1,14.46-19.66-.2-.21-.4-.42-.6-.62-.6,.38-1.36,.62-1.77,1.15-4.31,5.62-8.57,11.26-12.78,16.95-.35,.47-.2,1.31-.29,1.97Zm62.64,41.72c3.4-.26,6.46-.49,10.06-.76-1.79-.72-3.1-1.28-4.43-1.77q-3.52-1.3-5.63,2.53Zm9.2-13.23c-.24-.02-.49-.05-.73-.07-.31,1.13-1.25,2.67-.82,3.32,1.26,1.96,3.06,3.57,4.64,5.32,.11-.08,.22-.15,.33-.23-1.14-2.78-2.28-5.56-3.41-8.34Zm-6.4,8.87c2.89,1,5.47,1.9,8.04,2.79,.12-.28,.23-.55,.35-.83-2.21-1.41-4.41-2.82-6.75-4.32-.55,.79-1,1.43-1.65,2.36Zm3.32-5.99c-.22,1.57-.78,3.05-.41,3.34,1.9,1.47,4.04,2.63,6.1,3.89,.1-.14,.2-.29,.31-.43-1.81-2.05-3.62-4.11-6-6.8Zm1.53,11.09c-3.21,.17-6.89-1.42-9.31,2.04,3.1-.68,6.21-1.36,9.31-2.04Zm7.49-1.54c-.48-1.22-.85-2.16-1.33-3.4-1.16,1.49-2.08,2.68-3.3,4.26,1.77-.32,3.06-.56,4.64-.85Zm-2.05-6.25c-.87-2.71-1.74-5.42-2.65-8.23-.81,1.49-.35,3.03,2.65,8.23Z"/>
  <path d="M238.17,170.66c.96-.47,1.9-1.22,2.89-1.3,.53-.04,1.25,1.01,1.7,1.69,.19,.3-.04,1.3-.15,1.31-2.31,.23-2.96,2.44-4.49,3.53-.59,.42-2.25-.12-3.04-.73-.5-.38-.61-1.85-.29-2.55,.32-.7,1.36-1.13,2.17-1.51,.37-.18,.94,.06,1.41,.1-.07-.18-.14-.36-.21-.54Z"/>
  <path d="M197.89,160.54c-.36-.26-1.55-.76-2.1-1.65-.33-.54,.22-2.38,.6-2.45,2.14-.42,4.32-3.18,6.39-.92,1.7,1.85-.99,5.04-4.9,5.02Z"/>
  <path d="M42.28,169.13c-3.18,5.06-6.07,9.65-8.96,14.24-1.09-3.25,5.4-13.28,8.96-14.24Z"/>
  <path d="M103.58,132.58c3.14-2.42,5.08-2.89,6.22-1.57,.89,1.03,.33,3.33-1.1,4.49-1.21,.98-2.42,.3-5.12-2.92Z"/>
  <path d="M108.7,53.99c3.16-2.63,5.18-3.16,6.35-1.84,.9,1.02,.55,3.53-1.03,4.45-2.82,1.63-3.33-1.73-5.32-2.61Z"/>
  <path d="M193.68,230.2c2.53-2.66,5.06-5.31,7.56-7.94v4.51c-2.25,1.25-4.7,2.61-7.14,3.97-.14-.18-.28-.36-.42-.54Z"/>
  <path d="M199,233.26c.42,.96,.78,1.79,1.16,2.67,.33-.03,.92-.09,1.6-.15-1.36,1.52-2.59,2.89-3.82,4.27-.13-.09-.27-.19-.4-.28,.18-.54,.36-1.08,.55-1.62-.13-.13-.26-.26-.39-.39-1.1,1.06-2.2,2.13-3.31,3.19l-.35-.29c1.57-2.34,3.14-4.67,4.97-7.39Z"/>
  <path d="M228.18,160.31c.84-.46,1.78-1.4,2.48-1.25,.84,.18,1.48,1.3,2.21,2.01-.8,.76-1.52,2-2.41,2.12-.69,.1-1.58-1.18-2.38-1.85,.03-.34,.06-.69,.09-1.03Z"/>
  <path d="M229.33,206.1c-.7,.34-1.45,1.02-2.08,.92-.68-.1-1.25-.94-1.87-1.45,.55-.59,1.01-1.45,1.68-1.66,.42-.13,1.14,.74,1.73,1.16,.18,.34,.36,.69,.54,1.03Z"/>
  <path d="M62.45,216.68c-.54-.44-.66-.52-.65-.54,.58-1.17,1.17-2.34,1.75-3.5,.36,.23,.72,.46,1.07,.7-.72,1.11-1.44,2.21-2.17,3.34Z"/>
  <path d="M199.1,216.95c-2.74-.28-5.48-.57-8.22-.85,.04-.3,.07-.6,.11-.9,2.72,.32,5.45,.65,8.17,.97-.02,.26-.04,.52-.05,.78Z"/>
  <path d="M18.79,50.28c-.31-2.96-.62-5.93-.93-8.89,.21-.03,.41-.05,.62-.08,.34,2.96,.67,5.92,1.01,8.88-.23,.03-.46,.06-.69,.09Z"/>
  <path d="M246.6,191.34c-1.07,.66-1.68,1.31-2.31,1.33-.38,.01-1.11-.95-1.09-1.46,.01-.42,.86-1.12,1.37-1.15,.51-.03,1.06,.63,2.03,1.28Z"/>
  <path d="M237.6,195.16c-1.13,.67-1.74,1.21-2.43,1.34-.28,.05-1.07-.82-1.02-1.2,.06-.55,.71-1.47,1.05-1.44,.66,.05,1.28,.65,2.4,1.31Z"/>
  <path d="M189.69,209.05c2.4,.47,4.81,.94,7.21,1.41l-.14,.75c-2.38-.48-4.77-.96-7.15-1.44,.03-.24,.05-.47,.08-.71Z"/>
  <path d="M35.64,14.86c1.77-.23,3.54-.46,5.31-.7,.05,.31,.1,.62,.15,.93-1.79,.24-3.58,.48-5.37,.72-.03-.32-.06-.63-.1-.95Z"/>
  <path d="M237.18,227.27l4.97,1.64c-.1,.28-.19,.56-.29,.84-1.71-.56-3.42-1.12-5.13-1.68,.15-.26,.3-.53,.45-.8Z"/>
  <path d="M103.83,82.16c2.47,1.81,4.99,3.56,7.4,5.46,8.01,6.3,15.98,12.65,24.1,19.09-4.19,6.1-8.31,12.11-12.5,18.2-19.48-14.3-38.9-28.56-58.47-42.93,4.91-6.66,9.73-13.19,14.63-19.84,7.17,5.65,14.33,11.29,21.47,16.94,.36,.29,.6,.74,.89,1.11-.99-.49-1.95-1.07-2.99-1.43-.52-.18-1.31-.12-1.75,.17-.25,.17-.2,1.07-.02,1.55,.87,2.4,5.54,4.84,8.42,4.23-.42-.9-.8-1.73-1.19-2.56Zm-25.87-17.67c-.42,4.28,12.41,14.16,17.38,13.56-1.15-3.95-13.03-13.29-17.38-13.56Z" style="fill: #fff;"/>
  <path d="M75.8,60.97c-4.59,6.07-9.17,12.13-13.76,18.19-5.23-4.05-8.05-10.57-6.36-15.24,.57-1.59,1.95-3.28,3.42-4.08,3.81-2.08,12.78-1.63,16.7,1.13Z" style="fill: #fff;"/>
  <path d="M63.02,80.91c.08-.67-.06-1.5,.29-1.97,4.21-5.69,8.48-11.33,12.78-16.95,.4-.53,1.17-.77,1.77-1.15,.2,.21,.4,.42,.6,.62-4.82,6.55-9.64,13.1-14.46,19.66-.32-.07-.65-.14-.97-.21Z" style="fill: #fff;"/>
  <path d="M125.66,122.63q2.11-3.82,5.63-2.53c1.33,.49,2.64,1.05,4.43,1.77-3.6,.27-6.66,.5-10.06,.76Z" style="fill: #fff;"/>
  <path d="M103.83,82.16c.39,.83,.77,1.66,1.19,2.56-2.87,.61-7.54-1.83-8.42-4.23-.17-.48-.23-1.39,.02-1.55,.44-.29,1.22-.35,1.75-.17,1.04,.35,2,.94,2.99,1.43,.82,.66,1.65,1.31,2.47,1.97Zm-6.51-3.16c.43,2.59,2.98,4.55,6.83,5.22-1.77-2.73-4.37-3.72-6.83-5.22Z"/>
  <path d="M134.86,109.4c1.14,2.78,2.28,5.56,3.41,8.34-.11,.08-.22,.15-.33,.23-1.59-1.75-3.38-3.36-4.64-5.32-.42-.66,.51-2.19,.82-3.32,.24,.02,.49,.05,.73,.07Z" style="fill: #fff;"/>
  <path d="M128.46,118.27c.65-.93,1.09-1.57,1.65-2.36,2.33,1.49,4.54,2.9,6.75,4.32-.12,.28-.23,.55-.35,.83-2.58-.89-5.15-1.79-8.04-2.79Z" style="fill: #fff;"/>
  <path d="M131.79,112.28c2.37,2.69,4.18,4.74,6,6.8-.1,.14-.2,.29-.31,.43-2.06-1.27-4.2-2.43-6.1-3.89-.37-.28,.19-1.77,.41-3.34Z" style="fill: #fff;"/>
  <path d="M133.32,123.37c-3.1,.68-6.21,1.36-9.31,2.04,2.42-3.47,6.1-1.87,9.31-2.04Z" style="fill: #fff;"/>
  <path d="M140.8,121.83c-1.58,.29-2.87,.53-4.64,.85,1.23-1.58,2.15-2.76,3.3-4.26,.49,1.24,.86,2.19,1.33,3.4Z" style="fill: #fff;"/>
  <path d="M138.75,115.58c-3-5.2-3.45-6.73-2.65-8.23,.9,2.81,1.78,5.52,2.65,8.23Z" style="fill: #fff;"/>
  <path d="M77.96,64.49c4.35,.27,16.22,9.62,17.38,13.56-4.96,.59-17.79-9.28-17.38-13.56Zm.37,.16c1.2,4.21,11.94,12.23,16.15,12.3-4.86-4.84-9.91-8.77-16.15-12.3Z"/>
  <path d="M97.32,79.01c2.46,1.51,5.05,2.49,6.83,5.22-3.85-.67-6.4-2.63-6.83-5.22Z" style="fill: #fff;"/>
  <path d="M78.32,64.65c6.23,3.53,11.29,7.46,16.15,12.3-4.21-.07-14.95-8.1-16.15-12.3Z" style="fill: #fff;"/>
</svg>