<?xml version="1.0" encoding="UTF-8"?>
<svg id="uuid-4a5d4803-5313-43d4-a9b9-23452a1b60d7" data-name="Calque 2" xmlns="http://www.w3.org/2000/svg" width="250" height="250" viewBox="0 0 250 250">
  <path d="M71.99,194.7c0-9.83,.06-19.66-.02-29.49-.1-12.3-.3-24.6-.53-36.89-.01-.8-.43-1.79-1-2.34-6.21-5.98-12.5-11.87-18.73-17.82-2.17-2.07-4.19-4.29-6.4-6.32-.95-.88-2.2-1.44-3.61-2.33-.22-2.16,.05-2.28,2.66-1.92,2.85,.39,5.75,.57,8.64,.6,20.3,.21,40.59,.36,60.89,.52,2.37,.02,4.75,0,7.14,0,.69-.82,1.61-1.91,2.17-2.57,.48-1.7,1.3-3.09,1.15-4.36-.28-2.3-.66-4.84-1.89-6.69-1.4-2.13-1.47-4,1.17-4.33,3.53-.44,7.16-.2,10.75-.06,1.42,.05,2.69,.57,2.66,2.54-.03,2.05-1.72,1.85-2.84,2.44-.27,.14-.63,.08-.95,.12v5.71c.68,.23,1.59,.55,2.76,.95-.09,1.09-.19,2.28-.31,3.6,1.94,.19,4.06,.42,4.5,3.06h5.3c0-4.64,.08-9.19-.03-13.74-.05-2.11,.17-3.7,3.06-3.19v-7.88c.27-.11,.54-.22,.81-.34,.39,.68,1,1.32,1.11,2.04,.19,1.22,.07,2.49,.05,3.74-.01,1.23-.22,2.46,1.42,3.03,.37,.13,.55,1.23,.55,1.89,.05,4.25,.08,8.5,0,12.75-.03,1.46,.55,2.24,1.91,2.25,5.15,.05,10.29,.02,15.53,.02,.06-1.04,.11-1.85,.17-2.76,2.53-.78,2.41,1.03,2.5,2.49,.24,.1,.39,.22,.54,.23,10.13,.19,20.26,.4,30.39,.5,1.11,.01,2.22-.7,3.35-1.03,.65-.19,1.32-.3,2.19-.5-.34,2.37-1.47,3.59-2.99,4.93-2.97,2.61-5.55,5.68-8.23,8.62-2.56,2.8-4.99,5.71-7.55,8.5-3.03,3.3-6.13,6.52-9.29,9.87,1.06,1.29,.96,2.38-.67,3.14-.29,.13-.44,.56-.73,.67-5.84,2.17-6.93,6.69-6.1,12.2,.13,.9,0,1.83,.02,2.75,.16,11.21,.26,22.43,.54,33.64,.1,3.93,.63,7.85,.96,11.77H71.99Z"/>
</svg>