<?xml version="1.0" encoding="UTF-8"?>
<svg id="uuid-5f08455a-8615-41b6-a0f3-d54b785e3649" data-name="Calque 2" xmlns="http://www.w3.org/2000/svg" width="250" height="250" viewBox="0 0 250 250">
  <path d="M90.01,184.27v2.98h2.98v-2.98h-2.98Zm-2.98-17.85v2.98h2.98v-2.98h-2.98Zm0,2.98v2.98h2.98v-2.98h-2.98Zm0,2.98v2.97h2.98v-2.97h-2.98Zm107.1,5.95v2.98h2.98v-2.98h-2.98Zm0,2.98v2.98h2.98v-2.98h-2.98Zm0,2.98v2.98h2.98v-2.98h-2.98Zm2.98,0v2.98h2.98v-2.98h-2.98Zm2.98,0v2.98h2.98v-2.98h-2.98Zm0-2.98v2.98h2.98v-2.98h-2.98Zm0-2.98v2.98h2.98v-2.98h-2.98Zm0-2.98v2.98h2.98v-2.98h-2.98Zm0-2.97v2.97h2.98v-2.97h-2.98Zm0-2.98v2.98h2.98v-2.98h-2.98Zm0-2.98v2.98h2.98v-2.98h-2.98Zm0-2.98v2.98h2.98v-2.98h-2.98Zm0-2.98v2.98h2.98v-2.98h-2.98Zm0-2.97v2.97h2.98v-2.97h-2.98Zm0-2.98v2.98h2.98v-2.98h-2.98Zm0-2.98v2.98h2.98v-2.98h-2.98Zm0-2.98v2.98h2.98v-2.98h-2.98Zm0-2.98v2.98h2.98v-2.98h-2.98Zm0-2.97v2.97h2.98v-2.97h-2.98Zm0-2.98v2.98h2.98v-2.98h-2.98Zm0-2.98v2.98h2.98v-2.98h-2.98Zm0-2.98v2.98h2.98v-2.98h-2.98Zm0-2.98v2.98h2.98v-2.98h-2.98Zm0-2.97v2.97h2.98v-2.97h-2.98Zm0-2.98v2.98h2.98v-2.98h-2.98Zm0-2.98v2.98h2.98v-2.98h-2.98Zm0-2.98v2.98h2.98v-2.98h-2.98Zm0-2.98v2.98h2.98v-2.98h-2.98Zm0-2.97v2.97h2.98v-2.97h-2.98Zm0-2.98v2.98h2.98v-2.98h-2.98Zm0-2.98v2.98h2.98v-2.98h-2.98Zm0-2.98v2.98h2.98v-2.98h-2.98Zm0-2.98v2.98h2.98v-2.98h-2.98Zm0-2.97v2.97h2.98v-2.97h-2.98Zm0-2.98v2.98h2.98v-2.98h-2.98Zm0-2.98v2.98h2.98v-2.98h-2.98Zm0-2.98v2.98h2.98v-2.98h-2.98Zm0-2.98v2.98h2.98v-2.98h-2.98Zm0-2.97v2.97h2.98v-2.97h-2.98Zm0-2.98v2.98h2.98v-2.98h-2.98Zm0-2.98v2.98h2.98v-2.98h-2.98Zm0-2.98v2.98h2.98v-2.98h-2.98Zm0-2.98v2.98h2.98v-2.98h-2.98Zm0-2.97v2.97h2.98v-2.97h-2.98Zm0-2.98v2.98h2.98v-2.98h-2.98Zm0-2.98v2.98h2.98v-2.98h-2.98Zm0-2.98v2.98h2.98v-2.98h-2.98Zm0-2.98v2.98h2.98v-2.98h-2.98Zm-20.83,8.93v2.98h2.98v-2.98h-2.98Zm-2.98,2.98v2.97h2.98v-2.97h-2.98Zm-5.95,2.97v2.98h2.98v-2.98h-2.98Zm-2.98,2.98v2.98h2.98v-2.98h-2.98Zm-2.98,2.98v2.98h2.98v-2.98h-2.98Zm-2.98,2.98v2.98h2.98v-2.98h-2.98Zm-2.97,2.98v2.97h2.97v-2.97h-2.97Zm-2.98,0v2.97h2.98v-2.97h-2.98Zm0,2.97v2.98h2.98v-2.98h-2.98Zm-2.98,2.98v2.98h2.98v-2.98h-2.98Zm-2.98,2.98v2.98h2.98v-2.98h-2.98Zm-2.98,2.98v2.98h2.98v-2.98h-2.98Zm-2.97,2.98v2.97h2.97v-2.97h-2.97Zm-5.95,5.95v2.98h2.98v-2.98h-2.98Zm2.98-2.98v2.98h2.98v-2.98h-2.98Zm-2.98,5.95v2.98h2.98v-2.98h-2.98Zm59.5-50.58v2.98h2.98v-2.98h-2.98Zm-2.98,0v2.98h2.98v-2.98h-2.98Zm-2.98,0v2.98h2.98v-2.98h-2.98Zm0,2.98v2.98h2.98v-2.98h-2.98Zm-2.97,0v2.98h2.97v-2.98h-2.97Zm-2.98,0v2.98h2.98v-2.98h-2.98Zm-2.98,0v2.98h2.98v-2.98h-2.98Zm0,2.98v2.98h2.98v-2.98h-2.98Zm-2.98,0v2.98h2.98v-2.98h-2.98Zm-2.98,2.98v2.98h2.98v-2.98h-2.98Zm-2.97,0v2.98h2.97v-2.98h-2.97Zm0,2.98v2.97h2.97v-2.97h-2.97Zm-2.98,0v2.97h2.98v-2.97h-2.98Zm-2.98,2.97v2.98h2.98v-2.98h-2.98Zm-2.98,0v2.98h2.98v-2.98h-2.98Zm0,2.98v2.98h2.98v-2.98h-2.98Zm-2.98,0v2.98h2.98v-2.98h-2.98Zm0,2.98v2.98h2.98v-2.98h-2.98Zm-2.97,0v2.98h2.97v-2.98h-2.97Zm0,2.98v2.98h2.97v-2.98h-2.97Zm-2.98,0v2.98h2.98v-2.98h-2.98Zm-2.98,2.98v2.97h2.98v-2.97h-2.98Zm0,2.97v2.98h2.98v-2.98h-2.98Zm-2.98,0v2.98h2.98v-2.98h-2.98Zm0,2.98v2.98h2.98v-2.98h-2.98Zm-2.98,0v2.98h2.98v-2.98h-2.98Zm0,2.98v2.98h2.98v-2.98h-2.98Zm-2.97,0v2.98h2.97v-2.98h-2.97Zm0,2.98v2.98h2.97v-2.98h-2.97Zm-2.98,0v2.98h2.98v-2.98h-2.98Zm0,2.98v2.97h2.98v-2.97h-2.98Zm-2.98,0v2.97h2.98v-2.97h-2.98Zm0,2.97v2.98h2.98v-2.98h-2.98Zm-2.98,0v2.98h2.98v-2.98h-2.98Zm0,2.98v2.98h2.98v-2.98h-2.98Zm-8.92,14.88v2.98h2.98v-2.98h-2.98Zm0,2.98v2.98h2.98v-2.98h-2.98Zm-8.93-50.58v2.98h2.98v-2.98h-2.98Zm0,2.98v2.98h2.98v-2.98h-2.98Zm-2.97,0v2.98h2.97v-2.98h-2.97Zm-2.98,0v2.98h2.98v-2.98h-2.98Zm-2.98,0v2.98h2.98v-2.98h-2.98Zm-2.98,0v2.98h2.98v-2.98h-2.98Zm0-2.98v2.98h2.98v-2.98h-2.98Zm2.98,83.3v2.98h2.98v-2.98h-2.98Zm0,2.98v2.97h2.98v-2.97h-2.98Zm2.98,0v2.97h2.98v-2.97h-2.98Zm0-2.98v2.98h2.98v-2.98h-2.98Zm5.95,14.88v2.98h2.98v-2.98h-2.98Zm-2.97-8.93v2.98h2.97v-2.98h-2.97Zm0-2.97v2.97h2.97v-2.97h-2.97Zm-2.98,5.95v2.98h2.98v-2.98h-2.98Zm2.98,0v2.98h2.97v-2.98h-2.97Zm0,2.98v2.98h2.97v-2.98h-2.97Zm2.97,0v2.98h2.98v-2.98h-2.98Zm2.98,2.98v2.98h2.98v-2.98h-2.98Zm2.98,0v2.98h2.98v-2.98h-2.98Zm0,2.98v2.97h2.98v-2.97h-2.98Zm-2.98,0v2.97h2.98v-2.97h-2.98Zm-2.98,0v2.97h2.98v-2.97h-2.98Zm-2.97,0v2.97h2.97v-2.97h-2.97Zm0-2.98v2.98h2.97v-2.98h-2.97Zm-2.98,0v2.98h2.98v-2.98h-2.98Zm0-2.98v2.98h2.98v-2.98h-2.98Zm-2.98,0v2.98h2.98v-2.98h-2.98Zm-2.98,0v2.98h2.98v-2.98h-2.98Zm0-2.98v2.98h2.98v-2.98h-2.98Zm2.98,0v2.98h2.98v-2.98h-2.98Zm0-2.98v2.98h2.98v-2.98h-2.98Zm2.98,0v2.98h2.98v-2.98h-2.98Zm-23.8,20.83v2.98h2.98v-2.98h-2.98Zm2.98-5.95v2.98h2.98v-2.98h-2.98Zm0-8.92v2.98h2.98v-2.98h-2.98Zm2.98,0v2.98h2.98v-2.98h-2.98Zm0,2.98v2.98h2.98v-2.98h-2.98Zm0,2.98v2.97h2.98v-2.97h-2.98Zm0,2.97v2.98h2.98v-2.98h-2.98Zm0,2.98v2.98h2.98v-2.98h-2.98Zm2.98,2.98v2.98h2.98v-2.98h-2.98Zm2.98,2.98v2.98h2.97v-2.98h-2.97Zm0,2.98v2.97h2.97v-2.97h-2.97Zm-2.98,0v2.97h2.98v-2.97h-2.98Zm0-2.98v2.98h2.98v-2.98h-2.98Zm-2.98,0v2.98h2.98v-2.98h-2.98Zm0-2.98v2.98h2.98v-2.98h-2.98Zm-2.98,0v2.98h2.98v-2.98h-2.98Zm0-2.98v2.98h2.98v-2.98h-2.98Zm-2.98,0v2.98h2.98v-2.98h-2.98Zm2.98-5.95v2.97h2.98v-2.97h-2.98Zm0-2.98v2.98h2.98v-2.98h-2.98Zm17.85-44.62v2.98h2.98v-2.98h-2.98Zm0,2.98v2.97h2.98v-2.97h-2.98Zm2.98,0v2.97h2.98v-2.97h-2.98Zm0,2.97v2.98h2.98v-2.98h-2.98Zm0,2.98v2.98h2.98v-2.98h-2.98Zm-2.98-2.98v2.98h2.98v-2.98h-2.98Zm-2.98-2.97v2.97h2.98v-2.97h-2.98Zm0-2.98v2.98h2.98v-2.98h-2.98Zm0-2.98v2.98h2.98v-2.98h-2.98Zm0-2.98v2.98h2.98v-2.98h-2.98Zm2.98-2.98v2.98h2.98v-2.98h-2.98Zm5.95,8.93v2.98h2.97v-2.98h-2.97Zm0-2.98v2.98h2.97v-2.98h-2.97Zm0-2.98v2.98h2.97v-2.98h-2.97Zm2.97,14.88v2.98h2.98v-2.98h-2.98Zm0-2.98v2.98h2.98v-2.98h-2.98Zm0-2.97v2.97h2.98v-2.97h-2.98Zm0-2.98v2.98h2.98v-2.98h-2.98Zm0-2.98v2.98h2.98v-2.98h-2.98Zm0-2.98v2.98h2.98v-2.98h-2.98Zm0-2.98v2.98h2.98v-2.98h-2.98Zm-2.97,0v2.98h2.97v-2.98h-2.97Zm-2.98,0v2.98h2.98v-2.98h-2.98Zm0,2.98v2.98h2.98v-2.98h-2.98Zm-2.98,0v2.98h2.98v-2.98h-2.98Zm0,2.98v2.98h2.98v-2.98h-2.98Zm2.98,0v2.98h2.98v-2.98h-2.98Zm0,2.98v2.98h2.98v-2.98h-2.98Zm2.98,2.98v2.97h2.97v-2.97h-2.97Zm0,2.97v2.98h2.97v-2.98h-2.97Zm0,2.98v2.98h2.97v-2.98h-2.97Zm0,2.98v2.98h2.97v-2.98h-2.97Zm-2.98,11.9v2.98h2.98v-2.98h-2.98Zm2.98-8.92v2.98h2.97v-2.98h-2.97Zm0,2.98v2.97h2.97v-2.97h-2.97Zm0,2.97v2.98h2.97v-2.98h-2.97Zm0,2.98v2.98h2.97v-2.98h-2.97Zm-5.95,0v2.98h2.98v-2.98h-2.98Zm2.98-2.98v2.98h2.98v-2.98h-2.98Zm0-2.97v2.97h2.98v-2.97h-2.98Zm0-2.98v2.98h2.98v-2.98h-2.98Zm0-2.98v2.98h2.98v-2.98h-2.98Zm-2.98-2.98v2.98h2.98v-2.98h-2.98Zm-2.98,0v2.98h2.98v-2.98h-2.98Zm0-2.98v2.98h2.98v-2.98h-2.98Zm-2.98-5.95v2.98h2.98v-2.98h-2.98Zm-2.97,0v2.98h2.97v-2.98h-2.97Zm0,8.92v2.98h2.97v-2.98h-2.97Zm0-2.98v2.98h2.97v-2.98h-2.97Zm0-2.97v2.97h2.97v-2.97h-2.97Zm0-5.95v2.98h2.97v-2.98h-2.97Zm0-2.98v2.98h2.97v-2.98h-2.97Zm0-2.98v2.98h2.97v-2.98h-2.97Zm5.95,0v2.98h2.98v-2.98h-2.98Zm-2.98,0v2.98h2.98v-2.98h-2.98Zm0,2.98v2.98h2.98v-2.98h-2.98Zm0,2.98v2.98h2.98v-2.98h-2.98Zm0,5.95v2.97h2.98v-2.97h-2.98Zm0,2.97v2.98h2.98v-2.98h-2.98Zm0,2.98v2.98h2.98v-2.98h-2.98Zm0,2.98v2.98h2.98v-2.98h-2.98Zm-2.97,0v2.98h2.97v-2.98h-2.97Zm0,2.98v2.98h2.97v-2.98h-2.97Zm0,2.98v2.97h2.97v-2.97h-2.97Zm0,2.97v2.98h2.97v-2.98h-2.97Zm-2.98,2.98v2.98h2.98v-2.98h-2.98Zm0-5.95v2.97h2.98v-2.97h-2.98Zm-2.98,0v2.97h2.98v-2.97h-2.98Zm-2.98,2.97v2.98h2.98v-2.98h-2.98Zm0,2.98v2.98h2.98v-2.98h-2.98Zm0,11.9v2.98h2.98v-2.98h-2.98Zm0-5.95v2.98h2.98v-2.98h-2.98Zm0-2.98v2.98h2.98v-2.98h-2.98Zm2.98,0v2.98h2.98v-2.98h-2.98Zm0-2.98v2.98h2.98v-2.98h-2.98Zm0-2.98v2.98h2.98v-2.98h-2.98Zm2.98,0v2.98h2.98v-2.98h-2.98Zm0,5.95v2.98h2.98v-2.98h-2.98Zm0,2.98v2.98h2.98v-2.98h-2.98Zm-2.98,0v2.98h2.98v-2.98h-2.98Zm0,2.98v2.97h2.98v-2.97h-2.98Zm-2.98,0v2.97h2.98v-2.97h-2.98Zm-2.98-2.98v2.98h2.98v-2.98h-2.98Zm0-2.98v2.98h2.98v-2.98h-2.98Zm0-2.98v2.98h2.98v-2.98h-2.98Zm2.98-5.95v2.97h2.98v-2.97h-2.98Zm0-2.98v2.98h2.98v-2.98h-2.98Zm0-2.98v2.98h2.98v-2.98h-2.98Zm2.98-5.95v2.98h2.98v-2.98h-2.98Zm0,2.98v2.98h2.98v-2.98h-2.98Zm0,2.98v2.98h2.98v-2.98h-2.98Zm0,2.98v2.98h2.98v-2.98h-2.98Zm2.98,0v2.98h2.98v-2.98h-2.98Zm0-2.98v2.98h2.98v-2.98h-2.98Zm0-2.98v2.98h2.98v-2.98h-2.98Zm0-2.98v2.98h2.98v-2.98h-2.98Zm0-2.97v2.97h2.98v-2.97h-2.98Zm0-2.98v2.98h2.98v-2.98h-2.98Zm0-2.98v2.98h2.98v-2.98h-2.98Zm0-2.98v2.98h2.98v-2.98h-2.98Zm0-2.98v2.98h2.98v-2.98h-2.98Zm0-2.97v2.97h2.98v-2.97h-2.98Zm2.98,0v2.97h2.97v-2.97h-2.97Zm2.97,0v2.97h2.98v-2.97h-2.98Zm2.98,0v2.97h2.98v-2.97h-2.98Zm2.98,0v2.97h2.98v-2.97h-2.98Zm2.98,0v2.97h2.98v-2.97h-2.98Zm2.98,0v2.97h2.97v-2.97h-2.97Zm2.97,0v2.97h2.98v-2.97h-2.98Zm2.98,0v2.97h2.98v-2.97h-2.98Zm0,2.97v2.98h2.98v-2.98h-2.98Zm0,2.98v2.98h2.98v-2.98h-2.98Zm0,2.98v2.98h2.98v-2.98h-2.98Zm0,2.98v2.98h2.98v-2.98h-2.98Zm0,2.98v2.97h2.98v-2.97h-2.98Zm0,2.97v2.98h2.98v-2.98h-2.98Zm0,2.98v2.98h2.98v-2.98h-2.98Zm0,2.98v2.98h2.98v-2.98h-2.98Zm-2.98,0v2.98h2.98v-2.98h-2.98Zm0,2.98v2.98h2.98v-2.98h-2.98Zm0,2.98v2.97h2.98v-2.97h-2.98Zm0,2.97v2.98h2.98v-2.98h-2.98Zm0,2.98v2.98h2.98v-2.98h-2.98Zm0,2.98v2.98h2.98v-2.98h-2.98Zm-2.97,0v2.98h2.97v-2.98h-2.97Zm0,2.98v2.98h2.97v-2.98h-2.97Zm-2.98-2.98v2.98h2.98v-2.98h-2.98Zm-2.98,0v2.98h2.98v-2.98h-2.98Zm0-5.95v2.98h2.98v-2.98h-2.98Zm0-2.97v2.97h2.98v-2.97h-2.98Zm0-2.98v2.98h2.98v-2.98h-2.98Zm0-2.98v2.98h2.98v-2.98h-2.98Zm-2.98,0v2.98h2.98v-2.98h-2.98Zm0,2.98v2.98h2.98v-2.98h-2.98Zm-2.98,0v2.98h2.98v-2.98h-2.98Zm0,2.98v2.97h2.98v-2.97h-2.98Zm0,2.97v2.98h2.98v-2.98h-2.98Zm0,2.98v2.98h2.98v-2.98h-2.98Zm-2.97,0v2.98h2.97v-2.98h-2.97Zm0,2.98v2.98h2.97v-2.98h-2.97Zm0,2.98v2.98h2.97v-2.98h-2.97Zm0,2.98v2.97h2.97v-2.97h-2.97Zm-2.98,0v2.97h2.98v-2.97h-2.98Zm0,2.97v2.98h2.98v-2.98h-2.98Zm-2.98,0v2.98h2.98v-2.98h-2.98Zm0,2.98v2.98h2.98v-2.98h-2.98Zm-2.98,0v2.98h2.98v-2.98h-2.98Zm-2.98,0v2.98h2.98v-2.98h-2.98Zm0-2.98v2.98h2.98v-2.98h-2.98Zm0-2.97v2.97h2.98v-2.97h-2.98Zm-2.97,0v2.97h2.97v-2.97h-2.97Zm0-2.98v2.98h2.97v-2.98h-2.97Zm0-2.98v2.98h2.97v-2.98h-2.97Zm0-2.98v2.98h2.97v-2.98h-2.97Zm2.97-2.98v2.98h2.98v-2.98h-2.98Zm0-2.97v2.97h2.98v-2.97h-2.98Zm0-2.98v2.98h2.98v-2.98h-2.98Zm0-2.98v2.98h2.98v-2.98h-2.98Zm0-2.98v2.98h2.98v-2.98h-2.98Zm2.98,0v2.98h2.98v-2.98h-2.98Zm0-2.98v2.98h2.98v-2.98h-2.98Zm0-2.97v2.97h2.98v-2.97h-2.98Zm2.98,0v2.97h2.98v-2.97h-2.98Zm0-2.98v2.98h2.98v-2.98h-2.98Zm0-2.98v2.98h2.98v-2.98h-2.98Zm0-2.98v2.98h2.98v-2.98h-2.98Zm0-2.98v2.98h2.98v-2.98h-2.98Zm0-2.97v2.97h2.98v-2.97h-2.98Zm0-2.98v2.98h2.98v-2.98h-2.98Zm32.73-8.93v2.98h2.98v-2.98h-2.98Zm0-2.97v2.97h2.98v-2.97h-2.98Zm0-2.98v2.98h2.98v-2.98h-2.98Zm0-2.98v2.98h2.98v-2.98h-2.98Zm-2.98,0v2.98h2.98v-2.98h-2.98Zm0-2.98v2.98h2.98v-2.98h-2.98Zm0-2.98v2.98h2.98v-2.98h-2.98Zm0-2.97v2.97h2.98v-2.97h-2.98Zm0-2.98v2.98h2.98v-2.98h-2.98Zm-2.98,0v2.98h2.98v-2.98h-2.98Zm0-2.98v2.98h2.98v-2.98h-2.98Zm0-2.98v2.98h2.98v-2.98h-2.98Zm0-2.98v2.98h2.98v-2.98h-2.98Zm0-2.97v2.97h2.98v-2.97h-2.98Zm-2.98,0v2.97h2.98v-2.97h-2.98Zm0-2.98v2.98h2.98v-2.98h-2.98Zm14.88,47.6v2.97h2.98v-2.97h-2.98Zm-5.95-5.95v2.98h2.98v-2.98h-2.98Zm0,2.98v2.98h2.98v-2.98h-2.98Zm2.98,0v2.98h2.97v-2.98h-2.97Zm0,2.98v2.97h2.97v-2.97h-2.97Zm0,2.97v2.98h2.97v-2.98h-2.97Zm2.97,0v2.98h2.98v-2.98h-2.98Zm2.98,0v2.98h2.98v-2.98h-2.98Zm0-2.97v2.97h2.98v-2.97h-2.98Zm0-2.98v2.98h2.98v-2.98h-2.98Zm-2.98,0v2.98h2.98v-2.98h-2.98Zm0-2.98v2.98h2.98v-2.98h-2.98Zm-2.97,0v2.98h2.97v-2.98h-2.97Zm0-2.98v2.98h2.97v-2.98h-2.97Zm-2.98,0v2.98h2.98v-2.98h-2.98Zm-2.98,0v2.98h2.98v-2.98h-2.98Zm-2.98,0v2.98h2.98v-2.98h-2.98Zm-2.98,0v2.98h2.98v-2.98h-2.98Zm-2.97,0v2.98h2.97v-2.98h-2.97Zm-2.98,0v2.98h2.98v-2.98h-2.98Zm-2.98,0v2.98h2.98v-2.98h-2.98Zm0-2.98v2.98h2.98v-2.98h-2.98Zm-2.98,0v2.98h2.98v-2.98h-2.98Zm-2.98,0v2.98h2.98v-2.98h-2.98Zm0-2.97v2.97h2.98v-2.97h-2.98Zm-2.97,0v2.97h2.97v-2.97h-2.97Zm0-2.98v2.98h2.97v-2.98h-2.97Zm0-2.98v2.98h2.97v-2.98h-2.97Zm0-2.98v2.98h2.97v-2.98h-2.97Zm0-2.98v2.98h2.97v-2.98h-2.97Zm0-2.97v2.97h2.97v-2.97h-2.97Zm0-2.98v2.98h2.97v-2.98h-2.97Zm5.95,29.75v2.98h2.98v-2.98h-2.98Zm-2.98,0v2.98h2.98v-2.98h-2.98Zm20.83,0v2.98h2.98v-2.98h-2.98Zm0-2.98v2.98h2.98v-2.98h-2.98Zm-2.98,0v2.98h2.98v-2.98h-2.98Zm-2.98,0v2.98h2.98v-2.98h-2.98Zm0,2.98v2.98h2.98v-2.98h-2.98Zm-2.97,0v2.98h2.97v-2.98h-2.97Zm-2.98,0v2.98h2.98v-2.98h-2.98Zm-2.98,0v2.98h2.98v-2.98h-2.98Zm-8.92,0v2.98h2.97v-2.98h-2.97Zm-2.98,0v2.98h2.98v-2.98h-2.98Zm0-2.98v2.98h2.98v-2.98h-2.98Zm-2.98,0v2.98h2.98v-2.98h-2.98Zm0-2.98v2.98h2.98v-2.98h-2.98Zm0-2.98v2.98h2.98v-2.98h-2.98Zm0-2.97v2.97h2.98v-2.97h-2.98Zm-2.98,0v2.97h2.98v-2.97h-2.98Zm0-2.98v2.98h2.98v-2.98h-2.98Zm0-2.98v2.98h2.98v-2.98h-2.98Zm0-2.98v2.98h2.98v-2.98h-2.98Zm0-2.98v2.98h2.98v-2.98h-2.98Zm0-2.97v2.97h2.98v-2.97h-2.98Zm0-2.98v2.98h2.98v-2.98h-2.98Zm0-2.98v2.98h2.98v-2.98h-2.98Zm2.98,0v2.98h2.98v-2.98h-2.98Zm0-2.98v2.98h2.98v-2.98h-2.98Zm2.98,0v2.98h2.98v-2.98h-2.98Zm0-2.98v2.98h2.98v-2.98h-2.98Zm2.98,0v2.98h2.97v-2.98h-2.97Zm0-2.97v2.97h2.97v-2.97h-2.97Zm2.97,0v2.97h2.98v-2.97h-2.98Zm2.98-11.9v2.98h2.98v-2.98h-2.98Zm0,2.98v2.98h2.98v-2.98h-2.98Zm-2.98,0v2.98h2.98v-2.98h-2.98Zm0-2.98v2.98h2.98v-2.98h-2.98Zm0-2.97v2.97h2.98v-2.97h-2.98Zm2.98,0v2.97h2.98v-2.97h-2.98Zm2.98-2.98v2.98h2.98v-2.98h-2.98Zm2.98,0v2.98h2.98v-2.98h-2.98Zm0-2.98v2.98h2.98v-2.98h-2.98Zm-2.98,0v2.98h2.98v-2.98h-2.98Zm-2.98,0v2.98h2.98v-2.98h-2.98Zm0,2.98v2.98h2.98v-2.98h-2.98Zm-2.98,0v2.98h2.98v-2.98h-2.98Zm-2.97,0v2.98h2.97v-2.98h-2.97Zm0,2.98v2.97h2.97v-2.97h-2.97Zm0,2.97v2.98h2.97v-2.98h-2.97Zm0,2.98v2.98h2.97v-2.98h-2.97Zm0,2.98v2.98h2.97v-2.98h-2.97Zm2.97,0v2.98h2.98v-2.98h-2.98Zm2.98,0v2.98h2.98v-2.98h-2.98Zm0,2.98v2.98h2.98v-2.98h-2.98Zm2.98,0v2.98h2.98v-2.98h-2.98Zm0,2.98v2.97h2.98v-2.97h-2.98Zm2.98,0v2.97h2.98v-2.97h-2.98Zm0-2.98v2.98h2.98v-2.98h-2.98Zm2.98,0v2.98h2.97v-2.98h-2.97Zm0-2.98v2.98h2.97v-2.98h-2.97Zm0-2.98v2.98h2.97v-2.98h-2.97Zm0-2.98v2.98h2.97v-2.98h-2.97Zm0-2.97v2.97h2.97v-2.97h-2.97Zm-2.98,0v2.97h2.98v-2.97h-2.98Z"/>
</svg>