<?xml version="1.0" encoding="UTF-8"?>
<svg id="uuid-f290f805-2d80-4925-b6fc-04f00ad11b3d" data-name="Calque 1" xmlns="http://www.w3.org/2000/svg" width="250" height="250" viewBox="0 0 250 250">
  <path d="M70.5,130v3h3v-3h-3Zm39,36v3h3v-3h-3Zm75-30v3h3v-3h-3Zm-111,6v3h3v-3h-3Zm105-24v3h3v-3h-3Zm-93-27v3h3v-3h-3Zm0,3v3h3v-3h-3Zm30,90v3h3v-3h-3Zm-15-9v3h3v-3h-3Zm-15-15v3h3v-3h-3Zm0,6v3h3v-3h-3Zm3,0v3h3v-3h-3Zm3,3v3h3v-3h-3Zm6,3v3h3v-3h-3Zm6,3v3h3v-3h-3Zm3,3v3h3v-3h-3Zm6,3v3h3v-3h-3Zm6,3v3h3v-3h-3Zm3,3v3h3v-3h-3Zm3,0v3h3v-3h-3Zm3,3v3h3v-3h-3Zm3,0v3h3v-3h-3Zm3,3v3h3v-3h-3Zm-3-6v3h3v-3h-3Zm-3,0v3h3v-3h-3Zm0-3v3h3v-3h-3Zm-3,0v3h3v-3h-3Zm-3,0v3h3v-3h-3Zm0-3v3h3v-3h-3Zm-3,0v3h3v-3h-3Zm-3,0v3h3v-3h-3Zm0-3v3h3v-3h-3Zm-3,0v3h3v-3h-3Zm-3,0v3h3v-3h-3Zm0-3v3h3v-3h-3Zm-3,0v3h3v-3h-3Zm0-3v3h3v-3h-3Zm-3,0v3h3v-3h-3Zm-3,0v3h3v-3h-3Zm0-3v3h3v-3h-3Zm-3,0v3h3v-3h-3Zm-3,0v3h3v-3h-3Zm0-3v3h3v-3h-3Zm-3,0v3h3v-3h-3Zm0-3v3h3v-3h-3Zm-3,0v3h3v-3h-3Zm-3,0v3h3v-3h-3Zm-3,0v3h3v-3h-3Zm0-3v3h3v-3h-3Zm-3-3v3h3v-3h-3Zm-3-3v3h3v-3h-3Zm3,6v3h3v-3h-3Zm-3-3v3h3v-3h-3Zm-3-3v3h3v-3h-3Zm-3,0v3h3v-3h-3Zm0-3v3h3v-3h-3Zm-3,0v3h3v-3h-3Zm57,18v3h3v-3h-3Zm3,0v3h3v-3h-3Zm-9-6v3h3v-3h-3Zm-18-9v3h3v-3h-3Zm6,3v3h3v-3h-3Zm3,3v3h3v-3h-3Zm3,0v3h3v-3h-3Zm3,3v3h3v-3h-3Zm6,3v3h3v-3h-3Zm3,0v3h3v-3h-3Zm-9-6v3h3v-3h-3Zm-24-12v3h3v-3h-3Zm-6-3v3h3v-3h-3Zm3,3v3h3v-3h-3Zm3,3v3h3v-3h-3Zm3,0v3h3v-3h-3Zm3,3v3h3v-3h-3Zm6,3v3h3v-3h-3Zm12,12v3h3v-3h-3Zm6,3v3h3v-3h-3Zm6,3v3h3v-3h-3Zm6,3v3h3v-3h-3Zm-6-12v3h3v-3h-3Zm-3-3v3h3v-3h-3Zm-3,0v3h3v-3h-3Zm0-3v3h3v-3h-3Zm-3,0v3h3v-3h-3Zm-3-3v3h3v-3h-3Zm-3,0v3h3v-3h-3Zm-3,0v3h3v-3h-3Zm-3-3v3h3v-3h-3Zm-3,0v3h3v-3h-3Zm0-3v3h3v-3h-3Zm-3,0v3h3v-3h-3Zm-3,0v3h3v-3h-3Zm0-3v3h3v-3h-3Zm-3,0v3h3v-3h-3Zm-3-3v3h3v-3h-3Zm-3,0v3h3v-3h-3Zm-3-3v3h3v-3h-3Zm-3-3v3h3v-3h-3Zm0,3v3h3v-3h-3Zm0,3v3h3v-3h-3Zm0,3v3h3v-3h-3Zm3,0v3h3v-3h-3Zm0,3v3h3v-3h-3Zm3,0v3h3v-3h-3Zm3,3v3h3v-3h-3Zm3,0v3h3v-3h-3Zm3,3v3h3v-3h-3Zm3,0v3h3v-3h-3Zm3,3v3h3v-3h-3Zm3,0v3h3v-3h-3Zm0,3v3h3v-3h-3Zm3,0v3h3v-3h-3Zm3,0v3h3v-3h-3Zm0,3v3h3v-3h-3Zm3,0v3h3v-3h-3Zm3,0v3h3v-3h-3Zm0,3v3h3v-3h-3Zm3,0v3h3v-3h-3Zm3,3v3h3v-3h-3Zm3,0v3h3v-3h-3Zm3,3v3h3v-3h-3Zm0-3v3h3v-3h-3Zm0-3v3h3v-3h-3Zm0-3v3h3v-3h-3Zm0-3v3h3v-3h-3Zm-3,0v3h3v-3h-3Zm0-3v3h3v-3h-3Zm-3,0v3h3v-3h-3Zm0-3v3h3v-3h-3Zm-3,0v3h3v-3h-3Zm-3,0v3h3v-3h-3Zm0-3v3h3v-3h-3Zm-3,0v3h3v-3h-3Zm-3,0v3h3v-3h-3Zm-3,0v3h3v-3h-3Zm0-3v3h3v-3h-3Zm-3,0v3h3v-3h-3Zm0-3v3h3v-3h-3Zm-3,0v3h3v-3h-3Zm-3,0v3h3v-3h-3Zm0-3v3h3v-3h-3Zm-3,0v3h3v-3h-3Zm-3,0v3h3v-3h-3Zm0-3v3h3v-3h-3Zm-3,0v3h3v-3h-3Zm-3,0v3h3v-3h-3Zm0-3v3h3v-3h-3Zm-3,0v3h3v-3h-3Zm0-3v3h3v-3h-3Zm-3,0v3h3v-3h-3Zm0-3v3h3v-3h-3Zm-3,0v3h3v-3h-3Zm-3-3v3h3v-3h-3Zm-3,0v3h3v-3h-3Zm-3-3v3h3v-3h-3Zm-3,3v3h3v-3h-3Zm0,3v3h3v-3h-3Zm0,3v3h3v-3h-3Zm0,3v3h3v-3h-3Zm54,3v3h3v-3h-3Zm-12-3v3h3v-3h-3Zm6-3v3h3v-3h-3Zm-3,0v3h3v-3h-3Zm6,3v3h3v-3h-3Zm-9-6v3h3v-3h-3Zm-30-12v3h3v-3h-3Zm9,3v3h3v-3h-3Zm3,0v3h3v-3h-3Zm3,3v3h3v-3h-3Zm3,0v3h3v-3h-3Zm3,3v3h3v-3h-3Zm3,0v3h3v-3h-3Zm6,6v3h3v-3h-3Zm3,3v3h3v-3h-3Zm3,0v3h3v-3h-3Zm0,3v3h3v-3h-3Zm3,0v3h3v-3h-3Zm3,3v3h3v-3h-3Zm3,0v3h3v-3h-3Zm3,3v3h3v-3h-3Zm3,3v3h3v-3h-3Zm0-3v3h3v-3h-3Zm0-3v3h3v-3h-3Zm-3,0v3h3v-3h-3Zm0-3v3h3v-3h-3Zm-3,0v3h3v-3h-3Zm-3-3v3h3v-3h-3Zm-3-3v3h3v-3h-3Zm-3-3v3h3v-3h-3Zm-3,0v3h3v-3h-3Zm-3-3v3h3v-3h-3Zm-3,0v3h3v-3h-3Zm-3-3v3h3v-3h-3Zm-3,0v3h3v-3h-3Zm0-3v3h3v-3h-3Zm-3,0v3h3v-3h-3Zm-3,0v3h3v-3h-3Zm-9-3v3h3v-3h-3Zm0,6v3h3v-3h-3Zm12,6v3h3v-3h-3Zm6,3v3h3v-3h-3Zm3,0v3h3v-3h-3Zm0-3v3h3v-3h-3Zm-3,0v3h3v-3h-3Zm-3,0v3h3v-3h-3Zm-3-3v3h3v-3h-3Zm-3,0v3h3v-3h-3Zm-3-3v3h3v-3h-3Zm-3,0v3h3v-3h-3Zm-3-3v3h3v-3h-3Zm-3,0v3h3v-3h-3Zm0-3v3h3v-3h-3Zm-6-9v3h3v-3h-3Zm3,6v3h3v-3h-3Zm3,0v3h3v-3h-3Zm3,0v3h3v-3h-3Zm3,3v3h3v-3h-3Zm3,0v3h3v-3h-3Zm3,0v3h3v-3h-3Zm-6-3v3h3v-3h-3Zm-6-3v3h3v-3h-3Zm-3,0v3h3v-3h-3Zm-3,0v3h3v-3h-3Zm0,3v3h3v-3h-3Zm0,3v3h3v-3h-3Zm0,3v3h3v-3h-3Zm3,0v3h3v-3h-3Zm9,6v3h3v-3h-3Zm3,0v3h3v-3h-3Zm3,3v3h3v-3h-3Zm6,3v3h3v-3h-3Zm3,3v3h3v-3h-3Zm3,0v3h3v-3h-3Zm3,3v3h3v-3h-3Zm3,0v3h3v-3h-3Zm3,3v3h3v-3h-3Zm3,0v3h3v-3h-3Zm3,3v3h3v-3h-3Zm3,0v3h3v-3h-3Zm3,3v3h3v-3h-3Zm6-6v3h3v-3h-3Zm0-3v3h3v-3h-3Zm-3,0v3h3v-3h-3Zm-3-3v3h3v-3h-3Zm-3,0v3h3v-3h-3Zm0-3v3h3v-3h-3Zm-3,0v3h3v-3h-3Zm-9-6v3h3v-3h-3Zm-3-3v3h3v-3h-3Zm-3,0v3h3v-3h-3Zm-3-3v3h3v-3h-3Zm-6-3v3h3v-3h-3Zm-6-3v3h3v-3h-3Zm-12-6v3h3v-3h-3Zm-6-3v3h3v-3h-3Zm-3,0v3h3v-3h-3Zm-3,3v3h3v-3h-3Zm0,3v3h3v-3h-3Zm3,6v3h3v-3h-3Zm0-3v3h3v-3h-3Zm0-3v3h3v-3h-3Zm0-3v3h3v-3h-3Zm3,0v3h3v-3h-3Zm0,3v3h3v-3h-3Zm0,3v3h3v-3h-3Zm0,3v3h3v-3h-3Zm0,3v3h3v-3h-3Zm111,45v3h3v-3h-3Zm-105-33v3h3v-3h-3Zm0,3v3h3v-3h-3Zm0,3v3h3v-3h-3Zm0,3v3h3v-3h-3Zm-3-12v3h3v-3h-3Zm-3,0v3h3v-3h-3Zm0,3v3h3v-3h-3Zm0,3v3h3v-3h-3Zm-6,3v3h3v-3h-3Zm-3,0v3h3v-3h-3Zm0-3v3h3v-3h-3Zm0-3v3h3v-3h-3Zm0-3v3h3v-3h-3Zm0-3v3h3v-3h-3Zm0-3v3h3v-3h-3Zm0-3v3h3v-3h-3Zm3,0v3h3v-3h-3Zm114,0v3h3v-3h-3Zm0,3v3h3v-3h-3Zm-3,0v3h3v-3h-3Zm-3,0v3h3v-3h-3Zm0,3v3h3v-3h-3Zm-3,0v3h3v-3h-3Zm-3,3v3h3v-3h-3Zm-3,0v3h3v-3h-3Zm0,3v3h3v-3h-3Zm-3,0v3h3v-3h-3Zm-3,0v3h3v-3h-3Zm0,3v3h3v-3h-3Zm-3,0v3h3v-3h-3Zm-3,3v3h3v-3h-3Zm-6,3v3h3v-3h-3Zm-3,0v3h3v-3h-3Zm0,3v3h3v-3h-3Zm-3,0v3h3v-3h-3Zm42,3v3h3v-3h-3Zm-3,0v3h3v-3h-3Zm0,3v3h3v-3h-3Zm-3,0v3h3v-3h-3Zm-3,0v3h3v-3h-3Zm0,3v3h3v-3h-3Zm-3,0v3h3v-3h-3Zm-3,0v3h3v-3h-3Zm0,3v3h3v-3h-3Zm-3,0v3h3v-3h-3Zm0,3v3h3v-3h-3Zm-3,0v3h3v-3h-3Zm-3,0v3h3v-3h-3Zm0,3v3h3v-3h-3Zm-3,0v3h3v-3h-3Zm-3,0v3h3v-3h-3Zm0,3v3h3v-3h-3Zm-3,0v3h3v-3h-3Zm-3,0v3h3v-3h-3Zm0,3v3h3v-3h-3Zm-3,0v3h3v-3h-3Zm36-30v3h3v-3h-3Zm-3,0v3h3v-3h-3Zm0,3v3h3v-3h-3Zm-3,0v3h3v-3h-3Zm0,3v3h3v-3h-3Zm-3,0v3h3v-3h-3Zm0,3v3h3v-3h-3Zm-3,0v3h3v-3h-3Zm-3,3v3h3v-3h-3Zm-3,0v3h3v-3h-3Zm0,3v3h3v-3h-3Zm-3,0v3h3v-3h-3Zm-3,0v3h3v-3h-3Zm0,3v3h3v-3h-3Zm-3,0v3h3v-3h-3Zm-3,0v3h3v-3h-3Zm-3,0v3h3v-3h-3Zm0,3v3h3v-3h-3Zm-3,0v3h3v-3h-3Zm0,3v3h3v-3h-3Zm-3,0v3h3v-3h-3Zm-57-51v3h3v-3h-3Zm18-15v3h3v-3h-3Zm-3,0v3h3v-3h-3Zm-3,0v3h3v-3h-3Zm0-3v3h3v-3h-3Zm3,0v3h3v-3h-3Zm3,0v3h3v-3h-3Zm0-3v3h3v-3h-3Zm3,0v3h3v-3h-3Zm3,0v3h3v-3h-3Zm0-3v3h3v-3h-3Zm3,0v3h3v-3h-3Zm3,0v3h3v-3h-3Zm0-3v3h3v-3h-3Zm3,0v3h3v-3h-3Zm3,0v3h3v-3h-3Zm0-3v3h3v-3h-3Zm3,0v3h3v-3h-3Zm0,3v3h3v-3h-3Zm3,0v3h3v-3h-3Zm0,3v3h3v-3h-3Zm-3,0v3h3v-3h-3Zm-3,3v3h3v-3h-3Zm-3,0v3h3v-3h-3Zm-3,0v3h3v-3h-3Zm0,3v3h3v-3h-3Zm-3,0v3h3v-3h-3Zm-3,0v3h3v-3h-3Zm0,3v3h3v-3h-3Zm-3,3v3h3v-3h-3Zm-3,0v3h3v-3h-3Zm90,24v3h3v-3h-3Zm-3,0v3h3v-3h-3Zm-3,0v3h3v-3h-3Zm0-3v3h3v-3h-3Zm-3,0v3h3v-3h-3Zm0-3v3h3v-3h-3Zm-39,18v3h3v-3h-3Zm18-9v3h3v-3h-3Zm27-15v3h3v-3h-3Zm-3,0v3h3v-3h-3Zm0,3v3h3v-3h-3Zm-3,0v3h3v-3h-3Zm-3,0v3h3v-3h-3Zm-6,3v3h3v-3h-3Zm-3,3v3h3v-3h-3Zm-3,3v3h3v-3h-3Zm-3,0v3h3v-3h-3Zm-6,3v3h3v-3h-3Zm-3,3v3h3v-3h-3Zm-3,0v3h3v-3h-3Zm0,3v3h3v-3h-3Zm-3,0v3h3v-3h-3Zm-3,3v3h3v-3h-3Zm-6,0v3h3v-3h-3Zm0,3v3h3v-3h-3Zm-3-60v3h3v-3h-3Zm51,30v3h3v-3h-3Zm-3,0v3h3v-3h-3Zm-3,0v3h3v-3h-3Zm0-3v3h3v-3h-3Zm-3,0v3h3v-3h-3Zm-3-3v3h3v-3h-3Zm-3-3v3h3v-3h-3Zm-3,0v3h3v-3h-3Zm-3-3v3h3v-3h-3Zm-3,0v3h3v-3h-3Zm-3-3v3h3v-3h-3Zm-3,0v3h3v-3h-3Zm-3-3v3h3v-3h-3Zm-3,0v3h3v-3h-3Zm-3-3v3h3v-3h-3Zm0-3v3h3v-3h-3Zm-3,0v3h3v-3h-3Zm-3,0v3h3v-3h-3Zm-3-3v3h3v-3h-3Zm-6-3v3h3v-3h-3Zm-3-3v3h3v-3h-3Zm-3,0v3h3v-3h-3Zm-3,0v3h3v-3h-3Zm0-3v3h3v-3h-3Zm-3,0v3h3v-3h-3Zm-3-3v3h3v-3h-3Zm-3,0v3h3v-3h-3Zm0,3v3h3v-3h-3Zm-3,0v3h3v-3h-3Zm-3,0v3h3v-3h-3Zm-3,3v3h3v-3h-3Zm-3,3v3h3v-3h-3Zm-3,0v3h3v-3h-3Zm-3,3v3h3v-3h-3Zm-3,3v3h3v-3h-3Zm-3,0v3h3v-3h-3Zm-3,3v3h3v-3h-3Zm-3,0v3h3v-3h-3Zm-6,3v3h3v-3h-3Zm0,3v3h3v-3h-3Zm-3,0v3h3v-3h-3Zm0,3v3h3v-3h-3Zm-3,0v3h3v-3h-3Zm-3,0v3h3v-3h-3Zm36,24v3h3v-3h-3Zm27,30v3h3v-3h-3Zm-3,0v3h3v-3h-3Zm0-3v3h3v-3h-3Zm0-3v3h3v-3h-3Zm3,0v3h3v-3h-3Zm0-3v3h3v-3h-3Zm3-3v3h3v-3h-3Zm-3,0v3h3v-3h-3Zm-3-3v3h3v-3h-3Zm-3,0v3h3v-3h-3Zm-3-3v3h3v-3h-3Zm-3-3v3h3v-3h-3Zm-3,0v3h3v-3h-3Zm-3,0v3h3v-3h-3Zm0-3v3h3v-3h-3Zm-3,0v3h3v-3h-3Zm-3-3v3h3v-3h-3Zm-6-3v3h3v-3h-3Zm0-3v3h3v-3h-3Zm-3,0v3h3v-3h-3Zm-3,0v3h3v-3h-3Zm0-3v3h3v-3h-3Zm-3,0v3h3v-3h-3Zm-3,0v3h3v-3h-3Zm0-3v3h3v-3h-3Zm-3,0v3h3v-3h-3Zm-3,0v3h3v-3h-3Zm-3-3v3h3v-3h-3Zm-3,0v3h3v-3h-3Zm0-3v3h3v-3h-3Zm-3,0v3h3v-3h-3Zm-3,0v3h3v-3h-3Zm0-3v3h3v-3h-3Zm-3,0v3h3v-3h-3Zm-3,0v3h3v-3h-3Zm0-3v3h3v-3h-3Zm-3,3v3h3v-3h-3Zm0,3v3h3v-3h-3Zm-3,3v3h3v-3h-3Zm0,3v3h3v-3h-3Zm3,3v3h3v-3h-3Zm120,33v3h3v-3h-3Zm3-3v3h3v-3h-3Zm-3,0v3h3v-3h-3Zm-3,0v3h3v-3h-3Zm0-3v3h3v-3h-3Zm0-3v3h3v-3h-3Zm0-3v3h3v-3h-3Zm-6-3v3h3v-3h-3Zm12-6v3h3v-3h-3Zm-3,0v3h3v-3h-3Zm0,3v3h3v-3h-3Zm-3,0v3h3v-3h-3Zm-3,3v3h3v-3h-3Zm-6,0v3h3v-3h-3Zm0,3v3h3v-3h-3Zm-3,0v3h3v-3h-3Zm-3,0v3h3v-3h-3Zm0,3v3h3v-3h-3Zm-3,0v3h3v-3h-3Zm-3,0v3h3v-3h-3Zm-3,3v3h3v-3h-3Zm-3,3v3h3v-3h-3Zm-3,3v3h3v-3h-3Zm-3,0v3h3v-3h-3Zm0,3v3h3v-3h-3Zm-3,0v3h3v-3h-3Zm-3,0v3h3v-3h-3Zm-3,3v3h3v-3h-3Zm-3,0v3h3v-3h-3Zm-3,21v3h3v-3h-3Zm0-3v3h3v-3h-3Zm-3,0v3h3v-3h-3Zm0-3v3h3v-3h-3Zm0-3v3h3v-3h-3Zm0-3v3h3v-3h-3Zm0-3v3h3v-3h-3Zm3,0v3h3v-3h-3Zm0-3v3h3v-3h-3Zm0-3v3h3v-3h-3Zm-3,0v3h3v-3h-3Zm-3,0v3h3v-3h-3Zm0-3v3h3v-3h-3Zm-3,0v3h3v-3h-3Zm-3,0v3h3v-3h-3Zm0-3v3h3v-3h-3Zm-3,0v3h3v-3h-3Zm-3,0v3h3v-3h-3Zm0-3v3h3v-3h-3Zm-3,0v3h3v-3h-3Zm-3,0v3h3v-3h-3Zm0-3v3h3v-3h-3Zm-3,0v3h3v-3h-3Zm-3-3v3h3v-3h-3Zm-3,0v3h3v-3h-3Zm-3-3v3h3v-3h-3Zm-3,0v3h3v-3h-3Zm0-3v3h3v-3h-3Zm-3,0v3h3v-3h-3Zm-3-3v3h3v-3h-3Zm-3,0v3h3v-3h-3Zm-3-3v3h3v-3h-3Zm-3,0v3h3v-3h-3Zm0-3v3h3v-3h-3Zm-3,0v3h3v-3h-3Zm-3,0v3h3v-3h-3Zm-6-3v3h3v-3h-3Zm-3-3v3h3v-3h-3Zm69,60v3h3v-3h-3Zm-3,0v3h3v-3h-3Zm-3,0v3h3v-3h-3Zm0-3v3h3v-3h-3Zm-3,0v3h3v-3h-3Zm-3-3v3h3v-3h-3Zm-3,0v3h3v-3h-3Zm-3,0v3h3v-3h-3Zm0-3v3h3v-3h-3Zm-3,0v3h3v-3h-3Zm-3-3v3h3v-3h-3Zm-6-3v3h3v-3h-3Zm-3-3v3h3v-3h-3Zm-3-3v3h3v-3h-3Zm-3,0v3h3v-3h-3Zm-3-3v3h3v-3h-3Zm-3,0v3h3v-3h-3Zm-3-3v3h3v-3h-3Zm-3,0v3h3v-3h-3Zm-3-3v3h3v-3h-3Zm-3,0v3h3v-3h-3Zm0-3v3h3v-3h-3Zm-3,0v3h3v-3h-3Zm-3-3v3h3v-3h-3Zm-3,0v3h3v-3h-3Zm-3,0v3h3v-3h-3Zm-3,0v3h3v-3h-3Zm0,3v3h3v-3h-3Zm0,3v3h3v-3h-3Zm123,15v3h3v-3h-3Zm-3,0v3h3v-3h-3Zm0-3v3h3v-3h-3Zm0-3v3h3v-3h-3Zm3,0v3h3v-3h-3Zm3-6v3h3v-3h-3Zm-3,0v3h3v-3h-3Zm0,3v3h3v-3h-3Zm-6,0v3h3v-3h-3Zm0,3v3h3v-3h-3Zm-3,3v3h3v-3h-3Zm-3,0v3h3v-3h-3Zm-3,0v3h3v-3h-3Zm-3,3v3h3v-3h-3Zm-3,0v3h3v-3h-3Zm-3,3v3h3v-3h-3Zm-3,0v3h3v-3h-3Zm0,3v3h3v-3h-3Zm-3,0v3h3v-3h-3Zm-3,3v3h3v-3h-3Zm-3,0v3h3v-3h-3Zm0,3v3h3v-3h-3Zm-3,0v3h3v-3h-3Zm-3,0v3h3v-3h-3Zm0,3v3h3v-3h-3Zm-3,0v3h3v-3h-3Zm-3,0v3h3v-3h-3Zm0,3v3h3v-3h-3Zm-3,0v3h3v-3h-3Zm0,3v3h3v-3h-3Zm-3,0v3h3v-3h-3Zm0,3v3h3v-3h-3Zm3,0v3h3v-3h-3Zm0,3v3h3v-3h-3Zm-3,3v3h3v-3h-3Zm-3,0v3h3v-3h-3Zm0-3v3h3v-3h-3Zm-3,0v3h3v-3h-3Zm-3,0v3h3v-3h-3Zm0-3v3h3v-3h-3Zm-3,0v3h3v-3h-3Zm-3-3v3h3v-3h-3Zm-3,0v3h3v-3h-3Zm-3-3v3h3v-3h-3Zm-3,0v3h3v-3h-3Zm0-3v3h3v-3h-3Zm-3,0v3h3v-3h-3Zm-3,0v3h3v-3h-3Zm0-3v3h3v-3h-3Zm-3,0v3h3v-3h-3Zm-3-3v3h3v-3h-3Zm-3,0v3h3v-3h-3Zm0-3v3h3v-3h-3Zm-3,0v3h3v-3h-3Zm-3-3v3h3v-3h-3Zm-3,0v3h3v-3h-3Zm-3-3v3h3v-3h-3Zm-3,0v3h3v-3h-3Zm0-3v3h3v-3h-3Zm-3-3v3h3v-3h-3Zm-3,0v3h3v-3h-3Zm-3-3v3h3v-3h-3Zm-3,0v3h3v-3h-3Zm0-3v3h3v-3h-3Zm-3,0v3h3v-3h-3Zm123,15v3h3v-3h-3Zm-6,3v3h3v-3h-3Zm-3,0v3h3v-3h-3Zm0,3v3h3v-3h-3Zm-3,0v3h3v-3h-3Zm-3,0v3h3v-3h-3Zm0,3v3h3v-3h-3Zm-3,0v3h3v-3h-3Zm0,3v3h3v-3h-3Zm-3,0v3h3v-3h-3Zm-3,0v3h3v-3h-3Zm0,3v3h3v-3h-3Zm-3,0v3h3v-3h-3Zm-3,0v3h3v-3h-3Zm0,3v3h3v-3h-3Zm-3,0v3h3v-3h-3Zm-3,0v3h3v-3h-3Zm-3,3v3h3v-3h-3Zm-3,0v3h3v-3h-3Zm0,3v3h3v-3h-3Zm-3,0v3h3v-3h-3Zm-3,0v3h3v-3h-3Zm0,3v3h3v-3h-3Zm-3,0v3h3v-3h-3Zm-3,3v3h3v-3h-3Z"/>
</svg>