<?xml version="1.0" encoding="UTF-8"?>
<svg id="uuid-fddbf433-fe15-4f7a-b2b3-75fd6a0bd5a3" data-name="Calque 1" xmlns="http://www.w3.org/2000/svg" width="250" height="250" viewBox="0 0 250 250">
  <path d="M81.43,178.78v2.72h2.72v-2.72h-2.72Zm5.43,2.72v2.72h2.72v-2.72h-2.72Zm-29.88-35.31v2.72h2.72v-2.72h-2.72Zm-5.43,5.43v2.72h2.72v-2.72h-2.72Zm-5.43,5.43v2.72h2.72v-2.72h-2.72Zm13.58,2.72v2.72h2.72v-2.72h-2.72Zm0-2.72v2.72h2.72v-2.72h-2.72Zm-2.72-2.72v2.72h2.72v-2.72h-2.72Zm5.43-2.72v2.72h2.72v-2.72h-2.72Zm2.72,0v2.72h2.72v-2.72h-2.72Zm2.72,2.72v2.72h2.72v-2.72h-2.72Zm0-2.72v2.72h2.72v-2.72h-2.72Zm-2.72-2.72v2.72h2.72v-2.72h-2.72Zm-13.58-8.15v2.72h2.72v-2.72h-2.72Zm8.15,8.15v2.72h2.72v-2.72h-2.72Zm2.72,0v2.72h2.72v-2.72h-2.72Zm-8.15-5.43v2.72h2.72v-2.72h-2.72Zm-2.72,0v2.72h2.72v-2.72h-2.72Zm0,2.72v2.72h2.72v-2.72h-2.72Zm10.87,8.15v2.72h2.72v-2.72h-2.72Zm-2.72-2.72v2.72h2.72v-2.72h-2.72Zm-5.43-5.43v2.72h2.72v-2.72h-2.72Zm-5.43-2.72v2.72h2.72v-2.72h-2.72Zm0,2.72v2.72h2.72v-2.72h-2.72Zm5.43,5.43v2.72h2.72v-2.72h-2.72Zm-2.72-2.72v2.72h2.72v-2.72h-2.72Zm-8.15-5.43v2.72h2.72v-2.72h-2.72Zm-5.43-10.87v2.72h2.72v-2.72h-2.72Zm0,2.72v2.72h2.72v-2.72h-2.72Zm16.3,13.58v2.72h2.72v-2.72h-2.72Zm5.43,5.43v2.72h2.72v-2.72h-2.72Zm-2.72-2.72v2.72h2.72v-2.72h-2.72Zm0-2.72v2.72h2.72v-2.72h-2.72Zm-10.87-8.15v2.72h2.72v-2.72h-2.72Zm-5.43-2.72v2.72h2.72v-2.72h-2.72Zm5.43,8.15v2.72h2.72v-2.72h-2.72Zm10.87,10.87v2.72h2.72v-2.72h-2.72Zm-5.43-2.72v2.72h2.72v-2.72h-2.72Zm-10.87-13.58v2.72h2.72v-2.72h-2.72Zm-2.72-2.72v2.72h2.72v-2.72h-2.72Zm8.15,16.3v2.72h2.72v-2.72h-2.72Zm10.87,10.87v2.72h2.72v-2.72h-2.72Zm-8.15-10.87v2.72h2.72v-2.72h-2.72Zm-8.15-10.87v2.72h2.72v-2.72h-2.72Zm0,2.72v2.72h2.72v-2.72h-2.72Zm0,5.43v2.72h2.72v-2.72h-2.72Zm10.87,8.15v2.72h2.72v-2.72h-2.72Zm2.72,0v2.72h2.72v-2.72h-2.72Zm5.43,2.72v2.72h2.72v-2.72h-2.72Zm2.72,0v2.72h2.72v-2.72h-2.72Zm5.43,2.72v2.72h2.72v-2.72h-2.72Zm13.58,10.87v2.72h2.72v-2.72h-2.72Zm2.72,5.43v2.72h2.72v-2.72h-2.72Zm0-2.72v2.72h2.72v-2.72h-2.72Zm0-2.72v2.72h2.72v-2.72h-2.72Zm2.72-5.43v2.72h2.72v-2.72h-2.72Zm0-5.43v2.72h2.72v-2.72h-2.72Zm0,2.72v2.72h2.72v-2.72h-2.72Zm-2.72,2.72v2.72h2.72v-2.72h-2.72Zm-2.72,2.72v2.72h2.72v-2.72h-2.72Zm-2.72,2.72v2.72h2.72v-2.72h-2.72Zm0-2.72v2.72h2.72v-2.72h-2.72Zm0-2.72v2.72h2.72v-2.72h-2.72Zm0-2.72v2.72h2.72v-2.72h-2.72Zm-5.43-2.72v2.72h2.72v-2.72h-2.72Zm-5.43-2.72v2.72h2.72v-2.72h-2.72Zm0-2.72v2.72h2.72v-2.72h-2.72Zm-2.72,0v2.72h2.72v-2.72h-2.72Zm-16.3-10.87v2.72h2.72v-2.72h-2.72Zm-5.43-8.15v2.72h2.72v-2.72h-2.72Zm2.72-5.43v2.72h2.72v-2.72h-2.72Zm0,2.72v2.72h2.72v-2.72h-2.72Zm13.58,5.43v2.72h2.72v-2.72h-2.72Zm2.72,2.72v2.72h2.72v-2.72h-2.72Zm10.87,8.15v2.72h2.72v-2.72h-2.72Zm2.72,0v2.72h2.72v-2.72h-2.72Zm-2.72-2.72v2.72h2.72v-2.72h-2.72Zm-2.72,0v2.72h2.72v-2.72h-2.72Zm-2.72-2.72v2.72h2.72v-2.72h-2.72Zm-2.72-2.72v2.72h2.72v-2.72h-2.72Zm-5.43,0v2.72h2.72v-2.72h-2.72Zm-2.72-2.72v2.72h2.72v-2.72h-2.72Zm-2.72-2.72v2.72h2.72v-2.72h-2.72Zm-5.43-2.72v2.72h2.72v-2.72h-2.72Zm-5.43-2.72v2.72h2.72v-2.72h-2.72Zm-2.72-2.72v2.72h2.72v-2.72h-2.72Zm0,2.72v2.72h2.72v-2.72h-2.72Zm2.72,2.72v2.72h2.72v-2.72h-2.72Zm2.72,5.43v2.72h2.72v-2.72h-2.72Zm8.15,10.87v2.72h2.72v-2.72h-2.72Zm-8.15-5.43v2.72h2.72v-2.72h-2.72Zm-2.72,2.72v2.72h2.72v-2.72h-2.72Zm13.58,8.15v2.72h2.72v-2.72h-2.72Zm-2.72-2.72v2.72h2.72v-2.72h-2.72Zm-8.15-5.43v2.72h2.72v-2.72h-2.72Zm5.43,5.43v2.72h2.72v-2.72h-2.72Zm5.43,5.43v2.72h2.72v-2.72h-2.72Zm-8.15-5.43v2.72h2.72v-2.72h-2.72Zm-5.43-8.15v2.72h2.72v-2.72h-2.72Zm5.43,10.87v2.72h2.72v-2.72h-2.72Zm5.43,5.43v2.72h2.72v-2.72h-2.72Zm0-2.72v2.72h2.72v-2.72h-2.72Zm-2.72,0v2.72h2.72v-2.72h-2.72Zm-8.15-8.15v2.72h2.72v-2.72h-2.72Zm-2.72,2.72v2.72h2.72v-2.72h-2.72Zm8.15,5.43v2.72h2.72v-2.72h-2.72Zm-8.15-13.58v2.72h2.72v-2.72h-2.72Zm-2.72,2.72v2.72h2.72v-2.72h-2.72Zm-2.72-8.15v2.72h2.72v-2.72h-2.72Zm0,5.43v2.72h2.72v-2.72h-2.72Zm2.72-8.15v2.72h2.72v-2.72h-2.72Zm0,2.72v2.72h2.72v-2.72h-2.72Zm0,2.72v2.72h2.72v-2.72h-2.72Zm2.72,8.15v2.72h2.72v-2.72h-2.72Zm-2.72-5.43v2.72h2.72v-2.72h-2.72Zm-2.72-2.72v2.72h2.72v-2.72h-2.72Zm0,5.43v2.72h2.72v-2.72h-2.72Zm10.87,10.87v2.72h2.72v-2.72h-2.72Zm-2.72-2.72v2.72h2.72v-2.72h-2.72Zm-5.43-5.43v2.72h2.72v-2.72h-2.72Zm-2.72,0v2.72h2.72v-2.72h-2.72Zm0-13.58v2.72h2.72v-2.72h-2.72Zm0-2.72v2.72h2.72v-2.72h-2.72Zm0-2.72v2.72h2.72v-2.72h-2.72Zm0-2.72v2.72h2.72v-2.72h-2.72Zm0-2.72v2.72h2.72v-2.72h-2.72Zm0-2.72v2.72h2.72v-2.72h-2.72Zm135.82-48.9v2.72h2.72v-2.72h-2.72Zm2.72,2.72v2.72h2.72v-2.72h-2.72Zm2.72,0v2.72h2.72v-2.72h-2.72Zm2.72,2.72v2.72h2.72v-2.72h-2.72Zm8.15,5.43v2.72h2.72v-2.72h-2.72Zm5.43,5.43v2.72h2.72v-2.72h-2.72Zm-2.72-2.72v2.72h2.72v-2.72h-2.72Zm-2.72,0v2.72h2.72v-2.72h-2.72Zm-2.72,0v2.72h2.72v-2.72h-2.72Zm0-2.72v2.72h2.72v-2.72h-2.72Zm-2.72,0v2.72h2.72v-2.72h-2.72Zm0-2.72v2.72h2.72v-2.72h-2.72Zm-2.72,0v2.72h2.72v-2.72h-2.72Zm-2.72,0v2.72h2.72v-2.72h-2.72Zm0-2.72v2.72h2.72v-2.72h-2.72Zm-2.72,0v2.72h2.72v-2.72h-2.72Zm-2.72-2.72v2.72h2.72v-2.72h-2.72Zm-2.72,0v2.72h2.72v-2.72h-2.72Zm0-2.72v2.72h2.72v-2.72h-2.72Zm-2.72,0v2.72h2.72v-2.72h-2.72Zm-2.72,0v2.72h2.72v-2.72h-2.72Zm0-2.72v2.72h2.72v-2.72h-2.72Zm-2.72,0v2.72h2.72v-2.72h-2.72Zm29.88,46.18v2.72h2.72v-2.72h-2.72Zm0-2.72v2.72h2.72v-2.72h-2.72Zm0-2.72v2.72h2.72v-2.72h-2.72Zm0-2.72v2.72h2.72v-2.72h-2.72Zm0-2.72v2.72h2.72v-2.72h-2.72Zm0-2.72v2.72h2.72v-2.72h-2.72Zm-2.72,0v2.72h2.72v-2.72h-2.72Zm-2.72,0v2.72h2.72v-2.72h-2.72Zm0-2.72v2.72h2.72v-2.72h-2.72Zm-2.72,0v2.72h2.72v-2.72h-2.72Zm0-2.72v2.72h2.72v-2.72h-2.72Zm-2.72,0v2.72h2.72v-2.72h-2.72Zm-2.72,0v2.72h2.72v-2.72h-2.72Zm0,27.16v2.72h2.72v-2.72h-2.72Zm0-2.72v2.72h2.72v-2.72h-2.72Zm0-2.72v2.72h2.72v-2.72h-2.72Zm0-2.72v2.72h2.72v-2.72h-2.72Zm0-2.72v2.72h2.72v-2.72h-2.72Zm0-2.72v2.72h2.72v-2.72h-2.72Zm-2.72,0v2.72h2.72v-2.72h-2.72Zm0-2.72v2.72h2.72v-2.72h-2.72Zm-2.72,0v2.72h2.72v-2.72h-2.72Zm0-2.72v2.72h2.72v-2.72h-2.72Zm-2.72,0v2.72h2.72v-2.72h-2.72Zm-2.72-2.72v2.72h2.72v-2.72h-2.72Zm-2.72,0v2.72h2.72v-2.72h-2.72Zm-13.58,8.15v2.72h2.72v-2.72h-2.72Zm13.58,21.73v2.72h2.72v-2.72h-2.72Zm0-2.72v2.72h2.72v-2.72h-2.72Zm0-2.72v2.72h2.72v-2.72h-2.72Zm0-2.72v2.72h2.72v-2.72h-2.72Zm0-2.72v2.72h2.72v-2.72h-2.72Zm0-2.72v2.72h2.72v-2.72h-2.72Zm0-2.72v2.72h2.72v-2.72h-2.72Zm-2.72,0v2.72h2.72v-2.72h-2.72Zm-2.72,0v2.72h2.72v-2.72h-2.72Zm0-2.72v2.72h2.72v-2.72h-2.72Zm-2.72,0v2.72h2.72v-2.72h-2.72Zm-2.72-2.72v2.72h2.72v-2.72h-2.72Zm-2.72,27.16v2.72h2.72v-2.72h-2.72Zm0-2.72v2.72h2.72v-2.72h-2.72Zm0-2.72v2.72h2.72v-2.72h-2.72Zm0-2.72v2.72h2.72v-2.72h-2.72Zm0-2.72v2.72h2.72v-2.72h-2.72Zm0-2.72v2.72h2.72v-2.72h-2.72Zm-2.72,0v2.72h2.72v-2.72h-2.72Zm-2.72,0v2.72h2.72v-2.72h-2.72Zm0-2.72v2.72h2.72v-2.72h-2.72Zm-2.72,0v2.72h2.72v-2.72h-2.72Zm-2.72,0v2.72h2.72v-2.72h-2.72Zm0-2.72v2.72h2.72v-2.72h-2.72Zm-2.72,0v2.72h2.72v-2.72h-2.72Zm0,29.88v2.72h2.72v-2.72h-2.72Zm0-2.72v2.72h2.72v-2.72h-2.72Zm0-2.72v2.72h2.72v-2.72h-2.72Zm-2.72,0v2.72h2.72v-2.72h-2.72Zm0-2.72v2.72h2.72v-2.72h-2.72Zm0-2.72v2.72h2.72v-2.72h-2.72Zm0-2.72v2.72h2.72v-2.72h-2.72Zm-2.72,0v2.72h2.72v-2.72h-2.72Zm0-2.72v2.72h2.72v-2.72h-2.72Zm-2.72,0v2.72h2.72v-2.72h-2.72Zm0-2.72v2.72h2.72v-2.72h-2.72Zm-2.72,0v2.72h2.72v-2.72h-2.72Zm-2.72,0v2.72h2.72v-2.72h-2.72Zm46.18,2.72v2.72h2.72v-2.72h-2.72Zm-2.72,0v2.72h2.72v-2.72h-2.72Zm-2.72,2.72v2.72h2.72v-2.72h-2.72Zm-2.72,2.72v2.72h2.72v-2.72h-2.72Zm-2.72,0v2.72h2.72v-2.72h-2.72Zm-2.72,2.72v2.72h2.72v-2.72h-2.72Zm46.18-27.16v2.72h2.72v-2.72h-2.72Zm-2.72,0v2.72h2.72v-2.72h-2.72Zm-2.72,0v2.72h2.72v-2.72h-2.72Zm0,2.72v2.72h2.72v-2.72h-2.72Zm-2.72,0v2.72h2.72v-2.72h-2.72Zm-2.72,2.72v2.72h2.72v-2.72h-2.72Zm-2.72,0v2.72h2.72v-2.72h-2.72Zm0,2.72v2.72h2.72v-2.72h-2.72Zm-2.72,0v2.72h2.72v-2.72h-2.72Zm-2.72,2.72v2.72h2.72v-2.72h-2.72Zm-2.72,0v2.72h2.72v-2.72h-2.72Zm0,2.72v2.72h2.72v-2.72h-2.72Zm-2.72,0v2.72h2.72v-2.72h-2.72Zm-2.72,2.72v2.72h2.72v-2.72h-2.72Zm-2.72,0v2.72h2.72v-2.72h-2.72Zm0,2.72v2.72h2.72v-2.72h-2.72Zm-5.43,2.72v2.72h2.72v-2.72h-2.72Zm-5.43,0v2.72h2.72v-2.72h-2.72Zm-5.43,2.72v2.72h2.72v-2.72h-2.72Zm-2.72,2.72v2.72h2.72v-2.72h-2.72Zm-2.72,0v2.72h2.72v-2.72h-2.72Zm0,2.72v2.72h2.72v-2.72h-2.72Zm-2.72,0v2.72h2.72v-2.72h-2.72Zm-2.72,2.72v2.72h2.72v-2.72h-2.72Zm-2.72,0v2.72h2.72v-2.72h-2.72Zm0,2.72v2.72h2.72v-2.72h-2.72Zm-2.72,0v2.72h2.72v-2.72h-2.72Zm-2.72,2.72v2.72h2.72v-2.72h-2.72Zm-2.72,0v2.72h2.72v-2.72h-2.72Zm0,2.72v2.72h2.72v-2.72h-2.72Zm-2.72,0v2.72h2.72v-2.72h-2.72Zm-2.72,0v2.72h2.72v-2.72h-2.72Zm-2.72,2.72v2.72h2.72v-2.72h-2.72Zm-2.72,0v2.72h2.72v-2.72h-2.72Zm-2.72,2.72v2.72h2.72v-2.72h-2.72Zm-2.72,0v2.72h2.72v-2.72h-2.72Zm-2.72,2.72v2.72h2.72v-2.72h-2.72Zm-2.72,0v2.72h2.72v-2.72h-2.72Zm0,2.72v2.72h2.72v-2.72h-2.72Zm10.87-10.87v2.72h2.72v-2.72h-2.72Zm0-2.72v2.72h2.72v-2.72h-2.72Zm0-2.72v2.72h2.72v-2.72h-2.72Zm0-2.72v2.72h2.72v-2.72h-2.72Zm0-2.72v2.72h2.72v-2.72h-2.72Zm-2.72,0v2.72h2.72v-2.72h-2.72Zm0-2.72v2.72h2.72v-2.72h-2.72Zm-2.72,0v2.72h2.72v-2.72h-2.72Zm-2.72-2.72v2.72h2.72v-2.72h-2.72Zm-2.72,0v2.72h2.72v-2.72h-2.72Zm-2.72,0v2.72h2.72v-2.72h-2.72Zm65.19-46.18v2.72h2.72v-2.72h-2.72Zm-5.43-2.72v2.72h2.72v-2.72h-2.72Zm-5.43-2.72v2.72h2.72v-2.72h-2.72Zm-2.72-2.72v2.72h2.72v-2.72h-2.72Zm-2.72,0v2.72h2.72v-2.72h-2.72Zm-2.72-8.15v2.72h2.72v-2.72h-2.72Zm0,5.43v2.72h2.72v-2.72h-2.72Zm-5.43-5.43v2.72h2.72v-2.72h-2.72Zm2.72,0v2.72h2.72v-2.72h-2.72Zm0,2.72v2.72h2.72v-2.72h-2.72Zm2.72,0v2.72h2.72v-2.72h-2.72Zm2.72,0v2.72h2.72v-2.72h-2.72Zm0,2.72v2.72h2.72v-2.72h-2.72Zm2.72,0v2.72h2.72v-2.72h-2.72Zm2.72,0v2.72h2.72v-2.72h-2.72Zm0,2.72v2.72h2.72v-2.72h-2.72Zm2.72,2.72v2.72h2.72v-2.72h-2.72Zm2.72,0v2.72h2.72v-2.72h-2.72Zm2.72,0v2.72h2.72v-2.72h-2.72Zm0,2.72v2.72h2.72v-2.72h-2.72Zm2.72,0v2.72h2.72v-2.72h-2.72Zm2.72,2.72v2.72h2.72v-2.72h-2.72Zm2.72,0v2.72h2.72v-2.72h-2.72Zm0,2.72v2.72h2.72v-2.72h-2.72Zm-2.72,0v2.72h2.72v-2.72h-2.72Zm-2.72,2.72v2.72h2.72v-2.72h-2.72Zm0-2.72v2.72h2.72v-2.72h-2.72Zm-2.72,0v2.72h2.72v-2.72h-2.72Zm0-2.72v2.72h2.72v-2.72h-2.72Zm-2.72,0v2.72h2.72v-2.72h-2.72Zm-2.72,0v2.72h2.72v-2.72h-2.72Zm0-2.72v2.72h2.72v-2.72h-2.72Zm-2.72,0v2.72h2.72v-2.72h-2.72Zm-2.72,0v2.72h2.72v-2.72h-2.72Zm0-2.72v2.72h2.72v-2.72h-2.72Zm-2.72,0v2.72h2.72v-2.72h-2.72Zm-2.72,0v2.72h2.72v-2.72h-2.72Zm0-2.72v2.72h2.72v-2.72h-2.72Zm-2.72,0v2.72h2.72v-2.72h-2.72Zm0-2.72v2.72h2.72v-2.72h-2.72Zm-2.72,0v2.72h2.72v-2.72h-2.72Zm0-2.72v2.72h2.72v-2.72h-2.72Zm-2.72,0v2.72h2.72v-2.72h-2.72Zm-2.72,0v2.72h2.72v-2.72h-2.72Zm16.3,24.45v2.72h2.72v-2.72h-2.72Zm-5.43-5.43v2.72h2.72v-2.72h-2.72Zm-24.45-13.58v2.72h2.72v-2.72h-2.72Zm2.72,0v2.72h2.72v-2.72h-2.72Zm2.72-2.72v2.72h2.72v-2.72h-2.72Zm0,2.72v2.72h2.72v-2.72h-2.72Zm2.72,0v2.72h2.72v-2.72h-2.72Zm0,2.72v2.72h2.72v-2.72h-2.72Zm2.72,0v2.72h2.72v-2.72h-2.72Zm2.72,2.72v2.72h2.72v-2.72h-2.72Zm2.72,0v2.72h2.72v-2.72h-2.72Zm0,2.72v2.72h2.72v-2.72h-2.72Zm2.72,0v2.72h2.72v-2.72h-2.72Zm2.72,2.72v2.72h2.72v-2.72h-2.72Zm2.72,0v2.72h2.72v-2.72h-2.72Zm2.72,0v2.72h2.72v-2.72h-2.72Zm0,2.72v2.72h2.72v-2.72h-2.72Zm2.72,0v2.72h2.72v-2.72h-2.72Zm2.72,2.72v2.72h2.72v-2.72h-2.72Zm-2.72,0v2.72h2.72v-2.72h-2.72Zm-2.72,0v2.72h2.72v-2.72h-2.72Zm0,2.72v2.72h2.72v-2.72h-2.72Zm-2.72,0v2.72h2.72v-2.72h-2.72Zm0-2.72v2.72h2.72v-2.72h-2.72Zm-2.72,0v2.72h2.72v-2.72h-2.72Zm0-2.72v2.72h2.72v-2.72h-2.72Zm-2.72,0v2.72h2.72v-2.72h-2.72Zm0-2.72v2.72h2.72v-2.72h-2.72Zm-2.72,0v2.72h2.72v-2.72h-2.72Zm-2.72,0v2.72h2.72v-2.72h-2.72Zm0-2.72v2.72h2.72v-2.72h-2.72Zm-2.72,0v2.72h2.72v-2.72h-2.72Zm0-2.72v2.72h2.72v-2.72h-2.72Zm-2.72,0v2.72h2.72v-2.72h-2.72Zm-2.72,0v2.72h2.72v-2.72h-2.72Zm0-2.72v2.72h2.72v-2.72h-2.72Zm-2.72,0v2.72h2.72v-2.72h-2.72Zm-2.72,0v2.72h2.72v-2.72h-2.72Zm8.15,19.01v2.72h2.72v-2.72h-2.72Zm-8.15-5.43v2.72h2.72v-2.72h-2.72Zm-13.58-8.15v2.72h2.72v-2.72h-2.72Zm2.72,0v2.72h2.72v-2.72h-2.72Zm2.72-2.72v2.72h2.72v-2.72h-2.72Zm0,2.72v2.72h2.72v-2.72h-2.72Zm2.72,0v2.72h2.72v-2.72h-2.72Zm0,2.72v2.72h2.72v-2.72h-2.72Zm2.72,0v2.72h2.72v-2.72h-2.72Zm0,2.72v2.72h2.72v-2.72h-2.72Zm2.72,0v2.72h2.72v-2.72h-2.72Zm2.72,0v2.72h2.72v-2.72h-2.72Zm0,2.72v2.72h2.72v-2.72h-2.72Zm2.72,0v2.72h2.72v-2.72h-2.72Zm0,2.72v2.72h2.72v-2.72h-2.72Zm2.72,0v2.72h2.72v-2.72h-2.72Zm2.72,0v2.72h2.72v-2.72h-2.72Zm0,2.72v2.72h2.72v-2.72h-2.72Zm2.72,0v2.72h2.72v-2.72h-2.72Zm2.72,2.72v2.72h2.72v-2.72h-2.72Zm-2.72,0v2.72h2.72v-2.72h-2.72Zm0,2.72v2.72h2.72v-2.72h-2.72Zm-2.72,0v2.72h2.72v-2.72h-2.72Zm0-2.72v2.72h2.72v-2.72h-2.72Zm-2.72,0v2.72h2.72v-2.72h-2.72Zm-2.72,0v2.72h2.72v-2.72h-2.72Zm0-2.72v2.72h2.72v-2.72h-2.72Zm-2.72,0v2.72h2.72v-2.72h-2.72Zm0-2.72v2.72h2.72v-2.72h-2.72Zm-2.72,0v2.72h2.72v-2.72h-2.72Zm-2.72-2.72v2.72h2.72v-2.72h-2.72Zm-2.72,0v2.72h2.72v-2.72h-2.72Zm0-2.72v2.72h2.72v-2.72h-2.72Zm-2.72,0v2.72h2.72v-2.72h-2.72Zm0-2.72v2.72h2.72v-2.72h-2.72Zm-2.72,0v2.72h2.72v-2.72h-2.72Zm-2.72,0v2.72h2.72v-2.72h-2.72Zm-2.72,0v2.72h2.72v-2.72h-2.72Zm19.01,21.73v2.72h2.72v-2.72h-2.72Zm-2.72,0v2.72h2.72v-2.72h-2.72Zm-2.72-2.72v2.72h2.72v-2.72h-2.72Zm-5.43-2.72v2.72h2.72v-2.72h-2.72Zm-19.01-10.87v2.72h2.72v-2.72h-2.72Zm10.87,5.43v2.72h2.72v-2.72h-2.72Zm-5.43-8.15v2.72h2.72v-2.72h-2.72Zm0,2.72v2.72h2.72v-2.72h-2.72Zm2.72,0v2.72h2.72v-2.72h-2.72Zm0,2.72v2.72h2.72v-2.72h-2.72Zm2.72,0v2.72h2.72v-2.72h-2.72Zm2.72,0v2.72h2.72v-2.72h-2.72Zm0,2.72v2.72h2.72v-2.72h-2.72Zm2.72,0v2.72h2.72v-2.72h-2.72Zm0,2.72v2.72h2.72v-2.72h-2.72Zm2.72,0v2.72h2.72v-2.72h-2.72Zm2.72,0v2.72h2.72v-2.72h-2.72Zm0,2.72v2.72h2.72v-2.72h-2.72Zm2.72,0v2.72h2.72v-2.72h-2.72Zm2.72,0v2.72h2.72v-2.72h-2.72Zm0,2.72v2.72h2.72v-2.72h-2.72Zm2.72,0v2.72h2.72v-2.72h-2.72Zm2.72,2.72v2.72h2.72v-2.72h-2.72Zm-2.72,2.72v2.72h2.72v-2.72h-2.72Zm-2.72,0v2.72h2.72v-2.72h-2.72Zm-2.72,0v2.72h2.72v-2.72h-2.72Zm0-2.72v2.72h2.72v-2.72h-2.72Zm-2.72,0v2.72h2.72v-2.72h-2.72Zm0-2.72v2.72h2.72v-2.72h-2.72Zm-2.72,0v2.72h2.72v-2.72h-2.72Zm-2.72-2.72v2.72h2.72v-2.72h-2.72Zm-2.72,0v2.72h2.72v-2.72h-2.72Zm0-2.72v2.72h2.72v-2.72h-2.72Zm-2.72,0v2.72h2.72v-2.72h-2.72Zm-2.72,0v2.72h2.72v-2.72h-2.72Zm0-2.72v2.72h2.72v-2.72h-2.72Zm-2.72,0v2.72h2.72v-2.72h-2.72Zm0-2.72v2.72h2.72v-2.72h-2.72Zm-2.72,0v2.72h2.72v-2.72h-2.72Zm0-2.72v2.72h2.72v-2.72h-2.72Zm5.43,19.01v2.72h2.72v-2.72h-2.72Zm-5.43-2.72v2.72h2.72v-2.72h-2.72Zm-10.87-8.15v2.72h2.72v-2.72h-2.72Zm0-2.72v2.72h2.72v-2.72h-2.72Zm2.72,0v2.72h2.72v-2.72h-2.72Zm0,2.72v2.72h2.72v-2.72h-2.72Zm2.72,0v2.72h2.72v-2.72h-2.72Zm0,2.72v2.72h2.72v-2.72h-2.72Zm2.72,0v2.72h2.72v-2.72h-2.72Zm2.72,2.72v2.72h2.72v-2.72h-2.72Zm2.72,2.72v2.72h2.72v-2.72h-2.72Zm2.72,0v2.72h2.72v-2.72h-2.72Zm2.72,2.72v2.72h2.72v-2.72h-2.72Zm2.72,0v2.72h2.72v-2.72h-2.72Zm0,2.72v2.72h2.72v-2.72h-2.72Zm5.43,0v2.72h2.72v-2.72h-2.72Zm-2.72,0v2.72h2.72v-2.72h-2.72Zm0,2.72v2.72h2.72v-2.72h-2.72Zm-2.72,0v2.72h2.72v-2.72h-2.72Zm-2.72,0v2.72h2.72v-2.72h-2.72Zm0-2.72v2.72h2.72v-2.72h-2.72Zm-2.72,0v2.72h2.72v-2.72h-2.72Zm-2.72,0v2.72h2.72v-2.72h-2.72Zm0-2.72v2.72h2.72v-2.72h-2.72Zm-2.72,0v2.72h2.72v-2.72h-2.72Zm-2.72-2.72v2.72h2.72v-2.72h-2.72Zm0-2.72v2.72h2.72v-2.72h-2.72Zm-2.72,0v2.72h2.72v-2.72h-2.72Zm-2.72,0v2.72h2.72v-2.72h-2.72Zm0-2.72v2.72h2.72v-2.72h-2.72Zm-2.72,0v2.72h2.72v-2.72h-2.72Zm-2.72,0v2.72h2.72v-2.72h-2.72Zm0-2.72v2.72h2.72v-2.72h-2.72Zm-2.72,0v2.72h2.72v-2.72h-2.72Zm16.3,27.16v2.72h2.72v-2.72h-2.72Zm2.72-2.72v2.72h2.72v-2.72h-2.72Zm0-2.72v2.72h2.72v-2.72h-2.72Zm-2.72,0v2.72h2.72v-2.72h-2.72Zm-2.72-2.72v2.72h2.72v-2.72h-2.72Zm-5.43-2.72v2.72h2.72v-2.72h-2.72Zm-2.72-2.72v2.72h2.72v-2.72h-2.72Zm-2.72,0v2.72h2.72v-2.72h-2.72Zm-2.72-2.72v2.72h2.72v-2.72h-2.72Zm-2.72-2.72v2.72h2.72v-2.72h-2.72Zm-2.72-2.72v2.72h2.72v-2.72h-2.72Zm0,2.72v2.72h2.72v-2.72h-2.72Zm5.43,8.15v2.72h2.72v-2.72h-2.72Zm-5.43-2.72v2.72h2.72v-2.72h-2.72Zm-5.43-5.43v2.72h2.72v-2.72h-2.72Zm2.72,0v2.72h2.72v-2.72h-2.72Zm0,2.72v2.72h2.72v-2.72h-2.72Zm2.72,0v2.72h2.72v-2.72h-2.72Zm2.72,0v2.72h2.72v-2.72h-2.72Zm0,2.72v2.72h2.72v-2.72h-2.72Zm2.72,0v2.72h2.72v-2.72h-2.72Zm2.72,2.72v2.72h2.72v-2.72h-2.72Zm2.72,0v2.72h2.72v-2.72h-2.72Zm0,2.72v2.72h2.72v-2.72h-2.72Zm2.72,0v2.72h2.72v-2.72h-2.72Zm2.72,0v2.72h2.72v-2.72h-2.72Zm0,2.72v2.72h2.72v-2.72h-2.72Zm2.72,0v2.72h2.72v-2.72h-2.72Zm2.72,2.72v2.72h2.72v-2.72h-2.72Zm-2.72,0v2.72h2.72v-2.72h-2.72Zm0,2.72v2.72h2.72v-2.72h-2.72Zm-2.72,0v2.72h2.72v-2.72h-2.72Zm0-2.72v2.72h2.72v-2.72h-2.72Zm-2.72,0v2.72h2.72v-2.72h-2.72Zm0-2.72v2.72h2.72v-2.72h-2.72Zm-2.72,0v2.72h2.72v-2.72h-2.72Zm-2.72,0v2.72h2.72v-2.72h-2.72Zm0-2.72v2.72h2.72v-2.72h-2.72Zm-2.72,0v2.72h2.72v-2.72h-2.72Zm-2.72,0v2.72h2.72v-2.72h-2.72Zm0-2.72v2.72h2.72v-2.72h-2.72Zm-2.72,0v2.72h2.72v-2.72h-2.72Zm-2.72,0v2.72h2.72v-2.72h-2.72Zm0-2.72v2.72h2.72v-2.72h-2.72Zm-2.72,0v2.72h2.72v-2.72h-2.72Zm0-2.72v2.72h2.72v-2.72h-2.72Zm-2.72,0v2.72h2.72v-2.72h-2.72Zm13.58,57.04v2.72h2.72v-2.72h-2.72Zm0-2.72v2.72h2.72v-2.72h-2.72Zm0-2.72v2.72h2.72v-2.72h-2.72Zm0-2.72v2.72h2.72v-2.72h-2.72Zm0-2.72v2.72h2.72v-2.72h-2.72Zm0-2.72v2.72h2.72v-2.72h-2.72Zm10.87-10.87v2.72h2.72v-2.72h-2.72Zm-2.72,0v2.72h2.72v-2.72h-2.72Zm-2.72,2.72v2.72h2.72v-2.72h-2.72Zm-2.72,0v2.72h2.72v-2.72h-2.72Zm-2.72,2.72v2.72h2.72v-2.72h-2.72Zm0-2.72v2.72h2.72v-2.72h-2.72Zm-2.72,0v2.72h2.72v-2.72h-2.72Zm-2.72,0v2.72h2.72v-2.72h-2.72Zm0-2.72v2.72h2.72v-2.72h-2.72Zm-2.72,0v2.72h2.72v-2.72h-2.72Zm-2.72-2.72v2.72h2.72v-2.72h-2.72Zm0-2.72v2.72h2.72v-2.72h-2.72Zm-5.43-2.72v2.72h2.72v-2.72h-2.72Zm-2.72,0v2.72h2.72v-2.72h-2.72Zm0-2.72v2.72h2.72v-2.72h-2.72Zm-2.72,0v2.72h2.72v-2.72h-2.72Zm0-2.72v2.72h2.72v-2.72h-2.72Zm-2.72,0v2.72h2.72v-2.72h-2.72Zm-2.72,0v2.72h2.72v-2.72h-2.72Zm0-2.72v2.72h2.72v-2.72h-2.72Zm-2.72,0v2.72h2.72v-2.72h-2.72Zm-2.72,0v2.72h2.72v-2.72h-2.72Zm-2.72-2.72v2.72h2.72v-2.72h-2.72Zm-2.72,0v2.72h2.72v-2.72h-2.72Zm-2.72-2.72v2.72h2.72v-2.72h-2.72Zm-2.72-2.72v2.72h2.72v-2.72h-2.72Zm-2.72,0v2.72h2.72v-2.72h-2.72Zm0-2.72v2.72h2.72v-2.72h-2.72Zm-2.72,0v2.72h2.72v-2.72h-2.72Zm-2.72,0v2.72h2.72v-2.72h-2.72Zm122.24-57.04v2.72h2.72v-2.72h-2.72Zm-35.31,16.3v2.72h2.72v-2.72h-2.72Zm-16.3,10.87v2.72h2.72v-2.72h-2.72Zm95.07,16.3v2.72h2.72v-2.72h-2.72Zm0-2.72v2.72h2.72v-2.72h-2.72Zm0-2.72v2.72h2.72v-2.72h-2.72Zm0-2.72v2.72h2.72v-2.72h-2.72Zm0-2.72v2.72h2.72v-2.72h-2.72Zm0-2.72v2.72h2.72v-2.72h-2.72Zm0-2.72v2.72h2.72v-2.72h-2.72Zm-2.72,0v2.72h2.72v-2.72h-2.72Zm0-2.72v2.72h2.72v-2.72h-2.72Zm0-2.72v2.72h2.72v-2.72h-2.72Zm-2.72,0v2.72h2.72v-2.72h-2.72Zm-2.72,0v2.72h2.72v-2.72h-2.72Zm0-2.72v2.72h2.72v-2.72h-2.72Zm-2.72,0v2.72h2.72v-2.72h-2.72Zm0-2.72v2.72h2.72v-2.72h-2.72Zm-2.72,0v2.72h2.72v-2.72h-2.72Zm0-2.72v2.72h2.72v-2.72h-2.72Zm-2.72,0v2.72h2.72v-2.72h-2.72Zm-2.72,0v2.72h2.72v-2.72h-2.72Zm-2.72-2.72v2.72h2.72v-2.72h-2.72Zm0-2.72v2.72h2.72v-2.72h-2.72Zm-2.72,0v2.72h2.72v-2.72h-2.72Zm-2.72-2.72v2.72h2.72v-2.72h-2.72Zm-2.72,0v2.72h2.72v-2.72h-2.72Zm-5.43-2.72v2.72h2.72v-2.72h-2.72Zm-2.72,0v2.72h2.72v-2.72h-2.72Zm0-2.72v2.72h2.72v-2.72h-2.72Zm-2.72,0v2.72h2.72v-2.72h-2.72Zm-5.43,2.72v2.72h2.72v-2.72h-2.72Zm-2.72,0v2.72h2.72v-2.72h-2.72Zm-2.72,2.72v2.72h2.72v-2.72h-2.72Zm-2.72,0v2.72h2.72v-2.72h-2.72Zm-2.72,0v2.72h2.72v-2.72h-2.72Zm0,2.72v2.72h2.72v-2.72h-2.72Zm-2.72,0v2.72h2.72v-2.72h-2.72Zm-2.72,0v2.72h2.72v-2.72h-2.72Zm-2.72,2.72v2.72h2.72v-2.72h-2.72Zm-2.72,0v2.72h2.72v-2.72h-2.72Zm-2.72,2.72v2.72h2.72v-2.72h-2.72Zm-2.72,0v2.72h2.72v-2.72h-2.72Zm-2.72,2.72v2.72h2.72v-2.72h-2.72Zm-5.43,2.72v2.72h2.72v-2.72h-2.72Zm-2.72,0v2.72h2.72v-2.72h-2.72Zm0,2.72v2.72h2.72v-2.72h-2.72Zm-2.72,0v2.72h2.72v-2.72h-2.72Zm-2.72,2.72v2.72h2.72v-2.72h-2.72Zm-2.72,0v2.72h2.72v-2.72h-2.72Zm0,2.72v2.72h2.72v-2.72h-2.72Zm-5.43,2.72v2.72h2.72v-2.72h-2.72Zm-5.43,2.72v2.72h2.72v-2.72h-2.72Zm-2.72,0v2.72h2.72v-2.72h-2.72Zm0,2.72v2.72h2.72v-2.72h-2.72Zm-2.72,0v2.72h2.72v-2.72h-2.72Zm-2.72,2.72v2.72h2.72v-2.72h-2.72Zm-2.72,0v2.72h2.72v-2.72h-2.72Zm-2.72,2.72v2.72h2.72v-2.72h-2.72Zm-2.72,0v2.72h2.72v-2.72h-2.72Zm-2.72,2.72v2.72h2.72v-2.72h-2.72Zm0,2.72v2.72h2.72v-2.72h-2.72Zm-2.72,0v2.72h2.72v-2.72h-2.72Zm-2.72,2.72v2.72h2.72v-2.72h-2.72Zm-2.72,0v2.72h2.72v-2.72h-2.72Zm-2.72,0v2.72h2.72v-2.72h-2.72Zm0,2.72v2.72h2.72v-2.72h-2.72Zm-2.72,0v2.72h2.72v-2.72h-2.72Zm40.75,46.18v2.72h2.72v-2.72h-2.72Zm0-2.72v2.72h2.72v-2.72h-2.72Zm0-2.72v2.72h2.72v-2.72h-2.72Zm0-2.72v2.72h2.72v-2.72h-2.72Zm0-2.72v2.72h2.72v-2.72h-2.72Zm0-2.72v2.72h2.72v-2.72h-2.72Zm0-2.72v2.72h2.72v-2.72h-2.72Zm-2.72,0v2.72h2.72v-2.72h-2.72Zm0-2.72v2.72h2.72v-2.72h-2.72Zm0-2.72v2.72h2.72v-2.72h-2.72Zm-2.72,0v2.72h2.72v-2.72h-2.72Zm0-2.72v2.72h2.72v-2.72h-2.72Zm-2.72,0v2.72h2.72v-2.72h-2.72Zm-2.72,0v2.72h2.72v-2.72h-2.72Zm0-2.72v2.72h2.72v-2.72h-2.72Zm-2.72-2.72v2.72h2.72v-2.72h-2.72Zm-2.72,0v2.72h2.72v-2.72h-2.72Zm-2.72,0v2.72h2.72v-2.72h-2.72Zm0-2.72v2.72h2.72v-2.72h-2.72Zm-2.72,0v2.72h2.72v-2.72h-2.72Zm-2.72,0v2.72h2.72v-2.72h-2.72Zm0-2.72v2.72h2.72v-2.72h-2.72Zm-2.72,0v2.72h2.72v-2.72h-2.72Zm-2.72,0v2.72h2.72v-2.72h-2.72Zm0-2.72v2.72h2.72v-2.72h-2.72Zm-2.72,0v2.72h2.72v-2.72h-2.72Zm-2.72,0v2.72h2.72v-2.72h-2.72Zm0-2.72v2.72h2.72v-2.72h-2.72Zm-2.72,0v2.72h2.72v-2.72h-2.72Zm-2.72,0v2.72h2.72v-2.72h-2.72Zm0-2.72v2.72h2.72v-2.72h-2.72Zm62.48,40.75v2.72h2.72v-2.72h-2.72Zm-2.72,0v2.72h2.72v-2.72h-2.72Zm-2.72,0v2.72h2.72v-2.72h-2.72Zm-2.72,2.72v2.72h2.72v-2.72h-2.72Zm-2.72,0v2.72h2.72v-2.72h-2.72Zm-24.45,16.3v2.72h2.72v-2.72h-2.72Zm0-2.72v2.72h2.72v-2.72h-2.72Zm2.72,0v2.72h2.72v-2.72h-2.72Zm0-2.72v2.72h2.72v-2.72h-2.72Zm2.72,0v2.72h2.72v-2.72h-2.72Zm2.72,0v2.72h2.72v-2.72h-2.72Zm0-2.72v2.72h2.72v-2.72h-2.72Zm2.72,0v2.72h2.72v-2.72h-2.72Zm2.72,0v2.72h2.72v-2.72h-2.72Zm0-2.72v2.72h2.72v-2.72h-2.72Zm2.72,0v2.72h2.72v-2.72h-2.72Zm0-2.72v2.72h2.72v-2.72h-2.72Zm2.72,0v2.72h2.72v-2.72h-2.72Zm2.72-2.72v2.72h2.72v-2.72h-2.72Zm5.43-2.72v2.72h2.72v-2.72h-2.72Zm10.87-2.72v2.72h2.72v-2.72h-2.72Zm0-2.72v2.72h2.72v-2.72h-2.72Zm2.72,0v2.72h2.72v-2.72h-2.72Zm2.72,0v2.72h2.72v-2.72h-2.72Zm0-2.72v2.72h2.72v-2.72h-2.72Zm2.72,0v2.72h2.72v-2.72h-2.72Zm2.72,0v2.72h2.72v-2.72h-2.72Zm0-2.72v2.72h2.72v-2.72h-2.72Zm2.72,0v2.72h2.72v-2.72h-2.72Zm0-2.72v2.72h2.72v-2.72h-2.72Zm2.72,0v2.72h2.72v-2.72h-2.72Zm2.72,0v2.72h2.72v-2.72h-2.72Zm2.72-2.72v2.72h2.72v-2.72h-2.72Zm2.72,0v2.72h2.72v-2.72h-2.72Zm2.72-2.72v2.72h2.72v-2.72h-2.72Zm2.72,0v2.72h2.72v-2.72h-2.72Zm2.72,0v2.72h2.72v-2.72h-2.72Zm0-2.72v2.72h2.72v-2.72h-2.72Zm2.72,0v2.72h2.72v-2.72h-2.72Zm0-2.72v2.72h2.72v-2.72h-2.72Zm2.72,0v2.72h2.72v-2.72h-2.72Zm2.72,0v2.72h2.72v-2.72h-2.72Zm0-2.72v2.72h2.72v-2.72h-2.72Zm2.72,0v2.72h2.72v-2.72h-2.72Zm2.72,0v2.72h2.72v-2.72h-2.72Zm0-2.72v2.72h2.72v-2.72h-2.72Zm2.72,0v2.72h2.72v-2.72h-2.72Zm2.72,0v2.72h2.72v-2.72h-2.72Zm2.72-2.72v2.72h2.72v-2.72h-2.72Zm5.43-2.72v2.72h2.72v-2.72h-2.72Zm0-2.72v2.72h2.72v-2.72h-2.72Zm2.72,0v2.72h2.72v-2.72h-2.72Zm2.72,0v2.72h2.72v-2.72h-2.72Zm0-2.72v2.72h2.72v-2.72h-2.72Zm2.72,0v2.72h2.72v-2.72h-2.72Zm2.72,0v2.72h2.72v-2.72h-2.72Zm0-2.72v2.72h2.72v-2.72h-2.72Zm2.72,0v2.72h2.72v-2.72h-2.72Zm0-2.72v2.72h2.72v-2.72h-2.72Zm2.72,0v2.72h2.72v-2.72h-2.72Zm2.72,0v2.72h2.72v-2.72h-2.72Zm0-2.72v2.72h2.72v-2.72h-2.72Zm2.72,0v2.72h2.72v-2.72h-2.72Zm2.72,0v2.72h2.72v-2.72h-2.72Zm0-2.72v2.72h2.72v-2.72h-2.72Zm0-2.72v2.72h2.72v-2.72h-2.72Zm0-2.72v2.72h2.72v-2.72h-2.72Zm0-2.72v2.72h2.72v-2.72h-2.72Zm0-2.72v2.72h2.72v-2.72h-2.72Zm0-2.72v2.72h2.72v-2.72h-2.72Zm0-2.72v2.72h2.72v-2.72h-2.72Zm0-2.72v2.72h2.72v-2.72h-2.72Zm0-2.72v2.72h2.72v-2.72h-2.72Zm0-2.72v2.72h2.72v-2.72h-2.72Zm0-2.72v2.72h2.72v-2.72h-2.72Zm0-2.72v2.72h2.72v-2.72h-2.72Zm0-2.72v2.72h2.72v-2.72h-2.72Zm-2.72,0v2.72h2.72v-2.72h-2.72Zm-2.72,0v2.72h2.72v-2.72h-2.72Zm0-2.72v2.72h2.72v-2.72h-2.72Zm-2.72,0v2.72h2.72v-2.72h-2.72Zm-2.72,0v2.72h2.72v-2.72h-2.72Zm0-2.72v2.72h2.72v-2.72h-2.72Zm-2.72,0v2.72h2.72v-2.72h-2.72Zm-2.72,0v2.72h2.72v-2.72h-2.72Zm0-2.72v2.72h2.72v-2.72h-2.72Zm-2.72,0v2.72h2.72v-2.72h-2.72Zm0-2.72v2.72h2.72v-2.72h-2.72Zm-2.72,0v2.72h2.72v-2.72h-2.72Zm-2.72-2.72v2.72h2.72v-2.72h-2.72Zm-2.72,0v2.72h2.72v-2.72h-2.72Zm0-2.72v2.72h2.72v-2.72h-2.72Zm-2.72,0v2.72h2.72v-2.72h-2.72Zm-2.72,0v2.72h2.72v-2.72h-2.72Zm0-2.72v2.72h2.72v-2.72h-2.72Zm-2.72,0v2.72h2.72v-2.72h-2.72Zm-2.72,0v2.72h2.72v-2.72h-2.72Zm0-2.72v2.72h2.72v-2.72h-2.72Zm-2.72,0v2.72h2.72v-2.72h-2.72Zm-2.72,0v2.72h2.72v-2.72h-2.72Zm0-2.72v2.72h2.72v-2.72h-2.72Zm-2.72,0v2.72h2.72v-2.72h-2.72Zm-2.72,0v2.72h2.72v-2.72h-2.72Zm0-2.72v2.72h2.72v-2.72h-2.72Zm-2.72,0v2.72h2.72v-2.72h-2.72Zm-2.72,0v2.72h2.72v-2.72h-2.72Zm0-2.72v2.72h2.72v-2.72h-2.72Zm-2.72,0v2.72h2.72v-2.72h-2.72Zm0-2.72v2.72h2.72v-2.72h-2.72ZM40.68,113.59v2.72h2.72v-2.72h-2.72Zm116.81-62.48v2.72h2.72v-2.72h-2.72Zm-2.72,0v2.72h2.72v-2.72h-2.72Zm0,2.72v2.72h2.72v-2.72h-2.72Zm-2.72,0v2.72h2.72v-2.72h-2.72Zm-2.72,2.72v2.72h2.72v-2.72h-2.72Zm-2.72,0v2.72h2.72v-2.72h-2.72Zm0,2.72v2.72h2.72v-2.72h-2.72Zm-2.72,0v2.72h2.72v-2.72h-2.72Zm-2.72,0v2.72h2.72v-2.72h-2.72Zm0,2.72v2.72h2.72v-2.72h-2.72Zm-2.72,0v2.72h2.72v-2.72h-2.72Zm-2.72,2.72v2.72h2.72v-2.72h-2.72Zm-2.72,0v2.72h2.72v-2.72h-2.72Zm0,2.72v2.72h2.72v-2.72h-2.72Zm-2.72,0v2.72h2.72v-2.72h-2.72Zm-5.43,2.72v2.72h2.72v-2.72h-2.72Zm-2.72,2.72v2.72h2.72v-2.72h-2.72Zm-2.72,0v2.72h2.72v-2.72h-2.72Zm-2.72,2.72v2.72h2.72v-2.72h-2.72Zm-2.72,0v2.72h2.72v-2.72h-2.72Zm0,2.72v2.72h2.72v-2.72h-2.72Zm-2.72,0v2.72h2.72v-2.72h-2.72Zm-2.72,0v2.72h2.72v-2.72h-2.72Zm0,2.72v2.72h2.72v-2.72h-2.72Zm-2.72,0v2.72h2.72v-2.72h-2.72Zm-2.72,0v2.72h2.72v-2.72h-2.72Zm-2.72,0v2.72h2.72v-2.72h-2.72Zm0,2.72v2.72h2.72v-2.72h-2.72Zm-2.72,0v2.72h2.72v-2.72h-2.72Zm0,2.72v2.72h2.72v-2.72h-2.72Zm-2.72,0v2.72h2.72v-2.72h-2.72Zm-2.72,0v2.72h2.72v-2.72h-2.72Zm0,2.72v2.72h2.72v-2.72h-2.72Zm-2.72,0v2.72h2.72v-2.72h-2.72Zm-2.72,2.72v2.72h2.72v-2.72h-2.72Zm-5.43,0v2.72h2.72v-2.72h-2.72Zm-2.72,2.72v2.72h2.72v-2.72h-2.72Zm-2.72,2.72v2.72h2.72v-2.72h-2.72Zm-2.72,0v2.72h2.72v-2.72h-2.72Zm-2.72,2.72v2.72h2.72v-2.72h-2.72Zm-2.72,0v2.72h2.72v-2.72h-2.72Zm-2.72,2.72v2.72h2.72v-2.72h-2.72Zm-2.72,0v2.72h2.72v-2.72h-2.72Zm-2.72,0v2.72h2.72v-2.72h-2.72Zm0,2.72v2.72h2.72v-2.72h-2.72Zm-2.72,0v2.72h2.72v-2.72h-2.72Zm-2.72,0v2.72h2.72v-2.72h-2.72Zm0,2.72v2.72h2.72v-2.72h-2.72Zm-2.72,0v2.72h2.72v-2.72h-2.72Zm0,2.72v2.72h2.72v-2.72h-2.72Zm-2.72,0v2.72h2.72v-2.72h-2.72Zm-2.72,0v2.72h2.72v-2.72h-2.72Zm0,2.72v2.72h2.72v-2.72h-2.72Zm-2.72,0v2.72h2.72v-2.72h-2.72Zm-5.43,2.72v2.72h2.72v-2.72h-2.72Zm-2.72,0v2.72h2.72v-2.72h-2.72Zm0,2.72v2.72h2.72v-2.72h-2.72Zm57.04,67.91v2.72h2.72v-2.72h-2.72Zm-2.72,0v2.72h2.72v-2.72h-2.72Zm-2.72,0v2.72h2.72v-2.72h-2.72Zm0-2.72v2.72h2.72v-2.72h-2.72Zm-2.72,0v2.72h2.72v-2.72h-2.72Zm-2.72-2.72v2.72h2.72v-2.72h-2.72Zm-2.72,0v2.72h2.72v-2.72h-2.72Zm0-2.72v2.72h2.72v-2.72h-2.72Zm-2.72,0v2.72h2.72v-2.72h-2.72Zm-2.72,0v2.72h2.72v-2.72h-2.72Zm0-2.72v2.72h2.72v-2.72h-2.72Zm-2.72,0v2.72h2.72v-2.72h-2.72Zm-2.72,0v2.72h2.72v-2.72h-2.72Zm-2.72-2.72v2.72h2.72v-2.72h-2.72Zm-2.72,0v2.72h2.72v-2.72h-2.72Zm-2.72,0v2.72h2.72v-2.72h-2.72Zm0-2.72v2.72h2.72v-2.72h-2.72Zm-2.72,0v2.72h2.72v-2.72h-2.72Zm-2.72-2.72v2.72h2.72v-2.72h-2.72Zm-2.72,0v2.72h2.72v-2.72h-2.72Zm-2.72,0v2.72h2.72v-2.72h-2.72Zm0-2.72v2.72h2.72v-2.72h-2.72Zm-2.72,0v2.72h2.72v-2.72h-2.72Zm-2.72-2.72v2.72h2.72v-2.72h-2.72Zm-2.72-2.72v2.72h2.72v-2.72h-2.72Zm-2.72,0v2.72h2.72v-2.72h-2.72Zm0-2.72v2.72h2.72v-2.72h-2.72Zm-2.72,0v2.72h2.72v-2.72h-2.72Zm-2.72-35.31v2.72h2.72v-2.72h-2.72Zm0,2.72v2.72h2.72v-2.72h-2.72Zm0,2.72v2.72h2.72v-2.72h-2.72Zm0,2.72v2.72h2.72v-2.72h-2.72Zm0,2.72v2.72h2.72v-2.72h-2.72Zm0,2.72v2.72h2.72v-2.72h-2.72Zm0,2.72v2.72h2.72v-2.72h-2.72Zm0,2.72v2.72h2.72v-2.72h-2.72Zm0,2.72v2.72h2.72v-2.72h-2.72Zm0,2.72v2.72h2.72v-2.72h-2.72Zm0,2.72v2.72h2.72v-2.72h-2.72Zm0,2.72v2.72h2.72v-2.72h-2.72Zm0,2.72v2.72h2.72v-2.72h-2.72Zm0,2.72v2.72h2.72v-2.72h-2.72Z"/>
</svg>