<?xml version="1.0" encoding="UTF-8"?>
<svg id="uuid-36240f66-2df7-4221-a64f-7262cd3cddf9" data-name="Ebene 1" xmlns="http://www.w3.org/2000/svg" width="96" height="96" viewBox="0 0 96 96">
  <path d="M48.73,20.73v1.48h-8.82v1.46h-1.48v2.95h-1.46v1.48h-1.48v1.46h-1.48v1.48h-1.46v2.93h-1.44v2.93h4.35v-1.41h2.96v-1.48h2.93v-1.46h4.4v-1.48h2.96v-1.46h2.95v-1.48h4.4v-1.48h2.96v-1.46h2.95v-8.83h1.47v-2.94h1.48v-1.48h1.46v-1.48h1.48v-1.46h1.48v-1.49h5.86v-1.43h2.9c.02,.48,.05,.92,.07,1.41h4.41v1.47h2.93v1.46h1.47v2.95h1.5v1.5h1.48v1.93c0,2.6,0,5.19,0,7.79,0,.47-.06,.94-.04,1.41,.02,.45-.12,.65-.59,.6-.26-.03-.52,0-.83,0v1.52h-1.47v2.94h-2.89v1.45h-1.51v1.49h-1.47v4.4h1.41v4.41h2.95v1.48h2.93v2.95h1.47v7.35h-1.43v1.48h-1.46v1.47h-2.93v1.46h-4.43v-1.41h-2.95v-1.48h-1.46v-2.93h-1.44v-4.43h1.4v-2.93h1.48v-1.48h1.44v-7.37h-1.44v-2.9h-4.4v2.88h-1.46v2.93h-1.49c0,.46,0,.88,0,1.3-.01,.84-.06,1.68-.03,2.51,.01,.45-.12,.65-.58,.59-.26-.03-.52,0-.84,0v2.98h-1.47v2.93h-1.54c0,1.24,0,2.42,0,3.6q0,.79-.79,.8c-.18,0-.37,0-.6,0v2.96h-1.49v2.95h-1.46v5.89h1.42v1.46h1.48v1.48h1.46v2.95h1.48v2.94h5.94v1.41h2.9v-2.86h1.46v-1.48h1.48v-1.44h7.35v1.4h2.95v2.95h1.44v7.37h-1.41v1.46h-1.48v1.48h-2.93v1.45h-4.4v-1.42h-2.95v-1.46h-1.48v-2.95h-1.46v-1.45h-7.37v1.41h-1.48v2.95h-1.46v1.46h-1.46v1.48h-1.48v1.46h-1.49v1.46h-13.24v-1.42h-1.46v-1.54c-.79,0-1.52-.04-2.25,.01-.56,.04-.71-.17-.68-.7,.04-.71,.01-1.42,.01-2.2h-1.51v-2.93h-1.46v-2.91h-11.79v1.4h-1.46v2.95h-1.48v1.46h-1.48v1.48h-2.93v1.45h-5.88v-1.42h-2.95v-1.46h-1.48v-1.48h-1.46v-2.95h-1.47v-5.88h1.44v-2.95h1.46v-1.46h1.46v-1.48h2.95v-1.44h5.9v1.41h2.93v1.48h1.48v1.46h1.46v2.93h1.48v1.47h11.78v-2.94h1.47v-2.89h1.44v-1.48h-1.41v-1.46h-1.48v-1.48h-1.46v-1.48h-1.48v-1.46h-1.46v-1.46h-1.48v-1.48h-1.46v-1.48h-1.48v-1.44h-2.95v1.41h-2.93v1.43h-7.32v-1.4h-3v-1.47h-1.47v-1.45h-1.48v-1.45h-1.43v-1.5h-1.5v-2.95h-1.44v-7.37h1.41v-4.4h1.48v-1.48h1.46v-1.48h1.48v-1.46h2.92v-8.82h-1.43v-1.49h-2.93v-1.48h-1.49v-1.44h-1.44v-1.49h-1.47v-5.9h1.42v-2.93h1.46v-1.48h4.43v-1.44h1.49v1.41h4.41v1.47h1.47v1.52h1.42v7.31h-1.38v2.95h-1.52v1.46h-1.41v2.95h1.41v5.9h5.91v1.44h2.91v-1.4h1.5v-1.5h1.45v-2.92h1.48v-1.46h1.48v-1.48h1.46v-1.48h1.47V10.47h1.48v-1.48h1.48v-1.46h2.95v-1.43h2.9v1.38h2.98v1.49h1.48v1.46h1.45v8.82h-1.42v1.48h-1.48Zm-11.78,36.83v1.48h1.48v1.48h1.46v1.48h1.48v1.46h1.48v1.43h2.93v-1.46h4.44v-1.4c1.35,0,2.66-.01,3.96,.02,.13,0,.33,.25,.36,.41,.06,.31,.02,.63,.02,.96h1.54v-2.94h1.48v-2.93h1.47v-2.98h1.45v-4.39h1.49v-2.93h1.47v-2.98h1.45v-4.39h1.49v-2.93h1.47v-2.98h1.39v-1.39h-1.42v-1.53h-1.47v-1.48h-1.48v-1.4h-2.93v1.44h-2.95v1.48h-2.93v1.48h-4.43v1.46h-2.95v1.48h-2.93v1.48h-4.43v1.46h-2.95v1.48h-2.93v1.48h-1.48v8.82h-1.4v4.43h1.44v1.48h1.48v1.44h1.46Z"/>
</svg>