<?xml version="1.0" encoding="UTF-8"?>
<svg id="uuid-909d29ff-4051-498a-8be1-dec5c1fcedc8" data-name="Calque 1" xmlns="http://www.w3.org/2000/svg" width="250" height="250" viewBox="0 0 250 250">
  <path d="M123.5,70.06v3h3v-3h-3Zm0,3v3h3v-3h-3Zm15,42v3h3v-3h-3Zm0,3v3h3v-3h-3Zm0-15v3h3v-3h-3Zm-18,12v3h3v-3h-3Zm0-36v3h3v-3h-3Zm-3-9v3h3v-3h-3Zm3,0v3h3v-3h-3Zm0,3v3h3v-3h-3Zm15,12v3h3v-3h-3Zm12,36v3h3v-3h-3Zm-18-48v3h3v-3h-3Zm3-3v3h3v-3h-3Zm-6,3v3h3v-3h-3Zm-6,3v3h3v-3h-3Zm21,45v3h3v-3h-3Zm3,0v3h3v-3h-3Zm0,3v3h3v-3h-3Zm3-6v3h3v-3h-3Zm-3,0v3h3v-3h-3Zm-45-12v3h3v-3h-3Zm0,6v3h3v-3h-3Zm0-3v3h3v-3h-3Zm0-6v3h3v-3h-3Zm0-3v3h3v-3h-3Zm0-3v3h3v-3h-3Zm0-3v3h3v-3h-3Zm3-12v3h3v-3h-3Zm0,3v3h3v-3h-3Zm0,3v3h3v-3h-3Zm0,3v3h3v-3h-3Zm36-12v3h3v-3h-3Zm-3-3v3h3v-3h-3Zm3,45v3h3v-3h-3Zm-6-42v3h3v-3h-3Zm-6-3v3h3v-3h-3Zm-3,0v3h3v-3h-3Zm15,24v3h3v-3h-3Zm0-3v3h3v-3h-3Zm0-3v3h3v-3h-3Zm0-3v3h3v-3h-3Zm3,0v3h3v-3h-3Zm0-3v3h3v-3h-3Zm-6-9v3h3v-3h-3Zm0,3v3h3v-3h-3Zm3,6v3h3v-3h-3Zm0-3v3h3v-3h-3Zm0-3v3h3v-3h-3Zm3,36v3h3v-3h-3Zm0-9v3h3v-3h-3Zm0,3v3h3v-3h-3Zm0,3v3h3v-3h-3Zm3,0v3h3v-3h-3Zm0-3v3h3v-3h-3Zm0-3v3h3v-3h-3Zm-3-3v3h3v-3h-3Zm0-3v3h3v-3h-3Zm0-3v3h3v-3h-3Zm0-3v3h3v-3h-3Zm0-3v3h3v-3h-3Zm-9-18v3h3v-3h-3Zm-3,0v3h3v-3h-3Zm0,48v3h3v-3h-3Zm-15,3v3h3v-3h-3Zm0-3v3h3v-3h-3Zm12,3v3h3v-3h-3Zm-3,45v3h3v-3h-3Zm0,3v3h3v-3h-3Zm0,3v3h3v-3h-3Zm3,6v3h3v-3h-3Zm-15-39v3h3v-3h-3Zm0-3v3h3v-3h-3Zm0-6v3h3v-3h-3Zm6,60v3h3v-3h-3Zm-3-9v3h3v-3h-3Zm0,3v3h3v-3h-3Zm0-39v3h3v-3h-3Zm0,3v3h3v-3h-3Zm9,39v3h3v-3h-3Zm-3-3v3h3v-3h-3Zm0-3v3h3v-3h-3Zm9,9v3h3v-3h-3Zm-3,0v3h3v-3h-3Zm0-3v3h3v-3h-3Zm-3-3v3h3v-3h-3Zm0-6v3h3v-3h-3Zm0-3v3h3v-3h-3Zm9,18v3h3v-3h-3Zm-3,0v3h3v-3h-3Zm-3,0v3h3v-3h-3Zm-3,0v3h3v-3h-3Zm0-3v3h3v-3h-3Zm-3,0v3h3v-3h-3Zm0-3v3h3v-3h-3Zm-6,0v3h3v-3h-3Zm3,0v3h3v-3h-3Zm0-3v3h3v-3h-3Zm0-3v3h3v-3h-3Zm-3-126v3h3v-3h-3Zm0-9v3h3v-3h-3Zm-12,42v3h3v-3h-3Zm0,3v3h3v-3h-3Zm12,75v3h3v-3h-3Zm3,12v3h3v-3h-3Zm3,0v3h3v-3h-3Zm0-3v3h3v-3h-3Zm0-3v3h3v-3h-3Zm0-3v3h3v-3h-3Zm-3,0v3h3v-3h-3Zm0-3v3h3v-3h-3Zm0,6v3h3v-3h-3Zm0,3v3h3v-3h-3Zm-3-6v3h3v-3h-3Zm0,6v3h3v-3h-3Zm0-3v3h3v-3h-3Zm-3,0v3h3v-3h-3Zm0-9v3h3v-3h-3Zm0,6v3h3v-3h-3Zm0-3v3h3v-3h-3Zm3-6v3h3v-3h-3Zm0,3v3h3v-3h-3Zm3,0v3h3v-3h-3Zm0-3v3h3v-3h-3Zm0-3v3h3v-3h-3Zm0-3v3h3v-3h-3Zm3-6v3h3v-3h-3Zm0,3v3h3v-3h-3Zm0,3v3h3v-3h-3Zm3-9v3h3v-3h-3Zm0,3v3h3v-3h-3Zm-3,9v3h3v-3h-3Zm3-6v3h3v-3h-3Zm-3,9v3h3v-3h-3Zm0,6v3h3v-3h-3Zm0-3v3h3v-3h-3Zm3-9v3h3v-3h-3Zm0,3v3h3v-3h-3Zm0,3v3h3v-3h-3Zm6-9v3h3v-3h-3Zm3-6v3h3v-3h-3Zm3-6v3h3v-3h-3Zm0-3v3h3v-3h-3Zm-6,12v3h3v-3h-3Zm3-6v3h3v-3h-3Zm-3,0v3h3v-3h-3Zm0,3v3h3v-3h-3Zm3-6v3h3v-3h-3Zm0-6v3h3v-3h-3Zm-6,12v3h3v-3h-3Zm0-3v3h3v-3h-3Zm0-9v3h3v-3h-3Zm3,0v3h3v-3h-3Zm-3-3v3h3v-3h-3Zm0,9v3h3v-3h-3Zm0-3v3h3v-3h-3Zm3,0v3h3v-3h-3Zm0,3v3h3v-3h-3Zm3-3v3h3v-3h-3Zm3-3v3h3v-3h-3Zm0-3v3h3v-3h-3Zm0-3v3h3v-3h-3Zm0-3v3h3v-3h-3Zm-6,6v3h3v-3h-3Zm3,0v3h3v-3h-3Zm0-3v3h3v-3h-3Zm-3,0v3h3v-3h-3Zm-3,0v3h3v-3h-3Zm-6,3v3h3v-3h-3Zm3,0v3h3v-3h-3Zm0,12v3h3v-3h-3Zm0-3v3h3v-3h-3Zm0-3v3h3v-3h-3Zm0-3v3h3v-3h-3Zm0-6v3h3v-3h-3Zm-3,6v3h3v-3h-3Zm0,12v3h3v-3h-3Zm0-3v3h3v-3h-3Zm0-15v3h3v-3h-3Zm0,12v3h3v-3h-3Zm0-3v3h3v-3h-3Zm-3-6v3h3v-3h-3Zm0-3v3h3v-3h-3Zm0,6v3h3v-3h-3Zm0,6v3h3v-3h-3Zm0-3v3h3v-3h-3Zm-3-6v3h3v-3h-3Zm0-3v3h3v-3h-3Zm0-3v3h3v-3h-3Zm3,0v3h3v-3h-3Zm3,0v3h3v-3h-3Zm3,0v3h3v-3h-3Zm3,0v3h3v-3h-3Zm3,0v3h3v-3h-3Zm3,0v3h3v-3h-3Zm3-3v3h3v-3h-3Zm3-3v3h3v-3h-3Zm0,3v3h3v-3h-3Zm0,3v3h3v-3h-3Zm0,3v3h3v-3h-3Zm0,3v3h3v-3h-3Zm0,3v3h3v-3h-3Zm0,3v3h3v-3h-3Zm0,3v3h3v-3h-3Zm0,6v3h3v-3h-3Zm0-3v3h3v-3h-3Zm-3,0v3h3v-3h-3Zm0,3v3h3v-3h-3Zm0,3v3h3v-3h-3Zm-3,0v3h3v-3h-3Zm0,3v3h3v-3h-3Zm-3,3v3h3v-3h-3Zm0,3v3h3v-3h-3Zm-3-9v3h3v-3h-3Zm0,3v3h3v-3h-3Zm0,3v3h3v-3h-3Zm0,3v3h3v-3h-3Zm0,3v3h3v-3h-3Zm-3,3v3h3v-3h-3Zm-15,6v3h3v-3h-3Zm0-3v3h3v-3h-3Zm0-3v3h3v-3h-3Zm6-6v3h3v-3h-3Zm0-3v3h3v-3h-3Zm0-3v3h3v-3h-3Zm3,0v3h3v-3h-3Zm0-3v3h3v-3h-3Zm0-3v3h3v-3h-3Zm0-3v3h3v-3h-3Zm-3,0v3h3v-3h-3Zm0-3v3h3v-3h-3Zm0-3v3h3v-3h-3Zm0-3v3h3v-3h-3Zm-3,0v3h3v-3h-3Zm0-6v3h3v-3h-3Zm0-3v3h3v-3h-3Zm0-3v3h3v-3h-3Zm0-3v3h3v-3h-3Zm0-3v3h3v-3h-3Zm0-3v3h3v-3h-3Zm0-3v3h3v-3h-3Zm0-3v3h3v-3h-3Zm-6,0v3h3v-3h-3Zm0-9v3h3v-3h-3Zm0,3v3h3v-3h-3Zm0,3v3h3v-3h-3Zm3,0v3h3v-3h-3Zm0,3v3h3v-3h-3Zm0,3v3h3v-3h-3Zm0,3v3h3v-3h-3Zm-3,0v3h3v-3h-3Zm0-3v3h3v-3h-3Zm-3,0v3h3v-3h-3Zm0-3v3h3v-3h-3Zm0-3v3h3v-3h-3Zm0-3v3h3v-3h-3Zm0-3v3h3v-3h-3Zm0-3v3h3v-3h-3Zm18,3v3h3v-3h-3Zm0,3v3h3v-3h-3Zm0,3v3h3v-3h-3Zm3,0v3h3v-3h-3Zm0,3v3h3v-3h-3Zm0,3v3h3v-3h-3Zm3,0v3h3v-3h-3Zm0,3v3h3v-3h-3Zm3,0v3h3v-3h-3Zm0,3v3h3v-3h-3Zm3,6v3h3v-3h-3Zm-3,0v3h3v-3h-3Zm-6-3v3h3v-3h-3Zm-3-3v3h3v-3h-3Zm0-3v3h3v-3h-3Zm-3,0v3h3v-3h-3Zm0-3v3h3v-3h-3Zm0-3v3h3v-3h-3Zm-3,0v3h3v-3h-3Zm0-3v3h3v-3h-3Zm-3,0v3h3v-3h-3Zm0-3v3h3v-3h-3Zm-3,0v3h3v-3h-3Zm0-3v3h3v-3h-3Zm0-3v3h3v-3h-3Zm-3,0v3h3v-3h-3Zm0-3v3h3v-3h-3Zm0-3v3h3v-3h-3Zm0-3v3h3v-3h-3Zm0-3v3h3v-3h-3Zm0-3v3h3v-3h-3Zm0-3v3h3v-3h-3Zm0-3v3h3v-3h-3Zm3,0v3h3v-3h-3Zm0-3v3h3v-3h-3Zm9-3v3h3v-3h-3Zm0,3v3h3v-3h-3Zm0,3v3h3v-3h-3Zm3,3v3h3v-3h-3Zm0,3v3h3v-3h-3Zm0,3v3h3v-3h-3Zm0,3v3h3v-3h-3Zm0,3v3h3v-3h-3Zm0,3v3h3v-3h-3Zm0,3v3h3v-3h-3Zm-3,0v3h3v-3h-3Zm0-3v3h3v-3h-3Zm0-3v3h3v-3h-3Zm0-3v3h3v-3h-3Zm0-3v3h3v-3h-3Zm0-3v3h3v-3h-3Zm0-3v3h3v-3h-3Zm-3,0v3h3v-3h-3Zm0-3v3h3v-3h-3Zm0-3v3h3v-3h-3Zm-3,0v3h3v-3h-3Zm0-3v3h3v-3h-3Zm3,0v3h3v-3h-3Zm6-12v3h3v-3h-3Zm6-9v3h3v-3h-3Zm-3,0v3h3v-3h-3Zm-3,0v3h3v-3h-3Zm0,6v3h3v-3h-3Zm0-3v3h3v-3h-3Zm3,0v3h3v-3h-3Zm3,0v3h3v-3h-3Zm3,0v3h3v-3h-3Zm3-3v3h3v-3h-3Zm-3,0v3h3v-3h-3Zm0-3v3h3v-3h-3Zm-3,0v3h3v-3h-3Zm-3,0v3h3v-3h-3Zm-3,0v3h3v-3h-3Zm-3,0v3h3v-3h-3Zm0,3v3h3v-3h-3Zm0,3v3h3v-3h-3Zm-3,0v3h3v-3h-3Zm0,3v3h3v-3h-3Zm3,0v3h3v-3h-3Zm0,3v3h3v-3h-3Zm0,3v3h3v-3h-3Zm3,0v3h3v-3h-3Zm0,3v3h3v-3h-3Zm12,0v3h3v-3h-3Zm0-3v3h3v-3h-3Zm0-3v3h3v-3h-3Zm0-3v3h3v-3h-3Zm0-3v3h3v-3h-3Z"/>
</svg>