<?xml version="1.0" encoding="UTF-8"?>
<svg id="uuid-f7805796-b8ec-4c81-b274-0626de7363a4" data-name="Calque 1" xmlns="http://www.w3.org/2000/svg" width="250" height="250" viewBox="0 0 250 250">
  <path d="M147.5,128.56v3h3v-3h-3Zm-3,0v3h3v-3h-3Zm-6,63v3h3v-3h-3Zm-3,3v3h3v-3h-3Zm-3,0v3h3v-3h-3Zm-3,0v3h3v-3h-3Zm3-3v3h3v-3h-3Zm3,0v3h3v-3h-3Zm21-18v3h3v-3h-3Zm0-6v3h3v-3h-3Zm3,3v3h3v-3h-3Zm-24,27v3h3v-3h-3Zm-3,0v3h3v-3h-3Zm-3,0v3h3v-3h-3Zm-39-15v3h3v-3h-3Zm-3,0v3h3v-3h-3Zm-3,0v3h3v-3h-3Zm0-3v3h3v-3h-3Zm3,0v3h3v-3h-3Zm36-69v3h3v-3h-3Zm3,0v3h3v-3h-3Zm0,3v3h3v-3h-3Zm-3,0v3h3v-3h-3Zm39,57v3h3v-3h-3Zm-3,3v3h3v-3h-3Zm0,3v3h3v-3h-3Zm-3,0v3h3v-3h-3Zm-3,0v3h3v-3h-3Zm0-3v3h3v-3h-3Zm0-3v3h3v-3h-3Zm3,0v3h3v-3h-3Zm-15,21v3h3v-3h-3Zm0,3v3h3v-3h-3Zm-3,0v3h3v-3h-3Zm-12,3v3h3v-3h-3Zm0-3v3h3v-3h-3Zm3-3v3h3v-3h-3Zm33-42v3h3v-3h-3Zm0,3v3h3v-3h-3Zm3,3v3h3v-3h-3Zm0,3v3h3v-3h-3Zm0,3v3h3v-3h-3Zm0,3v3h3v-3h-3Zm0,3v3h3v-3h-3Zm-3,0v3h3v-3h-3Zm-3,0v3h3v-3h-3Zm0-3v3h3v-3h-3Zm-3,0v3h3v-3h-3Zm0-3v3h3v-3h-3Zm-9,18v3h3v-3h-3Zm0-3v3h3v-3h-3Zm0-3v3h3v-3h-3Zm15-36v3h3v-3h-3Zm0,3v3h3v-3h-3Zm-3,0v3h3v-3h-3Zm0,3v3h3v-3h-3Zm0,3v3h3v-3h-3Zm0,3v3h3v-3h-3Zm-3,0v3h3v-3h-3Zm0,3v3h3v-3h-3Zm0,3v3h3v-3h-3Zm-3,3v3h3v-3h-3Zm0,3v3h3v-3h-3Zm0,3v3h3v-3h-3Zm0,3v3h3v-3h-3Zm-3,0v3h3v-3h-3Zm0,3v3h3v-3h-3Zm-3,12v3h3v-3h-3Zm0,3v3h3v-3h-3Zm-3,0v3h3v-3h-3Zm0,3v3h3v-3h-3Zm-3,0v3h3v-3h-3Zm-3,0v3h3v-3h-3Zm-3,0v3h3v-3h-3Zm-3,0v3h3v-3h-3Zm0-3v3h3v-3h-3Zm0-3v3h3v-3h-3Zm3-3v3h3v-3h-3Zm0-3v3h3v-3h-3Zm0-3v3h3v-3h-3Zm0-3v3h3v-3h-3Zm0-3v3h3v-3h-3Zm0-3v3h3v-3h-3Zm0-3v3h3v-3h-3Zm3,0v3h3v-3h-3Zm0-3v3h3v-3h-3Zm0-3v3h3v-3h-3Zm0-3v3h3v-3h-3Zm0-3v3h3v-3h-3Zm3-3v3h3v-3h-3Zm0-3v3h3v-3h-3Zm0-3v3h3v-3h-3Zm-3,0v3h3v-3h-3Zm0-3v3h3v-3h-3Zm0-3v3h3v-3h-3Zm0-3v3h3v-3h-3Zm-3,0v3h3v-3h-3Zm0-3v3h3v-3h-3Zm0-3v3h3v-3h-3Zm33,0v3h3v-3h-3Zm0,3v3h3v-3h-3Zm0,3v3h3v-3h-3Zm3,0v3h3v-3h-3Zm0,3v3h3v-3h-3Zm0,3v3h3v-3h-3Zm-3,0v3h3v-3h-3Zm0,3v3h3v-3h-3Zm-3,0v3h3v-3h-3Zm0-3v3h3v-3h-3Zm0-3v3h3v-3h-3Zm0-3v3h3v-3h-3Zm-3,0v3h3v-3h-3Zm0-6v3h3v-3h-3Zm-9-45v3h3v-3h-3Zm-3,0v3h3v-3h-3Zm0,3v3h3v-3h-3Zm-3,0v3h3v-3h-3Zm-3,0v3h3v-3h-3Zm-3,0v3h3v-3h-3Zm0-3v3h3v-3h-3Zm15,12v3h3v-3h-3Zm0,3v3h3v-3h-3Zm3,3v3h3v-3h-3Zm0,3v3h3v-3h-3Zm3,0v3h3v-3h-3Zm0,3v3h3v-3h-3Zm0,3v3h3v-3h-3Zm0,3v3h3v-3h-3Zm0,3v3h3v-3h-3Zm0,3v3h3v-3h-3Zm0,3v3h3v-3h-3Zm0,3v3h3v-3h-3Zm3,0v3h3v-3h-3Zm3,0v3h3v-3h-3Zm3,0v3h3v-3h-3Zm0-3v3h3v-3h-3Zm0-3v3h3v-3h-3Zm0-3v3h3v-3h-3Zm0-3v3h3v-3h-3Zm0-3v3h3v-3h-3Zm0-3v3h3v-3h-3Zm0-3v3h3v-3h-3Zm-3-3v3h3v-3h-3Zm0-3v3h3v-3h-3Zm0-3v3h3v-3h-3Zm-3,0v3h3v-3h-3Zm0-3v3h3v-3h-3Zm0-3v3h3v-3h-3Zm-3,0v3h3v-3h-3Zm0-3v3h3v-3h-3Zm-3-3v3h3v-3h-3Zm-3-3v3h3v-3h-3Zm6,51v3h3v-3h-3Zm-3,0v3h3v-3h-3Zm0,3v3h3v-3h-3Zm-3,0v3h3v-3h-3Zm-3,0v3h3v-3h-3Zm0-3v3h3v-3h-3Zm-3,0v3h3v-3h-3Zm-9-3v3h3v-3h-3Zm0-3v3h3v-3h-3Zm-3,0v3h3v-3h-3Zm0-3v3h3v-3h-3Zm-3,0v3h3v-3h-3Zm0-3v3h3v-3h-3Zm0-3v3h3v-3h-3Zm0-3v3h3v-3h-3Zm3-6v3h3v-3h-3Zm0-3v3h3v-3h-3Zm0-3v3h3v-3h-3Zm-3,3v3h3v-3h-3Zm0,3v3h3v-3h-3Zm0,3v3h3v-3h-3Zm-3,0v3h3v-3h-3Zm0,3v3h3v-3h-3Zm0,3v3h3v-3h-3Zm-3,0v3h3v-3h-3Zm0,3v3h3v-3h-3Zm-3,0v3h3v-3h-3Zm-3,0v3h3v-3h-3Zm3-9v3h3v-3h-3Zm0-3v3h3v-3h-3Zm0-3v3h3v-3h-3Zm3,0v3h3v-3h-3Zm0-3v3h3v-3h-3Zm0-3v3h3v-3h-3Zm3,0v3h3v-3h-3Zm0-3v3h3v-3h-3Zm3,0v3h3v-3h-3Zm0-3v3h3v-3h-3Zm0-3v3h3v-3h-3Zm0-3v3h3v-3h-3Zm3-3v3h3v-3h-3Zm0-3v3h3v-3h-3Zm12-12v3h3v-3h-3Zm-3-3v3h3v-3h-3Zm-3,0v3h3v-3h-3Zm0-3v3h3v-3h-3Zm3,0v3h3v-3h-3Zm3,0v3h3v-3h-3Zm0,3v3h3v-3h-3Zm3,0v3h3v-3h-3Zm0,3v3h3v-3h-3Zm0,3v3h3v-3h-3Zm3,0v3h3v-3h-3Zm0-3v3h3v-3h-3Zm0-3v3h3v-3h-3Zm0-3v3h3v-3h-3Zm-3,0v3h3v-3h-3Zm0-3v3h3v-3h-3Zm-3,0v3h3v-3h-3Zm-3,0v3h3v-3h-3Zm-3,0v3h3v-3h-3Zm-3,0v3h3v-3h-3Zm0,3v3h3v-3h-3Zm-3,0v3h3v-3h-3Zm0,3v3h3v-3h-3Zm3,0v3h3v-3h-3Zm0,3v3h3v-3h-3Zm3,0v3h3v-3h-3Zm3,0v3h3v-3h-3Zm0,3v3h3v-3h-3Zm3,0v3h3v-3h-3Zm3,3v3h3v-3h-3Zm0,3v3h3v-3h-3Zm-3,0v3h3v-3h-3Zm0,3v3h3v-3h-3Zm-3,0v3h3v-3h-3Zm-3,0v3h3v-3h-3Zm-3,0v3h3v-3h-3Zm0-3v3h3v-3h-3Zm0-3v3h3v-3h-3Zm-3,0v3h3v-3h-3Zm0-3v3h3v-3h-3Zm0-3v3h3v-3h-3Zm-36,39v3h3v-3h-3Zm0,3v3h3v-3h-3Zm-3,0v3h3v-3h-3Zm-3,0v3h3v-3h-3Zm-3,0v3h3v-3h-3Zm0-3v3h3v-3h-3Zm-3,0v3h3v-3h-3Zm12,45v3h3v-3h-3Zm0,3v3h3v-3h-3Zm0,3v3h3v-3h-3Zm0,3v3h3v-3h-3Zm0,3v3h3v-3h-3Zm-3,0v3h3v-3h-3Zm0,3v3h3v-3h-3Zm0,3v3h3v-3h-3Zm0,3v3h3v-3h-3Zm0,3v3h3v-3h-3Zm-3,0v3h3v-3h-3Zm0,3v3h3v-3h-3Zm-3,3v3h3v-3h-3Zm-3,0v3h3v-3h-3Zm0-3v3h3v-3h-3Zm3,0v3h3v-3h-3Zm0-3v3h3v-3h-3Zm0-3v3h3v-3h-3Zm0-3v3h3v-3h-3Zm0-3v3h3v-3h-3Zm0-3v3h3v-3h-3Zm0-3v3h3v-3h-3Zm0-3v3h3v-3h-3Zm0-3v3h3v-3h-3Zm0-3v3h3v-3h-3Zm0-3v3h3v-3h-3Zm-3-3v3h3v-3h-3Zm0-3v3h3v-3h-3Zm3,0v3h3v-3h-3Zm0,3v3h3v-3h-3Zm12,12v3h3v-3h-3Zm0-3v3h3v-3h-3Zm0-3v3h3v-3h-3Zm0-3v3h3v-3h-3Zm3,0v3h3v-3h-3Zm0-3v3h3v-3h-3Zm0-3v3h3v-3h-3Zm0-3v3h3v-3h-3Zm-3-3v3h3v-3h-3Zm0-3v3h3v-3h-3Zm0-3v3h3v-3h-3Zm0-3v3h3v-3h-3Zm0-3v3h3v-3h-3Zm3,0v3h3v-3h-3Zm0-3v3h3v-3h-3Zm0-3v3h3v-3h-3Zm0-3v3h3v-3h-3Zm0-3v3h3v-3h-3Zm0-3v3h3v-3h-3Zm0-3v3h3v-3h-3Zm-3,0v3h3v-3h-3Zm0-3v3h3v-3h-3Zm0-3v3h3v-3h-3Zm0-3v3h3v-3h-3Zm-18,21v3h3v-3h-3Zm0,3v3h3v-3h-3Zm0,3v3h3v-3h-3Zm3,0v3h3v-3h-3Zm0,3v3h3v-3h-3Zm0,12v3h3v-3h-3Zm0-3v3h3v-3h-3Zm0-3v3h3v-3h-3Zm0-3v3h3v-3h-3Zm0-12v3h3v-3h-3Zm0-3v3h3v-3h-3Zm-3,0v3h3v-3h-3Zm0-3v3h3v-3h-3Zm0-3v3h3v-3h-3Zm0-3v3h3v-3h-3Zm0-3v3h3v-3h-3Zm0-3v3h3v-3h-3Zm0-3v3h3v-3h-3Zm-12,18v3h3v-3h-3Zm0-3v3h3v-3h-3Zm12-24v3h3v-3h-3Zm0,3v3h3v-3h-3Zm-3,6v3h3v-3h-3Zm-3,6v3h3v-3h-3Zm-6,6v3h3v-3h-3Zm0-3v3h3v-3h-3Zm3,0v3h3v-3h-3Zm0-3v3h3v-3h-3Zm0-3v3h3v-3h-3Zm3,0v3h3v-3h-3Zm0-3v3h3v-3h-3Zm0-3v3h3v-3h-3Zm3,0v3h3v-3h-3Zm0-3v3h3v-3h-3Zm0-3v3h3v-3h-3Zm0-3v3h3v-3h-3Zm3,0v3h3v-3h-3Zm0-3v3h3v-3h-3Zm0-3v3h3v-3h-3Zm0-3v3h3v-3h-3Zm0-3v3h3v-3h-3Zm36,36v3h3v-3h-3Zm-3,0v3h3v-3h-3Zm-3,0v3h3v-3h-3Zm0-3v3h3v-3h-3Zm0-3v3h3v-3h-3Zm-3,0v3h3v-3h-3Zm0-3v3h3v-3h-3Zm-3,0v3h3v-3h-3Zm0-3v3h3v-3h-3Zm-3-3v3h3v-3h-3Zm-3,0v3h3v-3h-3Zm0-3v3h3v-3h-3Zm18,15v3h3v-3h-3Zm-3,0v3h3v-3h-3Zm0-3v3h3v-3h-3Zm0-3v3h3v-3h-3Zm-3,0v3h3v-3h-3Zm0-3v3h3v-3h-3Zm0-3v3h3v-3h-3Zm-3,0v3h3v-3h-3Zm0-3v3h3v-3h-3Zm0-3v3h3v-3h-3Zm0-3v3h3v-3h-3Zm-3,0v3h3v-3h-3Zm0-3v3h3v-3h-3Zm0-3v3h3v-3h-3Zm-3,0v3h3v-3h-3Zm0-3v3h3v-3h-3Zm0-3v3h3v-3h-3Zm-6-9v3h3v-3h-3Zm0-3v3h3v-3h-3Zm0-3v3h3v-3h-3Zm-3-3v3h3v-3h-3Zm0,3v3h3v-3h-3Zm3,9v3h3v-3h-3Zm0,3v3h3v-3h-3Zm3,3v3h3v-3h-3Zm0-3v3h3v-3h-3Zm0-3v3h3v-3h-3Zm0-3v3h3v-3h-3Zm0-3v3h3v-3h-3Zm0-3v3h3v-3h-3Zm0-3v3h3v-3h-3Zm-3,0v3h3v-3h-3Zm0-3v3h3v-3h-3Zm-3,0v3h3v-3h-3Zm-3,0v3h3v-3h-3Zm-3,0v3h3v-3h-3Zm0,3v3h3v-3h-3Zm3,0v3h3v-3h-3Zm0,3v3h3v-3h-3Zm0,3v3h3v-3h-3Zm3,0v3h3v-3h-3Zm0,3v3h3v-3h-3Zm0,3v3h3v-3h-3Zm-3,0v3h3v-3h-3Zm0,3v3h3v-3h-3Zm-3,0v3h3v-3h-3Zm-3,0v3h3v-3h-3Zm0-3v3h3v-3h-3Zm0-3v3h3v-3h-3Zm-3,0v3h3v-3h-3Zm0-3v3h3v-3h-3Zm0-3v3h3v-3h-3Zm3,0v3h3v-3h-3Zm0-3v3h3v-3h-3Z"/>
</svg>