<?xml version="1.0" encoding="UTF-8"?>
<svg id="uuid-5b5c9155-a21a-4a1b-8cdd-82df025accb6" data-name="Calque 1" xmlns="http://www.w3.org/2000/svg" width="250" height="250" viewBox="0 0 250 250">
  <path d="M132.5,85.56v2.5h2.5v-2.5h-2.5Zm-10-7.5v2.5h2.5v-2.5h-2.5Zm12.5,110v2.5h2.5v-2.5h-2.5Zm-2.5,0v2.5h2.5v-2.5h-2.5Zm10-2.5v2.5h2.5v-2.5h-2.5Zm0-2.5v2.5h2.5v-2.5h-2.5Zm-2.5-2.5v2.5h2.5v-2.5h-2.5Zm2.5,0v2.5h2.5v-2.5h-2.5Zm-2.5,2.5v2.5h2.5v-2.5h-2.5Zm-2.5,0v2.5h2.5v-2.5h-2.5Zm0,2.5v2.5h2.5v-2.5h-2.5Zm2.5,0v2.5h2.5v-2.5h-2.5Zm0,2.5v2.5h2.5v-2.5h-2.5Zm-2.5,0v2.5h2.5v-2.5h-2.5Zm-2.5-2.5v2.5h2.5v-2.5h-2.5Zm0-2.5v2.5h2.5v-2.5h-2.5Zm2.5-2.5v2.5h2.5v-2.5h-2.5Zm-10-7.5v2.5h2.5v-2.5h-2.5Zm5,0v2.5h2.5v-2.5h-2.5Zm-2.5,0v2.5h2.5v-2.5h-2.5Zm0,2.5v2.5h2.5v-2.5h-2.5Zm-2.5,0v2.5h2.5v-2.5h-2.5Zm-2.5,0v2.5h2.5v-2.5h-2.5Zm-2.5,0v2.5h2.5v-2.5h-2.5Zm0-2.5v2.5h2.5v-2.5h-2.5Zm2.5,0v2.5h2.5v-2.5h-2.5Zm0-2.5v2.5h2.5v-2.5h-2.5Zm2.5,0v2.5h2.5v-2.5h-2.5Zm2.5,0v2.5h2.5v-2.5h-2.5Zm0-2.5v2.5h2.5v-2.5h-2.5Zm12.5,7.5v2.5h2.5v-2.5h-2.5Zm-2.5-52.5v2.5h2.5v-2.5h-2.5Zm0,2.5v2.5h2.5v-2.5h-2.5Zm0,2.5v2.5h2.5v-2.5h-2.5Zm0,2.5v2.5h2.5v-2.5h-2.5Zm0,2.5v2.5h2.5v-2.5h-2.5Zm0,2.5v2.5h2.5v-2.5h-2.5Zm0,2.5v2.5h2.5v-2.5h-2.5Zm0,2.5v2.5h2.5v-2.5h-2.5Zm0,2.5v2.5h2.5v-2.5h-2.5Zm0,2.5v2.5h2.5v-2.5h-2.5Zm0,2.5v2.5h2.5v-2.5h-2.5Zm0,2.5v2.5h2.5v-2.5h-2.5Zm0,2.5v2.5h2.5v-2.5h-2.5Zm0,2.5v2.5h2.5v-2.5h-2.5Zm0,2.5v2.5h2.5v-2.5h-2.5Zm0,2.5v2.5h2.5v-2.5h-2.5Zm2.5,0v2.5h2.5v-2.5h-2.5Zm0,2.5v2.5h2.5v-2.5h-2.5Zm0,2.5v2.5h2.5v-2.5h-2.5Zm0,2.5v2.5h2.5v-2.5h-2.5Zm0,2.5v2.5h2.5v-2.5h-2.5Zm0,2.5v2.5h2.5v-2.5h-2.5Zm-5,5v2.5h2.5v-2.5h-2.5Zm2.5,0v2.5h2.5v-2.5h-2.5Zm2.5,0v2.5h2.5v-2.5h-2.5Zm-7.5-2.5v2.5h2.5v-2.5h-2.5Zm0-2.5v2.5h2.5v-2.5h-2.5Zm0-2.5v2.5h2.5v-2.5h-2.5Zm-2.5,0v2.5h2.5v-2.5h-2.5Zm0-2.5v2.5h2.5v-2.5h-2.5Zm0-2.5v2.5h2.5v-2.5h-2.5Zm-7.5-17.5v2.5h2.5v-2.5h-2.5Zm-2.5-7.5v2.5h2.5v-2.5h-2.5Zm-2.5-15v2.5h2.5v-2.5h-2.5Zm0-2.5v2.5h2.5v-2.5h-2.5Zm2.5,2.5v2.5h2.5v-2.5h-2.5Zm0,2.5v2.5h2.5v-2.5h-2.5Zm0,2.5v2.5h2.5v-2.5h-2.5Zm0,2.5v2.5h2.5v-2.5h-2.5Zm0,5v2.5h2.5v-2.5h-2.5Zm0-2.5v2.5h2.5v-2.5h-2.5Zm-2.5-2.5v2.5h2.5v-2.5h-2.5Zm0-2.5v2.5h2.5v-2.5h-2.5Zm0-2.5v2.5h2.5v-2.5h-2.5Zm0-10v2.5h2.5v-2.5h-2.5Zm0,2.5v2.5h2.5v-2.5h-2.5Zm2.5,0v2.5h2.5v-2.5h-2.5Zm0,2.5v2.5h2.5v-2.5h-2.5Zm2.5,0v2.5h2.5v-2.5h-2.5Zm0,2.5v2.5h2.5v-2.5h-2.5Zm0,2.5v2.5h2.5v-2.5h-2.5Zm0,2.5v2.5h2.5v-2.5h-2.5Zm0,2.5v2.5h2.5v-2.5h-2.5Zm0,2.5v2.5h2.5v-2.5h-2.5Zm0,2.5v2.5h2.5v-2.5h-2.5Zm0,2.5v2.5h2.5v-2.5h-2.5Zm0,2.5v2.5h2.5v-2.5h-2.5Zm0,2.5v2.5h2.5v-2.5h-2.5Zm2.5,7.5v2.5h2.5v-2.5h-2.5Zm2.5,2.5v2.5h2.5v-2.5h-2.5Zm0,2.5v2.5h2.5v-2.5h-2.5Zm0,2.5v2.5h2.5v-2.5h-2.5Zm0,5v2.5h2.5v-2.5h-2.5Zm0-2.5v2.5h2.5v-2.5h-2.5Zm-2.5,0v2.5h2.5v-2.5h-2.5Zm0-2.5v2.5h2.5v-2.5h-2.5Zm0-2.5v2.5h2.5v-2.5h-2.5Zm0-2.5v2.5h2.5v-2.5h-2.5Zm-2.5,0v2.5h2.5v-2.5h-2.5Zm0-2.5v2.5h2.5v-2.5h-2.5Zm0-2.5v2.5h2.5v-2.5h-2.5Zm-2.5,0v2.5h2.5v-2.5h-2.5Zm0-2.5v2.5h2.5v-2.5h-2.5Zm0-2.5v2.5h2.5v-2.5h-2.5Zm0-2.5v2.5h2.5v-2.5h-2.5Zm-2.5-2.5v2.5h2.5v-2.5h-2.5Zm0-2.5v2.5h2.5v-2.5h-2.5Zm0-2.5v2.5h2.5v-2.5h-2.5Zm-2.5,0v2.5h2.5v-2.5h-2.5Zm0-2.5v2.5h2.5v-2.5h-2.5Zm0-2.5v2.5h2.5v-2.5h-2.5Zm0-2.5v2.5h2.5v-2.5h-2.5Zm0-2.5v2.5h2.5v-2.5h-2.5Zm0-2.5v2.5h2.5v-2.5h-2.5Zm0-2.5v2.5h2.5v-2.5h-2.5Zm0-2.5v2.5h2.5v-2.5h-2.5Zm5,0v2.5h2.5v-2.5h-2.5Zm2.5,0v2.5h2.5v-2.5h-2.5Zm2.5,0v2.5h2.5v-2.5h-2.5Zm2.5,0v2.5h2.5v-2.5h-2.5Zm0,2.5v2.5h2.5v-2.5h-2.5Zm2.5,0v2.5h2.5v-2.5h-2.5Zm2.5,0v2.5h2.5v-2.5h-2.5Zm2.5,0v2.5h2.5v-2.5h-2.5Zm2.5,0v2.5h2.5v-2.5h-2.5Zm0-2.5v2.5h2.5v-2.5h-2.5Zm2.5,0v2.5h2.5v-2.5h-2.5Zm0-2.5v2.5h2.5v-2.5h-2.5Zm0-2.5v2.5h2.5v-2.5h-2.5Zm0-2.5v2.5h2.5v-2.5h-2.5Zm-37.5-7.5v2.5h2.5v-2.5h-2.5Zm17.5,12.5v2.5h2.5v-2.5h-2.5Zm-2.5,0v2.5h2.5v-2.5h-2.5Zm-2.5,0v2.5h2.5v-2.5h-2.5Zm-2.5,0v2.5h2.5v-2.5h-2.5Zm-2.5,0v2.5h2.5v-2.5h-2.5Zm0-2.5v2.5h2.5v-2.5h-2.5Zm-2.5,0v2.5h2.5v-2.5h-2.5Zm20-2.5v2.5h2.5v-2.5h-2.5Zm-2.5,0v2.5h2.5v-2.5h-2.5Zm-2.5,0v2.5h2.5v-2.5h-2.5Zm-2.5,0v2.5h2.5v-2.5h-2.5Zm0,2.5v2.5h2.5v-2.5h-2.5Zm-2.5,0v2.5h2.5v-2.5h-2.5Zm-2.5-2.5v2.5h2.5v-2.5h-2.5Zm2.5,0v2.5h2.5v-2.5h-2.5Zm7.5-5v2.5h2.5v-2.5h-2.5Zm-2.5,0v2.5h2.5v-2.5h-2.5Zm-2.5,0v2.5h2.5v-2.5h-2.5Zm-15,5v2.5h2.5v-2.5h-2.5Zm0-2.5v2.5h2.5v-2.5h-2.5Zm0-2.5v2.5h2.5v-2.5h-2.5Zm-2.5-5v2.5h2.5v-2.5h-2.5Zm0-2.5v2.5h2.5v-2.5h-2.5Zm2.5,0v2.5h2.5v-2.5h-2.5Zm2.5,0v2.5h2.5v-2.5h-2.5Zm2.5,0v2.5h2.5v-2.5h-2.5Zm2.5,0v2.5h2.5v-2.5h-2.5Zm2.5,0v2.5h2.5v-2.5h-2.5Zm0,2.5v2.5h2.5v-2.5h-2.5Zm0,2.5v2.5h2.5v-2.5h-2.5Zm2.5,0v2.5h2.5v-2.5h-2.5Zm0,2.5v2.5h2.5v-2.5h-2.5Zm0,2.5v2.5h2.5v-2.5h-2.5Zm-2.5-12.5v2.5h2.5v-2.5h-2.5Zm0-2.5v2.5h2.5v-2.5h-2.5Zm0-2.5v2.5h2.5v-2.5h-2.5Zm0-2.5v2.5h2.5v-2.5h-2.5Zm5-7.5v2.5h2.5v-2.5h-2.5Zm0,2.5v2.5h2.5v-2.5h-2.5Zm2.5,0v2.5h2.5v-2.5h-2.5Zm10,0v2.5h2.5v-2.5h-2.5Zm-5,2.5v2.5h2.5v-2.5h-2.5Zm2.5-2.5v2.5h2.5v-2.5h-2.5Zm2.5-2.5v2.5h2.5v-2.5h-2.5Zm-2.5,0v2.5h2.5v-2.5h-2.5Zm-2.5,2.5v2.5h2.5v-2.5h-2.5Zm-2.5,0v2.5h2.5v-2.5h-2.5Zm-2.5-2.5v2.5h2.5v-2.5h-2.5Zm0-2.5v2.5h2.5v-2.5h-2.5Zm12.5,17.5v2.5h2.5v-2.5h-2.5Zm0,2.5v2.5h2.5v-2.5h-2.5Zm2.5,2.5v2.5h2.5v-2.5h-2.5Zm-2.5,0v2.5h2.5v-2.5h-2.5Zm0,2.5v2.5h2.5v-2.5h-2.5Zm-2.5,0v2.5h2.5v-2.5h-2.5Zm0,2.5v2.5h2.5v-2.5h-2.5Zm-2.5,0v2.5h2.5v-2.5h-2.5Zm-2.5,0v2.5h2.5v-2.5h-2.5Zm0,2.5v2.5h2.5v-2.5h-2.5Zm2.5,0v2.5h2.5v-2.5h-2.5Zm2.5,0v2.5h2.5v-2.5h-2.5Zm2.5,0v2.5h2.5v-2.5h-2.5Zm2.5,0v2.5h2.5v-2.5h-2.5Zm2.5,0v2.5h2.5v-2.5h-2.5Zm2.5,0v2.5h2.5v-2.5h-2.5Zm0-2.5v2.5h2.5v-2.5h-2.5Zm2.5,0v2.5h2.5v-2.5h-2.5Zm2.5,0v2.5h2.5v-2.5h-2.5Zm0-2.5v2.5h2.5v-2.5h-2.5Zm2.5,0v2.5h2.5v-2.5h-2.5Zm0-2.5v2.5h2.5v-2.5h-2.5Zm-2.5-2.5v2.5h2.5v-2.5h-2.5Zm0-2.5v2.5h2.5v-2.5h-2.5Zm0-2.5v2.5h2.5v-2.5h-2.5Zm-2.5,0v2.5h2.5v-2.5h-2.5Zm0-2.5v2.5h2.5v-2.5h-2.5Zm0-2.5v2.5h2.5v-2.5h-2.5Zm-2.5,0v2.5h2.5v-2.5h-2.5Zm0-2.5v2.5h2.5v-2.5h-2.5Zm0-2.5v2.5h2.5v-2.5h-2.5Zm-2.5,0v2.5h2.5v-2.5h-2.5Zm0-2.5v2.5h2.5v-2.5h-2.5Zm-2.5,0v2.5h2.5v-2.5h-2.5Zm0-2.5v2.5h2.5v-2.5h-2.5Zm-2.5,0v2.5h2.5v-2.5h-2.5Zm-2.5,0v2.5h2.5v-2.5h-2.5Zm0-2.5v2.5h2.5v-2.5h-2.5Zm-45-10v2.5h2.5v-2.5h-2.5Zm5,5v2.5h2.5v-2.5h-2.5Zm0,2.5v2.5h2.5v-2.5h-2.5Zm-2.5,0v2.5h2.5v-2.5h-2.5Zm0-2.5v2.5h2.5v-2.5h-2.5Zm0-2.5v2.5h2.5v-2.5h-2.5Zm2.5,0v2.5h2.5v-2.5h-2.5Zm7.5-2.5v2.5h2.5v-2.5h-2.5Zm-2.5,0v2.5h2.5v-2.5h-2.5Zm-5,0v2.5h2.5v-2.5h-2.5Zm-2.5,0v2.5h2.5v-2.5h-2.5Zm5,0v2.5h2.5v-2.5h-2.5Zm0,2.5v2.5h2.5v-2.5h-2.5Zm0,2.5v2.5h2.5v-2.5h-2.5Zm0,2.5v2.5h2.5v-2.5h-2.5Zm0,2.5v2.5h2.5v-2.5h-2.5Zm17.5,12.5v2.5h2.5v-2.5h-2.5Zm-2.5,0v2.5h2.5v-2.5h-2.5Zm-2.5,0v2.5h2.5v-2.5h-2.5Zm0,2.5v2.5h2.5v-2.5h-2.5Zm-2.5,0v2.5h2.5v-2.5h-2.5Zm-2.5,0v2.5h2.5v-2.5h-2.5Zm-2.5,0v2.5h2.5v-2.5h-2.5Zm0-2.5v2.5h2.5v-2.5h-2.5Zm-2.5,0v2.5h2.5v-2.5h-2.5Zm0-2.5v2.5h2.5v-2.5h-2.5Zm0-2.5v2.5h2.5v-2.5h-2.5Zm-2.5,0v2.5h2.5v-2.5h-2.5Zm0-2.5v2.5h2.5v-2.5h-2.5Zm-2.5,0v2.5h2.5v-2.5h-2.5Zm0-2.5v2.5h2.5v-2.5h-2.5Zm2.5,0v2.5h2.5v-2.5h-2.5Zm2.5,0v2.5h2.5v-2.5h-2.5Zm2.5,0v2.5h2.5v-2.5h-2.5Zm0,2.5v2.5h2.5v-2.5h-2.5Zm2.5,0v2.5h2.5v-2.5h-2.5Zm0,2.5v2.5h2.5v-2.5h-2.5Zm10-2.5v2.5h2.5v-2.5h-2.5Zm-2.5,0v2.5h2.5v-2.5h-2.5Zm-2.5,0v2.5h2.5v-2.5h-2.5Zm0,2.5v2.5h2.5v-2.5h-2.5Zm-2.5,0v2.5h2.5v-2.5h-2.5Zm7.5-5v2.5h2.5v-2.5h-2.5Zm2.5,0v2.5h2.5v-2.5h-2.5Zm0-2.5v2.5h2.5v-2.5h-2.5Zm2.5,0v2.5h2.5v-2.5h-2.5Zm0-2.5v2.5h2.5v-2.5h-2.5Zm2.5,0v2.5h2.5v-2.5h-2.5Zm15-7.5v2.5h2.5v-2.5h-2.5Zm0-2.5v2.5h2.5v-2.5h-2.5Zm-2.5-2.5v2.5h2.5v-2.5h-2.5Zm-2.5,0v2.5h2.5v-2.5h-2.5Zm-7.5,2.5v2.5h2.5v-2.5h-2.5Zm5-2.5v2.5h2.5v-2.5h-2.5Zm-2.5,0v2.5h2.5v-2.5h-2.5Zm0,2.5v2.5h2.5v-2.5h-2.5Zm2.5,0v2.5h2.5v-2.5h-2.5Zm2.5,0v2.5h2.5v-2.5h-2.5Zm2.5,0v2.5h2.5v-2.5h-2.5Zm0,2.5v2.5h2.5v-2.5h-2.5Zm0,2.5v2.5h2.5v-2.5h-2.5Zm2.5,0v2.5h2.5v-2.5h-2.5Zm0,2.5v2.5h2.5v-2.5h-2.5Zm-2.5,0v2.5h2.5v-2.5h-2.5Zm0,2.5v2.5h2.5v-2.5h-2.5Zm-2.5,0v2.5h2.5v-2.5h-2.5Zm0,2.5v2.5h2.5v-2.5h-2.5Zm-2.5,0v2.5h2.5v-2.5h-2.5Zm-2.5,0v2.5h2.5v-2.5h-2.5Zm-2.5,0v2.5h2.5v-2.5h-2.5Zm0-2.5v2.5h2.5v-2.5h-2.5Zm0-2.5v2.5h2.5v-2.5h-2.5Zm0-2.5v2.5h2.5v-2.5h-2.5Zm0-2.5v2.5h2.5v-2.5h-2.5Z"/>
</svg>