<?xml version="1.0" encoding="UTF-8"?>
<svg id="uuid-0bc08f0e-1af4-4ada-9fa7-702ac7459cb1" data-name="Calque 1" xmlns="http://www.w3.org/2000/svg" width="250" height="250" viewBox="0 0 250 250">
  <path d="M143.75,117.96c.42,2.84,.64,5.75,1.3,8.55,.79,3.36,2.25,6.58,2.88,9.96,.84,4.48,1.49,9.04,1.63,13.58,.19,6.23,.24,12.52-.39,18.71-.83,8.08-1,16.13-.87,24.32-2.28,.11-4.81,.29-7.34,.33-12.57,.21-25.13,.38-37.7,.57-.36,0-.8-.12-1.07,.05-.49,.29-.87,.75-1.55,1.38,.85,.25,1.19,.39,1.54,.43,.72,.09,1.45,.18,2.17,.16,9.56-.31,19.13-.66,28.69-.94,5.81-.17,11.62-.21,17.43-.34,.74-.02,1.48-.28,2.22-.42,.1-.21,.21-.42,.31-.63-4.31-.58-3.43-3.65-3.31-6.18,.35-7.53,1.12-15.04,1.22-22.57,.12-8.74-.3-17.49-.49-26.41,.66-.11,1.72-.4,2.79-.44,1.65-.05,2.38-.72,2.19-2.42-.33-3.09-.8-6.18-.83-9.27-.1-13.51-.06-27.02-.08-40.53,0-5.23-1.48-9.36-6.08-12.87-4.12-3.13-8.94-6.43-8.43-13.23,.28-3.77-1.15-7.65-1.54-11.5-.7-6.81-3.63-10.19-8.33-10.95-1.67-.27-3.45-.1-5.16,.1-5.77,.65-11.53,5.4-10.92,12.35,.36,4.11,.77,8.23,1,12.35,.06,1.14-.28,2.38-.74,3.45-2.03,4.79-6.3,7.45-10.51,9.71-4.93,2.65-6.55,6.67-6.74,11.71-.26,7.03-.54,14.07-.56,21.11-.01,9.51,.08,19.02,.42,28.52,.15,4.16,.48,4.15,4.68,4.48,.19,.02,.37,.17,.3,.14-1.15,11.16-2.53,22.17-3.32,33.21-.44,6.12,.07,12.32,.26,18.48,.03,.92,.65,1.82,1,2.72,.19-.07,.39-.14,.58-.21,0-.43,.02-.86,0-1.29-.22-5.35-.95-10.74-.57-16.05,.82-11.49,2.21-22.94,3.39-34.4,.09-.92,.1-2.23,.67-2.64,1.72-1.25,1.74-2.9,1.65-4.65-.33-7.01,.6-13.89,2.16-20.7,2.08-9.11,3.65-18.27,2.49-27.99,1.25,.28,2.27,.35,3.16,.73,7.72,3.26,15.57,3.8,23.55,1.1,1.91-.65,2.41-.06,2.47,1.84,.19,6.16,.39,12.31,2.45,18.24,.8,2.3,1.01,4.8,1.51,7.29-1.49-.51-2.64-.89-3.78-1.28,.13-.15,.26-.3,.38-.45-.85-.77-1.66-2.11-2.57-2.18-2.32-.19-2.9,1.67-2.91,3.62-1.52,.27-3.3-.14-3.39,2.05-.05,1.18-.04,2.37-.11,3.55-.12,2.02,.5,2.56,2.52,2.47,.74-.03,1.83,.14,2.17,.63,.82,1.19,1.83,2.37,3.1,1.58,.92-.57,1.25-2.17,1.76-3.34,.29-.67,.26-1.51,.63-2.11,.71-1.14,1.6-2.16,2.62-3.49Zm-32.23,34.06c-.65-.91-1.21-2.33-1.76-2.33-2.19,0-2.97,1.64-3,3.59-.9,.24-1.71,.34-2.42,.66-1.54,.69-1.93,2.54-1.06,3.85,.54,.82,.74,1.85,1.18,2.74,.36,.72,.71,1.77,1.31,1.97,.71,.25,1.72-.15,2.53-.45,.41-.15,.69-.68,1.05-1.06,.52,.81,.9,1.61,1.48,2.24,1.29,1.4,3.5,1.19,3.86-.51,.34-1.59-.05-3.32-.12-5-.02-.49-.09-.99-.07-1.48,.06-1.24,.6-2.73,.08-3.62-.38-.64-2.14-.46-3.04-.61Z" style="fill: #fff;"/>
  <path d="M143.75,117.96c-1.02,1.33-1.91,2.35-2.62,3.49-.37,.6-.34,1.44-.63,2.11-.51,1.18-.83,2.77-1.76,3.34-1.27,.79-2.28-.39-3.1-1.58-.34-.49-1.44-.67-2.17-.63-2.02,.09-2.65-.46-2.52-2.47,.07-1.18,.06-2.36,.11-3.55,.09-2.19,1.87-1.78,3.39-2.05,.01-1.95,.59-3.81,2.91-3.62,.91,.08,1.72,1.42,2.57,2.18-.13,.15-.26,.3-.38,.45,1.15,.39,2.29,.78,3.78,1.28-.5-2.49-.71-4.99-1.51-7.29-2.06-5.94-2.26-12.09-2.45-18.24-.06-1.9-.56-2.49-2.47-1.84-7.98,2.7-15.83,2.16-23.55-1.1-.89-.38-1.92-.45-3.16-.73,1.17,9.73-.41,18.88-2.49,27.99-1.56,6.81-2.49,13.69-2.16,20.7,.08,1.75,.06,3.4-1.65,4.65-.57,.41-.57,1.72-.67,2.64-1.18,11.46-2.57,22.91-3.39,34.4-.38,5.31,.35,10.7,.57,16.05,.02,.43,0,.86,0,1.29-.19,.07-.39,.14-.58,.21-.35-.91-.97-1.81-1-2.72-.19-6.16-.7-12.36-.26-18.48,.79-11.05,2.17-22.05,3.32-33.21,.07,.03-.11-.12-.3-.14-4.2-.34-4.53-.32-4.68-4.48-.34-9.5-.43-19.01-.42-28.52,.01-7.04,.29-14.08,.56-21.11,.19-5.04,1.81-9.06,6.74-11.71,4.21-2.26,8.47-4.93,10.51-9.71,.45-1.07,.8-2.32,.74-3.45-.23-4.12-.64-8.23-1-12.35-.6-6.94,5.16-11.7,10.92-12.35,1.71-.19,3.49-.37,5.16-.1,4.7,.75,7.63,4.14,8.33,10.95,.4,3.86,1.83,7.73,1.54,11.5-.51,6.79,4.32,10.1,8.43,13.23,4.6,3.5,6.07,7.63,6.08,12.87,.02,13.51-.02,27.02,.08,40.53,.02,3.09,.5,6.19,.83,9.27,.18,1.7-.54,2.37-2.19,2.42-1.07,.03-2.13,.33-2.79,.44,.19,8.92,.61,17.67,.49,26.41-.1,7.53-.87,15.04-1.22,22.57-.12,2.53-1,5.59,3.31,6.18-.1,.21-.21,.42-.31,.63-.74,.15-1.48,.4-2.22,.42-5.81,.14-11.62,.18-17.43,.34-9.56,.28-19.13,.64-28.69,.94-.72,.02-1.45-.07-2.17-.16-.35-.04-.69-.19-1.54-.43,.68-.62,1.06-1.08,1.55-1.38,.27-.16,.71-.04,1.07-.05,12.57-.19,25.13-.36,37.7-.57,2.53-.04,5.06-.22,7.34-.33-.13-8.2,.04-16.24,.87-24.32,.63-6.19,.59-12.48,.39-18.71-.14-4.54-.79-9.11-1.63-13.58-.63-3.38-2.09-6.6-2.88-9.96-.66-2.8-.88-5.71-1.3-8.55Zm6.05,19.15c.58-.1,.92-.16,1.27-.21,3.28-.41,3.29-.56,2.98-3.95-.37-3.95-.54-7.93-.74-11.9-.12-2.39-.14-4.79-.19-7.18-.05-2.61-.11-5.22-.13-7.83-.06-8.26,0-16.52-.25-24.78-.05-1.58-1.22-3.13-1.81-4.54-2.13,2.66-4.02,4.92-5.78,7.28-.41,.55-.57,1.47-.47,2.16,.3,2.2,1.09,4.37,1.14,6.56,.17,7.69,.37,15.4,.08,23.09-.29,7.44,2.73,14.12,3.91,21.29Zm-51.68,2.4c1.38,0,2.29,.14,3.11-.05,.54-.13,1.32-.69,1.39-1.16,.54-3.58,1.15-7.16,1.33-10.77,.56-11.66,.9-23.33,1.43-34.99,.12-2.65,.9-5.16,3.58-6.14-2.75-2.22-5.51-4.45-8.37-6.76-1.66,2-2.17,4.71-2.24,7.45-.27,11.02-.5,22.05-.58,33.07-.05,6.36,.22,12.73,.35,19.35Zm37.2-84.87c1.05-3.46-.68-5.69-4.27-7.4-3.57-1.7-6.47-1.61-9.28,1.3-.96,.99-2.02,1.91-2.84,3.01-.53,.7-1.04,1.68-1,2.5,.16,3.1,.54,6.18,.88,9.27,.04,.4,.38,.77,.58,1.14,1.96,3.56,5.4,3.68,8.85,3.85,2.24,.11,3.63-.97,4.81-2.75,2.12-3.19,2.57-6.71,2.26-10.93Zm8.03,31.45q-2.6,1.74-2.63,4.18c-.11,8.06,1.08,15.92,3.72,23.52,.03-.2,.12-.47,.12-.74,0-7.24,.07-14.49-.05-21.73-.03-1.67-.72-3.33-1.16-5.24Zm-34.22,1.64c-.54,.6-1.32,1.11-1.52,1.79-.47,1.58-.83,3.22-.94,4.86-.25,3.83-.28,7.68-.49,11.52-.24,4.23-.58,8.45-.88,12.67,2.79-10.01,4.71-20.13,3.83-30.84Z"/>
  <path d="M111.52,152.02c.9,.15,2.67-.03,3.04,.61,.52,.88-.02,2.38-.08,3.62-.02,.49,.05,.99,.07,1.48,.07,1.67,.46,3.41,.12,5-.36,1.69-2.58,1.9-3.86,.51-.57-.62-.95-1.43-1.48-2.24-.35,.38-.63,.91-1.05,1.06-.81,.29-1.82,.7-2.53,.45-.6-.21-.95-1.25-1.31-1.97-.44-.89-.64-1.92-1.18-2.74-.86-1.31-.47-3.16,1.06-3.85,.71-.32,1.52-.42,2.42-.66,.03-1.95,.81-3.58,3-3.59,.55,0,1.11,1.43,1.76,2.33Z"/>
  <path d="M149.8,137.11c-1.18-7.18-4.2-13.85-3.91-21.29,.3-7.68,.1-15.39-.08-23.09-.05-2.19-.84-4.36-1.14-6.56-.1-.7,.06-1.62,.47-2.16,1.76-2.36,3.65-4.63,5.78-7.28,.59,1.41,1.76,2.96,1.81,4.54,.24,8.25,.19,16.52,.25,24.78,.02,2.61,.08,5.22,.13,7.83,.05,2.39,.07,4.79,.19,7.18,.2,3.97,.37,7.94,.74,11.9,.32,3.39,.31,3.55-2.98,3.95-.35,.04-.69,.11-1.27,.21Z" style="fill: #fff;"/>
  <path d="M98.11,139.51c-.13-6.62-.4-12.99-.35-19.35,.08-11.02,.31-22.05,.58-33.07,.07-2.74,.58-5.45,2.24-7.45,2.86,2.31,5.62,4.54,8.37,6.76-2.68,.98-3.46,3.49-3.58,6.14-.53,11.66-.87,23.33-1.43,34.99-.17,3.6-.79,7.19-1.33,10.77-.07,.46-.85,1.03-1.39,1.16-.82,.2-1.72,.05-3.11,.05Z" style="fill: #fff;"/>
  <path d="M135.32,54.64c.31,4.22-.15,7.73-2.26,10.93-1.18,1.77-2.57,2.86-4.81,2.75-3.45-.17-6.89-.29-8.85-3.85-.21-.38-.54-.75-.58-1.14-.34-3.08-.72-6.17-.88-9.27-.04-.82,.47-1.8,1-2.5,.82-1.09,1.88-2.01,2.84-3.01,2.81-2.91,5.71-3,9.28-1.3,3.59,1.71,5.33,3.94,4.27,7.4Z" style="fill: #fff;"/>
  <path d="M143.35,86.09c.44,1.91,1.13,3.57,1.16,5.24,.12,7.24,.06,14.48,.05,21.73,0,.27-.08,.53-.12,.74-2.64-7.6-3.84-15.46-3.72-23.52q.03-2.44,2.63-4.18Z" style="fill: #fff;"/>
  <path d="M109.13,87.73c.88,10.71-1.05,20.83-3.83,30.84,.3-4.22,.64-8.44,.88-12.67,.21-3.84,.24-7.69,.49-11.52,.11-1.64,.47-3.29,.94-4.86,.2-.68,.99-1.18,1.52-1.79Z" style="fill: #fff;"/>
</svg>