<?xml version="1.0" encoding="UTF-8"?>
<svg id="uuid-00b4f950-7764-4cd1-96ad-1d63bbca2cb8" data-name="Calque 1" xmlns="http://www.w3.org/2000/svg" width="250" height="250" viewBox="0 0 250 250">
  <path d="M148.5,182v3h3v-3h-3Zm3-6v3h3v-3h-3Zm-3,0v3h3v-3h-3Zm0,3v3h3v-3h-3Zm-3,0v3h3v-3h-3Zm-3,0v3h3v-3h-3Zm0,3v3h3v-3h-3Zm-3,0v3h3v-3h-3Zm12,0v3h3v-3h-3Zm-27,15v3h3v-3h-3Zm0-3v3h3v-3h-3Zm3,0v3h3v-3h-3Zm3,0v3h3v-3h-3Zm0-3v3h3v-3h-3Zm3,0v3h3v-3h-3Zm0-3v3h3v-3h-3Zm3,0v3h3v-3h-3Zm3,0v3h3v-3h-3Zm0-3v3h3v-3h-3Zm3,0v3h3v-3h-3Zm3,0v3h3v-3h-3Zm9-6v3h3v-3h-3Zm3,0v3h3v-3h-3Zm3-3v3h3v-3h-3Zm3,0v3h3v-3h-3Zm3-3v3h3v-3h-3Zm3,0v3h3v-3h-3Zm0-3v3h3v-3h-3Zm3,0v3h3v-3h-3Zm0-3v3h3v-3h-3Zm3,0v3h3v-3h-3Zm3,0v3h3v-3h-3Zm0-3v3h3v-3h-3Zm3,0v3h3v-3h-3Zm0-3v3h3v-3h-3Zm0-3v3h3v-3h-3Zm-63,36v3h3v-3h-3Zm3,3v3h3v-3h-3Zm-3,0v3h3v-3h-3Zm-3,0v3h3v-3h-3Zm0-3v3h3v-3h-3Zm-3,0v3h3v-3h-3Zm-3,0v3h3v-3h-3Zm0-3v3h3v-3h-3Zm-3,0v3h3v-3h-3Zm-3,0v3h3v-3h-3Zm0-3v3h3v-3h-3Zm-3,0v3h3v-3h-3Zm0-3v3h3v-3h-3Zm-3,0v3h3v-3h-3Zm-3,0v3h3v-3h-3Zm0-3v3h3v-3h-3Zm-3,0v3h3v-3h-3Zm0-3v3h3v-3h-3Zm-3,0v3h3v-3h-3Zm-3,0v3h3v-3h-3Zm-3,0v3h3v-3h-3Zm0-3v3h3v-3h-3Zm-3,0v3h3v-3h-3Zm-3,0v3h3v-3h-3Zm0-3v3h3v-3h-3Zm-3,0v3h3v-3h-3Zm-3,0v3h3v-3h-3Zm0-3v3h3v-3h-3Zm-3,0v3h3v-3h-3Zm-3,0v3h3v-3h-3Zm0-3v3h3v-3h-3Zm-3,0v3h3v-3h-3Zm-3,0v3h3v-3h-3Zm0-3v3h3v-3h-3Zm-3,0v3h3v-3h-3Zm0-3v3h3v-3h-3Zm0-3v3h3v-3h-3Zm123,0v3h3v-3h-3ZM97.5,65v3h3v-3h-3Zm-3,0v3h3v-3h-3Zm-3,0v3h3v-3h-3Zm-3,0v3h3v-3h-3Zm0,3v3h3v-3h-3Zm39,15v3h3v-3h-3Zm6,3v3h3v-3h-3Zm9,0v3h3v-3h-3Zm-6-3v3h3v-3h-3Zm-9-3v3h3v-3h-3Zm15,9v3h3v-3h-3Zm6,3v3h3v-3h-3Zm6,3v3h3v-3h-3Zm-3,0v3h3v-3h-3Zm-3,0v3h3v-3h-3Zm-3-3v3h3v-3h-3Zm-6-3v3h3v-3h-3Zm-9-6v3h3v-3h-3Zm-6-3v3h3v-3h-3Zm-3-3v3h3v-3h-3Zm-3,0v3h3v-3h-3Zm33,9v3h3v-3h-3Zm27,15v3h3v-3h-3Zm-12-6v3h3v-3h-3Zm-6-3v3h3v-3h-3Zm-6-3v3h3v-3h-3Zm-3,0v3h3v-3h-3Zm-3-3v3h3v-3h-3Zm-3,0v3h3v-3h-3Zm-3-3v3h3v-3h-3Zm-3,0v3h3v-3h-3Zm0-3v3h3v-3h-3Zm-3,0v3h3v-3h-3Zm-3,0v3h3v-3h-3Zm0-3v3h3v-3h-3Zm-3,0v3h3v-3h-3Zm-3-3v3h3v-3h-3Zm-3,3v3h3v-3h-3Zm3,0v3h3v-3h-3Zm3,3v3h3v-3h-3Zm3,3v3h3v-3h-3Zm3,3v3h3v-3h-3Zm3,0v3h3v-3h-3Zm6,3v3h3v-3h-3Zm3,0v3h3v-3h-3Zm3,3v3h3v-3h-3Zm3,0v3h3v-3h-3Zm3,0v3h3v-3h-3Zm0,3v3h3v-3h-3Zm3,0v3h3v-3h-3Zm3,0v3h3v-3h-3Zm3,6v3h3v-3h-3Zm3,0v3h3v-3h-3Zm12,3v3h3v-3h-3Zm-3,0v3h3v-3h-3Zm-3,0v3h3v-3h-3Zm0-3v3h3v-3h-3Zm-3,0v3h3v-3h-3Zm0-3v3h3v-3h-3Zm-3,0v3h3v-3h-3Zm-3,0v3h3v-3h-3Zm-3,0v3h3v-3h-3Zm-9,3v3h3v-3h-3Zm3,0v3h3v-3h-3Zm6,0v3h3v-3h-3Zm-3,0v3h3v-3h-3Zm0-3v3h3v-3h-3Zm-3,0v3h3v-3h-3Zm-3,0v3h3v-3h-3Zm-12,66v3h3v-3h-3Zm0-3v3h3v-3h-3Zm0-3v3h3v-3h-3Zm0-3v3h3v-3h-3Zm0-3v3h3v-3h-3Zm9-54v3h3v-3h-3Zm-3,0v3h3v-3h-3Zm-3-3v3h3v-3h-3Zm-3,0v3h3v-3h-3Zm0-3v3h3v-3h-3Zm-3,0v3h3v-3h-3Zm-3-3v3h3v-3h-3Zm-3,0v3h3v-3h-3Zm-3-3v3h3v-3h-3Zm-3,0v3h3v-3h-3Zm-3-3v3h3v-3h-3Zm-3,0v3h3v-3h-3Zm0-3v3h3v-3h-3Zm-3,0v3h3v-3h-3Zm-3-3v3h3v-3h-3Zm-3,0v3h3v-3h-3Zm-18-9v3h3v-3h-3Zm18,3v3h3v-3h-3Zm3,0v3h3v-3h-3Zm3,0v3h3v-3h-3Zm3,0v3h3v-3h-3Zm3,3v3h3v-3h-3Zm-3,0v3h3v-3h-3Zm-3,0v3h3v-3h-3Zm-3,0v3h3v-3h-3Zm-3,0v3h3v-3h-3Zm-3-3v3h3v-3h-3Zm-12-3v3h3v-3h-3Zm6,3v3h3v-3h-3Zm3,0v3h3v-3h-3Zm0,3v3h3v-3h-3Zm3,0v3h3v-3h-3Zm-3,102v3h3v-3h-3Zm-6-3v3h3v-3h-3Zm-3,3v3h3v-3h-3Zm12,3v3h3v-3h-3Zm0-3v3h3v-3h-3Zm0-3v3h3v-3h-3Zm0-3v3h3v-3h-3Zm3-12v3h3v-3h-3Zm0,3v3h3v-3h-3Zm0,3v3h3v-3h-3Zm0,21v3h3v-3h-3Zm0-3v3h3v-3h-3Zm0-3v3h3v-3h-3Zm0-3v3h3v-3h-3Zm0-3v3h3v-3h-3Zm0-3v3h3v-3h-3Zm0-3v3h3v-3h-3Zm-3,0v3h3v-3h-3Zm0-3v3h3v-3h-3Zm0-3v3h3v-3h-3Zm0-3v3h3v-3h-3Zm3-3v3h3v-3h-3Zm3,3v3h3v-3h-3Zm0,3v3h3v-3h-3Zm0,3v3h3v-3h-3Zm0,3v3h3v-3h-3Zm0,3v3h3v-3h-3Zm0,3v3h3v-3h-3Zm0,3v3h3v-3h-3Zm0,3v3h3v-3h-3Zm0,3v3h3v-3h-3Zm0,3v3h3v-3h-3Zm-6-3v3h3v-3h-3Zm-3-3v3h3v-3h-3Zm-3,0v3h3v-3h-3Zm0-3v3h3v-3h-3Zm-3,0v3h3v-3h-3Zm-3-3v3h3v-3h-3Zm-3-3v3h3v-3h-3Zm-3-3v3h3v-3h-3Zm-3-3v3h3v-3h-3Zm-3,0v3h3v-3h-3Zm6,9v3h3v-3h-3Zm3,0v3h3v-3h-3Zm-3-3v3h3v-3h-3Zm-3,0v3h3v-3h-3Zm0-3v3h3v-3h-3Zm-3,0v3h3v-3h-3Zm-3,0v3h3v-3h-3Zm-6-3v3h3v-3h-3Zm0-3v3h3v-3h-3Zm3-6v3h3v-3h-3Zm0-3v3h3v-3h-3Zm0,6v3h3v-3h-3Zm0,3v3h3v-3h-3Zm0,3v3h3v-3h-3Zm3,0v3h3v-3h-3Zm0-3v3h3v-3h-3Zm0-3v3h3v-3h-3Zm0-3v3h3v-3h-3Zm9-12v3h3v-3h-3Zm-6,0v3h3v-3h-3Zm-6,6v3h3v-3h-3Zm0-3v3h3v-3h-3Zm0-6v3h3v-3h-3Zm0-3v3h3v-3h-3Zm0,6v3h3v-3h-3Zm3,6v3h3v-3h-3Zm0,3v3h3v-3h-3Zm0-6v3h3v-3h-3Zm0-3v3h3v-3h-3Zm0-3v3h3v-3h-3Zm6,21v3h3v-3h-3Zm0-3v3h3v-3h-3Zm0-3v3h3v-3h-3Zm0-3v3h3v-3h-3Zm0-6v3h3v-3h-3Zm0,3v3h3v-3h-3Zm-3,12v3h3v-3h-3Zm0-3v3h3v-3h-3Zm0-3v3h3v-3h-3Zm0-3v3h3v-3h-3Zm0-3v3h3v-3h-3Zm0-3v3h3v-3h-3Zm3-3v3h3v-3h-3Zm12,0v3h3v-3h-3Zm15,12v3h3v-3h-3Zm0-3v3h3v-3h-3Zm-9-6v3h3v-3h-3Zm3,3v3h3v-3h-3Zm3,0v3h3v-3h-3Zm0,3v3h3v-3h-3Zm-3,3v3h3v-3h-3Zm0-3v3h3v-3h-3Zm-3,0v3h3v-3h-3Zm0-3v3h3v-3h-3Zm-3,0v3h3v-3h-3Zm0-3v3h3v-3h-3Zm-3,0v3h3v-3h-3Zm-3,0v3h3v-3h-3Zm0-3v3h3v-3h-3Zm-3,0v3h3v-3h-3Zm0-3v3h3v-3h-3Zm-3,0v3h3v-3h-3Zm0-3v3h3v-3h-3Zm-3,0v3h3v-3h-3Zm-3-3v3h3v-3h-3Zm-3-3v3h3v-3h-3Zm-12-6v3h3v-3h-3Zm6,3v3h3v-3h-3Zm12,12v3h3v-3h-3Zm-3,0v3h3v-3h-3Zm0-3v3h3v-3h-3Zm-3,0v3h3v-3h-3Zm0-3v3h3v-3h-3Zm-3-3v3h3v-3h-3Zm-21-12v3h3v-3h-3Zm6,9v3h3v-3h-3Zm9,0v3h3v-3h-3Zm6,6v3h3v-3h-3Zm-3,0v3h3v-3h-3Zm0-3v3h3v-3h-3Zm-3,0v3h3v-3h-3Zm-3,0v3h3v-3h-3Zm0-3v3h3v-3h-3Zm-3,0v3h3v-3h-3Zm0-3v3h3v-3h-3Zm-3,0v3h3v-3h-3Zm0-3v3h3v-3h-3Zm-3-3v3h3v-3h-3Zm0,3v3h3v-3h-3Zm0,15v3h3v-3h-3Zm0-9v3h3v-3h-3Zm0-3v3h3v-3h-3Zm-3-3v3h3v-3h-3Zm0,3v3h3v-3h-3Zm0,3v3h3v-3h-3Zm3,6v3h3v-3h-3Zm0-3v3h3v-3h-3Zm-3,0v3h3v-3h-3Zm0,12v3h3v-3h-3Zm0,3v3h3v-3h-3Zm0,3v3h3v-3h-3Zm3-9v3h3v-3h-3Zm-3-6v3h3v-3h-3Zm0,3v3h3v-3h-3Zm0,3v3h3v-3h-3Zm3,3v3h3v-3h-3Zm0,3v3h3v-3h-3Zm0,3v3h3v-3h-3Zm3,3v3h3v-3h-3Zm3,3v3h3v-3h-3Zm6,6v3h3v-3h-3Zm-3,0v3h3v-3h-3Zm0-3v3h3v-3h-3Zm-3,0v3h3v-3h-3Zm-3,0v3h3v-3h-3Zm0-3v3h3v-3h-3Zm-3-3v3h3v-3h-3Zm-3,3v3h3v-3h-3Zm3,0v3h3v-3h-3Zm-3-3v3h3v-3h-3Zm18-9v3h3v-3h-3Zm0,3v3h3v-3h-3Zm0,3v3h3v-3h-3Zm0,3v3h3v-3h-3Zm0,3v3h3v-3h-3Zm0,3v3h3v-3h-3Zm-3,0v3h3v-3h-3Zm0-3v3h3v-3h-3Zm-3,0v3h3v-3h-3Zm0-3v3h3v-3h-3Zm-3,0v3h3v-3h-3Zm-3-21v3h3v-3h-3Zm0,3v3h3v-3h-3Zm0,3v3h3v-3h-3Zm0,3v3h3v-3h-3Zm0,3v3h3v-3h-3Zm0,6v3h3v-3h-3Zm0-3v3h3v-3h-3Zm12-6v3h3v-3h-3Zm0-3v3h3v-3h-3Zm-3,0v3h3v-3h-3Zm0-3v3h3v-3h-3Zm-3,0v3h3v-3h-3Zm-3-3v3h3v-3h-3Zm39,39v3h3v-3h-3Zm0-3v3h3v-3h-3Zm0-3v3h3v-3h-3Zm0-3v3h3v-3h-3Zm0-3v3h3v-3h-3Zm0,15v3h3v-3h-3Zm-3,0v3h3v-3h-3Zm0-3v3h3v-3h-3Zm-3,0v3h3v-3h-3Zm-3,0v3h3v-3h-3Zm0-3v3h3v-3h-3Zm-3,0v3h3v-3h-3Zm0-3v3h3v-3h-3Zm-3,0v3h3v-3h-3Zm0-3v3h3v-3h-3Zm0-3v3h3v-3h-3Zm0-3v3h3v-3h-3Zm0-3v3h3v-3h-3Zm0-3v3h3v-3h-3Zm15,6v3h3v-3h-3Zm-3-3v3h3v-3h-3Zm-3-3v3h3v-3h-3Zm-3,0v3h3v-3h-3Zm-3-3v3h3v-3h-3Zm-3,0v3h3v-3h-3Zm54-3v3h3v-3h-3Zm0,3v3h3v-3h-3Zm-3,0v3h3v-3h-3Zm0,3v3h3v-3h-3Zm-3,0v3h3v-3h-3Zm-3,0v3h3v-3h-3Zm0,3v3h3v-3h-3Zm12-9v3h3v-3h-3Zm0,3v3h3v-3h-3Zm0,3v3h3v-3h-3Zm0,3v3h3v-3h-3Zm0,3v3h3v-3h-3Zm0,3v3h3v-3h-3Zm0,3v3h3v-3h-3Zm-3,0v3h3v-3h-3Zm0,3v3h3v-3h-3Zm-3,3v3h3v-3h-3Zm-3,0v3h3v-3h-3Zm-3,0v3h3v-3h-3Zm0,3v3h3v-3h-3Zm-3,0v3h3v-3h-3Zm0-3v3h3v-3h-3Zm0-3v3h3v-3h-3Zm0-3v3h3v-3h-3Zm0-3v3h3v-3h-3Zm0-3v3h3v-3h-3Zm0-3v3h3v-3h-3Zm33-15v3h3v-3h-3Zm0,3v3h3v-3h-3Zm0,3v3h3v-3h-3Zm0,3v3h3v-3h-3Zm0,3v3h3v-3h-3Zm0,3v3h3v-3h-3Zm0,3v3h3v-3h-3Zm0,3v3h3v-3h-3Zm0,3v3h3v-3h-3Zm6,0v3h3v-3h-3Zm0-3v3h3v-3h-3Zm0-3v3h3v-3h-3Zm0-3v3h3v-3h-3Zm0-3v3h3v-3h-3Zm0-3v3h3v-3h-3Zm0-3v3h3v-3h-3Zm0-3v3h3v-3h-3Zm0-9v3h3v-3h-3Zm0,3v3h3v-3h-3Zm0,3v3h3v-3h-3Zm-3,0v3h3v-3h-3Zm0,3v3h3v-3h-3Zm0,3v3h3v-3h-3Zm0,3v3h3v-3h-3Zm0,3v3h3v-3h-3Zm0,3v3h3v-3h-3Zm0,3v3h3v-3h-3Zm0,3v3h3v-3h-3Zm0,3v3h3v-3h-3Zm-3,3v3h3v-3h-3Zm-3-3v3h3v-3h-3Zm0-3v3h3v-3h-3Zm0-3v3h3v-3h-3Zm0-3v3h3v-3h-3Zm0-3v3h3v-3h-3Zm0-3v3h3v-3h-3Zm0-3v3h3v-3h-3Zm0-3v3h3v-3h-3Zm0-3v3h3v-3h-3Zm0-3v3h3v-3h-3Zm3,0v3h3v-3h-3Zm3,0v3h3v-3h-3Zm0-3v3h3v-3h-3Zm6-3v3h3v-3h-3Zm0-3v3h3v-3h-3Zm0,33v3h3v-3h-3Zm0-3v3h3v-3h-3Zm0-3v3h3v-3h-3Zm0-3v3h3v-3h-3Zm0-3v3h3v-3h-3Zm0-3v3h3v-3h-3Zm0-3v3h3v-3h-3Zm0-3v3h3v-3h-3Zm0-3v3h3v-3h-3Zm0-3v3h3v-3h-3Zm-3-6v3h3v-3h-3Zm0,3v3h3v-3h-3Zm-3,0v3h3v-3h-3Zm-3,0v3h3v-3h-3Zm0,3v3h3v-3h-3Zm-3,0v3h3v-3h-3Zm0,33v3h3v-3h-3Zm-3,0v3h3v-3h-3Zm0-3v3h3v-3h-3Zm0-3v3h3v-3h-3Zm0-3v3h3v-3h-3Zm0-3v3h3v-3h-3Zm0-3v3h3v-3h-3Zm0-3v3h3v-3h-3Zm0-3v3h3v-3h-3Zm0-3v3h3v-3h-3Zm0-3v3h3v-3h-3Zm0-3v3h3v-3h-3Zm15,27v3h3v-3h-3Zm-3,3v3h3v-3h-3Zm-3,0v3h3v-3h-3Zm-3,3v3h3v-3h-3Zm-3,0v3h3v-3h-3Zm-3,0v3h3v-3h-3Zm0,3v3h3v-3h-3Zm-3,0v3h3v-3h-3Zm-3,3v3h3v-3h-3Zm-3,0v3h3v-3h-3Zm-15,9v3h3v-3h-3Zm-3,0v3h3v-3h-3Zm0,3v3h3v-3h-3Zm-3,0v3h3v-3h-3Zm-3,0v3h3v-3h-3Zm0,3v3h3v-3h-3Zm-3,0v3h3v-3h-3Zm-3,3v3h3v-3h-3Zm-3-3v3h3v-3h-3Zm0-3v3h3v-3h-3Zm0-3v3h3v-3h-3Zm0-3v3h3v-3h-3Zm0-3v3h3v-3h-3Zm0-3v3h3v-3h-3Zm0-3v3h3v-3h-3Zm0-3v3h3v-3h-3Zm0-3v3h3v-3h-3Zm0-3v3h3v-3h-3Zm0-3v3h3v-3h-3Zm0-3v3h3v-3h-3Zm0-3v3h3v-3h-3Zm0,39v3h3v-3h-3Zm-3,0v3h3v-3h-3Zm0-3v3h3v-3h-3Zm-3,0v3h3v-3h-3Zm-3,0v3h3v-3h-3Zm0-3v3h3v-3h-3Zm-3,0v3h3v-3h-3Zm0-3v3h3v-3h-3Zm-3,0v3h3v-3h-3Zm-3,0v3h3v-3h-3Zm0-3v3h3v-3h-3Zm-3,0v3h3v-3h-3Zm-3,0v3h3v-3h-3Zm0-3v3h3v-3h-3Zm-3,0v3h3v-3h-3Zm-3,0v3h3v-3h-3Zm0-3v3h3v-3h-3Zm-3,0v3h3v-3h-3Zm0-3v3h3v-3h-3Zm-3,0v3h3v-3h-3Zm-3,0v3h3v-3h-3Zm0-3v3h3v-3h-3Zm-3,0v3h3v-3h-3Zm-3,0v3h3v-3h-3Zm0-3v3h3v-3h-3Zm-3,0v3h3v-3h-3Zm-3,0v3h3v-3h-3Zm0-3v3h3v-3h-3Zm-3,0v3h3v-3h-3Zm-3,0v3h3v-3h-3Zm0-3v3h3v-3h-3Zm-3,0v3h3v-3h-3Zm-3-3v3h3v-3h-3Zm0-3v3h3v-3h-3Zm0-3v3h3v-3h-3Zm0-3v3h3v-3h-3Zm0-3v3h3v-3h-3Zm0-3v3h3v-3h-3Zm0-3v3h3v-3h-3Zm0-3v3h3v-3h-3Zm0-3v3h3v-3h-3Zm0-3v3h3v-3h-3Zm0-3v3h3v-3h-3Zm0-3v3h3v-3h-3Zm0-3v3h3v-3h-3Zm0-3v3h3v-3h-3Zm-6-3v3h3v-3h-3Zm132,42v3h3v-3h-3Zm0-3v3h3v-3h-3Zm0-3v3h3v-3h-3Zm0-3v3h3v-3h-3Zm0-3v3h3v-3h-3Zm0-3v3h3v-3h-3Zm0-3v3h3v-3h-3Zm0-3v3h3v-3h-3Zm0-3v3h3v-3h-3Zm0-3v3h3v-3h-3Zm0-3v3h3v-3h-3Zm0-3v3h3v-3h-3Zm0-3v3h3v-3h-3Zm0-3v3h3v-3h-3Zm0-3v3h3v-3h-3Zm0-3v3h3v-3h-3Zm6-3v3h3v-3h-3Zm-3,0v3h3v-3h-3Zm-3,0v3h3v-3h-3Zm-3,0v3h3v-3h-3Zm-3,0v3h3v-3h-3Zm-3,0v3h3v-3h-3Zm0-3v3h3v-3h-3Zm-3,0v3h3v-3h-3Zm-3,0v3h3v-3h-3Zm-3,0v3h3v-3h-3Zm-3,0v3h3v-3h-3Zm-3,0v3h3v-3h-3Zm30,0v3h3v-3h-3Zm-3,0v3h3v-3h-3Zm0-3v3h3v-3h-3Zm-3,0v3h3v-3h-3Zm0-3v3h3v-3h-3Zm-3,0v3h3v-3h-3Zm-3,0v3h3v-3h-3Zm0-3v3h3v-3h-3Zm-3,0v3h3v-3h-3Zm-3,0v3h3v-3h-3Zm0-3v3h3v-3h-3Zm-3,0v3h3v-3h-3Zm-3,0v3h3v-3h-3Zm0-3v3h3v-3h-3Zm-3,0v3h3v-3h-3Zm-3,0v3h3v-3h-3Zm0-3v3h3v-3h-3Zm-3,0v3h3v-3h-3Zm-3-3v3h3v-3h-3Zm-3,0v3h3v-3h-3Zm-3,0v3h3v-3h-3Zm0-3v3h3v-3h-3Zm-3,0v3h3v-3h-3Zm0-3v3h3v-3h-3Zm-3,0v3h3v-3h-3Zm-3,0v3h3v-3h-3Zm0-3v3h3v-3h-3Zm-3,0v3h3v-3h-3Zm-3,0v3h3v-3h-3Zm0-3v3h3v-3h-3Zm-3,0v3h3v-3h-3Zm-3,0v3h3v-3h-3Zm0-3v3h3v-3h-3Zm-3,0v3h3v-3h-3Zm-3,0v3h3v-3h-3Zm-3,0v3h3v-3h-3Zm-3,0v3h3v-3h-3Zm-3,0v3h3v-3h-3Zm-3,0v3h3v-3h-3Zm-3,0v3h3v-3h-3Zm-3,0v3h3v-3h-3Zm51,36v3h3v-3h-3Zm0-3v3h3v-3h-3Zm-3,0v3h3v-3h-3Zm-3,0v3h3v-3h-3Zm0-3v3h3v-3h-3Zm-3,0v3h3v-3h-3Zm-3,0v3h3v-3h-3Zm0-3v3h3v-3h-3Zm-3,0v3h3v-3h-3Zm0-3v3h3v-3h-3Zm-3,0v3h3v-3h-3Zm-3,0v3h3v-3h-3Zm0-3v3h3v-3h-3Zm-3,0v3h3v-3h-3Zm-3,0v3h3v-3h-3Zm0-3v3h3v-3h-3Zm-3,0v3h3v-3h-3Zm-3-3v3h3v-3h-3Zm-3,0v3h3v-3h-3Zm0-3v3h3v-3h-3Zm-3,0v3h3v-3h-3Zm-3,0v3h3v-3h-3Zm0-3v3h3v-3h-3Zm-3,0v3h3v-3h-3Zm-3-3v3h3v-3h-3Zm-3,0v3h3v-3h-3Zm0-3v3h3v-3h-3Zm-3,0v3h3v-3h-3Zm-3,0v3h3v-3h-3Zm-3-3v3h3v-3h-3Zm63,36v3h3v-3h-3Zm0,3v3h3v-3h-3Zm-3,0v3h3v-3h-3Zm-3,3v3h3v-3h-3Zm-3,0v3h3v-3h-3Zm0,3v3h3v-3h-3Zm-3,0v3h3v-3h-3Zm0,3v3h3v-3h-3Zm-3,0v3h3v-3h-3Zm0,3v3h3v-3h-3Zm0,3v3h3v-3h-3Zm-3,0v3h3v-3h-3Zm0,3v3h3v-3h-3Zm-3,0v3h3v-3h-3Zm0,3v3h3v-3h-3Zm0,3v3h3v-3h-3Zm-3,0v3h3v-3h-3Zm0,3v3h3v-3h-3Zm-3,0v3h3v-3h-3Zm0,3v3h3v-3h-3Zm-3,0v3h3v-3h-3Zm0,3v3h3v-3h-3Zm-3,0v3h3v-3h-3Zm0,3v3h3v-3h-3Zm-3,3v3h3v-3h-3Zm0,3v3h3v-3h-3Zm-3,0v3h3v-3h-3Zm0-3v3h3v-3h-3Zm-3,0v3h3v-3h-3Zm-3,0v3h3v-3h-3Zm0-3v3h3v-3h-3Zm-3,0v3h3v-3h-3Zm-3,0v3h3v-3h-3Zm0-3v3h3v-3h-3Zm-3,0v3h3v-3h-3Zm-3,0v3h3v-3h-3Zm0-3v3h3v-3h-3Zm-3,0v3h3v-3h-3Zm0-3v3h3v-3h-3Zm-3,0v3h3v-3h-3Zm-3,0v3h3v-3h-3Zm0-3v3h3v-3h-3Zm-3,0v3h3v-3h-3Zm0-3v3h3v-3h-3Zm-3,0v3h3v-3h-3Zm-3,0v3h3v-3h-3Zm0-3v3h3v-3h-3Zm-3,0v3h3v-3h-3Zm-3,0v3h3v-3h-3Zm0-3v3h3v-3h-3Zm-3,0v3h3v-3h-3Zm-3,0v3h3v-3h-3Zm0-3v3h3v-3h-3Zm-3,0v3h3v-3h-3Zm0-3v3h3v-3h-3Zm-3,0v3h3v-3h-3Zm-3,0v3h3v-3h-3Zm0-3v3h3v-3h-3Zm-3,0v3h3v-3h-3Zm-3,0v3h3v-3h-3Zm33-45v3h3v-3h-3Zm0,3v3h3v-3h-3Zm-3,0v3h3v-3h-3Zm0,3v3h3v-3h-3Zm0,3v3h3v-3h-3Zm-3,0v3h3v-3h-3Zm0,3v3h3v-3h-3Zm-3,0v3h3v-3h-3Zm0,3v3h3v-3h-3Zm-3,0v3h3v-3h-3Zm0,3v3h3v-3h-3Zm-3,0v3h3v-3h-3Zm0,3v3h3v-3h-3Zm-3,0v3h3v-3h-3Zm0,3v3h3v-3h-3Zm-3,3v3h3v-3h-3Zm0,3v3h3v-3h-3Zm-3,0v3h3v-3h-3Zm0,3v3h3v-3h-3Zm-3,0v3h3v-3h-3Zm0,3v3h3v-3h-3Zm0,3v3h3v-3h-3Zm-3,0v3h3v-3h-3Zm0,3v3h3v-3h-3Z"/>
</svg>