<?xml version="1.0" encoding="UTF-8"?>
<svg id="uuid-17784520-6e3a-4832-93f3-2fd8918e7f3a" data-name="Calque 1" xmlns="http://www.w3.org/2000/svg" width="250" height="250" viewBox="0 0 250 250">
  <path d="M33.89,81.55c0,7.89,0,15.4,0,22.92-.02,16.75-.03,33.5-.1,50.26-.04,9.59-.21,19.18-.25,28.77-.02,4.12,.09,8.24,.24,12.36,.08,1.97,.89,3.67,3.14,3.79,5.13,.26,10.26,.47,15.39,.51,5.17,.04,10.35-.21,15.53-.23,10.4-.04,20.81-.02,31.21,0,4.8,0,9.61,.09,14.41,.11,6.5,.02,13,0,19.5,.01,5.96,.02,11.91,.14,17.87,.12,8.12-.02,16.24-.14,24.37-.21,9.32-.08,18.65-.1,27.97-.25,2.75-.04,4.11-1.4,4.17-4.12,.15-6.85,.22-13.71,.2-20.56-.02-8.03-.25-16.06-.26-24.09-.02-12.31,.09-24.62,.1-36.93,.01-10.1,0-20.21-.07-30.31,0-1.53,.34-2.23,2.07-2.12,3.03,.19,6.09,.3,9.11,.1,1.08-.07,2.11-1.12,3.16-1.72-.59-.93-.97-2.19-1.81-2.72-1.53-.98-3.29-1.64-5.02-2.23-15.14-5.2-30.28-10.42-45.48-15.46-2.2-.73-2.82-1.69-2.64-3.86,.22-2.62,.05-5.28,.05-7.54h-14.78v5.41c-9.35-3.29-18.46-6.46-27.54-9.7-2.44-.87-4.68-1.23-7.3-.22-6.71,2.61-13.53,4.92-20.33,7.27-8.91,3.08-17.85,6.06-26.77,9.12-12.11,4.17-24.21,8.36-36.3,12.57-4.2,1.47-8.4,2.95-12.51,4.64-.78,.32-1.59,1.7-1.55,2.55,.04,.64,1.37,1.31,2.23,1.75,.49,.24,1.21,.03,1.82,.03,3.21,0,6.41,0,10.15,0Z" style="fill: #fff;"/>
  <path d="M33.89,81.55c-3.74,0-6.95,0-10.15,0-.61,0-1.33,.21-1.82-.03-.87-.43-2.2-1.11-2.23-1.75-.05-.84,.76-2.23,1.55-2.55,4.11-1.7,8.31-3.18,12.51-4.64,12.09-4.22,24.19-8.41,36.3-12.57,8.91-3.07,17.86-6.04,26.77-9.12,6.8-2.35,13.63-4.66,20.33-7.27,2.62-1.02,4.86-.66,7.3,.22,9.08,3.24,18.19,6.41,27.54,9.7v-5.41h14.78c0,2.27,.16,4.92-.05,7.54-.18,2.18,.44,3.13,2.64,3.86,15.2,5.04,30.34,10.26,45.48,15.46,1.73,.6,3.5,1.26,5.02,2.23,.84,.54,1.22,1.79,1.81,2.72-1.05,.6-2.07,1.65-3.16,1.72-3.02,.2-6.08,.09-9.11-.1-1.73-.11-2.08,.59-2.07,2.12,.06,10.1,.08,20.21,.07,30.31-.02,12.31-.12,24.62-.1,36.93,.01,8.03,.24,16.06,.26,24.09,.02,6.85-.05,13.71-.2,20.56-.06,2.72-1.42,4.08-4.17,4.12-9.32,.15-18.65,.17-27.97,.25-8.12,.07-16.24,.18-24.37,.21-5.96,.02-11.91-.1-17.87-.12-6.5-.02-13,0-19.5-.01-4.8-.01-9.61-.1-14.41-.11-10.4-.02-20.81-.04-31.21,0-5.18,.02-10.35,.27-15.53,.23-5.13-.04-10.27-.25-15.39-.51-2.25-.11-3.07-1.81-3.14-3.79-.16-4.12-.26-8.24-.24-12.36,.04-9.59,.21-19.18,.25-28.77,.06-16.75,.07-33.5,.1-50.26,.01-7.51,0-15.03,0-22.92Zm169.63,114.65c.06-.3,.19-.67,.19-1.04-.04-8.16-.1-16.31-.14-24.47-.04-8.93-.11-17.87-.09-26.8,.02-8.32,.18-16.64,.2-24.95,.03-11.59-.05-23.17,0-34.76,0-1.7-.3-2.46-2.25-2.46-8.21,.03-16.41-.17-24.62-.17-18.05,0-36.09,.06-54.14,.09-25.26,.04-50.51,.07-75.77,.1-3.05,0-6.09,0-9.38,0,0,5.26-.02,10.21,0,15.17,.04,11.17,.17,22.34,.15,33.51-.02,10.7-.24,21.41-.26,32.11-.02,10.56,.12,21.11,.1,31.67,0,1.77,.55,2.2,2.26,2.13,5.21-.19,10.43-.26,15.65-.25,6.68,0,13.36,.1,20.04,.23,1.56,.03,2.14-.34,2.06-2.08-.16-3.42,.04-6.86,.02-10.29-.08-15.56-.19-31.13-.29-46.69-.06-8.93-.11-17.86-.13-26.78,0-.45,.29-1.11,.65-1.31,2.45-1.36,4.84-2.92,7.45-3.86,9.74-3.48,19.53-6.86,29.39-10,2.43-.78,4.78-2.35,7.72-1.35,12.04,4.1,24.15,8.01,36.21,12.09,1.85,.63,3.9,1.45,5.14,2.83,.71,.79-.05,2.89-.15,4.39-.01,.23,.02,.46,.03,.69,.1,3.58,.29,7.16,.28,10.74-.04,20.43-.13,40.86-.2,61.3-.01,3.4,0,6.8,0,10.2h39.89ZM38.98,76.18c.05,.19,.11,.39,.16,.58H202.31c-.83-.82-1.74-1.13-2.65-1.44-7.69-2.6-15.39-5.15-23.05-7.81-9.84-3.41-19.65-6.94-29.49-10.35-8.47-2.94-16.96-5.81-25.47-8.65-.69-.23-1.6-.16-2.3,.07-2.84,.92-5.64,2-8.47,2.96-12.19,4.14-24.4,8.23-36.59,12.38-9.94,3.39-19.85,6.85-29.77,10.28-1.85,.64-3.69,1.31-5.53,1.96Zm42.94,120.03c2.3,0,4.35,.02,6.4,0q4.73-.06,4.62-4.65c0-.15,.02-.31,.02-.46-.01-22.08-.02-44.16-.03-66.24,0-4.03,0-8.06,0-12.35-2.37,0-4.36,.01-6.35,0q-4.86-.04-4.63,4.75c.01,.31,0,.61,0,.92,.03,8.9,.07,17.79,.07,26.69,0,10.45-.07,20.89-.09,31.34-.01,6.57,0,13.14,0,20.01Zm77.24-.05c.08-.48,.18-.77,.18-1.07-.1-11.32-.24-22.63-.29-33.95-.04-9.11-.03-18.23,.04-27.34,.05-6.55,.25-13.09,.3-19.64,0-.56-.63-1.59-1-1.6-3.34-.13-6.69-.07-10.35-.07v83.68h11.13Zm-36.07-39.92h20.15c.06-.2,.14-.35,.14-.5,.05-13.88,.09-27.75,.15-41.63,0-1.5-.96-1.48-2.02-1.46-3.76,.04-7.52,.07-11.28,.09-2.43,.01-4.86,0-7.14,0v43.5Zm-5.03-.17v-43.26h-20.36v43.26h20.36Zm.14,40.11c0-4.7,0-9.13,0-13.57,0-6.39-.04-12.78-.03-19.16,0-1.69-.34-2.66-2.45-2.53-3.59,.22-7.2,.1-10.8,.11-2.34,0-4.69,0-7.35,0v35.15h20.62Zm25.38,.08v-35.23c-.44-.21-.57-.34-.7-.34-6.21,.1-12.42,.18-18.62,.4-.43,.01-1.14,1.06-1.17,1.65-.13,2.89-.07,5.78-.08,8.67-.03,7.73-.09,15.46-.02,23.19,0,.56,.99,1.57,1.53,1.58,6.35,.11,12.7,.07,19.06,.07Zm4.44-88.55l.05-.25c-1.64-.57-3.28-1.16-4.93-1.72-6.96-2.36-13.9-4.75-20.88-7.03-.98-.32-2.22-.43-3.18-.12-5.4,1.73-10.75,3.61-16.11,5.46-3.08,1.06-6.14,2.15-9.22,3.23,.03,.15,.05,.29,.08,.44h54.2Zm6.69-57.94c0,1.25-.13,2.18,.04,3.06,.14,.72,.48,1.78,1,1.97,2.96,1.11,6,2.01,9.07,3v-8.03h-10.11Z"/>
  <path d="M203.52,196.2h-39.89c0-3.41,0-6.8,0-10.2,.07-20.43,.16-40.86,.2-61.3,0-3.58-.18-7.16-.28-10.74,0-.23-.04-.46-.03-.69,.09-1.51,.85-3.61,.15-4.39-1.24-1.38-3.29-2.2-5.14-2.83-12.05-4.08-24.16-7.99-36.21-12.09-2.93-1-5.29,.57-7.72,1.35-9.86,3.15-19.64,6.52-29.39,10-2.61,.93-5,2.5-7.45,3.86-.36,.2-.65,.86-.65,1.31,.01,8.93,.07,17.86,.13,26.78,.1,15.56,.21,31.13,.29,46.69,.02,3.43-.18,6.87-.02,10.29,.08,1.74-.5,2.11-2.06,2.08-6.68-.13-13.36-.22-20.04-.23-5.22,0-10.44,.06-15.65,.25-1.71,.06-2.27-.37-2.26-2.13,.02-10.56-.12-21.11-.1-31.67,.03-10.7,.24-21.41,.26-32.11,.02-11.17-.1-22.34-.15-33.51-.02-4.95,0-9.91,0-15.17,3.29,0,6.33,0,9.38,0,25.26-.03,50.51-.06,75.77-.1,18.05-.03,36.09-.1,54.14-.09,8.21,0,16.42,.2,24.62,.17,1.95,0,2.26,.75,2.25,2.46-.04,11.58,.03,23.17,0,34.76-.02,8.32-.18,16.64-.2,24.95-.02,8.93,.05,17.87,.09,26.8,.04,8.16,.1,16.31,.14,24.47,0,.37-.13,.74-.19,1.04Zm-33.68-27.43h.02c0,5.5,.1,11.01-.04,16.51-.08,3.26,.43,3.99,3.63,3.94,2.53-.04,5.07,0,7.6-.05,4.67-.1,9.34-.14,13.99-.45,.8-.05,2.1-1.26,2.18-2.04,.34-3.34,.39-6.72,.42-10.08,.06-7.79-.02-15.57,.11-23.36,.04-2.12-.99-2.8-2.73-2.8-7.41-.03-14.83,.09-22.24-.02-2.49-.04-2.99,1.13-2.96,3.24,.07,5.04,.02,10.08,.02,15.12Zm-98.4,1.16h-.13c0-5.36-.02-10.72,0-16.08,.02-2.7-.41-3.27-3-3.41-2.14-.11-4.29-.2-6.43-.2-5.26,.02-10.53,.07-15.79,.19-1.56,.04-2.77,.52-2.7,2.6,.14,4.43,.02,8.87,.09,13.3,.1,6.48,.43,12.97,.34,19.45-.03,2.33,1.02,3.22,2.85,3.26,7.27,.17,14.55,.17,21.82,.2,1.94,0,2.96-1,2.95-3.02-.02-5.43,0-10.86,0-16.29Zm-.04-54.23c-.12,0-.25,0-.37,0,0-4.44,.16-8.89-.06-13.32-.15-3.04-1.76-4.48-4.74-4.51-6.28-.07-12.57,.01-18.85,.11-1.89,.03-3.28,.94-3.33,3.05-.09,4.05-.16,8.1-.16,12.15,0,5.05,0,10.11,.2,15.15,.14,3.44,1.18,4.71,3.91,4.77,6.41,.14,12.83,.18,19.24,.05,1.81-.04,3.42-1.01,3.52-3.25,.21-4.73,.42-9.47,.63-14.2Zm125.8-.27c.08,0,.15,0,.23,0,0-2.23,.03-4.45,0-6.68-.03-2.21,0-4.43-.22-6.63-.34-3.32-1.24-4.1-4.53-4.15-5.82-.09-11.65-.15-17.48-.2-3.1-.03-4.93,1.57-5.01,4.71-.17,6.2-.2,12.41-.21,18.62,0,2.67,.02,5.35,.31,7.99,.35,3.22,1.47,4.06,4.62,4.08,5.05,.04,10.1,.07,15.15,.12,4.93,.04,5.5-.21,6.73-3.66,.35-.98,.38-2.1,.4-3.16,.05-3.68,.02-7.36,.02-11.04Z" style="fill: #fff;"/>
  <path d="M38.98,76.18c1.84-.66,3.68-1.32,5.53-1.96,9.92-3.43,19.84-6.89,29.77-10.28,12.19-4.16,24.39-8.25,36.59-12.38,2.83-.96,5.63-2.03,8.47-2.96,.71-.23,1.61-.3,2.3-.07,8.5,2.84,17,5.71,25.47,8.65,9.84,3.41,19.65,6.94,29.49,10.35,7.67,2.66,15.37,5.21,23.05,7.81,.91,.31,1.83,.62,2.65,1.44H39.14c-.05-.19-.11-.39-.16-.58Z" style="fill: #fff;"/>
  <path d="M81.92,196.22c0-6.87-.01-13.44,0-20.01,.02-10.45,.08-20.89,.09-31.34,0-8.9-.04-17.79-.07-26.69,0-.31,.02-.62,0-.92q-.23-4.8,4.63-4.75c1.99,.02,3.98,0,6.35,0,0,4.29,0,8.32,0,12.35,.01,22.08,.02,44.16,.03,66.24,0,.15-.02,.31-.02,.46q.11,4.58-4.62,4.65c-2.05,.03-4.1,0-6.4,0Z" style="fill: #fff;"/>
  <path d="M159.17,196.17h-11.13V112.48c3.66,0,7.01-.05,10.35,.07,.37,.01,1.01,1.05,1,1.6-.05,6.55-.25,13.09-.3,19.64-.07,9.11-.08,18.23-.04,27.34,.06,11.32,.2,22.63,.29,33.95,0,.3-.1,.59-.18,1.07Z" style="fill: #fff;"/>
  <path d="M123.09,156.25v-43.5c2.29,0,4.71,.01,7.14,0,3.76-.02,7.52-.05,11.28-.09,1.05-.01,2.02-.04,2.02,1.46-.06,13.88-.1,27.75-.15,41.63,0,.15-.08,.29-.14,.5h-20.15Z" style="fill: #fff;"/>
  <path d="M118.06,156.08h-20.36v-43.26h20.36v43.26Z" style="fill: #fff;"/>
  <path d="M118.2,196.19h-20.62v-35.15c2.66,0,5,0,7.35,0,3.6-.01,7.21,.11,10.8-.11,2.11-.13,2.45,.84,2.45,2.53-.01,6.39,.02,12.78,.03,19.16,0,4.43,0,8.87,0,13.57Z" style="fill: #fff;"/>
  <path d="M143.58,196.27c-6.35,0-12.7,.04-19.06-.07-.54,0-1.53-1.02-1.53-1.58-.07-7.73-.01-15.46,.02-23.19,.01-2.89-.05-5.79,.08-8.67,.03-.59,.74-1.64,1.17-1.65,6.2-.22,12.41-.3,18.62-.4,.13,0,.27,.12,.7,.34v35.23Z" style="fill: #fff;"/>
  <path d="M148.02,107.72h-54.2c-.03-.15-.05-.29-.08-.44,3.07-1.08,6.14-2.17,9.22-3.23,5.36-1.85,10.71-3.73,16.11-5.46,.96-.31,2.2-.2,3.18,.12,6.98,2.28,13.93,4.67,20.88,7.03,1.65,.56,3.29,1.14,4.93,1.72l-.05,.25Z" style="fill: #fff;"/>
  <path d="M154.71,49.78h10.11v8.03c-3.06-.99-6.1-1.89-9.07-3-.52-.2-.86-1.25-1-1.97-.17-.88-.04-1.81-.04-3.06Z" style="fill: #fff;"/>
  <path d="M169.84,168.76c0-5.04,.05-10.08-.02-15.12-.03-2.11,.47-3.28,2.96-3.24,7.41,.11,14.83-.01,22.24,.02,1.75,0,2.77,.69,2.73,2.8-.13,7.78-.05,15.57-.11,23.36-.03,3.37-.07,6.74-.42,10.08-.08,.78-1.38,1.99-2.18,2.04-4.65,.31-9.33,.36-13.99,.45-2.53,.05-5.07,.02-7.6,.05-3.2,.05-3.72-.68-3.63-3.94,.14-5.5,.04-11,.04-16.51h-.02Zm4.9-14.19v29.99h18.95v-29.99h-18.95Z"/>
  <path d="M71.44,169.93c0,5.43-.01,10.86,0,16.29,0,2.01-1.01,3.02-2.95,3.02-7.28-.02-14.55-.03-21.82-.2-1.83-.04-2.88-.94-2.85-3.26,.09-6.48-.24-12.96-.34-19.45-.07-4.43,.05-8.87-.09-13.3-.07-2.08,1.15-2.56,2.7-2.6,5.26-.12,10.52-.17,15.79-.19,2.14,0,4.29,.08,6.43,.2,2.59,.14,3.01,.71,3,3.41-.03,5.36,0,10.72,0,16.08h.13Zm-24.06,14.69h19.03v-30.12c-5.99,0-11.72,0-17.46,0-1.14,0-1.54,.33-1.53,1.62,.07,5.91-.02,11.83-.04,17.74-.01,3.56,0,7.13,0,10.77Z"/>
  <path d="M71.39,115.69c-.21,4.73-.41,9.47-.63,14.2-.1,2.24-1.71,3.21-3.52,3.25-6.41,.13-12.83,.1-19.24-.05-2.73-.06-3.78-1.33-3.91-4.77-.2-5.05-.19-10.1-.2-15.15,0-4.05,.06-8.1,.16-12.15,.05-2.11,1.43-3.02,3.33-3.05,6.28-.1,12.57-.18,18.85-.11,2.98,.03,4.59,1.47,4.74,4.51,.22,4.43,.06,8.88,.06,13.32,.12,0,.25,0,.37,0Zm-23.68,13.26c5.76,0,11.73,.04,17.7-.07,.43,0,1.17-1.07,1.19-1.66,.1-2.75-.02-5.52-.02-8.28-.01-5.34,0-10.67,0-16.27h-18.87v26.28Z"/>
  <path d="M197.19,115.42c0,3.68,.03,7.36-.02,11.04-.01,1.06-.05,2.18-.4,3.16-1.24,3.45-1.8,3.71-6.73,3.66-5.05-.05-10.1-.08-15.15-.12-3.16-.02-4.27-.87-4.62-4.08-.29-2.64-.32-5.33-.31-7.99,.01-6.21,.04-12.42,.21-18.62,.08-3.14,1.91-4.73,5.01-4.71,5.83,.05,11.65,.11,17.48,.2,3.29,.05,4.2,.83,4.53,4.15,.22,2.2,.19,4.42,.22,6.63,.03,2.22,0,4.45,0,6.68-.08,0-.15,0-.23,0Zm-22.43-12.82c-.12,.4-.24,.61-.25,.83-.07,7.98-.13,15.95-.18,23.93,0,1.09,.41,1.57,1.68,1.54,4.53-.09,9.06,0,13.59,.02,1.41,0,2.82,0,3.86,0v-26.31h-18.7Z"/>
  <path d="M174.73,154.58h18.95v29.99h-18.95v-29.99Z" style="fill: #fff;"/>
  <path d="M47.38,184.61c0-3.64,0-7.2,0-10.77,.02-5.91,.11-11.83,.04-17.74-.02-1.29,.39-1.63,1.53-1.62,5.74,.02,11.47,0,17.46,0v30.12h-19.03Z" style="fill: #fff;"/>
  <path d="M47.71,128.95v-26.28h18.87c0,5.6,0,10.93,0,16.27,0,2.76,.12,5.52,.02,8.28-.02,.59-.77,1.65-1.19,1.66-5.97,.11-11.94,.07-17.7,.07Z" style="fill: #fff;"/>
  <path d="M174.76,102.6h18.7v26.31c-1.03,0-2.45,0-3.86,0-4.53-.02-9.06-.1-13.59-.02-1.27,.02-1.69-.45-1.68-1.54,.05-7.98,.11-15.95,.18-23.93,0-.21,.12-.42,.25-.83Z" style="fill: #fff;"/>
</svg>