<?xml version="1.0" encoding="UTF-8"?>
<svg id="uuid-ef63d7d7-216a-49bb-ac38-d2675b6068ec" data-name="Ebene 1" xmlns="http://www.w3.org/2000/svg" viewBox="0 0 100 100">
  <polygon points="74.07 64.89 87.74 56.95 84.28 54.96 73.43 48.72 73.38 37.33 75.27 37.96 76.13 36.53 63.72 32.33 63.73 32.32 72.07 35.15 72.22 35.2 72.22 35.2 72.3 35.23 72.3 35.23 72.33 35.24 75.25 36.23 75.25 36.23 75.25 36.23 75.41 36.28 75.41 36.28 76.13 36.53 75.41 36.11 75.4 36.1 75.4 36.1 72.21 34.26 72.19 34.25 72.19 34.25 67.25 31.39 67.25 31.39 67.23 31.38 65.48 30.36 65.46 30.35 65.46 30.35 63.98 29.5 63.98 29.5 63.84 29.42 63.79 29.38 63.79 29.38 60.62 27.55 60.62 27.55 60.52 27.49 58.92 26.57 58.92 26.57 58.78 26.48 58.77 26.48 57.21 25.58 57.21 25.58 57.06 25.49 56.99 25.45 56.99 25.45 55.38 24.52 55.34 24.49 55.31 24.48 55.25 24.46 55.25 24.46 53.39 23.83 53.39 23.83 53.24 23.78 51.68 23.25 51.68 23.25 51.55 23.2 49.69 22.57 49.69 22.57 49.66 22.56 49.44 22.49 49.42 22.48 49.42 22.48 47.34 21.78 47.25 21.74 47.25 21.74 46.7 21.56 46.4 21.46 46.4 21.46 45.95 21.3 45.95 21.3 45.87 21.28 43.63 20.52 43.59 20.5 43.59 20.5 42.91 20.27 41.09 23.02 41.05 23.08 41.05 23.08 39.75 25.03 39.75 25.03 39.66 25.18 38.6 26.77 38.58 26.8 38.49 26.94 38.27 27.27 38.25 27.3 38.25 27.3 37.09 29.06 37.09 29.06 36.91 29.32 36.91 29.32 36.18 30.43 36.12 30.52 36.12 30.52 35.74 31.09 35.73 31.1 35.62 31.27 35 32.2 35 32.2 34.9 32.35 34.9 32.35 34.43 33.07 34.43 33.07 34.31 33.24 34.31 33.24 33.8 34.01 33.8 34.01 33.7 34.17 33.7 34.17 33.14 35.01 33.14 35.01 33.04 35.16 33.04 35.16 32.62 35.79 32.62 35.79 32.5 35.97 32.5 35.97 32.34 36.21 31.81 35.9 24.11 33.25 16.41 44.75 18.13 45.75 18.12 48.06 5.61 55.33 42.71 76.68 42.7 76.68 48.28 79.88 48.28 79.88 48.28 79.88 74.07 64.89"/>
  <g>
    <polygon points="22.1 57.13 29.27 61.33 29.32 54.38 22.14 50.18 22.1 57.13" style="fill: #fff;"/>
    <polygon points="57.12 48.26 57.14 57.19 60.56 55.18 57.14 57.19 57.14 57.52 60.83 55.36 60.83 46.04 60.54 46.26 57.12 48.26" style="fill: #fff;"/>
    <polygon points="60.69 43.67 60.4 43.89 56.99 45.89 57.01 47.33 57.01 47.66 60.69 45.5 60.69 43.67" style="fill: #fff;"/>
    <polygon points="62.57 45.32 62.59 54.25 66 52.25 62.59 54.25 62.59 54.58 66.27 52.42 66.27 43.11 65.98 43.32 62.57 45.32" style="fill: #fff;"/>
    <polygon points="66.14 40.74 65.85 40.95 62.43 42.95 62.45 44.39 62.46 44.72 66.14 42.57 66.14 40.74" style="fill: #fff;"/>
    <polygon points="71.43 40.39 68.01 42.39 68.03 51.31 71.45 49.31 68.03 51.31 68.04 51.64 71.72 49.49 71.72 40.17 71.43 40.39" style="fill: #fff;"/>
    <polygon points="71.58 37.8 71.29 38.01 67.88 40.01 67.9 41.45 71.31 39.45 67.9 41.45 67.9 41.79 71.58 39.63 71.58 37.8" style="fill: #fff;"/>
    <polygon points="43.58 60.47 43.58 59.98 43.58 59.49 43.58 59 43.57 58.52 43.57 58.03 43.57 57.54 43.57 57.05 43.56 56.56 43.56 56.08 43.56 56.08 43.56 55.6 38.35 58.61 38.36 59.1 38.36 59.1 38.36 59.58 38.36 60.07 38.37 60.56 38.37 61.04 38.37 61.53 38.37 62.02 38.38 62.51 38.38 63 38.38 63.48 38.38 63.97 43.59 60.95 43.58 60.47" style="fill: #fff;"/>
    <polygon points="38.39 63.97 38.39 64.46 43.59 61.44 43.59 60.95 38.39 63.97" style="fill: #fff;"/>
    <polygon points="43.56 55.59 43.56 55.11 38.35 58.12 38.36 58.61 43.56 55.59" style="fill: #fff;"/>
    <path d="M40.89,51.84c-1.8,1.04-3.25,3.76-3.29,6.11l.2-.12h0s.55-.3,.55-.3v.1s0,0,0,0v.49s5.21-3.02,5.21-3.02v-.48s0,0,0,0v-.11s.46-.27,.46-.27h0s.2-.13,.2-.13c-.06-2.3-1.53-3.32-3.33-2.28Zm-2.13,2.66s0,0,0,0h0s0,0,0,0Zm2.23,.92h0l-.02-3.33v.06s0,0,0,0l.02,3.27Zm2.96-1.72h0s-.01-.1-.02-.15c0,0,0,0,0,0,0,0,0,0,0,0,0,.05,.01,.1,.02,.15Zm-.03-.16s0,0,0,0c0,0,0,0,0,0,0,0,0,0,0,0,0,0,0,0,0,0Zm0-.02s0,0,0,0c0,0,0,0,0,0,0,0,0,0,0,0,0,0,0,0,0,0Zm-.03-.16s0,0,0,0c-.04-.18-.12-.33-.19-.49,.07,.16,.14,.31,.19,.49,0,0,0,0,0,0Zm-.68-1.23l-.07,.11-1.74,2.93h0s1.74-2.93,1.74-2.93l.07-.11Zm-.21-.15s0,0,0,0c0,0,0,0,0,0,0,0,0,0,0,0,0,0,0,0,0,0Zm-.02-.02s0,0,0,0c0,0,0,0,0,0,0,0,0,0,0,0,0,0,0,0,0,0Zm-.02,0s0,0,0,0c0,0,0,0,0,0,0,0,0,0,0,0,0,0,0,0,0,0Zm0,0s0,0,0,0c0,0,0,0,0,0,0,0,0,0,0,0,0,0,0,0,0,0Zm-.09-.04c-.25-.13-.53-.19-.84-.17,.3-.02,.58,.04,.84,.17Zm-.94-.15c-.3,.04-.62,.13-.95,.31h0c.33-.18,.65-.28,.95-.31Zm-1.89,1.02c-.16,.15-.31,.33-.46,.51,.15-.18,.3-.36,.46-.51Zm-1.15,1.49s0,0,0-.01c.06-.09,.12-.18,.18-.27-.06,.09-.12,.17-.18,.27,0,0,0,0,0,.01,0,0,0,0,0,.01,0,0,0,0,0,0,0,0,0,0,0,0,0,0,0,0,0-.01Zm-.03,.05s0,0,0,0c0,0,0,0,0,.01,0,0,0,0,0,0,0,0,0,0,0,0,0,0,0,0,0-.01Zm-.03,.05s0,0,0,0c0,0,0,0,0,0,0,0,0,0,0,.01,0,0,0,0,0,.01,0,0,0,0,0,.01,0-.01,.01-.02,.01-.02,0,0,0,0,0-.01Z" style="fill: #fff;"/>
  </g>
</svg>