<?xml version="1.0" encoding="UTF-8"?>
<svg id="uuid-6e65bb4e-e3e9-4dac-9922-8e2422cd6f61" data-name="Ebene 1" xmlns="http://www.w3.org/2000/svg" viewBox="0 0 100 100">
  <polygon points="68.22 58.85 68.22 58.51 74.05 55.16 74 52.51 72.3 51.83 72.24 33.37 72.84 33.02 72.84 32.25 54.28 21.23 22.76 39.46 22.76 40.23 24.07 40.97 24.12 59.92 32.77 64.89 32.02 65.29 32.08 67.94 41.84 73.63 48.48 69.83 52.8 72.24 58.13 69.16 58.13 66.48 58.57 66.22 58.57 65.4 58.57 65.4 63.97 62.28 64.02 62.31 64.04 64.95 64.73 65.36 69.99 62.32 69.93 59.66 68.22 58.85"/>
  <g>
    <polygon points="64.02 64.96 64.01 55.91 63.8 55.79 60.67 57.58 60.67 57.72 60.54 57.64 57.41 59.43 57.41 68.5 57.62 68.63 60.74 66.84 60.74 66.7 60.87 66.78 64.02 64.96" style="fill: #fff;"/>
    <path d="M36.24,52.88l1.49,.86-1.49-.86h0v-4.05l-.36-.2v4.42l3.69,2.12v-.37h0s.02-4.04,.02-4.04c-.39-.22-2.96-1.72-3.34-1.94v4.05Zm2.98-2.06s0,0,0,0h0Zm-1.36-.79l-.02,3.36-1.21-.7,1.21,.7v-3.37s.01,0,.01,0h0Zm-1.1-.64l-.15-.09h0s.15,.09,.15,.09Zm-.15-.08s0,0,0,.01v1.33s0-1.33,0-1.33c0,0,0,0,0-.01Z" style="fill: #fff;"/>
    <path d="M31.11,45.87l-.36-.2v4.42s0,0,0,0l3.69,2.12v-.37h0s.02-4.03,.02-4.03c-.39-.22-2.96-1.72-3.34-1.94h0Zm2.98,2s0,0,0,0h0Zm-1.36-.79l-.02,3.36-1.24-.72h0s1.24,.72,1.24,.72v-3.37s.01,0,.01,0h0Zm-1.12-.65l-.12-.07h0s.12,.07,.12,.07Zm-.12-.06s0,0,0,.01v1.46s0-1.46,0-1.46c0,0,0,0,0-.01Zm.03,3.8l-.41-.24h0s.41,.24,.41,.24Z" style="fill: #fff;"/>
    <path d="M36.24,59.22l1.5,.87-1.5-.86h0v-4.05l-.36-.2v4.42l3.69,2.12v-.37h0s.02-4.04,.02-4.04c-.39-.22-2.96-1.72-3.34-1.94v4.05Zm2.98-2.06s0,0,0,0h0Zm-1.36-.79l-.02,3.36-1.24-.72h0s1.24,.72,1.24,.72v-3.37s.01,0,.01,0h0Zm-1.1-.64l-.15-.09h0s.15,.09,.15,.09Zm-.15-.08s0,0,0,.01v1.33s0-1.33,0-1.33c0,0,0,0,0-.01Z" style="fill: #fff;"/>
    <path d="M31.11,52.21l-.36-.2v4.42s0,0,0,0l3.69,2.12v-.37h0s.02-4.03,.02-4.03c-.39-.22-2.96-1.72-3.34-1.94h0Zm2.98,2s0,0,0,0h0Zm-1.36-.79l-.02,3.36-1.24-.72h0s1.24,.72,1.24,.72v-3.37s.01,0,.01,0h0Zm-1.12-.65l-.12-.07h0s.12,.07,.12,.07Zm-.12-.06s0,0,0,.01v1.46s0-1.46,0-1.46c0,0,0,0,0-.01Zm.03,3.8l-.41-.24h0s.41,.24,.41,.24Z" style="fill: #fff;"/>
    <g>
      <path d="M26.41,43.45s0,0,0,.01v1.46s0-1.46,0-1.46c0,0,0,0,0-.01Z" style="fill: none;"/>
      <polygon points="26.04 47.01 26.04 47.02 26.89 47.51 26.04 47.01" style="fill: none;"/>
      <polygon points="26.41 49.78 26.41 49.78 26.53 49.85 26.41 49.78" style="fill: none;"/>
      <polygon points="27.64 47.53 27.66 44.17 27.65 44.16 27.65 44.16 27.64 47.53 26.44 46.83 27.64 47.53" style="fill: none;"/>
      <polygon points="29.02 44.95 29.02 44.95 29.02 44.96 29.02 44.95" style="fill: none;"/>
      <polygon points="26.41 43.44 26.41 43.44 26.52 43.5 26.41 43.44" style="fill: none;"/>
      <polygon points="29.02 51.3 29.02 51.29 29.02 51.29 29.02 51.3" style="fill: none;"/>
      <polygon points="27.65 50.5 27.64 53.87 26.44 53.17 27.64 53.87 27.66 50.5 27.65 50.5 27.65 50.5" style="fill: none;"/>
      <polygon points="26.04 53.35 26.88 53.84 26.04 53.35 26.04 53.35" style="fill: none;"/>
      <path d="M26.41,49.78s0,0,0,.01v1.46s0-1.46,0-1.46c0,0,0,0,0-.01Z" style="fill: none;"/>
      <path d="M29.36,49.3v-.37h0s.02-4.04,.02-4.04c-.39-.22-2.96-1.72-3.34-1.93h0s-.36-.21-.36-.21v4.42s0,0,0,0l3.69,2.12Zm-.34-4.35h0s0,0,0,0h0Zm-1.36-.79h0s0,0,0,0l-.02,3.36-1.2-.7,1.2,.7v-3.37Zm-1.23-.72l.1,.06-.1-.06h0Zm0,.02s0,0,0-.01c0,0,0,0,0,.01v1.46s0-1.46,0-1.46Zm-.38,3.55l.85,.49-.85-.49h0Z" style="fill: #fff;"/>
      <path d="M26.04,49.3h0s-.36-.21-.36-.21v4.42s0,0,0,0l3.69,2.12v-.37h0s.02-4.04,.02-4.04c-.39-.22-2.96-1.72-3.34-1.93Zm.38,.48l.12,.07-.12-.07h0Zm0,.02s0,0,0-.01c0,0,0,0,0,.01v1.46s0-1.46,0-1.46Zm-.38,3.56h0s.84,.48,.84,.48l-.84-.48Zm1.61,.51l-1.2-.7,1.2,.7v-3.37s.01,0,.01,0h0s-.02,3.37-.02,3.37Zm1.38-2.57s0,0,0,0h0Z" style="fill: #fff;"/>
    </g>
    <path d="M31.11,57.92h0s-.36-.21-.36-.21v4.42s0,0,0,0l3.69,2.12v-.37h0s.02-4.03,.02-4.03c-.39-.22-2.96-1.72-3.34-1.94Zm2.98,2s0,0,0,0h0Zm-1.36-.79l-.02,3.36-1.19-.69,1.19,.69v-3.37s.01,0,.01,0h0Zm-1.14-.66l-.1-.06h0s.1,.06,.1,.06Zm-.1-.05s0,0,0,.01v1.46s0-1.46,0-1.46c0,0,0,0,0-.01Zm.03,3.8l-.41-.24h0s.41,.24,.41,.24Z" style="fill: #fff;"/>
    <path d="M26.04,55.01h0s-.36-.21-.36-.21v4.42s0,0,0,0l3.69,2.12v-.37h0s.02-4.04,.02-4.04c-.39-.22-2.96-1.72-3.34-1.93Zm2.98,2s0,0,0,0h0Zm-1.36-.79l-.02,3.36-1.24-.72h0s1.24,.72,1.24,.72v-3.37s.01,0,.01,0h0Zm-1.12-.65l-.12-.07h0s.12,.07,.12,.07Zm-.12-.06s0,0,0,.01v1.46s0-1.46,0-1.46c0,0,0,0,0-.01Zm-.38,3.57l.85,.49-.85-.49h0Z" style="fill: #fff;"/>
    <path d="M36.24,60.88v4.05l1.5,.87-1.5-.86h0v-4.05l-.36-.2v4.42l3.69,2.12v-.37h0s.02-4.04,.02-4.04c-.39-.22-2.96-1.72-3.34-1.94Zm2.98,1.99s0,0,0,0h0Zm-2.48-1.44l-.13-.08h0s.13,.08,.13,.08Zm-.13-.07s0,0,0,.01v1.33s0-1.33,0-1.33c0,0,0,0,0-.01Zm-.02,3.36l1.24,.72v-3.37s.01,0,.01,0h0s-.02,3.37-.02,3.37l-1.24-.72h0Z" style="fill: #fff;"/>
    <path d="M46.81,52.89l-1.48,.86,1.48-.86v-4.05c-.38,.22-2.96,1.71-3.34,1.94l.02,4.04h0v.37l3.69-2.12v-4.42l-.36,.2v4.05Zm-.37-2.37v-1.19s0,0,0-.01c0,0,0,0,0,.01v1.19Zm0-1.21l-.16,.09,.16-.09h0Zm-1.24,.72h0s.01,3.37,.01,3.37l1.21-.7-1.21,.7-.02-3.36h0Zm-1.36,.79s0,0,0,0h0s0,0,0,0Z" style="fill: #fff;"/>
    <path d="M46.81,59.23l-1.48,.86,1.48-.86v-4.05c-.38,.22-2.96,1.71-3.34,1.94l.02,4.04h0v.37l3.69-2.12v-4.42l-.36,.2v4.05Zm-.37-2.37v-1.19s0,0,0-.01c0,0,0,0,0,.01v1.19Zm0-1.21l-.16,.09,.16-.09h0Zm-1.24,.72h0s.01,3.37,.01,3.37l1.21-.7-1.21,.7-.02-3.36h0Zm-1.36,.79s0,0,0,0h0s0,0,0,0Z" style="fill: #fff;"/>
    <path d="M46.81,64.99l-1.48,.85,1.48-.86v-4.05c-.38,.22-2.96,1.71-3.34,1.94l.02,4.04h0v.37l3.69-2.12v-4.42l-.36,.2v4.05Zm-.37-2.37v-1.19s0,0,0-.01c0,0,0,0,0,.01v1.19Zm0-1.21l-.14,.08,.14-.08h0Zm-1.24,.72h0s.01,3.37,.01,3.37l1.21-.7-1.21,.7-.02-3.36h0Zm-1.36,.79s0,0,0,0h0s0,0,0,0Z" style="fill: #fff;"/>
  </g>
</svg>