<?xml version="1.0" encoding="UTF-8"?>
<svg id="uuid-dcade20f-7ebf-4d20-8ecf-23d6c85bbe2f" data-name="Ebene 1" xmlns="http://www.w3.org/2000/svg" viewBox="0 0 100 100">
  <g id="uuid-00043491-2e8d-4b85-9f23-cfcd44677938" data-name="zz67z3">
    <g>
      <path d="M42.37,11c.22,.04,.44,.11,.67,.11,1.17,.02,2.26,.27,3.23,.95,.58,.41,1.21,.75,1.72,1.23,.61,.58,.54,1.41,.43,2.16-.07,.46,.03,.77,.27,1.13,.31,.46,.6,.96,.83,1.47,.31,.69,.56,1.42,.84,2.13,.22,.56,.17,1.06-.28,1.49-.36,.34-.31,.67-.08,1.1,.41,.75,.75,1.53,1.05,2.33,.08,.21-.04,.51-.1,.76-.08,.3-.27,.59-.31,.9-.1,.8-.16,1.6-.22,2.4-.02,.27-.03,.55,0,.82,.1,.84-.1,1.33-.87,1.58-.92,.3-1.87,.52-2.83,.68-.99,.17-1.5,.87-1.93,1.64-.21,.36-.27,.81-.45,1.34,.41,.16,.8,.35,1.22,.46,.71,.2,1.44,.31,2.14,.55,1.22,.42,1.71,1.45,1.94,2.6,.19,.92,.77,1.56,1.36,2.19,.32,.35,.57,.67,.59,1.16,0,.19,.17,.41,.32,.56,.31,.3,.49,.59,.45,1.08-.03,.41,.19,.85,.33,1.38,1.19-.95,2.32-1.82,3.42-2.72,1.33-1.09,2.72-2.14,3.95-3.34,1.39-1.35,2.19-3.12,2.96-4.89,1.11-2.55,1.16-5.33,1.78-7.98,.28-1.17,.49-2.36,.75-3.61,1.36,.33,2.67,.65,3.97,.97,2.35,.58,4.7,1.16,7.05,1.75,.95,.24,.96,.28,.73,1.25-.57,2.38-1.14,4.75-1.7,7.13-.26,1.1-.49,2.21-.74,3.35,.7,.36,.96,.93,.75,1.7-.13,.5-.26,1.01-.33,1.53-.04,.27,.14,.58,.08,.84-.34,1.62-.55,3.27-2.04,4.39-.7,.52-1.38,1.07-2.07,1.61-.84,.64-1.55,1.48-2.23,2.31-1.95,2.4-3.64,5.01-5.91,7.19,.53-.13,1.05-.3,1.58-.39,1.33-.23,2.32,.28,3.15,1.34,.91,1.16,1.39,2.5,1.81,3.85,.25,.78,.27,1.74,.05,2.53-.46,1.69-1.07,3.35-1.75,4.98-.41,.98-.9,1.71-.14,2.87,1.06,1.62-.07,2.58-1.38,3.21-1.15,.56-1.34,.68-1.81,1.86,.87,.28,1.77,.48,2.59,.86,.68,.31,1.34,.74,1.86,1.26,.88,.87,.72,1.98,.21,2.95-.89,1.69-2.38,2.7-4.16,3.34-.99,.35-1.94,.8-2.91,1.21h-3.31c-.81-.12-1.61-.24-2.42-.35-1.28-.19-2.58-.26-3.82-.59-1.19-.32-2.34-.78-3.59-.8-.29,0-.59-.05-.87-.1-2.06-.39-4.11-.8-6.17-1.16-1.1-.19-2.21-.35-3.32-.4-1.17-.05-2.34,.1-3.51,.09-3.34-.02-6.66-.31-9.92-1.06-1.04-.24-2.15-.34-2.95-1.17-.38-.39-.69-.86-1.08-1.24-1.15-1.13-1.66-2.52-1.78-4.1-.03-.37-.13-.83-.38-1.07-.52-.5-.63-1.07-.68-1.75-.06-.77,.05-1.6-.5-2.25-.79-.93-1.2-1.92-.6-3.11-.74-.48-1.15-1.09-1-1.95,.09-.48,.2-.96,.37-1.41,.35-.97,.77-1.91,1.08-2.89,.14-.44,.13-.93,.17-1.4,.16-1.96,.93-3.8,1.04-5.79,.11-2.07,.48-4.13,1.2-6.09,.93-2.55,1.77-5.14,2.87-7.61,.92-2.07,2.2-3.96,3.55-5.79,1.74-2.35,3.86-3.78,6.86-3.7,.13,0,.29-.1,.39-.2,.66-.69,1.45-1.04,2.4-1.08,.19,0,.43-.17,.54-.33,.32-.48,.73-.98,.14-1.57-.06-.06-.04-.19-.07-.28-.33-.97-.69-1.94-1-2.92-.34-1.07-.67-2.14-.95-3.22-.1-.37-.03-.78-.08-1.17-.35-2.71,.29-5.04,2.4-6.93,1.03-.92,2.09-1.73,3.41-2.15,.59,0,1.18,0,1.77,0Zm14.33,39.8c.43,.24,.76,.4,1.07,.61,.87,.59,1.16,.58,2.03-.05,.12-.09,.27-.16,.39-.26,1.13-.86,2.32-1.66,3.37-2.6,.86-.76,1.64-1.64,2.33-2.57,.68-.91,1.64-1.74,1.39-3.09-.02-.09,.03-.19,.06-.28,.14-.53,.3-1.06,.4-1.59,.03-.16-.09-.47-.2-.5-.86-.21-1.75-.69-2.55,.18-.15,.16-.4,.24-.61,.34-1.37,.62-2.51,1.5-3.17,2.9-.85,1.79-2.1,3.32-3.29,4.89-.49,.64-1.4,1.1-1.21,2.02Zm-12.74,12.12c1.56-.19,2.99-.67,4.38-1.31,.67-.31,1.36-.69,2.07-.75,1.15-.1,2.14-.55,3.13-.98-.99-.62-1.95-1.2-2.88-1.84-.16-.11-.14-.47-.21-.71-.04-.15-.02-.35-.11-.44-.24-.24-.53-.43-.86-.69-.24,.22-.53,.45-.77,.72-.61,.7-1.34,1.03-2.25,.67-.4-.16-.53,0-.62,.34-.16,.66-.38,1.31-.5,1.98-.19,1.12-.57,2.14-1.39,3.01Z"/>
      <path d="M56.7,50.8c-.19-.93,.72-1.38,1.21-2.02,1.19-1.57,2.43-3.1,3.29-4.89,.67-1.4,1.8-2.27,3.17-2.9,.21-.1,.47-.17,.61-.34,.8-.87,1.69-.39,2.55-.18,.11,.03,.23,.34,.2,.5-.1,.54-.26,1.06-.4,1.59-.02,.09-.07,.2-.06,.28,.25,1.35-.71,2.18-1.39,3.09-.69,.92-1.47,1.81-2.33,2.57-1.06,.94-2.24,1.74-3.37,2.6-.12,.09-.26,.16-.39,.26-.86,.64-1.16,.64-2.03,.05-.31-.21-.64-.37-1.07-.61Z" style="fill: #fff;"/>
      <path d="M43.96,62.91c.82-.87,1.2-1.88,1.39-3.01,.12-.67,.33-1.32,.5-1.98,.09-.34,.22-.5,.62-.34,.91,.36,1.63,.03,2.25-.67,.24-.27,.53-.5,.77-.72,.33,.26,.62,.45,.86,.69,.09,.09,.07,.29,.11,.44,.06,.24,.05,.6,.21,.71,.93,.64,1.89,1.22,2.88,1.84-.99,.43-1.97,.88-3.13,.98-.71,.06-1.4,.45-2.07,.75-1.39,.64-2.82,1.12-4.38,1.31Z" style="fill: #fff;"/>
    </g>
  </g>
</svg>