<?xml version="1.0" encoding="UTF-8"?>
<svg id="uuid-24dd4234-6b0d-43f9-9001-5f85dd39bec1" data-name="Calque 1" xmlns="http://www.w3.org/2000/svg" width="250" height="250" viewBox="0 0 250 250">
  <path d="M209.82,131.9v2.86h2.86v-2.86h-2.86Zm-20-11.43v2.86h2.86v-2.86h-2.86Zm11.43,0v2.86h2.86v-2.86h-2.86Zm2.86,2.86v2.86h2.86v-2.86h-2.86Zm-2.86,2.86v2.86h2.86v-2.86h-2.86Zm0-2.86v2.86h2.86v-2.86h-2.86Zm-8.57-2.86v2.86h2.86v-2.86h-2.86Zm-2.86-5.72v2.86h2.86v-2.86h-2.86Zm0,2.86v2.86h2.86v-2.86h-2.86Zm2.86,0v2.86h2.86v-2.86h-2.86Zm2.86,2.86v2.86h2.86v-2.86h-2.86Zm2.86,0v2.86h2.86v-2.86h-2.86Zm0,2.86v2.86h2.86v-2.86h-2.86Zm5.72,2.86v2.86h2.86v-2.86h-2.86Zm0,2.86v2.86h2.86v-2.86h-2.86Zm2.86,0v2.86h2.86v-2.86h-2.86Zm0,2.86v2.86h2.86v-2.86h-2.86Zm2.86,2.86v2.86h2.86v-2.86h-2.86Zm2.86,2.86v2.86h2.86v-2.86h-2.86Zm-2.86,0v2.86h2.86v-2.86h-2.86Zm-5.72-2.86v2.86h2.86v-2.86h-2.86Zm-8.57-5.72v2.86h2.86v-2.86h-2.86Zm-2.86-5.72v2.86h2.86v-2.86h-2.86Zm2.86,0v2.86h2.86v-2.86h-2.86Zm2.86,2.86v2.86h2.86v-2.86h-2.86Zm2.86,2.86v2.86h2.86v-2.86h-2.86Zm2.86,2.86v2.86h2.86v-2.86h-2.86Zm2.86,2.86v2.86h2.86v-2.86h-2.86Zm5.72,5.72v2.86h2.86v-2.86h-2.86Zm0-8.57v2.86h2.86v-2.86h-2.86Zm0-2.86v2.86h2.86v-2.86h-2.86Zm-2.86-2.86v2.86h2.86v-2.86h-2.86Zm-8.57-8.57v2.86h2.86v-2.86h-2.86Zm-2.86-2.86v2.86h2.86v-2.86h-2.86Zm-2.86-2.86v2.86h2.86v-2.86h-2.86Zm0-2.86v2.86h2.86v-2.86h-2.86Zm-2.86,0v2.86h2.86v-2.86h-2.86Zm-2.86,2.86v2.86h2.86v-2.86h-2.86Zm2.86,0v2.86h2.86v-2.86h-2.86Zm0,2.86v2.86h2.86v-2.86h-2.86Zm2.86,0v2.86h2.86v-2.86h-2.86Zm0,2.86v2.86h2.86v-2.86h-2.86Zm2.86,0v2.86h2.86v-2.86h-2.86Zm5.72,2.86v2.86h2.86v-2.86h-2.86Zm2.86,2.86v2.86h2.86v-2.86h-2.86Zm0,2.86v2.86h2.86v-2.86h-2.86Zm2.86,2.86v2.86h2.86v-2.86h-2.86Zm2.86,5.72v2.86h2.86v-2.86h-2.86Zm2.86,0v2.86h2.86v-2.86h-2.86Zm-11.43,2.86v2.86h2.86v-2.86h-2.86Zm-2.86-2.86v2.86h2.86v-2.86h-2.86Zm-2.86-2.86v2.86h2.86v-2.86h-2.86Zm0-2.86v2.86h2.86v-2.86h-2.86Zm-5.72-2.86v2.86h2.86v-2.86h-2.86Zm-5.72,0v2.86h2.86v-2.86h-2.86Zm-2.86-17.15v2.86h2.86v-2.86h-2.86Zm2.86-2.86v2.86h2.86v-2.86h-2.86Zm0,2.86v2.86h2.86v-2.86h-2.86Zm0,8.57v2.86h2.86v-2.86h-2.86Zm0-2.86v2.86h2.86v-2.86h-2.86Zm0-2.86v2.86h2.86v-2.86h-2.86Zm2.86-2.86v2.86h2.86v-2.86h-2.86Zm2.86-2.86v2.86h2.86v-2.86h-2.86Zm-2.86,0v2.86h2.86v-2.86h-2.86Zm0-5.72v2.86h2.86v-2.86h-2.86Zm0-2.86v2.86h2.86v-2.86h-2.86Zm-2.86,0v2.86h2.86v-2.86h-2.86Zm2.86,5.72v2.86h2.86v-2.86h-2.86Zm-2.86,0v2.86h2.86v-2.86h-2.86Zm-2.86,0v2.86h2.86v-2.86h-2.86Zm0,2.86v2.86h2.86v-2.86h-2.86Zm-5.72,0v2.86h2.86v-2.86h-2.86Zm2.86-2.86v2.86h2.86v-2.86h-2.86Zm0,2.86v2.86h2.86v-2.86h-2.86Zm2.86,5.72v2.86h2.86v-2.86h-2.86Zm0,5.72v2.86h2.86v-2.86h-2.86Zm-2.86-2.86v2.86h2.86v-2.86h-2.86Zm0,2.86v2.86h2.86v-2.86h-2.86Zm0,2.86v2.86h2.86v-2.86h-2.86Zm8.57,8.57v2.86h2.86v-2.86h-2.86Zm-2.86-5.72v2.86h2.86v-2.86h-2.86Zm-2.86-2.86v2.86h2.86v-2.86h-2.86Zm5.72,5.72v2.86h2.86v-2.86h-2.86Zm2.86,2.86v2.86h2.86v-2.86h-2.86Zm0,2.86v2.86h2.86v-2.86h-2.86Zm2.86,0v2.86h2.86v-2.86h-2.86Zm2.86,2.86v2.86h2.86v-2.86h-2.86Zm5.72,5.72v2.86h2.86v-2.86h-2.86Zm2.86,2.86v2.86h2.86v-2.86h-2.86Zm-5.72-2.86v2.86h2.86v-2.86h-2.86Zm0-2.86v2.86h2.86v-2.86h-2.86Zm-2.86,0v2.86h2.86v-2.86h-2.86Zm-2.86,0v2.86h2.86v-2.86h-2.86Zm0-2.86v2.86h2.86v-2.86h-2.86Zm-2.86,0v2.86h2.86v-2.86h-2.86Zm-2.86-2.86v2.86h2.86v-2.86h-2.86Zm-2.86,0v2.86h2.86v-2.86h-2.86Zm0-2.86v2.86h2.86v-2.86h-2.86Zm-5.72,0v2.86h2.86v-2.86h-2.86Zm2.86,0v2.86h2.86v-2.86h-2.86Zm0-2.86v2.86h2.86v-2.86h-2.86Zm0-2.86v2.86h2.86v-2.86h-2.86Zm-2.86,0v2.86h2.86v-2.86h-2.86Zm-2.86-2.86v2.86h2.86v-2.86h-2.86Zm0-2.86v2.86h2.86v-2.86h-2.86Zm0-2.86v2.86h2.86v-2.86h-2.86Zm0-2.86v2.86h2.86v-2.86h-2.86Zm-2.86-2.86v2.86h2.86v-2.86h-2.86Zm2.86,0v2.86h2.86v-2.86h-2.86Zm2.86,0v2.86h2.86v-2.86h-2.86Zm0,2.86v2.86h2.86v-2.86h-2.86Zm2.86,2.86v2.86h2.86v-2.86h-2.86Zm2.86,5.72v2.86h2.86v-2.86h-2.86Zm2.86,2.86v2.86h2.86v-2.86h-2.86Zm5.72,2.86v2.86h2.86v-2.86h-2.86Zm5.72,5.72v2.86h2.86v-2.86h-2.86Zm5.72,5.72v2.86h2.86v-2.86h-2.86Zm0,2.86v2.86h2.86v-2.86h-2.86Zm5.72,5.72v2.86h2.86v-2.86h-2.86Zm8.57,0v2.86h2.86v-2.86h-2.86Zm-5.72,0v2.86h2.86v-2.86h-2.86Zm5.72-2.86v2.86h2.86v-2.86h-2.86Zm0-2.86v2.86h2.86v-2.86h-2.86Zm-2.86,0v2.86h2.86v-2.86h-2.86Zm0,2.86v2.86h2.86v-2.86h-2.86Zm0-5.72v2.86h2.86v-2.86h-2.86Zm-2.86,0v2.86h2.86v-2.86h-2.86Zm0,2.86v2.86h2.86v-2.86h-2.86Zm0,2.86v2.86h2.86v-2.86h-2.86Zm0,5.72v2.86h2.86v-2.86h-2.86Zm2.86,0v2.86h2.86v-2.86h-2.86Zm0-2.86v2.86h2.86v-2.86h-2.86Zm-5.72-2.86v2.86h2.86v-2.86h-2.86Zm-2.86-2.86v2.86h2.86v-2.86h-2.86Zm0,2.86v2.86h2.86v-2.86h-2.86Zm0,2.86v2.86h2.86v-2.86h-2.86Zm-2.86,2.86v2.86h2.86v-2.86h-2.86Zm2.86,0v2.86h2.86v-2.86h-2.86Zm2.86,0v2.86h2.86v-2.86h-2.86Zm0,2.86v2.86h2.86v-2.86h-2.86Zm5.72,0v2.86h2.86v-2.86h-2.86Zm0,2.86v2.86h2.86v-2.86h-2.86Zm2.86-2.86v2.86h2.86v-2.86h-2.86Zm0-2.86v2.86h2.86v-2.86h-2.86Zm-5.72,2.86v2.86h2.86v-2.86h-2.86Zm0,2.86v2.86h2.86v-2.86h-2.86Zm0,2.86v2.86h2.86v-2.86h-2.86Zm2.86,2.86v2.86h2.86v-2.86h-2.86Zm0-2.86v2.86h2.86v-2.86h-2.86Zm2.86,0v2.86h2.86v-2.86h-2.86Zm0-2.86v2.86h2.86v-2.86h-2.86Zm2.86-2.86v2.86h2.86v-2.86h-2.86Zm0-2.86v2.86h2.86v-2.86h-2.86Zm2.86,0v2.86h2.86v-2.86h-2.86Zm0-2.86v2.86h2.86v-2.86h-2.86Zm-2.86,0v2.86h2.86v-2.86h-2.86Zm0-2.86v2.86h2.86v-2.86h-2.86Zm0-2.86v2.86h2.86v-2.86h-2.86Zm-2.86-2.86v2.86h2.86v-2.86h-2.86Zm0-2.86v2.86h2.86v-2.86h-2.86Zm-2.86,0v2.86h2.86v-2.86h-2.86Zm0-2.86v2.86h2.86v-2.86h-2.86Zm-2.86,0v2.86h2.86v-2.86h-2.86Zm0-2.86v2.86h2.86v-2.86h-2.86Zm-2.86-2.86v2.86h2.86v-2.86h-2.86Zm-2.86-2.86v2.86h2.86v-2.86h-2.86Zm0-2.86v2.86h2.86v-2.86h-2.86Zm-2.86,0v2.86h2.86v-2.86h-2.86Zm0-2.86v2.86h2.86v-2.86h-2.86Zm-2.86,0v2.86h2.86v-2.86h-2.86Zm0-2.86v2.86h2.86v-2.86h-2.86Zm-2.86,0v2.86h2.86v-2.86h-2.86Zm0-2.86v2.86h2.86v-2.86h-2.86Zm-2.86,0v2.86h2.86v-2.86h-2.86Zm0-2.86v2.86h2.86v-2.86h-2.86Zm0-2.86v2.86h2.86v-2.86h-2.86Zm-2.86,0v2.86h2.86v-2.86h-2.86Zm0-2.86v2.86h2.86v-2.86h-2.86Zm-2.86,0v2.86h2.86v-2.86h-2.86Zm0-2.86v2.86h2.86v-2.86h-2.86Zm5.72,57.15v2.86h2.86v-2.86h-2.86Zm-2.86,0v2.86h2.86v-2.86h-2.86Zm0-2.86v2.86h2.86v-2.86h-2.86Zm-2.86,0v2.86h2.86v-2.86h-2.86Zm-2.86,0v2.86h2.86v-2.86h-2.86Zm0-2.86v2.86h2.86v-2.86h-2.86Zm-2.86,0v2.86h2.86v-2.86h-2.86Zm-2.86,0v2.86h2.86v-2.86h-2.86Zm0-2.86v2.86h2.86v-2.86h-2.86Zm-2.86,0v2.86h2.86v-2.86h-2.86Zm-2.86,0v2.86h2.86v-2.86h-2.86Zm0-2.86v2.86h2.86v-2.86h-2.86Zm-2.86-2.86v2.86h2.86v-2.86h-2.86Zm-2.86,0v2.86h2.86v-2.86h-2.86Zm14.29-42.86v2.86h2.86v-2.86h-2.86Zm-2.86,0v2.86h2.86v-2.86h-2.86Zm-2.86,0v2.86h2.86v-2.86h-2.86Zm0-2.86v2.86h2.86v-2.86h-2.86Zm-2.86,0v2.86h2.86v-2.86h-2.86Zm0,2.86v2.86h2.86v-2.86h-2.86Zm0,2.86v2.86h2.86v-2.86h-2.86Zm-2.86,0v2.86h2.86v-2.86h-2.86Zm0,2.86v2.86h2.86v-2.86h-2.86Zm-2.86,2.86v2.86h2.86v-2.86h-2.86Zm0,2.86v2.86h2.86v-2.86h-2.86Zm2.86,0v2.86h2.86v-2.86h-2.86Zm0,2.86v2.86h2.86v-2.86h-2.86Zm0,2.86v2.86h2.86v-2.86h-2.86Zm0,2.86v2.86h2.86v-2.86h-2.86Zm0,2.86v2.86h2.86v-2.86h-2.86Zm2.86,0v2.86h2.86v-2.86h-2.86Zm0,2.86v2.86h2.86v-2.86h-2.86Zm2.86,0v2.86h2.86v-2.86h-2.86Zm20,51.44v2.86h2.86v-2.86h-2.86Zm-2.86,0v2.86h2.86v-2.86h-2.86Zm0-2.86v2.86h2.86v-2.86h-2.86Zm-2.86-2.86v2.86h2.86v-2.86h-2.86Zm-2.86,0v2.86h2.86v-2.86h-2.86Zm-2.86,0v2.86h2.86v-2.86h-2.86Zm0-2.86v2.86h2.86v-2.86h-2.86Zm-2.86,0v2.86h2.86v-2.86h-2.86Zm0-2.86v2.86h2.86v-2.86h-2.86Zm-2.86,0v2.86h2.86v-2.86h-2.86Zm-2.86,0v2.86h2.86v-2.86h-2.86Zm0-2.86v2.86h2.86v-2.86h-2.86Zm-2.86,0v2.86h2.86v-2.86h-2.86Zm0-2.86v2.86h2.86v-2.86h-2.86Zm-2.86,0v2.86h2.86v-2.86h-2.86Zm-2.86,0v2.86h2.86v-2.86h-2.86Zm0-2.86v2.86h2.86v-2.86h-2.86Zm-2.86,0v2.86h2.86v-2.86h-2.86Zm-2.86,0v2.86h2.86v-2.86h-2.86Zm37.15,20v2.86h2.86v-2.86h-2.86Zm0-2.86v2.86h2.86v-2.86h-2.86Zm2.86,0v2.86h2.86v-2.86h-2.86Zm0-2.86v2.86h2.86v-2.86h-2.86Zm2.86,0v2.86h2.86v-2.86h-2.86Zm0,2.86v2.86h2.86v-2.86h-2.86Zm2.86-2.86v2.86h2.86v-2.86h-2.86Zm0-2.86v2.86h2.86v-2.86h-2.86Zm0-2.86v2.86h2.86v-2.86h-2.86Zm0-2.86v2.86h2.86v-2.86h-2.86Zm0-2.86v2.86h2.86v-2.86h-2.86Zm0-2.86v2.86h2.86v-2.86h-2.86Zm0-2.86v2.86h2.86v-2.86h-2.86Zm-2.86,0v2.86h2.86v-2.86h-2.86Zm0-2.86v2.86h2.86v-2.86h-2.86Zm-2.86,0v2.86h2.86v-2.86h-2.86Zm0-5.72v2.86h2.86v-2.86h-2.86Zm-2.86,0v2.86h2.86v-2.86h-2.86Zm0-2.86v2.86h2.86v-2.86h-2.86Zm-2.86,0v2.86h2.86v-2.86h-2.86Zm-2.86,0v2.86h2.86v-2.86h-2.86Zm0-2.86v2.86h2.86v-2.86h-2.86Zm-2.86,0v2.86h2.86v-2.86h-2.86Zm-2.86,0v2.86h2.86v-2.86h-2.86Zm0-2.86v2.86h2.86v-2.86h-2.86Zm-2.86-2.86v2.86h2.86v-2.86h-2.86Zm-2.86,0v2.86h2.86v-2.86h-2.86Zm-2.86,0v2.86h2.86v-2.86h-2.86Zm0-2.86v2.86h2.86v-2.86h-2.86Zm-2.86,0v2.86h2.86v-2.86h-2.86Zm-2.86,0v2.86h2.86v-2.86h-2.86Zm0-2.86v2.86h2.86v-2.86h-2.86Zm-2.86,0v2.86h2.86v-2.86h-2.86Zm-2.86-2.86v2.86h2.86v-2.86h-2.86Zm-2.86,0v2.86h2.86v-2.86h-2.86Zm0-2.86v2.86h2.86v-2.86h-2.86Zm-2.86,0v2.86h2.86v-2.86h-2.86Zm0,2.86v2.86h2.86v-2.86h-2.86Zm-2.86,0v2.86h2.86v-2.86h-2.86Zm-2.86,17.15v2.86h2.86v-2.86h-2.86Zm2.86,11.43v2.86h2.86v-2.86h-2.86Zm0-2.86v2.86h2.86v-2.86h-2.86Zm0-2.86v2.86h2.86v-2.86h-2.86Zm0-2.86v2.86h2.86v-2.86h-2.86Zm-2.86,0v2.86h2.86v-2.86h-2.86Zm0-20v2.86h2.86v-2.86h-2.86Zm0,2.86v2.86h2.86v-2.86h-2.86Zm0,2.86v2.86h2.86v-2.86h-2.86Zm0,2.86v2.86h2.86v-2.86h-2.86Zm0,2.86v2.86h2.86v-2.86h-2.86Zm0,2.86v2.86h2.86v-2.86h-2.86Zm-73.98,14.29v2.86h2.86v-2.86h-2.86Zm0-2.86v2.86h2.86v-2.86h-2.86Zm0-2.86v2.86h2.86v-2.86h-2.86Zm0-2.86v2.86h2.86v-2.86h-2.86Zm0-2.86v2.86h2.86v-2.86h-2.86Zm0-2.86v2.86h2.86v-2.86h-2.86Zm0-2.86v2.86h2.86v-2.86h-2.86Zm0-2.86v2.86h2.86v-2.86h-2.86Zm0-2.86v2.86h2.86v-2.86h-2.86Zm0-2.86v2.86h2.86v-2.86h-2.86Zm2.86,0v2.86h2.86v-2.86h-2.86Zm0-2.86v2.86h2.86v-2.86h-2.86Zm0-2.86v2.86h2.86v-2.86h-2.86Zm0-2.86v2.86h2.86v-2.86h-2.86Zm0-2.86v2.86h2.86v-2.86h-2.86Zm0-2.86v2.86h2.86v-2.86h-2.86Zm0-2.86v2.86h2.86v-2.86h-2.86Zm2.86,0v2.86h2.86v-2.86h-2.86Zm0-2.86v2.86h2.86v-2.86h-2.86Zm0-5.72v2.86h2.86v-2.86h-2.86Zm2.86-2.86v2.86h2.86v-2.86h-2.86Zm0-2.86v2.86h2.86v-2.86h-2.86Zm-17.15,60.01v2.86h2.86v-2.86h-2.86Zm0-2.86v2.86h2.86v-2.86h-2.86Zm0-2.86v2.86h2.86v-2.86h-2.86Zm0-2.86v2.86h2.86v-2.86h-2.86Zm0-2.86v2.86h2.86v-2.86h-2.86Zm0-2.86v2.86h2.86v-2.86h-2.86Zm2.86,0v2.86h2.86v-2.86h-2.86Zm0-2.86v2.86h2.86v-2.86h-2.86Zm0-2.86v2.86h2.86v-2.86h-2.86Zm0-2.86v2.86h2.86v-2.86h-2.86Zm0-2.86v2.86h2.86v-2.86h-2.86Zm0-2.86v2.86h2.86v-2.86h-2.86Zm0-2.86v2.86h2.86v-2.86h-2.86Zm0-2.86v2.86h2.86v-2.86h-2.86Zm0-2.86v2.86h2.86v-2.86h-2.86Zm0-2.86v2.86h2.86v-2.86h-2.86Zm0-2.86v2.86h2.86v-2.86h-2.86Zm0-2.86v2.86h2.86v-2.86h-2.86Zm2.86,0v2.86h2.86v-2.86h-2.86Zm0-2.86v2.86h2.86v-2.86h-2.86Zm0-2.86v2.86h2.86v-2.86h-2.86Zm0-2.86v2.86h2.86v-2.86h-2.86Zm0-2.86v2.86h2.86v-2.86h-2.86Zm2.86,0v2.86h2.86v-2.86h-2.86Zm-17.15,60.01v2.86h2.86v-2.86h-2.86Zm0-2.86v2.86h2.86v-2.86h-2.86Zm0-2.86v2.86h2.86v-2.86h-2.86Zm0-2.86v2.86h2.86v-2.86h-2.86Zm0-2.86v2.86h2.86v-2.86h-2.86Zm0-2.86v2.86h2.86v-2.86h-2.86Zm0-2.86v2.86h2.86v-2.86h-2.86Zm0-2.86v2.86h2.86v-2.86h-2.86Zm0-2.86v2.86h2.86v-2.86h-2.86Zm0-2.86v2.86h2.86v-2.86h-2.86Zm0-2.86v2.86h2.86v-2.86h-2.86Zm0-2.86v2.86h2.86v-2.86h-2.86Zm0-2.86v2.86h2.86v-2.86h-2.86Zm0-2.86v2.86h2.86v-2.86h-2.86Zm0-2.86v2.86h2.86v-2.86h-2.86Zm0-2.86v2.86h2.86v-2.86h-2.86Zm0-2.86v2.86h2.86v-2.86h-2.86Zm0-2.86v2.86h2.86v-2.86h-2.86Zm0-2.86v2.86h2.86v-2.86h-2.86Zm0-2.86v2.86h2.86v-2.86h-2.86Zm0-2.86v2.86h2.86v-2.86h-2.86Zm-11.43,34.29v2.86h2.86v-2.86h-2.86Zm0,22.86v2.86h2.86v-2.86h-2.86Zm0-2.86v2.86h2.86v-2.86h-2.86Zm0-2.86v2.86h2.86v-2.86h-2.86Zm0-2.86v2.86h2.86v-2.86h-2.86Zm0-2.86v2.86h2.86v-2.86h-2.86Zm0-2.86v2.86h2.86v-2.86h-2.86Zm0-2.86v2.86h2.86v-2.86h-2.86Zm0-2.86v2.86h2.86v-2.86h-2.86Zm0-5.72v2.86h2.86v-2.86h-2.86Zm0-2.86v2.86h2.86v-2.86h-2.86Zm0-2.86v2.86h2.86v-2.86h-2.86Zm0-2.86v2.86h2.86v-2.86h-2.86Zm0-2.86v2.86h2.86v-2.86h-2.86Zm0-2.86v2.86h2.86v-2.86h-2.86Zm0-2.86v2.86h2.86v-2.86h-2.86Zm0-2.86v2.86h2.86v-2.86h-2.86Zm0-2.86v2.86h2.86v-2.86h-2.86Zm0-2.86v2.86h2.86v-2.86h-2.86Zm0-2.86v2.86h2.86v-2.86h-2.86Zm0-2.86v2.86h2.86v-2.86h-2.86Zm-11.43,28.58v2.86h2.86v-2.86h-2.86Zm0-2.86v2.86h2.86v-2.86h-2.86Zm0-2.86v2.86h2.86v-2.86h-2.86Zm2.86,31.43v2.86h2.86v-2.86h-2.86Zm0-2.86v2.86h2.86v-2.86h-2.86Zm0-2.86v2.86h2.86v-2.86h-2.86Zm0-2.86v2.86h2.86v-2.86h-2.86Zm-2.86,0v2.86h2.86v-2.86h-2.86Zm0-2.86v2.86h2.86v-2.86h-2.86Zm0-2.86v2.86h2.86v-2.86h-2.86Zm0-2.86v2.86h2.86v-2.86h-2.86Zm0-2.86v2.86h2.86v-2.86h-2.86Zm0-2.86v2.86h2.86v-2.86h-2.86Zm0-11.43v2.86h2.86v-2.86h-2.86Zm0-2.86v2.86h2.86v-2.86h-2.86Zm0-2.86v2.86h2.86v-2.86h-2.86Zm0-2.86v2.86h2.86v-2.86h-2.86Zm0-2.86v2.86h2.86v-2.86h-2.86Zm0-2.86v2.86h2.86v-2.86h-2.86Zm0-2.86v2.86h2.86v-2.86h-2.86Zm0-2.86v2.86h2.86v-2.86h-2.86Zm0-2.86v2.86h2.86v-2.86h-2.86Zm-5.72,54.3v2.86h2.86v-2.86h-2.86Zm0-2.86v2.86h2.86v-2.86h-2.86Zm0-2.86v2.86h2.86v-2.86h-2.86Zm0-2.86v2.86h2.86v-2.86h-2.86Zm0-2.86v2.86h2.86v-2.86h-2.86Zm0-2.86v2.86h2.86v-2.86h-2.86Zm-2.86,0v2.86h2.86v-2.86h-2.86Zm0-2.86v2.86h2.86v-2.86h-2.86Zm0-2.86v2.86h2.86v-2.86h-2.86Zm0-2.86v2.86h2.86v-2.86h-2.86Zm0-2.86v2.86h2.86v-2.86h-2.86Zm0-2.86v2.86h2.86v-2.86h-2.86Zm0-2.86v2.86h2.86v-2.86h-2.86Zm0-2.86v2.86h2.86v-2.86h-2.86Zm0-2.86v2.86h2.86v-2.86h-2.86Zm0-2.86v2.86h2.86v-2.86h-2.86Zm-2.86,0v2.86h2.86v-2.86h-2.86Zm0-2.86v2.86h2.86v-2.86h-2.86Zm0-2.86v2.86h2.86v-2.86h-2.86Zm0-2.86v2.86h2.86v-2.86h-2.86Zm0-2.86v2.86h2.86v-2.86h-2.86Zm0-2.86v2.86h2.86v-2.86h-2.86Zm0-2.86v2.86h2.86v-2.86h-2.86Zm100.02,45.72v2.86h2.86v-2.86h-2.86Zm0,2.86v2.86h2.86v-2.86h-2.86Zm-2.86,11.43v2.86h2.86v-2.86h-2.86Zm2.86-2.86v2.86h2.86v-2.86h-2.86Zm-2.86,0v2.86h2.86v-2.86h-2.86Zm0-5.72v2.86h2.86v-2.86h-2.86Zm2.86,2.86v2.86h2.86v-2.86h-2.86Zm2.86,0v2.86h2.86v-2.86h-2.86Zm-2.86,5.72v2.86h2.86v-2.86h-2.86Zm0-8.57v2.86h2.86v-2.86h-2.86Zm2.86,0v2.86h2.86v-2.86h-2.86Zm0-11.43v2.86h2.86v-2.86h-2.86Zm-2.86,2.86v2.86h2.86v-2.86h-2.86Zm-2.86,5.72v2.86h2.86v-2.86h-2.86Zm0,5.72v2.86h2.86v-2.86h-2.86Zm0,8.57v2.86h2.86v-2.86h-2.86Zm0,8.57v2.86h2.86v-2.86h-2.86Zm2.86-2.86v2.86h2.86v-2.86h-2.86Zm0,8.57v2.86h2.86v-2.86h-2.86Zm0-2.86v2.86h2.86v-2.86h-2.86Zm0-2.86v2.86h2.86v-2.86h-2.86Zm0-5.72v2.86h2.86v-2.86h-2.86Zm0-2.86v2.86h2.86v-2.86h-2.86Zm2.86-14.29v2.86h2.86v-2.86h-2.86Zm0-2.86v2.86h2.86v-2.86h-2.86Zm0-2.86v2.86h2.86v-2.86h-2.86Zm2.86-8.57v2.86h2.86v-2.86h-2.86Zm-2.86,2.86v2.86h2.86v-2.86h-2.86Zm-2.86,2.86v2.86h2.86v-2.86h-2.86Zm-2.86,2.86v2.86h2.86v-2.86h-2.86Zm0,2.86v2.86h2.86v-2.86h-2.86Zm-2.86,11.43v2.86h2.86v-2.86h-2.86Zm0,2.86v2.86h2.86v-2.86h-2.86Zm0,2.86v2.86h2.86v-2.86h-2.86Zm2.86,2.86v2.86h2.86v-2.86h-2.86Zm0,2.86v2.86h2.86v-2.86h-2.86Zm0,5.72v2.86h2.86v-2.86h-2.86Zm0,2.86v2.86h2.86v-2.86h-2.86Zm-2.86,0v2.86h2.86v-2.86h-2.86Zm0-2.86v2.86h2.86v-2.86h-2.86Zm-2.86,2.86v2.86h2.86v-2.86h-2.86Zm2.86,5.72v2.86h2.86v-2.86h-2.86Zm5.72-2.86v2.86h2.86v-2.86h-2.86Zm-2.86,0v2.86h2.86v-2.86h-2.86Zm-2.86,0v2.86h2.86v-2.86h-2.86Zm-2.86,0v2.86h2.86v-2.86h-2.86Zm0,2.86v2.86h2.86v-2.86h-2.86Zm-2.86,0v2.86h2.86v-2.86h-2.86Zm0-2.86v2.86h2.86v-2.86h-2.86Zm-14.29-11.43v2.86h2.86v-2.86h-2.86Zm0-2.86v2.86h2.86v-2.86h-2.86Zm0-2.86v2.86h2.86v-2.86h-2.86Zm0-5.72v2.86h2.86v-2.86h-2.86Zm0-5.72v2.86h2.86v-2.86h-2.86Zm2.86,5.72v2.86h2.86v-2.86h-2.86Zm0,2.86v2.86h2.86v-2.86h-2.86Zm0,8.57v2.86h2.86v-2.86h-2.86Zm2.86-20v2.86h2.86v-2.86h-2.86Zm0,8.57v2.86h2.86v-2.86h-2.86Zm0,11.43v2.86h2.86v-2.86h-2.86Zm0,2.86v2.86h2.86v-2.86h-2.86Zm0-5.72v2.86h2.86v-2.86h-2.86Zm0-2.86v2.86h2.86v-2.86h-2.86Zm0-2.86v2.86h2.86v-2.86h-2.86Zm0-5.72v2.86h2.86v-2.86h-2.86Zm0-2.86v2.86h2.86v-2.86h-2.86Zm-2.86-2.86v2.86h2.86v-2.86h-2.86Zm2.86-2.86v2.86h2.86v-2.86h-2.86Zm2.86,0v2.86h2.86v-2.86h-2.86Zm0,2.86v2.86h2.86v-2.86h-2.86Zm0,2.86v2.86h2.86v-2.86h-2.86Zm0,5.72v2.86h2.86v-2.86h-2.86Zm0,11.43v2.86h2.86v-2.86h-2.86Zm-2.86,5.72v2.86h2.86v-2.86h-2.86Zm-2.86,0v2.86h2.86v-2.86h-2.86Zm0-2.86v2.86h2.86v-2.86h-2.86Zm0-5.72v2.86h2.86v-2.86h-2.86Zm0-2.86v2.86h2.86v-2.86h-2.86Zm-2.86-2.86v2.86h2.86v-2.86h-2.86Zm0-5.72v2.86h2.86v-2.86h-2.86Zm2.86,0v2.86h2.86v-2.86h-2.86Zm0-2.86v2.86h2.86v-2.86h-2.86Zm0-5.72v2.86h2.86v-2.86h-2.86Zm2.86-2.86v2.86h2.86v-2.86h-2.86Zm2.86,0v2.86h2.86v-2.86h-2.86Zm2.86,0v2.86h2.86v-2.86h-2.86Zm-2.86,11.43v2.86h2.86v-2.86h-2.86Zm0,5.72v2.86h2.86v-2.86h-2.86Zm0,2.86v2.86h2.86v-2.86h-2.86Zm0,2.86v2.86h2.86v-2.86h-2.86Zm0,5.72v2.86h2.86v-2.86h-2.86Zm0,2.86v2.86h2.86v-2.86h-2.86Zm0,2.86v2.86h2.86v-2.86h-2.86Zm-2.86,0v2.86h2.86v-2.86h-2.86Zm0,2.86v2.86h2.86v-2.86h-2.86Zm2.86,0v2.86h2.86v-2.86h-2.86Zm2.86,2.86v2.86h2.86v-2.86h-2.86Zm0-2.86v2.86h2.86v-2.86h-2.86Zm0-28.58v2.86h2.86v-2.86h-2.86Zm0-2.86v2.86h2.86v-2.86h-2.86Zm-5.72-8.57v2.86h2.86v-2.86h-2.86Zm-2.86,0v2.86h2.86v-2.86h-2.86Zm0,2.86v2.86h2.86v-2.86h-2.86Zm-2.86,5.72v2.86h2.86v-2.86h-2.86Zm-2.86-2.86v2.86h2.86v-2.86h-2.86Zm0-2.86v2.86h2.86v-2.86h-2.86Zm2.86-2.86v2.86h2.86v-2.86h-2.86Zm0,2.86v2.86h2.86v-2.86h-2.86Zm0,2.86v2.86h2.86v-2.86h-2.86Zm-2.86,2.86v2.86h2.86v-2.86h-2.86Zm0,2.86v2.86h2.86v-2.86h-2.86Zm0,2.86v2.86h2.86v-2.86h-2.86Zm0,2.86v2.86h2.86v-2.86h-2.86Zm0,2.86v2.86h2.86v-2.86h-2.86Zm0,2.86v2.86h2.86v-2.86h-2.86Zm0,2.86v2.86h2.86v-2.86h-2.86Zm0,2.86v2.86h2.86v-2.86h-2.86Zm0,2.86v2.86h2.86v-2.86h-2.86Zm2.86,0v2.86h2.86v-2.86h-2.86Zm0,8.57v2.86h2.86v-2.86h-2.86Zm0-5.72v2.86h2.86v-2.86h-2.86Zm0,2.86v2.86h2.86v-2.86h-2.86Zm2.86,0v2.86h2.86v-2.86h-2.86Zm0,2.86v2.86h2.86v-2.86h-2.86Zm2.86,5.72v2.86h2.86v-2.86h-2.86Zm-2.86-2.86v2.86h2.86v-2.86h-2.86Zm2.86,0v2.86h2.86v-2.86h-2.86Zm2.86,0v2.86h2.86v-2.86h-2.86Zm0,2.86v2.86h2.86v-2.86h-2.86Zm2.86,0v2.86h2.86v-2.86h-2.86Zm2.86,0v2.86h2.86v-2.86h-2.86Zm2.86,0v2.86h2.86v-2.86h-2.86Zm2.86,0v2.86h2.86v-2.86h-2.86Zm2.86-2.86v2.86h2.86v-2.86h-2.86Zm5.72-2.86v2.86h2.86v-2.86h-2.86Zm0-2.86v2.86h2.86v-2.86h-2.86Zm0-2.86v2.86h2.86v-2.86h-2.86Zm0-2.86v2.86h2.86v-2.86h-2.86Zm0-5.72v2.86h2.86v-2.86h-2.86Zm0,2.86v2.86h2.86v-2.86h-2.86Zm0-5.72v2.86h2.86v-2.86h-2.86Zm0-2.86v2.86h2.86v-2.86h-2.86Zm0-2.86v2.86h2.86v-2.86h-2.86Zm2.86,0v2.86h2.86v-2.86h-2.86Zm0-2.86v2.86h2.86v-2.86h-2.86Zm0-2.86v2.86h2.86v-2.86h-2.86Zm0-2.86v2.86h2.86v-2.86h-2.86Zm0-2.86v2.86h2.86v-2.86h-2.86Zm0-2.86v2.86h2.86v-2.86h-2.86Zm0-2.86v2.86h2.86v-2.86h-2.86Zm0-2.86v2.86h2.86v-2.86h-2.86Zm2.86,0v2.86h2.86v-2.86h-2.86Zm0-2.86v2.86h2.86v-2.86h-2.86Zm0-5.72v2.86h2.86v-2.86h-2.86Zm0,2.86v2.86h2.86v-2.86h-2.86Zm-8.57,0v2.86h2.86v-2.86h-2.86Zm5.72,0v2.86h2.86v-2.86h-2.86Zm-2.86,0v2.86h2.86v-2.86h-2.86Zm0,2.86v2.86h2.86v-2.86h-2.86Zm-2.86,0v2.86h2.86v-2.86h-2.86Zm0,2.86v2.86h2.86v-2.86h-2.86Zm-5.72,5.72v2.86h2.86v-2.86h-2.86Zm0,2.86v2.86h2.86v-2.86h-2.86Zm0,2.86v2.86h2.86v-2.86h-2.86Zm0,2.86v2.86h2.86v-2.86h-2.86Zm0,2.86v2.86h2.86v-2.86h-2.86Zm-2.86,0v2.86h2.86v-2.86h-2.86Zm0,5.72v2.86h2.86v-2.86h-2.86Zm0-2.86v2.86h2.86v-2.86h-2.86Zm0-5.72v2.86h2.86v-2.86h-2.86Zm0-2.86v2.86h2.86v-2.86h-2.86Zm-2.86,5.72v2.86h2.86v-2.86h-2.86Zm0,2.86v2.86h2.86v-2.86h-2.86Zm2.86-11.43v2.86h2.86v-2.86h-2.86Zm0-2.86v2.86h2.86v-2.86h-2.86Zm0-2.86v2.86h2.86v-2.86h-2.86Zm5.72,0v2.86h2.86v-2.86h-2.86Zm-2.86-2.86v2.86h2.86v-2.86h-2.86Zm-2.86,0v2.86h2.86v-2.86h-2.86Zm-5.72,0v2.86h2.86v-2.86h-2.86Zm2.86,0v2.86h2.86v-2.86h-2.86Zm5.72-2.86v2.86h2.86v-2.86h-2.86Zm2.86,0v2.86h2.86v-2.86h-2.86Zm0,2.86v2.86h2.86v-2.86h-2.86Zm-2.86,2.86v2.86h2.86v-2.86h-2.86Zm-5.72,2.86v2.86h2.86v-2.86h-2.86Zm0-2.86v2.86h2.86v-2.86h-2.86Zm-2.86,0v2.86h2.86v-2.86h-2.86Zm-11.43-2.86v2.86h2.86v-2.86h-2.86Zm-2.86,0v2.86h2.86v-2.86h-2.86Zm0,2.86v2.86h2.86v-2.86h-2.86Zm-2.86,0v2.86h2.86v-2.86h-2.86Zm0-2.86v2.86h2.86v-2.86h-2.86Zm0-2.86v2.86h2.86v-2.86h-2.86Zm-2.86-2.86v2.86h2.86v-2.86h-2.86Zm14.29,2.86v2.86h2.86v-2.86h-2.86Zm17.15-2.86v2.86h2.86v-2.86h-2.86Zm-2.86,0v2.86h2.86v-2.86h-2.86Zm-2.86,2.86v2.86h2.86v-2.86h-2.86Zm-2.86,0v2.86h2.86v-2.86h-2.86Zm-2.86,0v2.86h2.86v-2.86h-2.86Zm-2.86,0v2.86h2.86v-2.86h-2.86Zm-8.57-2.86v2.86h2.86v-2.86h-2.86Zm-5.72-2.86v2.86h2.86v-2.86h-2.86Zm-2.86,0v2.86h2.86v-2.86h-2.86Zm2.86,2.86v2.86h2.86v-2.86h-2.86Zm2.86,0v2.86h2.86v-2.86h-2.86Zm0,2.86v2.86h2.86v-2.86h-2.86Zm2.86,0v2.86h2.86v-2.86h-2.86Zm2.86,0v2.86h2.86v-2.86h-2.86Zm0,2.86v2.86h2.86v-2.86h-2.86Zm2.86,0v2.86h2.86v-2.86h-2.86Zm2.86,0v2.86h2.86v-2.86h-2.86Zm0,2.86v2.86h2.86v-2.86h-2.86Zm2.86,5.72v2.86h2.86v-2.86h-2.86Zm2.86,0v2.86h2.86v-2.86h-2.86Zm0,2.86v2.86h2.86v-2.86h-2.86Zm0,2.86v2.86h2.86v-2.86h-2.86Zm-2.86,2.86v2.86h2.86v-2.86h-2.86Zm0,5.72v2.86h2.86v-2.86h-2.86Zm0,8.57v2.86h2.86v-2.86h-2.86Zm0,2.86v2.86h2.86v-2.86h-2.86Zm2.86-11.43v2.86h2.86v-2.86h-2.86Zm0,2.86v2.86h2.86v-2.86h-2.86Zm2.86,5.72v2.86h2.86v-2.86h-2.86Zm-2.86-2.86v2.86h2.86v-2.86h-2.86Zm0,2.86v2.86h2.86v-2.86h-2.86Zm0,2.86v2.86h2.86v-2.86h-2.86Zm0,2.86v2.86h2.86v-2.86h-2.86Zm2.86-2.86v2.86h2.86v-2.86h-2.86Zm0-5.72v2.86h2.86v-2.86h-2.86Zm0-2.86v2.86h2.86v-2.86h-2.86Zm2.86,2.86v2.86h2.86v-2.86h-2.86Zm0,2.86v2.86h2.86v-2.86h-2.86Zm0,2.86v2.86h2.86v-2.86h-2.86Zm-2.86,2.86v2.86h2.86v-2.86h-2.86Zm-2.86,2.86v2.86h2.86v-2.86h-2.86Zm-2.86-11.43v2.86h2.86v-2.86h-2.86Zm0-8.57v2.86h2.86v-2.86h-2.86Zm0,5.72v2.86h2.86v-2.86h-2.86Zm0,11.43v2.86h2.86v-2.86h-2.86Zm0,2.86v2.86h2.86v-2.86h-2.86Zm-14.29-62.87v2.86h2.86v-2.86h-2.86Zm20-8.57v2.86h2.86v-2.86h-2.86Zm2.86,0v2.86h2.86v-2.86h-2.86Zm2.86,0v2.86h2.86v-2.86h-2.86Zm0,2.86v2.86h2.86v-2.86h-2.86Zm2.86,0v2.86h2.86v-2.86h-2.86Zm0,2.86v2.86h2.86v-2.86h-2.86Zm2.86,0v2.86h2.86v-2.86h-2.86Zm0,2.86v2.86h2.86v-2.86h-2.86Zm0,2.86v2.86h2.86v-2.86h-2.86Zm0,2.86v2.86h2.86v-2.86h-2.86Zm-2.86,0v2.86h2.86v-2.86h-2.86Zm-2.86,0v2.86h2.86v-2.86h-2.86Zm-2.86,0v2.86h2.86v-2.86h-2.86Zm-2.86,2.86v2.86h2.86v-2.86h-2.86Zm-2.86,0v2.86h2.86v-2.86h-2.86Zm-2.86,0v2.86h2.86v-2.86h-2.86Zm-2.86,0v2.86h2.86v-2.86h-2.86Zm-2.86,0v2.86h2.86v-2.86h-2.86Zm-2.86-2.86v2.86h2.86v-2.86h-2.86Zm0-2.86v2.86h2.86v-2.86h-2.86Zm-2.86,0v2.86h2.86v-2.86h-2.86Zm0-2.86v2.86h2.86v-2.86h-2.86Zm0-2.86v2.86h2.86v-2.86h-2.86Zm0-2.86v2.86h2.86v-2.86h-2.86Zm2.86,0v2.86h2.86v-2.86h-2.86Zm0-2.86v2.86h2.86v-2.86h-2.86Zm2.86,0v2.86h2.86v-2.86h-2.86Zm2.86,0v2.86h2.86v-2.86h-2.86Zm2.86,0v2.86h2.86v-2.86h-2.86Zm31.43-40.01v2.86h2.86v-2.86h-2.86Zm-2.86,0v2.86h2.86v-2.86h-2.86Zm-2.86,0v2.86h2.86v-2.86h-2.86Zm0,2.86v2.86h2.86v-2.86h-2.86Zm-2.86,0v2.86h2.86v-2.86h-2.86Zm-2.86,0v2.86h2.86v-2.86h-2.86Zm0,2.86v2.86h2.86v-2.86h-2.86Zm-2.86,0v2.86h2.86v-2.86h-2.86Zm-2.86,0v2.86h2.86v-2.86h-2.86Zm0,2.86v2.86h2.86v-2.86h-2.86Zm-2.86,0v2.86h2.86v-2.86h-2.86Zm0,2.86v2.86h2.86v-2.86h-2.86Zm-2.86,2.86v2.86h2.86v-2.86h-2.86Zm0,2.86v2.86h2.86v-2.86h-2.86Zm0,2.86v2.86h2.86v-2.86h-2.86Zm0,2.86v2.86h2.86v-2.86h-2.86Zm-2.86,0v2.86h2.86v-2.86h-2.86Zm0,2.86v2.86h2.86v-2.86h-2.86Zm0,2.86v2.86h2.86v-2.86h-2.86Zm-2.86,5.72v2.86h2.86v-2.86h-2.86Zm0,2.86v2.86h2.86v-2.86h-2.86Zm0,2.86v2.86h2.86v-2.86h-2.86Zm0,2.86v2.86h2.86v-2.86h-2.86Zm17.15,60.01v2.86h2.86v-2.86h-2.86Zm2.86-14.29v2.86h2.86v-2.86h-2.86Zm0,2.86v2.86h2.86v-2.86h-2.86Zm-2.86,2.86v2.86h2.86v-2.86h-2.86Zm0,2.86v2.86h2.86v-2.86h-2.86Zm0,2.86v2.86h2.86v-2.86h-2.86Zm-34.29,11.43v2.86h2.86v-2.86h-2.86Zm0-2.86v2.86h2.86v-2.86h-2.86Zm-2.86,0v2.86h2.86v-2.86h-2.86Zm0-2.86v2.86h2.86v-2.86h-2.86Zm0-2.86v2.86h2.86v-2.86h-2.86Zm0-2.86v2.86h2.86v-2.86h-2.86Zm0-2.86v2.86h2.86v-2.86h-2.86Zm0-2.86v2.86h2.86v-2.86h-2.86Zm0-2.86v2.86h2.86v-2.86h-2.86Zm0-2.86v2.86h2.86v-2.86h-2.86Zm0-2.86v2.86h2.86v-2.86h-2.86Zm0-2.86v2.86h2.86v-2.86h-2.86Zm0-2.86v2.86h2.86v-2.86h-2.86Zm0-2.86v2.86h2.86v-2.86h-2.86Zm-2.86,0v2.86h2.86v-2.86h-2.86Zm0-2.86v2.86h2.86v-2.86h-2.86Zm0-2.86v2.86h2.86v-2.86h-2.86Zm0-2.86v2.86h2.86v-2.86h-2.86Zm-71.44-11.43v2.86h2.86v-2.86h-2.86Zm0,2.86v2.86h2.86v-2.86h-2.86Zm0,2.86v2.86h2.86v-2.86h-2.86Zm0,2.86v2.86h2.86v-2.86h-2.86Zm0,2.86v2.86h2.86v-2.86h-2.86Zm2.86,0v2.86h2.86v-2.86h-2.86Zm0,2.86v2.86h2.86v-2.86h-2.86Zm0,2.86v2.86h2.86v-2.86h-2.86Zm0,2.86v2.86h2.86v-2.86h-2.86Zm0,2.86v2.86h2.86v-2.86h-2.86Zm2.86,0v2.86h2.86v-2.86h-2.86Zm0,2.86v2.86h2.86v-2.86h-2.86Zm0,2.86v2.86h2.86v-2.86h-2.86Zm0-82.87v2.86h2.86v-2.86h-2.86Zm-2.86-2.86v2.86h2.86v-2.86h-2.86Zm2.86,0v2.86h2.86v-2.86h-2.86Zm2.86,0v2.86h2.86v-2.86h-2.86Zm48.58,0v2.86h2.86v-2.86h-2.86Zm2.86,0v2.86h2.86v-2.86h-2.86Zm-2.86-2.86v2.86h2.86v-2.86h-2.86Zm-2.86,0v2.86h2.86v-2.86h-2.86Zm0,2.86v2.86h2.86v-2.86h-2.86Zm-2.86,0v2.86h2.86v-2.86h-2.86Zm-37.15,31.43v2.86h2.86v-2.86h-2.86Zm2.86,0v2.86h2.86v-2.86h-2.86Zm2.86,0v2.86h2.86v-2.86h-2.86Zm2.86,0v2.86h2.86v-2.86h-2.86Zm0-2.86v2.86h2.86v-2.86h-2.86Zm2.86,0v2.86h2.86v-2.86h-2.86Zm2.86,0v2.86h2.86v-2.86h-2.86Zm2.86,0v2.86h2.86v-2.86h-2.86Zm45.72-14.29v2.86h2.86v-2.86h-2.86Zm0-2.86v2.86h2.86v-2.86h-2.86Zm2.86,0v2.86h2.86v-2.86h-2.86Zm0-2.86v2.86h2.86v-2.86h-2.86Zm-2.86,0v2.86h2.86v-2.86h-2.86Zm-11.43,0v2.86h2.86v-2.86h-2.86Zm0-2.86v2.86h2.86v-2.86h-2.86Zm-2.86,0v2.86h2.86v-2.86h-2.86Zm-2.86,0v2.86h2.86v-2.86h-2.86Zm0-2.86v2.86h2.86v-2.86h-2.86Zm-2.86,0v2.86h2.86v-2.86h-2.86Zm-2.86,0v2.86h2.86v-2.86h-2.86Zm-25.72,5.72v2.86h2.86v-2.86h-2.86Zm-2.86,0v2.86h2.86v-2.86h-2.86Zm-2.86,0v2.86h2.86v-2.86h-2.86Zm-20-5.72v2.86h2.86v-2.86h-2.86Zm-2.86,0v2.86h2.86v-2.86h-2.86Zm0,2.86v2.86h2.86v-2.86h-2.86Zm0,2.86v2.86h2.86v-2.86h-2.86Zm11.43,5.72v2.86h2.86v-2.86h-2.86Zm-2.86,0v2.86h2.86v-2.86h-2.86Zm-2.86-2.86v2.86h2.86v-2.86h-2.86Zm0,2.86v2.86h2.86v-2.86h-2.86Zm0,2.86v2.86h2.86v-2.86h-2.86Zm2.86,0v2.86h2.86v-2.86h-2.86Zm2.86,0v2.86h2.86v-2.86h-2.86Zm2.86,0v2.86h2.86v-2.86h-2.86Zm17.15-8.57v2.86h2.86v-2.86h-2.86Zm0,2.86v2.86h2.86v-2.86h-2.86Zm2.86,0v2.86h2.86v-2.86h-2.86Zm-2.86,2.86v2.86h2.86v-2.86h-2.86Zm-2.86,0v2.86h2.86v-2.86h-2.86Zm-11.43,0v2.86h2.86v-2.86h-2.86Zm-2.86,5.72v2.86h2.86v-2.86h-2.86Zm0,2.86v2.86h2.86v-2.86h-2.86Zm2.86,0v2.86h2.86v-2.86h-2.86Zm0-2.86v2.86h2.86v-2.86h-2.86Zm0-2.86v2.86h2.86v-2.86h-2.86Zm2.86-2.86v2.86h2.86v-2.86h-2.86Zm2.86,0v2.86h2.86v-2.86h-2.86Zm2.86,0v2.86h2.86v-2.86h-2.86Zm0,2.86v2.86h2.86v-2.86h-2.86Zm2.86,0v2.86h2.86v-2.86h-2.86Zm2.86,2.86v2.86h2.86v-2.86h-2.86Zm2.86,2.86v2.86h2.86v-2.86h-2.86Zm0-2.86v2.86h2.86v-2.86h-2.86Zm0-2.86v2.86h2.86v-2.86h-2.86Zm0-2.86v2.86h2.86v-2.86h-2.86Zm2.86,0v2.86h2.86v-2.86h-2.86Zm2.86,0v2.86h2.86v-2.86h-2.86Zm2.86-2.86v2.86h2.86v-2.86h-2.86Zm0,2.86v2.86h2.86v-2.86h-2.86Zm0,2.86v2.86h2.86v-2.86h-2.86Zm2.86,0v2.86h2.86v-2.86h-2.86Zm2.86,0v2.86h2.86v-2.86h-2.86Zm2.86,2.86v2.86h2.86v-2.86h-2.86Zm2.86-2.86v2.86h2.86v-2.86h-2.86Zm-2.86,0v2.86h2.86v-2.86h-2.86Zm0-5.72v2.86h2.86v-2.86h-2.86Zm-5.72,0v2.86h2.86v-2.86h-2.86Zm0-5.72v2.86h2.86v-2.86h-2.86Zm0,2.86v2.86h2.86v-2.86h-2.86Zm2.86,2.86v2.86h2.86v-2.86h-2.86Zm0,2.86v2.86h2.86v-2.86h-2.86Zm2.86,0v2.86h2.86v-2.86h-2.86Zm2.86,0v2.86h2.86v-2.86h-2.86Zm2.86,0v2.86h2.86v-2.86h-2.86Zm0,2.86v2.86h2.86v-2.86h-2.86Zm2.86,0v2.86h2.86v-2.86h-2.86Zm2.86,2.86v2.86h2.86v-2.86h-2.86Zm0,2.86v2.86h2.86v-2.86h-2.86Zm2.86,0v2.86h2.86v-2.86h-2.86Zm-2.86,2.86v2.86h2.86v-2.86h-2.86Zm-2.86,2.86v2.86h2.86v-2.86h-2.86Zm-2.86,0v2.86h2.86v-2.86h-2.86Zm2.86-2.86v2.86h2.86v-2.86h-2.86Zm0-2.86v2.86h2.86v-2.86h-2.86Zm0-2.86v2.86h2.86v-2.86h-2.86Zm-2.86,0v2.86h2.86v-2.86h-2.86Zm0,2.86v2.86h2.86v-2.86h-2.86Zm0,2.86v2.86h2.86v-2.86h-2.86Zm-2.86,0v2.86h2.86v-2.86h-2.86Zm0,2.86v2.86h2.86v-2.86h-2.86Zm17.15-8.57v2.86h2.86v-2.86h-2.86Zm0-2.86v2.86h2.86v-2.86h-2.86Zm2.86,0v2.86h2.86v-2.86h-2.86Zm0-2.86v2.86h2.86v-2.86h-2.86Zm0-2.86v2.86h2.86v-2.86h-2.86Zm0-5.72v2.86h2.86v-2.86h-2.86Zm0-2.86v2.86h2.86v-2.86h-2.86Zm-2.86,0v2.86h2.86v-2.86h-2.86Zm0-2.86v2.86h2.86v-2.86h-2.86Zm2.86,0v2.86h2.86v-2.86h-2.86Zm0-2.86v2.86h2.86v-2.86h-2.86Zm-2.86,0v2.86h2.86v-2.86h-2.86Zm0-2.86v2.86h2.86v-2.86h-2.86Zm-2.86,0v2.86h2.86v-2.86h-2.86Zm0-2.86v2.86h2.86v-2.86h-2.86Zm-2.86,0v2.86h2.86v-2.86h-2.86Zm-2.86,2.86v2.86h2.86v-2.86h-2.86Zm0,2.86v2.86h2.86v-2.86h-2.86Zm-2.86,0v2.86h2.86v-2.86h-2.86Zm0-2.86v2.86h2.86v-2.86h-2.86Zm0-2.86v2.86h2.86v-2.86h-2.86Zm-2.86,0v2.86h2.86v-2.86h-2.86Zm0-2.86v2.86h2.86v-2.86h-2.86Zm-2.86,0v2.86h2.86v-2.86h-2.86Zm-2.86,0v2.86h2.86v-2.86h-2.86Zm-2.86,0v2.86h2.86v-2.86h-2.86Zm0-2.86v2.86h2.86v-2.86h-2.86Zm-2.86,0v2.86h2.86v-2.86h-2.86Zm-2.86,0v2.86h2.86v-2.86h-2.86Zm-2.86,0v2.86h2.86v-2.86h-2.86Zm0,2.86v2.86h2.86v-2.86h-2.86Zm-2.86,8.57v2.86h2.86v-2.86h-2.86Zm-2.86,0v2.86h2.86v-2.86h-2.86Zm0,2.86v2.86h2.86v-2.86h-2.86Zm-2.86,0v2.86h2.86v-2.86h-2.86Zm0-2.86v2.86h2.86v-2.86h-2.86Zm-2.86-2.86v2.86h2.86v-2.86h-2.86Zm0-2.86v2.86h2.86v-2.86h-2.86Zm2.86,0v2.86h2.86v-2.86h-2.86Zm2.86,0v2.86h2.86v-2.86h-2.86Zm2.86,0v2.86h2.86v-2.86h-2.86Zm0-2.86v2.86h2.86v-2.86h-2.86Zm-2.86,0v2.86h2.86v-2.86h-2.86Zm2.86-2.86v2.86h2.86v-2.86h-2.86Zm0-2.86v2.86h2.86v-2.86h-2.86Zm-2.86,0v2.86h2.86v-2.86h-2.86Zm-2.86,0v2.86h2.86v-2.86h-2.86Zm-2.86,0v2.86h2.86v-2.86h-2.86Zm-2.86,2.86v2.86h2.86v-2.86h-2.86Zm0-2.86v2.86h2.86v-2.86h-2.86Zm-2.86,0v2.86h2.86v-2.86h-2.86Zm0,2.86v2.86h2.86v-2.86h-2.86Zm2.86,2.86v2.86h2.86v-2.86h-2.86Zm0,2.86v2.86h2.86v-2.86h-2.86Zm-2.86,0v2.86h2.86v-2.86h-2.86Zm0-2.86v2.86h2.86v-2.86h-2.86Zm-2.86,0v2.86h2.86v-2.86h-2.86Zm0-2.86v2.86h2.86v-2.86h-2.86Zm-2.86,0v2.86h2.86v-2.86h-2.86Zm-2.86,0v2.86h2.86v-2.86h-2.86Zm-2.86,0v2.86h2.86v-2.86h-2.86Zm-2.86,0v2.86h2.86v-2.86h-2.86Zm0,2.86v2.86h2.86v-2.86h-2.86Zm0,2.86v2.86h2.86v-2.86h-2.86Zm2.86,2.86v2.86h2.86v-2.86h-2.86Zm0,2.86v2.86h2.86v-2.86h-2.86Zm-2.86,0v2.86h2.86v-2.86h-2.86Zm0-2.86v2.86h2.86v-2.86h-2.86Zm-2.86,0v2.86h2.86v-2.86h-2.86Zm-2.86,0v2.86h2.86v-2.86h-2.86Zm0-2.86v2.86h2.86v-2.86h-2.86Zm-2.86,0v2.86h2.86v-2.86h-2.86Zm-2.86,0v2.86h2.86v-2.86h-2.86Zm0,2.86v2.86h2.86v-2.86h-2.86Zm-2.86,0v2.86h2.86v-2.86h-2.86Zm0,2.86v2.86h2.86v-2.86h-2.86Zm-2.86,0v2.86h2.86v-2.86h-2.86Zm0,2.86v2.86h2.86v-2.86h-2.86Zm0,2.86v2.86h2.86v-2.86h-2.86Zm2.86,0v2.86h2.86v-2.86h-2.86Zm2.86,0v2.86h2.86v-2.86h-2.86Zm0,2.86v2.86h2.86v-2.86h-2.86Zm0,2.86v2.86h2.86v-2.86h-2.86Zm-2.86,0v2.86h2.86v-2.86h-2.86Zm0,2.86v2.86h2.86v-2.86h-2.86Zm0,2.86v2.86h2.86v-2.86h-2.86Zm0,2.86v2.86h2.86v-2.86h-2.86Zm0,2.86v2.86h2.86v-2.86h-2.86Zm2.86,0v2.86h2.86v-2.86h-2.86Zm111.45,97.16v2.86h2.86v-2.86h-2.86Zm-2.86,0v2.86h2.86v-2.86h-2.86Zm0,2.86v2.86h2.86v-2.86h-2.86Zm-2.86,0v2.86h2.86v-2.86h-2.86Zm0,2.86v2.86h2.86v-2.86h-2.86Zm-2.86,0v2.86h2.86v-2.86h-2.86Zm-2.86,0v2.86h2.86v-2.86h-2.86Zm-2.86,0v2.86h2.86v-2.86h-2.86Zm-2.86,0v2.86h2.86v-2.86h-2.86Zm-2.86,0v2.86h2.86v-2.86h-2.86Zm-2.86,0v2.86h2.86v-2.86h-2.86Zm-2.86-2.86v2.86h2.86v-2.86h-2.86Zm-2.86,0v2.86h2.86v-2.86h-2.86Zm0-2.86v2.86h2.86v-2.86h-2.86Zm-2.86,0v2.86h2.86v-2.86h-2.86Zm34.29-2.86v2.86h2.86v-2.86h-2.86Zm0-2.86v2.86h2.86v-2.86h-2.86Zm0-2.86v2.86h2.86v-2.86h-2.86Zm0-2.86v2.86h2.86v-2.86h-2.86Zm2.86-20v2.86h2.86v-2.86h-2.86Zm0-2.86v2.86h2.86v-2.86h-2.86Zm0-2.86v2.86h2.86v-2.86h-2.86Zm0-2.86v2.86h2.86v-2.86h-2.86Zm0-2.86v2.86h2.86v-2.86h-2.86Zm2.86-2.86v2.86h2.86v-2.86h-2.86Zm0-2.86v2.86h2.86v-2.86h-2.86Zm0-2.86v2.86h2.86v-2.86h-2.86Zm0-2.86v2.86h2.86v-2.86h-2.86Zm0-2.86v2.86h2.86v-2.86h-2.86Zm-40.01,54.3v2.86h2.86v-2.86h-2.86Zm-14.29-25.72v2.86h2.86v-2.86h-2.86Zm0-2.86v2.86h2.86v-2.86h-2.86Zm0-2.86v2.86h2.86v-2.86h-2.86Zm2.86-2.86v2.86h2.86v-2.86h-2.86Zm0-2.86v2.86h2.86v-2.86h-2.86Zm0-2.86v2.86h2.86v-2.86h-2.86Zm0-2.86v2.86h2.86v-2.86h-2.86Zm0-2.86v2.86h2.86v-2.86h-2.86Zm2.86-2.86v2.86h2.86v-2.86h-2.86Zm0-2.86v2.86h2.86v-2.86h-2.86Zm0-2.86v2.86h2.86v-2.86h-2.86Zm5.72-25.72v2.86h2.86v-2.86h-2.86Zm0-5.72v2.86h2.86v-2.86h-2.86Zm-2.86,8.57v2.86h2.86v-2.86h-2.86Zm0-2.86v2.86h2.86v-2.86h-2.86Zm2.86-2.86v2.86h2.86v-2.86h-2.86Zm0-5.72v2.86h2.86v-2.86h-2.86Zm8.57,5.72v2.86h2.86v-2.86h-2.86Zm2.86,0v2.86h2.86v-2.86h-2.86Zm2.86,0v2.86h2.86v-2.86h-2.86Zm2.86,0v2.86h2.86v-2.86h-2.86Zm2.86,0v2.86h2.86v-2.86h-2.86Zm2.86,0v2.86h2.86v-2.86h-2.86Zm2.86,0v2.86h2.86v-2.86h-2.86Zm2.86,0v2.86h2.86v-2.86h-2.86Zm2.86,0v2.86h2.86v-2.86h-2.86Zm0,2.86v2.86h2.86v-2.86h-2.86Zm2.86,0v2.86h2.86v-2.86h-2.86Zm2.86,0v2.86h2.86v-2.86h-2.86Zm0,2.86v2.86h2.86v-2.86h-2.86Zm2.86,0v2.86h2.86v-2.86h-2.86Zm0,2.86v2.86h2.86v-2.86h-2.86Zm0,2.86v2.86h2.86v-2.86h-2.86Zm2.86,0v2.86h2.86v-2.86h-2.86Zm0,2.86v2.86h2.86v-2.86h-2.86Zm2.86,2.86v2.86h2.86v-2.86h-2.86Zm0,2.86v2.86h2.86v-2.86h-2.86Zm0,2.86v2.86h2.86v-2.86h-2.86Zm-2.86,0v2.86h2.86v-2.86h-2.86Zm0,2.86v2.86h2.86v-2.86h-2.86Zm-2.86,0v2.86h2.86v-2.86h-2.86Zm0,2.86v2.86h2.86v-2.86h-2.86Zm-2.86,0v2.86h2.86v-2.86h-2.86Zm0,2.86v2.86h2.86v-2.86h-2.86Zm-2.86,0v2.86h2.86v-2.86h-2.86Zm-2.86,0v2.86h2.86v-2.86h-2.86Zm-2.86,0v2.86h2.86v-2.86h-2.86Zm-2.86,0v2.86h2.86v-2.86h-2.86Zm-2.86,2.86v2.86h2.86v-2.86h-2.86Zm-2.86,0v2.86h2.86v-2.86h-2.86Zm-2.86,0v2.86h2.86v-2.86h-2.86Zm-2.86,0v2.86h2.86v-2.86h-2.86Zm-2.86,0v2.86h2.86v-2.86h-2.86Zm-2.86,0v2.86h2.86v-2.86h-2.86Zm0-2.86v2.86h2.86v-2.86h-2.86Zm-2.86,0v2.86h2.86v-2.86h-2.86Zm-2.86,0v2.86h2.86v-2.86h-2.86Zm0-2.86v2.86h2.86v-2.86h-2.86Zm-2.86,0v2.86h2.86v-2.86h-2.86Zm-2.86,0v2.86h2.86v-2.86h-2.86Zm0-2.86v2.86h2.86v-2.86h-2.86Zm-2.86,0v2.86h2.86v-2.86h-2.86Zm-2.86-11.43v2.86h2.86v-2.86h-2.86Zm0,2.86v2.86h2.86v-2.86h-2.86Zm0,2.86v2.86h2.86v-2.86h-2.86Zm0,2.86v2.86h2.86v-2.86h-2.86Zm2.86,0v2.86h2.86v-2.86h-2.86Zm0-2.86v2.86h2.86v-2.86h-2.86Zm0-2.86v2.86h2.86v-2.86h-2.86Zm0-2.86v2.86h2.86v-2.86h-2.86Zm0-2.86v2.86h2.86v-2.86h-2.86Zm2.86,0v2.86h2.86v-2.86h-2.86Zm0-2.86v2.86h2.86v-2.86h-2.86Zm2.86,0v2.86h2.86v-2.86h-2.86Zm0-2.86v2.86h2.86v-2.86h-2.86Zm2.86,0v2.86h2.86v-2.86h-2.86Zm0-2.86v2.86h2.86v-2.86h-2.86Zm2.86,0v2.86h2.86v-2.86h-2.86Zm2.86,0v2.86h2.86v-2.86h-2.86Zm2.86,0v2.86h2.86v-2.86h-2.86Zm-11.43-14.29v2.86h2.86v-2.86h-2.86Zm0,2.86v2.86h2.86v-2.86h-2.86Zm-2.86,0v2.86h2.86v-2.86h-2.86Zm0,2.86v2.86h2.86v-2.86h-2.86Zm-2.86,0v2.86h2.86v-2.86h-2.86Zm-2.86,0v2.86h2.86v-2.86h-2.86Zm0,2.86v2.86h2.86v-2.86h-2.86Zm-2.86,0v2.86h2.86v-2.86h-2.86Zm0,2.86v2.86h2.86v-2.86h-2.86Zm-2.86,0v2.86h2.86v-2.86h-2.86Zm-2.86,0v2.86h2.86v-2.86h-2.86Zm0,2.86v2.86h2.86v-2.86h-2.86Zm-2.86,0v2.86h2.86v-2.86h-2.86Zm-2.86,2.86v2.86h2.86v-2.86h-2.86Zm-2.86,0v2.86h2.86v-2.86h-2.86Zm-2.86,0v2.86h2.86v-2.86h-2.86Zm-2.86,0v2.86h2.86v-2.86h-2.86Zm-2.86,0v2.86h2.86v-2.86h-2.86Zm-2.86,0v2.86h2.86v-2.86h-2.86Zm-2.86,0v2.86h2.86v-2.86h-2.86Zm-2.86,0v2.86h2.86v-2.86h-2.86Zm-2.86,0v2.86h2.86v-2.86h-2.86Zm-2.86,0v2.86h2.86v-2.86h-2.86Zm0-2.86v2.86h2.86v-2.86h-2.86Zm-2.86,0v2.86h2.86v-2.86h-2.86Zm-2.86,0v2.86h2.86v-2.86h-2.86Zm-2.86,0v2.86h2.86v-2.86h-2.86Zm-2.86,0v2.86h2.86v-2.86h-2.86Zm-2.86,0v2.86h2.86v-2.86h-2.86Zm0-2.86v2.86h2.86v-2.86h-2.86Zm-2.86,0v2.86h2.86v-2.86h-2.86Zm-2.86,0v2.86h2.86v-2.86h-2.86Zm0-2.86v2.86h2.86v-2.86h-2.86Zm-2.86,0v2.86h2.86v-2.86h-2.86Zm-2.86,0v2.86h2.86v-2.86h-2.86Zm0-2.86v2.86h2.86v-2.86h-2.86Zm-2.86,0v2.86h2.86v-2.86h-2.86Zm0-2.86v2.86h2.86v-2.86h-2.86Zm-2.86,0v2.86h2.86v-2.86h-2.86Zm5.72,31.43v2.86h2.86v-2.86h-2.86Zm62.87,37.15v2.86h2.86v-2.86h-2.86Zm-2.86,0v2.86h2.86v-2.86h-2.86Zm0,2.86v2.86h2.86v-2.86h-2.86Zm-2.86,0v2.86h2.86v-2.86h-2.86Zm-2.86,0v2.86h2.86v-2.86h-2.86Zm-2.86,0v2.86h2.86v-2.86h-2.86Zm0,2.86v2.86h2.86v-2.86h-2.86Zm-2.86,0v2.86h2.86v-2.86h-2.86Zm-2.86,0v2.86h2.86v-2.86h-2.86Zm0,2.86v2.86h2.86v-2.86h-2.86Zm-2.86,0v2.86h2.86v-2.86h-2.86Zm-2.86,0v2.86h2.86v-2.86h-2.86Zm-2.86,0v2.86h2.86v-2.86h-2.86Zm-2.86,0v2.86h2.86v-2.86h-2.86Zm-2.86,0v2.86h2.86v-2.86h-2.86Zm-2.86,0v2.86h2.86v-2.86h-2.86Zm-2.86,0v2.86h2.86v-2.86h-2.86Zm-2.86,0v2.86h2.86v-2.86h-2.86Zm0-2.86v2.86h2.86v-2.86h-2.86Zm-2.86,0v2.86h2.86v-2.86h-2.86Zm-2.86,0v2.86h2.86v-2.86h-2.86Zm-2.86,0v2.86h2.86v-2.86h-2.86Zm-2.86,0v2.86h2.86v-2.86h-2.86Zm0-2.86v2.86h2.86v-2.86h-2.86Zm-2.86,0v2.86h2.86v-2.86h-2.86Zm-2.86-2.86v2.86h2.86v-2.86h-2.86Zm0-2.86v2.86h2.86v-2.86h-2.86Zm-5.72-37.15v2.86h2.86v-2.86h-2.86Zm0-2.86v2.86h2.86v-2.86h-2.86Zm0-2.86v2.86h2.86v-2.86h-2.86Zm0-2.86v2.86h2.86v-2.86h-2.86Zm0-2.86v2.86h2.86v-2.86h-2.86Zm-2.86-2.86v2.86h2.86v-2.86h-2.86Zm0-2.86v2.86h2.86v-2.86h-2.86Zm0-2.86v2.86h2.86v-2.86h-2.86Zm0-2.86v2.86h2.86v-2.86h-2.86Zm-2.86,0v2.86h2.86v-2.86h-2.86Zm0-2.86v2.86h2.86v-2.86h-2.86Z"/>
</svg>