<?xml version="1.0" encoding="UTF-8"?>
<svg id="uuid-4eabca52-025d-4062-bfe7-a832323e5178" data-name="Ebene 1" xmlns="http://www.w3.org/2000/svg" viewBox="0 0 100 100">
  <path d="M16.12,35.48c.06-.04,.12-.08,.27-.18-.29-.02-.5-.03-.72-.04-1.46-.04-2.92-.18-4.38-.1-1.23,.07-2.45,.37-3.67,.6-.16,.03-.3,.18-.42,.37,.9-.14,1.8-.28,2.7-.41,0,.04,.01,.08,.02,.12-.55,.1-1.1,.19-1.65,.29-.41,.07-.82,.12-1.22,.22-.12,.03-.22,.18-.3,.3-.16,.27-.32,.55-.43,.84-.04,.11,.05,.27,.08,.43-.4-.04-.51,.35-.59,.68-.18,.72-.3,1.45-.44,2.18-.02,.09,0,.18,.02,.28,0,.02,.04,.04,.16,.15,.07-.42,.13-.77,.18-1.07,0,.11,.01,.28,.02,.52,.5-.03,.98-.05,1.45-.08h0c-.27,.04-.53,.09-.8,.12-.2,.02-.4,.02-.61,.04-.01,.17-.02,.31-.03,.45h.3c-.08,.23-.23,.46-.23,.7,.01,1.8,.06,3.6,.09,5.4,0,.19-.06,.45,.32,.39v1.51c-.06-.01-.21-.04-.37-.07-.14,.39,.09,.48,.41,.54,4.32,.74,8.63,1.5,12.95,2.24,1.17,.2,1.15,.2,1.15-.97,0-3.29,0-6.59,.02-9.88,0-.14,.06-.29,.09-.43v.02c.01,.21,.01,.43,.01,.64h1.52c.06,1.73,.11,3.46,.18,5.19,.01,.33-.11,.44-.43,.43-.39-.02-.78,0-1.17,0,0,.08,0,.15,0,.23,.3,.03,.6,.05,.91,.08-.03,0-.05,.02-.07,.02q-.84,.05-.85,.93c0,.66,0,1.32,0,2h1.23s0,.07,0,.1c-.29,0-.59-.01-.88,0-.1,0-.28,.08-.29,.14-.07,.57-.1,1.15-.15,1.77,1.12,.19,2.23,.39,3.35,.58,.47,.08,.95,.17,1.42,.24,1.61,.21,3.21,.55,4.81,.82,1.65,.28,3.3,.58,4.95,.88,1.63,.29,3.27,.58,4.9,.88,.4,.07,.79,.17,1.19,.22,.14,.02,.29-.06,.43-.1,.09,.05,.23,.18,.39,.21,1.98,.36,3.97,.71,5.96,1.06,1.25,.22,2.51,.42,3.75,.66,.14,.03,.33,.24,.33,.38,.04,1.51,.04,3.01,.05,4.52,0,.06-.03,.11-.12,.16,0-.45,0-.89,0-1.34,0-1.03,0-2.05,.02-3.08,0-.35-.07-.53-.46-.59-2.54-.41-5.08-.84-7.62-1.28-4.89-.85-9.78-1.7-14.68-2.56-5.26-.92-10.52-1.84-15.78-2.76-2.4-.42-4.8-.85-7.2-1.27-.1-.02-.21-.02-.36-.03v1.63s-.07,0-.1,0c-.07-3.37-.14-6.74-.21-10.12-.05,0-.1-.01-.15-.02-.02,.22-.07,.44-.07,.65,.05,2.8,.08,5.59,.16,8.39,.04,1.32,.19,2.63,.28,3.94,.03,.37,.06,.75,.02,1.11-.08,.73,.33,1.2,.8,1.65,.54,.51,1.1,1,1.66,1.5,.06,.05,.12,.11,.19,.14,1.11,.44,2.21,.87,3.42,1.35-.11-1.22-.2-2.33-.3-3.45,.01,0,.03-.01,.04-.02,.04,.19,.11,.39,.12,.58,.07,.88,.12,1.76,.2,2.64,.02,.17,.14,.33,.22,.49,.04-.02,.08-.04,.12-.07-.05-.08-.1-.16-.16-.26,.19,.06,.35,.11,.44,.14,.24,.8,.43,1.59,.71,2.34,.31,.81,.69,1.02,1.56,.92,.58-.07,1.15-.24,1.73-.27,.6-.04,1.22,.05,1.82,.03,.25,0,.49-.14,.74-.21,0-.04-.02-.09-.02-.13,2.67,1.01,5.34,2.02,8.01,3.04,1.77,.67,3.54,1.35,5.32,2.01,.13,.05,.3,0,.48,0,0,0-.02,.18,.05,.24,.12,.11,.3,.15,.46,.22,.03-.4,.37-.1,.55-.26v-.51c.26,1.53,.61,3.02,1.42,4.37,.65,1.1,1.56,1.54,2.81,1.35,.69-.1,1.39-.16,2.07-.31,.8-.17,1.29-.74,1.63-1.53,3.47,1.32,6.97,2.64,10.51,3.98,.02-.27,.03-.51,.05-.76,.16,.3-.16,.78,.43,.94-.04-.99-.09-1.94-.13-2.9-.05-1.46-.1-2.92-.15-4.38,0-.13,.06-.26,.09-.38l.03,.03c.07,1.97,.14,3.94,.22,5.91,.02,.42,.05,.84,.04,1.26,0,.35,.16,.48,.49,.55,2.58,.57,5.17,.61,7.78,.16,.69-.12,1.38-.2,2.08-.27,.46-.05,.61-.27,.56-.72-.08-.76-.13-1.52-.18-2.28-.03-.53-.03-.53-.44-.57,.09-.1,.23-.26,.3-.34,.11,.7,.77,.1,1.13,.33,0,0,0,.02-.01,.02-1.07,.03-.89,.13-.82,.97,.07,.82,.09,1.64,.13,2.49,1.25-.16,2.46-.32,3.68-.48,3.45-.46,6.9-.91,10.35-1.37,1.49-.2,2.99-.4,4.48-.59,.34-.04,.51-.16,.53-.54,.04-.73,.15-1.45,.22-2.18,.02-.15,0-.3,0-.48-.3,.03-.57,.05-.98,.09,.46-.23,1.1,.04,1.05-.54,.15,.07,.34,.16,.41,.2-.04,.04-.28,.15-.3,.3-.13,.99-.22,2-.34,3.09,1.23-.18,2.38-.34,3.52-.54,.18-.03,.43-.3,.46-.48,.11-.83,.28-1.68,.19-2.5-.08-.69-.05-1.37-.03-2.05,.01-.43,.05-.86,.08-1.35-.76,.15-1.46,.28-2.15,.41l-.02-.09c.45-.09,.9-.19,1.34-.28,.23-.05,.48-.04,.67-.15,.17-.1,.38-.31,.39-.48,.09-.9,.2-1.8,.16-2.7-.02-.63-.26-1.26-.4-1.9-.96,.09-1.84,.17-2.86,.26,.22,.19,.36,.27,.44,.39,.1,.12,.2,.28,.21,.42,0,.08-.19,.23-.29,.23-.15,0-.35-.07-.44-.18-.16-.18-.25-.42-.36-.64l.02-.02c.18,.13,.37,.26,.56,.39q.13-.25-.32-.69c.77-.06,1.56-.11,2.33-.2,.57-.07,.65-.23,.47-.83-.5,.04-1.01,.09-1.59,.14,.08-.06,.09-.08,.1-.08,.22-.06,.45-.13,.67-.19-.16-.16-.3-.36-.48-.48-.43-.3-.88-.57-1.26-.81,.31-5.97,.4-11.88,.37-17.85,.63,0,1.26-.02,1.89,0,.33,.01,.44-.1,.44-.42,0-2.13-.11-4.25-.74-6.31-.03-.08,0-.18-.02-.27-.07-.61-.29-.82-.9-.85-3.77-.18-7.54-.35-11.31-.52-2.62-.12-5.24-.24-7.87-.43h.62c-.1-.56-.2-1.09-.3-1.63-.03,0-.06,.01-.09,.02-.02,.05-.03,.11-.08,.27-.03-.5-.16-.81-.7-.62,.01-.04,.03-.09,.04-.13,.19-.02,.38-.04,.57-.06,.01-.03,.02-.05,.03-.08-.17-.06-.34-.16-.52-.17-3.07-.2-6.13-.66-9.2-.25-1.79,.24-3.56,.68-5.33,1.09-.96,.22-1.75,.79-2.39,1.54-.18,.21-.29,.46-.46,.73,.18,.05,.28,.09,.4,.12-7.93,.98-15.85,1.96-23.76,2.94,0-.02,0-.04-.01-.07,.3-.05,.59-.11,.89-.16,0-.05,0-.1,0-.15-.8,0-1.59,.01-2.39,0-1.29-.03-2.58-.12-3.87-.09-1.07,.03-2.13,.19-3.19,.29-.17,.02-.34,.04-.51,.05h.01Zm75.15,11.2c0,.51,.1,.6,.61,.53,.21-.03,.43-.09,.63-.15,.65-.21,.73-.32,.75-.99,.05-1.32,.11-2.64,.15-3.96,.03-.73-.15-.94-.86-1.06-1.07-.18-1.08-.18-1.12,.93-.03,.71,0,1.43,0,2.14-.05,0-.11,0-.16,0,0,.85,0,1.71,0,2.56Zm1.17-6.22c.64,.02,.46-.44,.5-.77,.06-.41-.2-.45-.52-.44-1.6,.05-3.19,.11-4.79,.14-.37,0-.41,.18-.38,.46,.03,.28-.13,.67,.39,.67,.82,0,1.64,0,2.47,0,0-.03,0-.05,0-.08,.78,0,1.55-.02,2.33,0Z" style="fill: #fff;"/>
  <g>
    <path d="M65.35,71.1s0,0,0,.02c0,0,0,0,0,0v-.02Z"/>
    <path d="M87.31,60.76c-.96,.09-1.84,.17-2.86,.26,.22,.19,.36,.27,.44,.39,.1,.12,.2,.28,.21,.42,0,.08-.19,.23-.29,.23-.15,0-.35-.07-.44-.18-.16-.18-.25-.42-.36-.64-.5-.03-1.01-.1-1.51-.07-1.14,.06-2.28,.17-3.42,.25,0-.02,0-.04,0-.06,1.47-.13,2.94-.25,4.53-.39-.41-.36-.73-.64-1.05-.92,.03-.04,.07-.07,.1-.11,.46,.42,.91,.85,1.37,1.27,.18,.13,.37,.26,.56,.39q.13-.25-.32-.69c.77-.06,1.56-.11,2.33-.2,.57-.07,.65-.23,.47-.83-.5,.04-1.01,.09-1.59,.14,.08-.06,.09-.08,.1-.08,.22-.06,.45-.13,.67-.19-.16-.16-.3-.36-.48-.48-.43-.3-.88-.57-1.26-.81,.31-5.97,.4-11.88,.37-17.85,.63,0,1.26-.02,1.89,0,.33,.01,.44-.1,.44-.42,0-2.13-.11-4.25-.74-6.31-.03-.08,0-.18-.02-.27-.07-.61-.29-.82-.9-.85-3.77-.18-7.54-.35-11.31-.52-2.62-.12-5.24-.24-7.87-.43h.62c-.1-.56-.2-1.09-.3-1.63-.03,0-.06,.01-.09,.02-.02,.05-.03,.11-.08,.27-.03-.5-.16-.81-.7-.62l.04-.13c.19-.02,.38-.04,.57-.06,.01-.03,.02-.05,.03-.08-.17-.06-.34-.16-.52-.17-3.07-.2-6.13-.66-9.2-.25-1.79,.24-3.56,.68-5.33,1.09-.96,.22-1.75,.78-2.39,1.54-.18,.21-.29,.46-.46,.73,.18,.05,.28,.09,.4,.12-7.93,.98-15.85,1.96-23.76,2.94,0-.02,0-.04-.01-.07,.3-.05,.59-.11,.89-.16,0-.05,0-.1,0-.15-.8,0-1.59,.01-2.39,0-1.29-.03-2.58-.12-3.87-.09-1.07,.03-2.13,.19-3.19,.29-.16,.02-.32,.03-.48,.05,.06-.04,.12-.08,.25-.17-.29-.02-.5-.03-.72-.04-1.46-.04-2.92-.18-4.38-.1-1.23,.07-2.45,.37-3.67,.6-.16,.03-.3,.18-.42,.37,.9-.14,1.8-.28,2.7-.41,0,.04,.01,.08,.02,.12-.55,.1-1.1,.19-1.65,.29-.41,.07-.82,.12-1.22,.22-.12,.03-.22,.18-.3,.3-.16,.27-.32,.55-.43,.84-.04,.11,.05,.27,.08,.43-.4-.04-.51,.35-.59,.68-.18,.72-.3,1.45-.44,2.18-.02,.09,0,.18,.02,.28,0,.02,.04,.04,.16,.15,.07-.42,.13-.77,.18-1.07,0,.11,.01,.28,.02,.52,.48-.03,.93-.05,1.38-.07-.24,.04-.48,.09-.73,.12-.2,.02-.4,.02-.61,.04-.01,.17-.02,.31-.03,.45h.3c-.08,.23-.23,.46-.23,.7,.01,1.8,.06,3.6,.09,5.4,0,.19-.06,.45,.32,.39v1.51c-.06-.01-.21-.04-.37-.07-.14,.39,.09,.48,.41,.54,4.32,.74,8.63,1.5,12.95,2.24,1.17,.2,1.16,.2,1.15-.97,0-3.29,0-6.59,.02-9.88,0-.14,.06-.29,.09-.43,.03-.03,.06-.08,.1-.08,1.63-.07,3.25-.14,4.88-.21,.09,0,.18,.07,.27,.11-.27,.06-.5,.05-.73,.06-1.5,.04-3,.08-4.51,.13v.64h1.52c.06,1.73,.11,3.46,.18,5.19,.01,.33-.11,.44-.43,.43-.39-.02-.78,0-1.17,0,0,.08,0,.15,0,.23,.3,.03,.6,.05,.91,.08-.03,0-.05,.02-.07,.02q-.84,.05-.85,.93c0,.66,0,1.32,0,2h1.23v.1c-.29,0-.59-.01-.88,0-.1,0-.28,.08-.29,.14-.07,.57-.1,1.15-.15,1.77,1.12,.19,2.23,.39,3.35,.58,.47,.08,.95,.17,1.42,.24,1.61,.21,3.21,.55,4.81,.82,1.65,.28,3.3,.58,4.95,.88,1.63,.29,3.27,.58,4.9,.88,.4,.07,.79,.17,1.19,.22,.14,.02,.29-.06,.43-.1,.09,.05,.23,.18,.39,.21,1.98,.36,3.97,.71,5.96,1.06,1.25,.22,2.51,.42,3.75,.66,.14,.03,.33,.24,.33,.38,.04,1.51,.04,3.01,.05,4.52,0,.06-.03,.11-.12,.16,0-.45,0-.89,0-1.34,0-1.03,0-2.05,.02-3.08,0-.35-.07-.53-.46-.59-2.54-.41-5.08-.84-7.62-1.28-4.89-.85-9.78-1.7-14.68-2.56-5.26-.92-10.52-1.84-15.78-2.76-2.4-.42-4.8-.85-7.2-1.27-.1-.02-.21-.02-.36-.03v1.63s-.07,0-.1,0c-.07-3.37-.14-6.74-.21-10.12-.05,0-.1-.01-.15-.02-.02,.22-.07,.44-.07,.65,.05,2.8,.08,5.59,.16,8.39,.04,1.32,.19,2.63,.28,3.94,.03,.37,.06,.75,.02,1.11-.08,.73,.33,1.2,.8,1.65,.54,.51,1.1,1,1.66,1.5,.06,.05,.12,.11,.19,.14,1.11,.44,2.21,.87,3.42,1.35-.11-1.22-.2-2.33-.3-3.45,.01,0,.03-.01,.04-.02,.04,.19,.11,.39,.12,.58,.07,.88,.12,1.76,.2,2.64,.02,.17,.14,.33,.22,.49,.04-.02,.08-.04,.12-.07-.05-.08-.1-.16-.16-.26,.19,.06,.35,.11,.44,.14,.24,.8,.43,1.59,.71,2.34,.31,.81,.69,1.02,1.56,.92,.58-.07,1.15-.24,1.73-.27,.6-.04,1.22,.05,1.82,.03,.25,0,.49-.14,.74-.21,0-.04-.02-.09-.02-.13,2.67,1.01,5.34,2.02,8.01,3.04,1.77,.67,3.54,1.35,5.32,2.01,.13,.05,.3,0,.48,0,0,0-.02,.18,.05,.24,.12,.11,.3,.15,.46,.22,.03-.4,.37-.1,.55-.26v-.51c.26,1.53,.61,3.02,1.42,4.37,.65,1.1,1.56,1.54,2.81,1.35,.69-.1,1.39-.16,2.07-.31,.8-.17,1.29-.74,1.63-1.53,3.47,1.32,6.97,2.64,10.51,3.98,.02-.27,.03-.51,.05-.76,.16,.3-.16,.78,.43,.94-.04-.99-.09-1.94-.13-2.9-.05-1.46-.1-2.92-.15-4.38,0-.13,.06-.26,.09-.38,.13-.34,.38-.18,.58-.13,.55,.14,1.09,.3,1.64,.45,.16,.05,.32,.11,.48,.15,1.58,.37,3.19,.5,4.81,.46,.59-.01,1.18-.04,1.77,.02,.34,.03,.65,.23,.98,.35-.02,.04-.03,.08-.05,.11q-.92-.39-1.96-.38c-.65,0-1.31,.07-1.96,0-1.23-.12-2.46-.3-3.69-.47-.14-.02-.26-.16-.39-.24-.3,.12-.56,.1-.88-.03-.4-.17-.82-.48-1.31-.26,.07,1.97,.14,3.94,.22,5.91,.02,.42,.05,.84,.04,1.26,0,.35,.16,.48,.49,.55,2.58,.57,5.17,.61,7.78,.16,.69-.12,1.38-.2,2.08-.27,.46-.05,.61-.27,.56-.72-.08-.76-.13-1.52-.18-2.28-.03-.53-.03-.53-.44-.57,.09-.1,.23-.26,.3-.34,.11,.7,.77,.1,1.13,.33,0,0,0,.02-.01,.02-1.07,.03-.89,.13-.82,.97,.07,.82,.09,1.64,.13,2.49,1.25-.16,2.46-.32,3.68-.48,3.45-.46,6.9-.91,10.35-1.37,1.49-.2,2.99-.4,4.48-.59,.34-.04,.51-.16,.53-.54,.04-.73,.15-1.45,.22-2.18,.02-.15,0-.3,0-.48-.3,.03-.57,.05-.98,.09,.46-.23,1.1,.04,1.05-.54,.15,.07,.34,.16,.41,.2-.04,.04-.28,.15-.3,.3-.13,.99-.22,2-.34,3.09,1.23-.18,2.38-.34,3.52-.54,.18-.03,.43-.3,.46-.48,.11-.83,.28-1.68,.19-2.5-.08-.69-.05-1.37-.03-2.05,.01-.43,.05-.86,.08-1.35-.76,.15-1.46,.28-2.15,.41,0-.03-.01-.06-.02-.09,.45-.09,.9-.19,1.34-.28,.23-.05,.48-.04,.67-.15,.17-.1,.38-.31,.39-.48,.09-.9,.2-1.8,.16-2.7-.02-.63-.26-1.26-.4-1.9ZM22.78,47.25s-.01,.08-.02,.11c-.25,.02-.5,.04-.76,.06-.02-.06-.05-.15-.12-.33,.35,.06,.62,.11,.89,.15Zm2.87,4.04c0,.27-.06,.53-.1,.8-.1-.3-.09-.6-.1-.89,0-.33,.09-.73-.07-.95-.13-.18-.56-.13-.99-.21,.34,0,.57,.03,.78-.01,.12-.03,.27-.18,.28-.28,0-.1-.14-.28-.25-.31-.31-.07-.63-.07-1.02-.11,.09,.18,.15,.3,.23,.46-1.1,0-2.18,0-3.25,0,.98-.04,1.97-.09,2.99-.13-.08-.32-.14-.6-.21-.89,.12,.46,.49,.45,.83,.44,.22,0,.62-.07,.62-.09,0-.42-.37-.28-.59-.29-.39-.02-.53-.15-.53-.56-.04-2.02-.11-4.04-.18-6.05,0-.3-.05-.61-.07-.86h-1.59s0-.1,0-.15h3.21c0,3.33,0,6.71,0,10.1Zm-14.11,4.65c.07-.64,.14-1.32,.22-2.11,.1,.88-.06,1.99-.22,2.11Zm2.43,4.57c-.07-.22-.14-.45-.21-.67,.09-.03,.18-.05,.27-.08,.07,.22,.13,.45,.2,.67-.09,.03-.17,.05-.26,.08Zm-.26-2.08c.07-.25,.14-.46,.23-.78,.33,.61,.29,.76-.23,.78Zm1.21,2.88c-.6-.04-.19-.73-.47-1-.03,.05-.05,.11-.07,.14,.07-2.07-.21-4.13-.64-6.18,.14,.19,.24,.39,.3,.6,.17,.62,.32,1.25,.48,1.87,0,.03,.01,.09,0,.11-.31,.36,.02,.51,.18,.65-.07,.1-.16,.18-.16,.25,.01,.39,.04,.77,.09,1.16,.01,.09,.1,.18,.16,.26,.1,.13,.2,.26,.3,.39-.12,.08-.24,.17-.43,.3,.08,.45,.17,.96,.26,1.47Zm4.25,.04c-.2-.25-.33-.39-.43-.55-.02-.03,.13-.15,.2-.23,.14,.13,.3,.25,.41,.4,.03,.03-.08,.17-.18,.38Zm6.43,2.02c-.31-.07-.68,0-.68-.45,0-.08,.2-.25,.28-.24,.33,.06,.51,.26,.4,.68Zm6.5,2.29c-.25-.08-.63-.01-.65-.56,.06-.04,.18-.19,.28-.18,.27,.04,.63,.05,.6,.47,0,.1-.18,.29-.23,.27Zm.86-.76s-.05,0-.07,0v-3.04s.05,0,.07,0v3.05Zm5.21,3.29s-.02,0-.02,0v-1.92s.02-.01,.02-.02v1.94Zm36.76-8.29s0-.05,0-.08c2.35-.17,4.71-.34,7.06-.52,0,.04,0,.07,0,.11-2.35,.16-4.71,.32-7.06,.48Zm-1.34,.3h2.53s0,.04,0,.06h-2.54s0-.04,.01-.06Zm3.54-10.53v-2.9s0,0,.01,0v2.9s0,0-.01,0Zm.26,7.64c.04-.27,.09-.48,.09-.69,.09-4.8,.18-9.6,.25-14.4,0-.45,.09-.63,.58-.62,1.16,.03,2.33,0,3.5-.01,.64,0,.65,0,.64,.64-.04,2.86-.08,5.72-.11,8.58,0,.46,0,.91,0,1.4-.64,.13-1.07,.57-1.38,1.16-.61,1.14-1.23,2.26-1.85,3.4-.07,.12-.12,.26-.17,.39,.04,.03,.08,.06,.13,.08,.11-.13,.23-.24,.31-.38,.63-1.13,1.24-2.26,1.86-3.39,.23-.43,.51-.81,1.11-.94-.07,1.46-.14,2.88-.21,4.3-.01,.22-.04,.49,.28,.46,.1-.01,.25-.27,.26-.42,.06-1.09,.09-2.17,.12-3.26,.01-.45-.03-.9-.02-1.34,0-.19,.09-.38,.1-.56,.07-2.27,.14-4.53,.2-6.8,.04,0,.07,0,.11,0-.1,4.15-.2,8.31-.3,12.41h-5.49Zm6.49-16.07c0,1.83,0,3.67,0,5.5h-.12v-6.06h-.1c-.12,5.59-.24,11.18-.37,16.78-.08,0-.17,0-.25,0,.3-5.6,.37-11.2,.36-16.8-.07,0-.13,0-.2,0-.02,.31-.04,.62-.06,.94h-.08v-.91c-.72,0-1.38,.01-2.05,0-1.23-.03-2.45-.07-3.68-.12-.32-.01-.41,.12-.4,.41,.02,.36,.02,.71,.02,1.07-.05,3.79-.1,7.58-.16,11.37-.02,1.27-.07,2.54-.11,3.8-2.13,.08-4.22,.17-6.27,.25,.05-1.54,.1-3.08,.15-4.61,.19,.29,.23,.55,.2,.91-.11,1.18-.04,2.38-.04,3.59,.58,.07,.58,.07,.61-.61,.02-.62,.06-1.24,.08-1.86,.25,.43,.43,.86,.61,1.29q.42,1.02,.73,1.1c-.19-.48-.39-.91-.54-1.36-.33-1.02-1.14-1.94-.74-3.13,.03-3.47,.06-6.93,.09-10.4,0-.21,0-.43,0-.75,1.34,0,2.63,0,3.91,.01,.1,0,.24,.19,.3,.31,.05,.12,.02,.28,.02,.41-.09,4.75-.17,9.51-.26,14.26,0,.22-.1,.52,.25,.53,.07,0,.22-.32,.23-.51,.09-1.69,.18-3.38,.22-5.07,.05-2.2,.05-4.41,.07-6.62,0-.74,0-1.47,0-2.21,.06,0,.13,0,.19,0-.09,4.78-.19,9.56-.28,14.34,.12-.07,.14-.14,.14-.21,.11-5.31,.21-10.63,.31-15.94,0-.16-.14-.33-.18-.43h7.55c-.05,.27-.13,.48-.13,.69Zm-12.84,10.31v1.58c-.15-.4-.3-.74-.39-1.09-.09-.38,.08-.53,.39-.49Zm4.73-10.79c-.44,.04-.89,0-1.33,0,0-.01,0-.03,0-.04h1.95v.8s-.02,0-.03,0c0-.06-.03-.12-.02-.18,.09-.47-.09-.64-.58-.6Zm9.14-2.72c0,.45-.15,.59-.6,.57-2.05-.06-4.1-.1-6.15-.14-5.62-.11-11.25-.21-16.87-.3-.38,0-.53-.11-.51-.51,.04-1.2,.07-2.39,.08-3.59,0-.31,.11-.41,.41-.39,.84,.04,1.68,.07,2.51,.1,3.03,.11,6.05,.22,9.08,.33,0,0,0,0,0,0,3.85,.14,7.7,.28,11.55,.4,.44,.01,.61,.13,.59,.59-.05,.98-.09,1.96-.09,2.93Zm-20.59-8.14c.01-.11,.09-.28,.15-.29,.34-.03,.68-.01,1.04-.01-.12,.31-.19,.5-.23,.61,0-.08-.02-.25-.04-.4q-.82-.14-.93,.69c0-.2-.02-.4,0-.6Zm1.4,1.8s0,.06,0,.09h-1.68s0-.06,0-.09h1.67Zm-1.55-2.14c-.16,.18-.22,.25-.24,.27-.54-.29-1.13-.14-1.66-.36,.6,.03,1.2,.06,1.9,.09Zm-.68,2.05s0,.07,0,.1h-1.64s0-.07,0-.1h1.65Zm-1.72-2.01h-1c.09-.26,.54-.3,1,0Zm-1.4-.19s-.01,.07-.02,.11h-.72c.02-.08,.05-.14,.09-.15,.2-.05,.43,.02,.65,.04Zm-.79,.43c0-.09,.02-.21,.05-.31,0,.5,0,.96,0,1.43-.01,.62,.11,.75,.69,.56,.17-.06,.26-.38,.39-.58-.05,.17-.05,.46,.09,.57,.12,.09,.39-.02,.62-.04,0,0,.02,.07,.05,.16h-1.9c0-.63-.01-1.21,0-1.79Zm-.24,2.71c8.81,.35,17.62,.71,26.43,1.06,0,.04,0,.09,0,.13-8.81-.35-17.62-.71-26.43-1.06,0-.04,0-.09,0-.13Zm16.29,7.9c-1.44,.05-2.89,.05-4.33,.05-.6,0-.61,0-.59,.63,.04,1.35,.11,2.69,.13,4.04,.02,1.97,0,3.94,0,5.92,.08,.02,.17,.05,.32,.1-.24,.08-.41,.14-.61,.21,.02-.18,.04-.31,.05-.45,.02-3.33,.04-6.65,.06-9.98,0-.08,.02-.17-.02-.23-.06-.09-.15-.16-.23-.24-.07,.08-.17,.15-.21,.25-.03,.08,0,.18,0,.28-.02,3.96-.05,7.93-.06,11.89,0,.39-.12,.52-.52,.47-.78-.11-1.57-.18-2.36-.26-.16-.02-.33,0-.49,0l-.13,.12c-.27-1.03-.57-2.05-.82-3.08-.16-.71-.13-.72-.87-.69-.71,.02-1.43,.06-2.14,.07-1.4,.02-1.4,.02-1.43,1.4-.07-.26-.15-.52-.18-.79-.04-.45-.24-.58-.7-.56-.96,.04-1.92,.01-2.83,.01,.44-.17,1.04,.2,1.5-.26,.22,.33,.63,.27,.96,.15,.13-.05,.21-.41,.21-.63,0-2.52-.02-5.03-.04-7.55,0-1.14,0-.86-.94-.91-.32-.02-.4,.12-.39,.41,.02,.59,0,1.18,.04,1.77,.02,.34-.08,.47-.44,.46-1.05-.02-2.1,0-3.19,0,0-.67,0-1.32,0-1.97,0-.67,0-.67-.68-.66-.38,0-.75,0-1.13,0,0-.04,0-.07,0-.11,7.36,.05,14.72,.11,22.07,.16Zm-7.59,16.57c.09-.32,.17-.66,.6-.65,.43,.01,.51,.36,.62,.69,.05,.18,.18,.34,.25,.48-.47-.05-1.06-.12-1.61-.18,.05-.12,.11-.23,.14-.34Zm-.87-2.77s-.08-.17-.15-.32c.73,.11,1.42,.21,2.12,.31-.64,.1-1.28-.24-1.97,0Zm-5.52,2.44c-.56-.07-1.12-.13-1.68-.2,0-.02,0-.04-.01-.06,.57-.06,1.15-.12,1.72-.18,0,.02,0,.04,0,.06-.2,.03-.4,.05-.59,.08,0,.05,0,.1,.01,.15,.4-.1,.79,.38,1.21,0,.19,.07,.42,.16,.67,.25v-.57s.05,0,.08,0c.02,.21,.03,.41,.05,.65h-1.79c.11-.03,.21-.06,.32-.09,0-.04,0-.07,0-.11Zm-4.74-.65c.03-.19,.05-.31,.06-.4,.27,.27-.2,.91,.54,1.01-.16,.09-.3,.17-.36,.21-.12-.28-.18-.7-.36-.76-.31-.11-.69,0-1.09,.04,0-.02-.04-.17-.04-.2,.42,.03,.83,.07,1.25,.1Zm-1.54-6.96v-4.97c1.13,0,2.2,0,3.27,.01,.12,0,.35,.18,.35,.28,.02,1.53,.02,3.06,.02,4.68h-3.64Zm2.79,12.99s.03,.02,.05,.03h-2.09s0-.02,0-.03h2.04Zm-3.03-18.41v3.43s-.02-.02-.02-.02v-3.41s.02,0,.02,0Zm-.22-11.83c-.61,.06-1.07,.31-1.32,.88,.05-.2,.11-.4,.17-.63h-.66s0-.02,0-.04c.61-.07,1.21-.15,1.82-.22Zm-16.13,3.19c.72-.08,1.44-.14,2.16-.21-1.15,.2-2.3,.33-3.45,.45-1.91,.2-3.83,.4-5.74,.6,.11-.05,.22-.11,.33-.12,2.23-.25,4.47-.49,6.7-.73Zm1.27,2.89c-.13,.18-4.75,.59-6.51,.51,.19-.84,.37-1.65,.57-2.51,.71-.07,1.46-.15,2.21-.23,1.33-.14,2.65-.27,3.98-.4,.12-.01,.25,.05,.38,.08-.03,.09-.06,.18-.06,.18-.17-.04-.29-.1-.41-.09-1.9,.18-3.8,.37-5.7,.57-.1,0-.25,.06-.27,.13-.24,.7-.47,1.4-.44,2.18,2.14-.14,4.23-.28,6.24-.42Zm-9.85-1.16c.23-.89,.33-.94,1.24-.92,.08,0,.16,.03,.24,.05-.15,.02-.29,.05-.44,.04-.49-.02-.78,.17-.88,.67-.09,.45-.22,.9-.31,1.35-.06,.3-.11,.6-.16,.91-.05,0-.09-.02-.14-.03,.15-.69,.27-1.38,.45-2.06Zm-14.12-1.29s0,0,0,0c.22,.02,.44,.08,.65,.06,.52-.05,1.03-.14,1.57-.21-.08,.48-.15,.57-.49,.61-.55,.07-1.11,.13-1.66,.2-.15,.02-.3,.06-.45,.1,0,.04,.02,.09,.03,.13,.61-.08,1.21-.16,1.82-.23,.25-.03,.5-.05,.42,.34-.88,.11-1.75,.21-2.64,.32,.19-.4,.36-.78,.58-1.24h-4.8s0-.09,0-.14c1.66-.1,3.32,0,4.98,.07Zm-5.37,.99s.03,0,.05,0v.69h1.21s0,.04,0,.07c-.44,.05-.88,.1-1.32,.14,.03-.34,.05-.62,.07-.9Zm-.41,.84s0,.06,0,.09c-.68,.09-1.37,.18-2.05,.26,0-.03,0-.07-.01-.1l2.07-.25Zm-2.91,12.03v-7.98c.07,2.66,.07,5.32,.07,7.98,0,0-.08,0-.07,0Zm.3,.11c-.18-2.62-.1-5.24-.11-7.9,.11,.05,.23,.08,.23,.11,0,2.6,0,5.19,0,7.79-.05,0-.09,0-.14,0Zm.53-5.71s-.03,0-.04,0v-2.09s.03,0,.04,0v2.09Zm.09,3.45s-.02,0-.03,0v-2.23s.02,0,.03,0v2.23Zm2.3-1.12c0,1.27,0,2.54,0,3.81-.11-.02-.26-.05-.44-.08,.15-.03,.26-.05,.35-.07,0-.52,0-1.02,0-1.51,0-2-.02-4.01-.02-6.01,0-.61,0-.61-.62-.58-.23,0-.46,0-.68,0q1.38-.3,1.36-.54c-.18,0-.36,0-.54,0-.73,.03-1.46,.06-2.19,.08-.08,0-.17-.07-.25-.1,.02-.03,.04-.07,.07-.1,.13,.02,.26,.07,.38,.07,.71-.02,1.43-.03,2.14-.1,.4-.04,.51,.08,.5,.48-.03,1.55-.03,3.1-.04,4.66Zm.23,2.94s-.03,0-.04,0v-3.3s.03,0,.04,0v3.3Zm-.05-5.63v-2.26s.03,0,.04,0v2.26s-.03,0-.04,0Zm3.98,4.69c0,.8,0,1.61,0,2.42h-.34c.05-.1,.15-.2,.15-.31,.04-.91,.08-1.81,.09-2.72,0-.11-.15-.31-.25-.32-.38-.04-.78-.04-1.16,0-.15,.02-.29,.18-.41,.27,.02-.07,.06-.2,.09-.33,.12,0,.21,0,.3,0,.68,0,.7-.02,.68-.71-.03-1.52-.06-3.04-.09-4.56-.02-.89-.01-.89-.9-.98,.39,0,.77,0,1.16,0q.67,0,.67,.69c0,2.19,0,4.37,0,6.56Zm4.84,3.24s0-.02,0-.03c.13-.02,.25-.03,.37-.05v-.95h-.46c.16-.09,.32-.18,.48-.27-.11-.08-.22-.17-.24-.18,.07-.12,.22-.26,.23-.39,.03-.62,.02-1.24,.01-1.86,0-.33-.14-.54-.52-.53-.43,.02-.87,.01-1.31,.01-.44,0-.87,0-1.31,0,0,.03,0,.06,0,.1,.11,.04,.21,.08,.36,.14-.49,0-.94,.02-1.39,0-.42-.03-.53,.13-.51,.53,.03,.8,0,1.6,0,2.41-.1-1.96-.1-3.91-.11-5.87,0-.39,.15-.5,.53-.49,1.29,.05,2.58,.08,3.87,.09,.38,0,.48,.16,.48,.51,0,1.89,.02,3.79,.03,5.68,0,.38,0,.76,0,1.15h-.5Zm-4.38-10.18h4.77c.01-.12,.03-.26,.04-.39,.01,0,.03,0,.04,0,0,.65,0,1.3,0,1.94,0,.26-.12,.36-.37,.35-1.36-.01-2.73-.01-4.09-.01-.27,0-.4-.09-.39-.38,.01-.53,0-1.05,0-1.51Zm8.03-1.34c-2.68,.14-5.37,.3-8.05,.44-2.11,.12-4.22,.24-6.33,.34-.54,.03-1.07,0-1.61,0,.39-.02,.77-.03,1.16-.05,3.1-.17,6.2-.36,9.3-.52,4.12-.22,8.25-.44,12.37-.66,3.52-.19,7.04-.37,10.55-.56,3.5-.19,7.01-.37,10.51-.56,1.09-.06,1.06-.07,1.2-1.14,.09-.65,.29-1.29,.44-1.94-.14,.94-.27,1.89-.44,2.83-.02,.12-.23,.3-.36,.31-2.84,.17-5.68,.32-8.51,.47-2.09,.11-4.19,.2-6.28,.31-2.64,.14-5.27,.3-7.91,.44-2.02,.11-4.03,.19-6.05,.3Zm16.84,.48s-.01,.02-.02,.03h-1.83s0-.02,0-.03h1.85Zm-2.54,.1v.03h-2.04s0-.02,0-.03h2.03Zm-8.21,.28s0,.02,0,.03h-2.14s0-.02,0-.03h2.14Zm-3.48,11.45c0-.85,0-1.66,0-2.49,.13,.22,.22,.37,.28,.48-.48,.53-.05,1.26-.28,2Zm2.45,.6c.43-.12,.78-.21,1.15-.31-.18,.27-.09,.47,.28,.54-.45-.07-.9-.14-1.43-.22Zm3.78-1.78c0,.71,0,1.42,0,2.13-.09-.51-.09-1.02-.09-1.54,0-.8,0-1.6,0-2.4,0-.56,.02-1.12-.02-1.68-.01-.14-.21-.32-.35-.37-.22-.07-.36,.04-.38,.32-.02,.35-.09,.7-.15,1.18-.09-.43-.19-.73-.2-1.03,0-.98,.04-1.95,.05-2.93,0-.08-.05-.16-.08-.25-.03,0-.06,.01-.09,.02v2.75c-.9,0-1.77,.02-2.64,0-.37-.01-.52,.14-.53,.47,0,.77-.05,1.55,.01,2.32,.07,.9,.22,1.8,.34,2.73-.23-.04-.48-.09-.74-.14,.16-.02,.31-.03,.5-.05-.15-.59-.32-1.14-.41-1.7-.07-.45-.22-.74-.72-.7v-.51h-.73c0-1.65,0-3.28,0-4.89,0-.42,.13-.53,.54-.51,1.72,.06,3.45,.09,5.17,.1,.43,0,.56,.14,.56,.56-.02,2.04-.02,4.07-.02,6.11Zm-.32-7.85c-1.85-.01-3.7,0-5.54-.03-.11,0-.32-.2-.32-.31-.01-.7,0-1.4,.05-2.09,0-.11,.18-.3,.29-.31,.57-.02,1.14-.02,1.71-.02-.48,.02-.97,.04-1.49,.07,.06,.16,.11,.22,.09,.27-.19,.61,.25,.51,.58,.5,.9-.02,1.79-.07,2.69-.09,.76-.02,.76,0,.79,.77,.01,.29,.03,.59,.06,.88,0,.08,.06,.16,.1,.24,.08-.32,.09-.61,.08-.9-.04-.94-.04-.95,.92-1.03,.29-.02,.39-.11,.28-.42h-2.09c.72-.15,1.48,.07,2.16-.16,0,.68,0,1.47,0,2.26,0,.25-.1,.36-.36,.36Zm9.21,8.15s-.08,0-.12,0v-1.72c-.57,0-1.1-.01-1.62,.01-.09,0-.21,.16-.24,.27-.11,.41-.19,.84-.28,1.26-.13-.37-.21-.72-.25-1.09-.03-.28-.15-.42-.44-.41-1.35,.03-2.69,.05-4.03,.07-.08,.22-.13,.37-.15,.44-.12-.04-.23-.13-.33-.11-.09,.02-.18,.13-.22,.23-.07,.19-.14,.4-.16,.61-.03,.45-.16,.97,.02,1.33,.19,.37,.01,.56-.09,.83v-5.5c.04,.54,.03,1.09,.05,1.63,0,.14,.11,.3,.21,.4,.13,.12,.31,.18,.36,.21,.42-.11,.79-.21,1.18-.31-.12-.46-.26-.92-.37-1.38-.25-1.02-.25-1.02-1.31-.9-.02,0-.05-.02-.02,0v-6.13c.82,0,1.55,.01,2.27,0,.71-.02,.72-.03,.73,.65,.06,2.42,.12,4.84,.18,7.26,0,.17,.02,.33,.02,.5h.63c0-.17,.02-.31,.02-.45-.03-1.55-.05-3.11-.09-4.66,0-.35,.1-.46,.45-.45,1.07,.04,2.14,.05,3.21,.05,.14,0,.29-.11,.37-.14v7.51Zm.11-8.13c-.26-.03-.44-.06-.62-.06-1.02,0-2.05-.02-3.07,0-.33,0-.49-.09-.48-.45,0-.39,0-.78-.05-1.16-.06-.43,.11-.53,.51-.53,1.1,0,2.21-.05,3.31-.07,.27,0,.42-.08,.39-.37-.01-.15,0-.3,0-.46,0,0,.02,0,.03,0v3.11Zm.42,5.79s-.02-.01-.03-.02v-3.63s.02,0,.03,0v3.65Zm.06-4.23s-.02,0-.04,0v-2.39s.02,0,.04,0v2.39Zm.51,10.25c-.36,0-.48-.19-.47-.53,.07-4.43,.13-8.85,.19-13.28,0-.33,.13-.46,.36-.4,0,.53,.04,1.03-.01,1.52-.05,.5-.2,.98-.25,1.48-.01,.15,.25,.32,.25,.48,0,1.89-.03,3.79-.06,5.68,0,.09-.04,.24-.07,.24-.39,.05-.25,.34-.25,.54-.01,1.07-.01,2.14,0,3.22,0,1.05-.08,.86,.91,1.05,0,0,.01,.03,.04,.09-.23-.04-.42-.1-.62-.1Zm3.21-14.21h-2.43s0-.02,0-.03h2.44s-.01,.02-.02,.03Zm-3.48-.87v-.13c.18-.02,.37-.06,.57-.07,3.2-.13,6.4-.26,9.59-.39,.79-.03,.83-.06,1.11-.79,.24-.62,.47-1.25,.77-1.84,.39-.76,.84-1.49,1.26-2.24,.04,.02,.09,.04,.13,.06-1.15,2.12-2.55,4.14-2.38,6.78h-1.66c.37-.04,.74-.02,1.11-.05,.12,0,.33-.13,.34-.21,.03-.52,.02-1.04,.02-1.57-3.64,.15-7.25,.3-10.86,.45Zm9.85,16.54h-.54c.23-.05,.35-.07,.45-.09v-1.62h-1.39s-.02-.03-.03-.05c.25-.02,.5-.06,.75-.07,.86-.02,.71-.05,.72-.76,0-.29,0-.59,0-.88,.01,0,.03,0,.04,0v3.47Zm.01-7.16s-.02,0-.04,0v-3.49s.02,0,.04,.01v3.48Zm.23-6.15c.12-.35-.13-.44-.48-.46h1.87c.06,.24,.1,.44,.13,.56-.4-.03-.94-.06-1.53-.1Zm.05,24.82c.03-.21,.08-.38,.08-.54,0-1.11,0-2.22,0-3.33,.04,0,.08,0,.13,0,0,1.81,0,3.62,0,5.44,0,.15,.02,.3,.04,.45-.06-.37-.12-.75-.17-1.12-.04-.32-.06-.65-.08-.89Zm.24,4.05c-.01-.59,.02-1.18,.03-1.77,.05,1.31,.09,2.63,.14,3.94-.09-.72-.15-1.45-.17-2.17Zm.5-21.69c-.13,3.96-.24,7.91-.05,11.85-.28-.56-.3-1.19-.3-1.83,.02-3.22,.04-6.43,.05-9.65,0-.16-.1-.31-.15-.44h2.24c-.36,.05-.71,.06-1.07,.04-.32-.02-.46,.08-.44,.42,.02,.38,0,.77,0,1.19-.15-.54,.1-1.11-.29-1.58Zm.21,4.63c0,1.34,0,2.67,0,4.01,0,0,0,0-.01,0v-4.52h1.98s0,.04,0,.06c-.54,.03-1.08,.07-1.62,.09-.25,0-.36,.1-.36,.36Zm9.23,8.95c-.13,.13-.4,.25-.54,.19-.15-.06-.26-.32-.29-.51-.01-.09,.21-.22,.34-.31,.15-.1,.32-.16,.48-.24-.01-.05-.03-.09-.04-.14-2.95,.21-5.91,.66-8.82-.24,.15-.02,.3,0,.45,.03,1.41,.33,2.84,.5,4.3,.41,1.21-.08,2.41-.26,3.62-.26,.82,0,1.14-.51,1.59-1.02-.11-.04-.17-.05-.16-.05,.94-.33,1.3-1.39,2.21-1.89-.17-.05-.25-.07-.42-.12,2.57-.5,5.11-.55,7.64-.62-.31,.01-.62,.02-.93,.04-1.1,.07-2.2,.19-3.29,.27-2.75,.21-2.44-.04-4.39,2-.62,.65-1.24,1.29-1.93,2.02,.52,.07,.29,.33,.18,.44Zm.81-1.04c.18-.17,.45-.42,.7-.65-.08,.12-.17,.26-.3,.45,1.28-.08,2.48-.16,3.68-.24,0,.02,0,.04,0,.07-1.39,.13-2.78,.26-4.08,.38Zm5.1,8.84s0-.06,0-.08c1.73-.17,3.47-.34,5.2-.51,0,.03,.02,.07,.03,.1-1.74,.16-3.48,.33-5.22,.49Zm7.8-.83v-.09c1.19-.17,2.39-.34,3.59-.52,0,.03,.01,.06,.02,.09-1.2,.17-2.4,.34-3.61,.51Zm6.35-4.05c-.06,.81-.12,1.62-.19,2.42,0,.04-.09,.07-.13,.11-.04,.05-.09,.09-.13,.14-.22,.1-.44,.27-.67,.3-1.24,.19-2.48,.36-3.73,.5-3.79,.43-7.58,.85-11.37,1.26-.27,.03-.55,0-.64-.34-.05-.06-.12-.11-.13-.17-.05-.76-.12-1.53-.13-2.29,0-.18,.21-.35,.34-.53,.15-.06,.3-.15,.45-.17,2.36-.23,4.72-.45,7.08-.68,1.88-.19,3.76-.41,5.64-.61,1-.11,2-.22,3.01-.31,.29-.03,.57,0,.63,.38v-.02Z"/>
  </g>
  <path d="M91.27,44.11c0,.85,0,1.71,0,2.56,0,.51,.1,.6,.61,.53,.21-.03,.43-.09,.63-.15,.65-.21,.73-.32,.75-.99,.05-1.32,.11-2.64,.15-3.96,.03-.73-.15-.94-.86-1.06-1.07-.18-1.08-.18-1.12,.93-.03,.71,0,1.43,0,2.14-.05,0-.11,0-.16,0Z"/>
  <path d="M90.12,40.44c.78,0,1.55-.02,2.33,0,.64,.02,.46-.44,.5-.77,.06-.41-.2-.45-.52-.44-1.6,.05-3.19,.11-4.79,.14-.37,0-.41,.18-.38,.46,.03,.28-.13,.67,.39,.67,.82,0,1.64,0,2.47,0,0-.03,0-.05,0-.08Z"/>
  <path d="M70.58,51.41c.2-.07,.37-.13,.61-.21-.15-.04-.24-.07-.32-.1,0-1.98,.02-3.95,0-5.92-.02-1.35-.09-2.69-.13-4.04-.02-.63-.02-.63,.59-.63,1.44,0,2.89,0,4.33-.05-7.36-.05-14.72-.11-22.07-.16,0,.04,0,.07,0,.11,.38,0,.75,0,1.13,0,.69,0,.69,0,.68,.66,0,.65,0,1.3,0,1.97,1.09,0,2.14-.01,3.19,0,.36,0,.46-.13,.44-.46-.03-.59-.01-1.18-.04-1.77-.01-.29,.07-.43,.39-.41,.94,.05,.93-.23,.94,.91,.02,2.52,.04,5.03,.04,7.55,0,.22-.08,.59-.21,.63-.33,.12-.74,.18-.96-.15-.46,.46-1.06,.09-1.5,.26,.91,0,1.87,.03,2.83-.01,.46-.02,.66,.11,.7,.56,.02,.27,.1,.53,.18,.79,.03-1.38,.03-1.38,1.43-1.4,.71-.01,1.43-.05,2.14-.07,.74-.02,.71-.01,.87,.69,.24,1.04,.54,2.06,.82,3.08l.13-.12c.16,0,.33-.01,.49,0,.79,.08,1.58,.15,2.36,.26,.4,.05,.52-.08,.52-.47,.01-3.96,.04-7.93,.06-11.89,0-.09-.03-.2,0-.28,.04-.1,.14-.17,.21-.25,.08,.08,.17,.15,.23,.24,.04,.06,.02,.15,.02,.23-.02,3.33-.04,6.65-.06,9.98,0,.14-.03,.28-.05,.45Z" style="fill: #fff;"/>
  <path d="M83.9,46.76c0-1.83,0-3.67,0-5.5,0-.21,.08-.42,.13-.69-2.51,0-5.09,0-7.55,0,.04,.1,.19,.26,.18,.43-.09,5.31-.2,10.63-.31,15.94,0,.07-.03,.14-.14,.21,.09-4.78,.19-9.56,.28-14.34-.06,0-.13,0-.19,0,0,.74,0,1.47,0,2.21-.02,2.21-.02,4.41-.07,6.62-.04,1.69-.13,3.38-.22,5.07,0,.18-.15,.51-.23,.51-.35-.01-.25-.32-.25-.53,.08-4.75,.17-9.51,.26-14.26,0-.14,.03-.3-.02-.41-.06-.13-.19-.31-.3-.31-1.29-.02-2.57-.01-3.91-.01,0,.32,0,.53,0,.75-.03,3.47-.06,6.93-.09,10.4-.4,1.2,.41,2.11,.74,3.13,.15,.45,.35,.88,.54,1.36q-.3-.08-.73-1.1c-.18-.43-.36-.86-.61-1.29-.03,.62-.06,1.24-.08,1.86-.03,.68-.02,.68-.61,.61,0-1.2-.07-2.4,.04-3.59,.03-.36,0-.61-.2-.91-.05,1.54-.1,3.07-.15,4.61,2.05-.08,4.14-.16,6.27-.25,.04-1.26,.09-2.53,.11-3.8,.06-3.79,.11-7.58,.16-11.37,0-.36,0-.72-.02-1.07-.01-.29,.08-.42,.4-.41,1.23,.05,2.45,.09,3.68,.12,.66,.02,1.33,0,2.05,0v.91s.05,0,.08,0c.02-.31,.04-.62,.06-.94,.07,0,.13,0,.2,0,0,5.6-.06,11.2-.36,16.8h.25c.12-5.59,.24-11.18,.37-16.77,.03,0,.07,0,.1,0,0,2.02,0,4.04,0,6.06,.04,0,.08,0,.12,0Z" style="fill: #fff;"/>
  <path d="M83.09,44.91c-.07,2.27-.13,4.53-.2,6.8,0,.19-.1,.38-.1,.56,0,.45,.03,.9,.02,1.34-.03,1.09-.06,2.17-.12,3.26,0,.15-.16,.41-.26,.42-.32,.03-.29-.24-.28-.46,.07-1.42,.14-2.84,.21-4.3-.59,.13-.87,.51-1.11,.94-.62,1.13-1.24,2.26-1.86,3.39-.08,.14-.21,.25-.31,.38-.04-.03-.08-.06-.13-.08,.06-.13,.11-.26,.17-.39,.62-1.13,1.24-2.26,1.85-3.4,.31-.59,.74-1.03,1.38-1.16,0-.48,0-.94,0-1.4,.04-2.86,.08-5.72,.11-8.58,0-.64,0-.64-.64-.64-1.17,0-2.33,.04-3.5,.01-.49-.01-.58,.16-.58,.62-.07,4.8-.16,9.6-.25,14.4,0,.21-.05,.41-.09,.69,1.8,0,3.61,0,5.49,0,.1-4.1,.2-8.26,.3-12.41-.04,0-.07,0-.11,0Z" style="fill: #fff;"/>
  <path d="M81.78,69.38s.09-.09,.13-.14c.11-.85,.22-1.69,.33-2.54v.02c-.56-.52-1.16-.18-1.75-.06,.28-.02,.56-.06,.83-.04,.12,0,.24,.14,.36,.21-.02,.03-.05,.06-.07,.09-.05-.06-.1-.11-.16-.17-.26,.76,.29,1.58-.18,2.41v-2.45c-.26-.02-.52-.04-.78-.05-.23,0-.46-.03-.69,0-.71,.07-1.41,.17-2.12,.24-1.92,.2-3.85,.4-5.77,.59-2.15,.21-4.31,.42-6.46,.63h.01c.18,.04,.37,.1,.53,.15-.72,.05-.75,.08-.72,.83,.01,.4,.05,.8,.05,1.21,0,.42,.1,.72,.69,.6-.27,.08-.46,.14-.64,.2v-.02c.21,.08,.45,.24,.66,.22,2.18-.2,4.35-.4,6.52-.65,2.34-.27,4.67-.57,7.01-.88,.75-.1,1.49-.27,2.23-.4Z"/>
  <path d="M40.92,49.49v1.72h.12c0-2.52,0-5.05,0-7.51-.09,.03-.23,.14-.37,.14-1.07,0-2.14-.02-3.21-.05-.35-.01-.46,.1-.45,.45,.04,1.55,.06,3.11,.09,4.66,0,.14-.01,.27-.02,.45h-.63c0-.17-.02-.34-.02-.5-.06-2.42-.12-4.84-.18-7.26-.02-.69-.03-.67-.73-.65-.73,.02-1.45,0-2.27,0,0,2.03,0,4.07,0,6.13-.03-.01,0,.01,.02,0,1.06-.11,1.06-.11,1.31,.9,.11,.46,.25,.92,.37,1.38-.39,.1-.75,.2-1.18,.31-.05-.03-.23-.09-.36-.21-.11-.1-.21-.26-.21-.4-.02-.54,0-1.08-.05-1.63,0,1.83,0,3.66,0,5.5,.11-.27,.28-.45,.09-.83-.18-.36-.05-.88-.02-1.33,.01-.21,.08-.41,.16-.61,.04-.09,.13-.21,.22-.23,.09-.02,.21,.06,.33,.11,.03-.07,.08-.22,.15-.44,1.33-.02,2.68-.04,4.03-.07,.3,0,.41,.13,.44,.41,.04,.36,.12,.72,.25,1.09,.09-.42,.17-.84,.28-1.26,.03-.11,.15-.27,.24-.27,.52-.03,1.05-.01,1.62-.01Z" style="fill: #fff;"/>
  <path d="M28.2,47.11c-.37-.01-.52,.14-.53,.47,0,.77-.05,1.55,.01,2.32,.07,.9,.22,1.8,.34,2.73-.23-.04-.48-.09-.74-.14,.16-.01,.31-.03,.5-.05-.15-.59-.32-1.14-.41-1.7-.07-.46-.22-.75-.74-.7-.01,0-.03-.04,.02,.04v-.55h-.77c.15,.26,.25,.42,.31,.54-.48,.53-.05,1.26-.28,2,0-2.57,0-5.01,0-7.44,0-.42,.13-.53,.54-.51,1.72,.06,3.45,.09,5.17,.1,.43,0,.56,.14,.56,.56-.02,2.04-.02,4.07-.02,6.11,0,.71,0,1.42,0,2.13-.09-.51-.09-1.02-.09-1.54,0-.8,0-1.6,0-2.4,0-.56,.02-1.12-.02-1.68-.01-.14-.21-.32-.35-.37-.22-.07-.36,.04-.38,.32-.02,.35-.09,.7-.15,1.18-.09-.43-.19-.73-.2-1.03,0-.98,.04-1.95,.05-2.93,0-.08-.05-.16-.08-.25-.03,0-.06,.01-.09,.02,0,.89,0,1.78,0,2.75-.9,0-1.77,.02-2.64,0Zm-1.49,.4s.04,0,.07,0c0-1.07,0-2.13,0-3.2-.02,.01-.04,.02-.07,.04,0,1.05,0,2.11,0,3.16Zm1.95-.57s.06,0,.09,0c0-.86,0-1.71,0-2.57-.03,0-.06,0-.09,0,0,.86,0,1.72,0,2.57Z" style="fill: #fff;"/>
  <path d="M55.41,49.09h3.64c0-1.62,0-3.15-.02-4.68,0-.1-.23-.28-.35-.28-1.07-.02-2.14-.01-3.27-.01,0,1.66,0,3.36,0,4.97Z" style="fill: #fff;"/>
  <path d="M19.8,49.83s.12,.09,.24,.18c-.16,.09-.33,.18-.48,.27h.46v.95c-.12,.02-.24,.03-.37,.05v.03h.51c0-.39,0-.77,0-1.15-.01-1.89-.03-3.79-.03-5.68,0-.34-.1-.5-.48-.51-1.29-.01-2.58-.04-3.87-.09-.38-.01-.53,.1-.53,.49,.01,1.96,0,3.91,.11,5.87,0-.8,.02-1.61,0-2.41-.02-.41,.09-.56,.51-.53,.45,.03,.9,0,1.39,0-.15-.06-.25-.1-.36-.14,0-.03,0-.06,0-.1,.44,0,.87,0,1.31,0,.44,0,.87,0,1.31-.01,.38-.02,.52,.2,.52,.53,0,.62,.02,1.24-.01,1.86,0,.14-.15,.27-.23,.39Z" style="fill: #fff;"/>
  <path d="M24.4,50.04c.43,.08,.86,.03,.99,.21,.16,.22,.06,.63,.07,.95,0,.29,0,.58,.1,.89,.03-.27,.1-.53,.1-.8,0-3.38,0-6.77,0-10.1-1.04,0-2.13,0-3.21,0,0,.05,0,.1,0,.15h1.59c.02,.25,.06,.56,.07,.86,.07,2.02,.14,4.04,.18,6.05,0,.41,.15,.54,.53,.56,.22,.01,.58-.13,.59,.29,0,.03-.4,.09-.62,.09-.34,0-.71,.02-.83-.44,.07,.29,.13,.57,.21,.89-1.03,.05-2.01,.09-2.99,.13,1.07,0,2.14,0,3.25,0-.08-.16-.14-.28-.23-.46,.39,.04,.71,.04,1.02,.11,.11,.02,.25,.21,.25,.31,0,.11-.17,.26-.28,.28-.21,.05-.43,.01-.78,.01Z" style="fill: #fff;"/>
  <path d="M41.15,43.08c0-1.04,0-2.07,0-3.11,0,0-.02,0-.03,0,0,.15-.01,.31,0,.46,.03,.3-.12,.37-.39,.37-1.1,.02-2.21,.07-3.31,.07-.4,0-.57,.11-.51,.53,.05,.38,.06,.78,.05,1.16,0,.36,.16,.45,.48,.45,1.02-.01,2.05,0,3.07,0,.18,0,.36,.03,.62,.06Z" style="fill: #fff;"/>
  <path d="M20.08,40.73c-.01,.13-.03,.27-.04,.39h-4.77c0,.46,0,.99,0,1.51,0,.29,.13,.38,.39,.38,1.36,0,2.73,0,4.09,.01,.25,0,.37-.1,.37-.35,0-.65,0-1.3,0-1.94-.01,0-.03,0-.04,0Z" style="fill: #fff;"/>
  <path d="M32.2,42.7c0,.25-.1,.36-.36,.36-1.85-.01-3.7,0-5.54-.03-.11,0-.32-.2-.32-.31-.01-.7,0-1.4,.05-2.09,0-.11,.18-.3,.29-.31,.67-.03,1.33-.01,2-.01,0,0,0,0,0-.01-.58,.03-1.15,.05-1.78,.08,.06,.16,.11,.22,.09,.27-.19,.62,.25,.51,.58,.5,.9-.02,1.79-.07,2.69-.09,.76-.02,.76,0,.79,.77,.01,.29,.03,.59,.06,.88,0,.08,.06,.16,.1,.24,.08-.32,.09-.61,.08-.9-.04-.94-.04-.95,.92-1.03,.29-.02,.39-.11,.28-.42h-2.09c.72-.15,1.48,.07,2.16-.16,0,.68,0,1.47,0,2.26Zm-1.85-.79c0-.15-.21-.33,.09-.41-.1-.08-.19-.23-.29-.23-.66-.01-1.32,0-1.98,.02-.54,.02-1.08,.05-1.69,.08,.03,.51,.06,1.01,.09,1.56,.08-.07,.13-.09,.13-.12,.04-.22,.04-.61,.12-.62,.39-.07,.8-.09,1.19-.02,.1,.02,.15,.39,.2,.54,.16,.06,.31,.11,.47,.17,.21-.17-.3-.75,.35-.77,.31,0,.62-.02,.93,0,.49,.03,.12,.55,.39,.72,0-.31,0-.61,0-.92Z" style="fill: #fff;"/>
  <path d="M72.89,34.13c3.85,.14,7.7,.28,11.55,.4,.44,.01,.61,.13,.59,.59-.05,.98-.09,1.96-.09,2.93,0,.45-.15,.59-.6,.57-2.05-.06-4.1-.1-6.15-.14-5.62-.11-11.25-.21-16.87-.3-.38,0-.53-.11-.51-.51,.04-1.2,.07-2.39,.08-3.59,0-.31,.11-.41,.41-.39,.84,.04,1.68,.07,2.51,.1,3.03,.11,6.05,.22,9.08,.33,0,0,0,0,0,0Zm-11.95,3.53c0,.4,.23,.4,.51,.4,2.42,.04,4.85,.08,7.27,.12,5.11,.09,10.22,.19,15.34,.28,.68,.01,.67,0,.68-.66,.02-.89,.02-1.77,.06-2.66,.01-.34-.09-.47-.44-.48-1.94-.06-3.88-.14-5.82-.21-5.7-.2-11.4-.41-17.1-.61-.13,0-.27,0-.5,0,0,1.32,.01,2.56,0,3.8Z" style="fill: #fff;"/>
  <path d="M12.98,40.81c.88,.09,.88,.09,.9,.98,.03,1.52,.06,3.04,.09,4.56,.01,.69,0,.7-.68,.71-.09,0-.18,0-.3,0-.04,.13-.07,.26-.09,.33,.12-.08,.26-.25,.41-.27,.38-.04,.78-.04,1.16,0,.1,0,.25,.21,.25,.32,0,.91-.04,1.82-.09,2.72,0,.11-.1,.21-.15,.31h.34c0-.81,0-1.62,0-2.42,0-2.19,0-4.37,0-6.56q0-.69-.67-.69c-.39,0-.77,0-1.16,0Z" style="fill: #fff;"/>
  <path d="M7.2,40.56c.58,0,1.15,.04,1.73,.01,2.11-.1,4.22-.22,6.33-.34,2.68-.15,5.36-.3,8.05-.44,2.02-.11,4.03-.19,6.05-.3,2.64-.14,5.27-.3,7.91-.44,2.09-.11,4.19-.2,6.28-.31,2.84-.15,5.68-.3,8.51-.47,.13,0,.34-.18,.36-.31,.17-.98,.31-1.96,.46-2.94h0c-.16,.69-.38,1.36-.47,2.04-.15,1.07-.11,1.08-1.2,1.14-3.5,.19-7.01,.37-10.51,.56-3.52,.19-7.04,.37-10.55,.56-4.12,.22-8.25,.43-12.37,.66-3.1,.17-6.2,.35-9.3,.52-.42,.02-.84,.04-1.27,.06,0,0,0,0,0,0Z" style="fill: #fff;"/>
  <path d="M42.21,40.68c-.23-.06-.35,.07-.36,.4-.06,4.43-.12,8.85-.19,13.28,0,.35,.11,.52,.47,.53,.2,0,.39,.06,.62,.1-.02-.06-.03-.09-.04-.09-.99-.18-.9,0-.91-1.05,0-1.07,0-2.14,0-3.22,0-.2-.13-.5,.25-.54,.03,0,.07-.16,.07-.24,.03-1.89,.05-3.79,.06-5.68,0-.16-.26-.33-.25-.48,.05-.5,.2-.98,.25-1.48,.05-.49,.01-1,.01-1.52Z" style="fill: #fff;"/>
  <path d="M74.41,58.97c-3.15,.14-6.31,.07-9.52,.69,.17,.05,.25,.07,.42,.12-.91,.51-1.27,1.56-2.21,1.89-.01,0,.05,.01,.16,.05-.45,.5-.77,1.02-1.59,1.02-1.21,0-2.41,.18-3.62,.26-1.45,.09-2.88-.08-4.3-.41-.15-.03-.3-.05-.45-.03,2.91,.91,5.87,.45,8.82,.24,.01,.05,.03,.09,.04,.14-.16,.08-.33,.15-.48,.24-.13,.09-.36,.22-.34,.31,.03,.19,.14,.45,.29,.51,.14,.06,.41-.07,.54-.19,.12-.11,.34-.37-.18-.44,.69-.73,1.31-1.37,1.93-2.02,1.95-2.04,1.64-1.79,4.39-2,1.1-.08,2.19-.2,3.29-.27,.93-.06,1.87-.07,2.81-.1Z" style="fill: #fff;"/>
  <path d="M85.8,33.62c-8.81-.35-17.62-.71-26.43-1.06,0,.04,0,.09,0,.13,8.81,.35,17.62,.71,26.43,1.06,0-.04,0-.09,0-.13Z" style="fill: #fff;"/>
  <path d="M41.86,39.8c3.61-.15,7.23-.3,10.86-.45,0,.53,.01,1.06-.02,1.57,0,.08-.21,.2-.34,.21-.37,.03-.74,.01-1.11,.05,.56,0,1.11,0,1.66,0-.17-2.64,1.23-4.66,2.38-6.78-.04-.02-.09-.04-.13-.06-.42,.74-.88,1.47-1.26,2.24-.3,.59-.54,1.22-.77,1.84-.28,.73-.32,.76-1.11,.79-3.2,.12-6.4,.26-9.59,.39-.19,0-.39,.04-.58,.07,0,.04,0,.09,.01,.13Z" style="fill: #fff;"/>
  <path d="M16.12,35.48c-1.66-.07-3.32-.17-4.98-.07,0,.05,0,.09,0,.14,1.57,0,3.14,0,4.8,0-.22,.47-.39,.84-.58,1.24,.89-.11,1.77-.21,2.64-.32,.08-.39-.17-.37-.42-.34-.61,.08-1.21,.16-1.82,.23,0-.04-.02-.09-.03-.13,.15-.03,.3-.08,.45-.1,.55-.07,1.11-.13,1.66-.2,.34-.04,.41-.14,.49-.61-.53,.07-1.05,.16-1.57,.21-.22,.02-.45-.04-.67-.06,0,0,.01,0,.01,0Z" style="fill: #fff;"/>
  <path d="M52.73,50.22c.39,.48,.15,1.04,.29,1.58,0-.42,.02-.81,0-1.19-.02-.33,.12-.44,.44-.42,.35,.02,.71,0,1.07-.04h-2.24c.05,.13,.15,.29,.15,.44,0,3.22-.03,6.43-.05,9.65,0,.63,.02,1.26,.3,1.83-.19-3.94-.09-7.89,.05-11.85Z" style="fill: #fff;"/>
  <path d="M33.57,38.44c1.76,.08,6.38-.33,6.51-.51-2.02,.13-4.1,.27-6.24,.42-.03-.78,.2-1.49,.44-2.18,.02-.07,.17-.12,.27-.13,1.9-.2,3.8-.39,5.7-.57,.12-.01,.24,.05,.41,.09,0,0,.03-.09,.06-.18-.13-.03-.25-.09-.38-.08-1.33,.13-2.66,.26-3.98,.4-.75,.08-1.51,.15-2.21,.23-.19,.86-.38,1.67-.57,2.51Z" style="fill: #fff;"/>
  <path d="M65.44,68.13c2.15-.21,4.31-.41,6.46-.63,1.93-.19,3.85-.39,5.77-.59,.71-.07,1.41-.17,2.12-.24,.23-.02,.46,0,.69,0h0c.59-.12,1.19-.46,1.76,.06-.05-.38-.33-.41-.63-.38-1,.1-2,.21-3.01,.31-1.88,.2-3.76,.42-5.64,.61-2.36,.24-4.72,.45-7.08,.68-.16,.02-.31,.11-.46,.17Z" style="fill: #fff;"/>
  <path d="M14.94,61.32c-.09-.51-.18-1.02-.26-1.47,.19-.13,.31-.21,.43-.3-.1-.13-.2-.26-.3-.39-.06-.08-.15-.17-.16-.26-.05-.38-.07-.77-.09-1.16,0-.07,.09-.15,.16-.25-.16-.13-.5-.29-.18-.65,.02-.02,.01-.07,0-.11-.16-.62-.31-1.25-.48-1.87-.06-.21-.16-.41-.3-.6,.43,2.05,.72,4.11,.64,6.18,.02-.03,.04-.08,.07-.14,.29,.28-.13,.96,.47,1Z" style="fill: #fff;"/>
  <path d="M81.78,69.38c-.74,.14-1.48,.31-2.23,.4-2.33,.31-4.67,.61-7.01,.88-2.17,.25-4.35,.45-6.52,.65-.22,.02-.45-.14-.67-.22,.09,.36,.38,.38,.65,.35,3.79-.41,7.58-.83,11.37-1.26,1.25-.14,2.49-.32,3.73-.5,.23-.04,.45-.2,.67-.3Z" style="fill: #fff;"/>
  <path d="M7.6,41.06c.08,.04,.17,.1,.25,.1,.73-.02,1.46-.06,2.19-.08,.18,0,.37,0,.54,0q.02,.24-1.36,.54c.23,0,.46,0,.68,0,.63-.02,.62-.02,.62,.58,0,2,.02,4.01,.02,6.01,0,.5,0,.99,0,1.51-.09,.02-.2,.04-.35,.07,.18,.03,.33,.06,.44,.08,0-1.27,0-2.54,0-3.81,0-1.55,0-3.1,.04-4.66,0-.4-.09-.51-.5-.48-.71,.07-1.43,.08-2.14,.1-.13,0-.26-.04-.38-.07-.02,.03-.04,.07-.07,.1Z" style="fill: #fff;"/>
  <path d="M7.61,41.55c.01,2.66-.08,5.28,.11,7.9,.05,0,.09,0,.14,0,0-2.6,0-5.19,0-7.79,0-.03-.12-.06-.23-.11Z" style="fill: #fff;"/>
  <path d="M31.74,35.9c1.93-.2,3.85-.4,5.78-.61,1.15-.12,2.31-.25,3.45-.45-.72,.07-1.44,.13-2.16,.21-2.23,.24-4.47,.48-6.7,.73-.12,.01-.24,.09-.36,.13h0Z" style="fill: #fff;"/>
  <path d="M54.89,68.15c.13,.08,.25,.22,.39,.24,1.23,.17,2.45,.35,3.69,.47,.65,.06,1.3,0,1.96,0q1.04,0,1.96,.38s.03-.08,.05-.11c-.33-.12-.65-.31-.98-.35-.58-.06-1.18-.03-1.77-.02-1.62,.04-3.23-.09-4.81-.46-.16-.04-.32-.1-.48-.15,0,0,0,0,0,0Z" style="fill: #fff;"/>
  <path d="M63.15,56.89c-.02-.24-.04-.44-.05-.65-.03,0-.05,0-.08,0v.57c-.25-.1-.48-.18-.67-.25-.42,.38-.81-.1-1.21,0v-.15c.18-.03,.38-.05,.58-.08,0-.02,0-.04,0-.06-.57,.06-1.15,.12-1.72,.18,0,.02,0,.04,.01,.06,.56,.07,1.12,.13,1.68,.2v.11c-.1,.03-.2,.06-.32,.09h1.79Z" style="fill: #fff;"/>
  <path d="M51.47,42.57c.35,.02,.6,.11,.48,.46,.58,.04,1.13,.08,1.53,.1-.03-.12-.08-.32-.13-.56h-1.87Z" style="fill: #fff;"/>
  <path d="M20.51,40.62c1.5-.04,3-.09,4.51-.13,.23,0,.47,0,.73-.06-.09-.04-.18-.12-.27-.11-1.63,.06-3.25,.13-4.88,.21-.03,0-.07,.05-.1,.08,0,0,.01,.02,.01,.02Z" style="fill: #fff;"/>
  <path d="M7.42,49.34s.07,0,.07,0c0-2.66,0-5.32-.07-7.98,0,2.66,0,5.32,0,7.98Z" style="fill: #fff;"/>
  <path d="M84.02,61.22c-.46-.42-.91-.85-1.37-1.27-.03,.04-.07,.07-.1,.11,.32,.28,.64,.56,1.05,.92-1.59,.14-3.06,.26-4.53,.39,0,.02,0,.04,0,.06,1.14-.09,2.28-.19,3.42-.25,.5-.03,1.01,.04,1.51,.07,0,0,.02-.02,.02-.02Z" style="fill: #fff;"/>
  <path d="M82,59.32c-2.35,.17-4.71,.34-7.06,.52,0,.03,0,.05,0,.08,2.35-.16,4.71-.32,7.06-.48,0-.04,0-.07,0-.11Z" style="fill: #fff;"/>
  <path d="M54.91,54.34h-1.98c0,1.46,0,2.99,0,4.52,0,0,0,0,.01,0,0-1.34,0-2.67,0-4.01,0-.26,.1-.35,.36-.36,.54-.02,1.08-.06,1.62-.09,0-.02,0-.04,0-.06Z" style="fill: #fff;"/>
  <path d="M52.26,70.02c-.02-.2-.06-.4-.06-.6,0-1.81,0-3.62,0-5.44-.04,0-.08,0-.13,0,0,1.11,0,2.22,0,3.33,0,.16-.05,.32-.08,.54,.02,.25,.04,.57,.08,.89,.05,.42,.13,.84,.19,1.26h0Z" style="fill: #fff;"/>
  <path d="M59.6,31.64h1.9c-.03-.09-.05-.15-.05-.16-.23,.02-.51,.13-.62,.04-.14-.11-.14-.39-.09-.57-.13,.2-.21,.52-.39,.58-.58,.19-.7,.05-.69-.56,0-.46,0-.92,0-1.43h.73s.01-.07,.02-.11c-.22-.02-.45-.09-.65-.04-.08,.02-.14,.3-.14,.46-.02,.58,0,1.15,0,1.79Z" style="fill: #fff;"/>
  <path d="M67.06,62.32c-1.2,.08-2.4,.16-3.68,.24,.13-.19,.22-.33,.3-.45-.25,.24-.52,.49-.7,.65,1.3-.12,2.69-.25,4.08-.38,0-.02,0-.04,0-.07Z" style="fill: #fff;"/>
  <path d="M65.36,71.11c.18-.06,.37-.11,.64-.2-.59,.11-.69-.18-.69-.6,0-.4-.04-.8-.05-1.21-.03-.76,0-.79,.72-.83-.17-.05-.35-.11-.53-.16-.12,.18-.35,.36-.35,.54,0,.76,.07,1.53,.13,2.29,0,.06,.08,.11,.13,.17Z" style="fill: #fff;"/>
  <path d="M73.28,71c-1.73,.17-3.47,.34-5.2,.51,0,.03,0,.06,0,.08,1.74-.16,3.48-.33,5.22-.49,0-.03-.02-.07-.03-.1Z" style="fill: #fff;"/>
  <path d="M50.23,54.63c.45,0,.9,0,1.39,0v1.62c-.1,.02-.22,.04-.45,.09h.54c0-1.17,0-2.32,0-3.47-.01,0-.03,0-.04,0,0,.29,0,.59,0,.88,0,.71,.14,.74-.72,.76-.25,0-.5,.05-.75,.07,0,.02,.02,.03,.03,.05Z" style="fill: #fff;"/>
  <path d="M67.93,57.38c.05-.12,.11-.23,.14-.34,.09-.32,.17-.66,.6-.65,.43,.01,.51,.36,.62,.69,.05,.18,.18,.34,.25,.48-.47-.05-1.06-.12-1.61-.18Zm1.31,.03c-.14-.34-.24-.61-.38-.86-.04-.07-.29-.11-.32-.07-.16,.22-.28,.46-.45,.75,.42,.07,.7,.11,1.14,.18Z" style="fill: #fff;"/>
  <path d="M31.47,65.12c.02,.55,.4,.48,.65,.56,.05,.01,.22-.17,.23-.27,.03-.42-.33-.43-.6-.47-.1-.01-.22,.14-.28,.18Z" style="fill: #fff;"/>
  <path d="M31.75,35.9c-.09-.02-.18-.05-.27-.05-.92-.02-1.01,.04-1.24,.92-.18,.68-.3,1.38-.45,2.06,.05,0,.09,.02,.14,.03,.05-.3,.09-.61,.16-.91,.1-.45,.23-.9,.31-1.35,.1-.5,.39-.69,.88-.67,.15,0,.31-.03,.46-.04,0,0,0,0,0,0Z" style="fill: #fff;"/>
  <path d="M57.01,55.65c-.01,.09-.03,.21-.06,.4-.42-.03-.82-.07-1.25-.1,0,.03,.04,.18,.04,.2,.39-.03,.78-.14,1.09-.04,.18,.06,.24,.48,.36,.76,.06-.03,.2-.12,.36-.21-.74-.1-.27-.74-.54-1.01Z" style="fill: #fff;"/>
  <path d="M79.48,70.16c-1.2,.17-2.4,.34-3.6,.52,0,.03,0,.06,.01,.09,1.2-.17,2.4-.34,3.61-.51,0-.03-.01-.06-.02-.09Z" style="fill: #fff;"/>
  <path d="M25.61,63.39c.11-.43-.08-.63-.4-.68-.08-.01-.28,.15-.28,.24,0,.45,.38,.37,.68,.45Z" style="fill: #fff;"/>
  <path d="M52.27,70.01c-.01,.63-.05,1.26-.04,1.89,.02,.72,.08,1.45,.17,2.17-.05-1.35-.1-2.7-.14-4.06,0,0,0,0,0,0Z" style="fill: #fff;"/>
  <path d="M41.57,48.87v-3.65s-.02,0-.03,0v3.63s.02,.01,.03,.02Z" style="fill: #fff;"/>
  <path d="M71.07,53.15c0-.59,0-1.08,0-1.58-.31-.04-.48,.11-.39,.49,.09,.35,.24,.69,.39,1.09Z" style="fill: #fff;"/>
  <path d="M51.69,45.69v3.49s.02,0,.04,0v-3.48s-.02,0-.04-.01Z" style="fill: #fff;"/>
  <path d="M32.9,61.88v3.04s.05,0,.07,0c0-1.02,0-2.03,0-3.05-.02,0-.05,0-.07,0Z" style="fill: #fff;"/>
  <path d="M55.16,47.1v-3.43s-.02,0-.02,0c0,1.14,0,2.27,0,3.41,0,0,.02,.02,.02,.02Z" style="fill: #fff;"/>
  <path d="M64.34,30.52q.11-.83,.93-.69c.01,.16,.03,.32,.04,.4,.04-.11,.11-.3,.23-.61-.35,0-.7-.01-1.04,.01-.06,0-.14,.18-.15,.29-.02,.2,0,.4,0,.6Z" style="fill: #fff;"/>
  <path d="M10.88,49c0-1.1,0-2.2,0-3.3-.01,0-.03,0-.04,0,0,1.1,0,2.2,0,3.3,.01,0,.03,0,.04,0Z" style="fill: #fff;"/>
  <path d="M29.52,52.38c-.37,.1-.72,.19-1.15,.31,.53,.08,.98,.15,1.43,.22-.36-.07-.46-.26-.28-.54Z" style="fill: #fff;"/>
  <path d="M19.19,61.36c.1-.21,.21-.35,.18-.38-.12-.15-.27-.27-.41-.4-.07,.08-.22,.2-.2,.23,.1,.16,.23,.31,.43,.55Z" style="fill: #fff;"/>
  <path d="M53.6,32.77c.25-.6,.72-.86,1.34-.92-.61,.07-1.21,.15-1.82,.22,0,.01,0,.02,0,.04h.66c-.07,.24-.12,.46-.18,.67,0,0,0,0,0,0Z" style="fill: #fff;"/>
  <path d="M67.06,53.95c.07,.15,.13,.28,.15,.32,.69-.24,1.33,.09,1.97,0-.69-.1-1.39-.2-2.12-.31Z" style="fill: #fff;"/>
  <path d="M62.3,29.48c.53,.22,1.13,.07,1.66,.36,.02-.02,.08-.09,.24-.27-.7-.03-1.3-.06-1.9-.09Z" style="fill: #fff;"/>
  <path d="M77.15,46.79c0,.97,0,1.93,0,2.9,0,0,0,0,.01,0v-2.9s0,0-.01,0Z" style="fill: #fff;"/>
  <path d="M52.7,67.86c.49-.22,.91,.09,1.31,.26,.32,.14,.58,.15,.88,.03,0,0,0,0,0,0-.54-.15-1.09-.31-1.64-.45-.2-.05-.46-.2-.58,.13,0,0,.03,.03,.03,.03Z" style="fill: #fff;"/>
  <path d="M76.42,41.55v-.8c-.67,0-1.31,0-1.95,0,0,.01,0,.03,0,.04,.44,0,.89,.03,1.33,0,.48-.05,.66,.13,.58,.6-.01,.06,0,.12,.02,.18,.01,0,.02,0,.03,0Z" style="fill: #fff;"/>
  <path d="M10.8,37.16v-.69h-.05c-.02,.28-.04,.56-.07,.9,.44-.05,.88-.1,1.32-.14,0-.02,0-.04,0-.07h-1.21Z" style="fill: #fff;"/>
  <path d="M73.6,60.28h2.54s0-.04,0-.06c-.84,0-1.69,0-2.53,0,0,.02,0,.04-.01,.06Z" style="fill: #fff;"/>
  <path d="M10.33,37.31c-.69,.08-1.38,.17-2.07,.25,0,.03,0,.07,.01,.1,.68-.09,1.37-.18,2.05-.26,0-.03,0-.06,0-.09Z" style="fill: #fff;"/>
  <path d="M45.36,40.64c-.81,0-1.63,0-2.44,0,0,.01,0,.02,0,.03,.81,0,1.62,0,2.43,0,0-.01,.01-.02,.02-.03Z" style="fill: #fff;"/>
  <path d="M82.24,66.71c-.11,.85-.22,1.69-.33,2.54,.05-.04,.13-.07,.13-.11,.07-.81,.13-1.62,.19-2.42Z" style="fill: #fff;"/>
  <path d="M52.87,35.02c.24-.75,.49-1.5,.73-2.26,0,0,0,0,0,0-.24,.75-.49,1.5-.73,2.26,0,0,0,0,0,0Z" style="fill: #fff;"/>
  <path d="M41.59,42.25c0,.8,0,1.59,0,2.39,.01,0,.02,0,.04,0v-2.39s-.02,0-.04,0Z" style="fill: #fff;"/>
  <path d="M64.07,31.8c.56,0,1.12,0,1.68,0,0-.03,0-.06,0-.09-.56,0-1.12,0-1.67,0,0,.03,0,.06,0,.09Z" style="fill: #fff;"/>
  <path d="M14.24,60.43c-.07-.22-.13-.45-.2-.67-.09,.03-.18,.05-.27,.08l.21,.67c.09-.03,.17-.05,.26-.08Z" style="fill: #fff;"/>
  <path d="M11.55,55.94c.16-.13,.33-1.23,.22-2.11-.08,.8-.16,1.47-.22,2.11Z" style="fill: #fff;"/>
  <path d="M8.31,44.96v2.23s.02,0,.03,0v-2.23s-.02,0-.03,0Z" style="fill: #fff;"/>
  <path d="M10.83,41.11v2.26s.03,0,.04,0v-2.26s-.03,0-.04,0Z" style="fill: #fff;"/>
  <path d="M21.89,47.1c.06,.18,.09,.27,.12,.33,.26-.02,.51-.04,.76-.06l.02-.11c-.27-.05-.55-.09-.89-.15Z" style="fill: #fff;"/>
  <path d="M13.95,57.65c-.09,.32-.16,.54-.23,.78,.52-.03,.56-.17,.23-.78Z" style="fill: #fff;"/>
  <path d="M27.26,40.67h2.14s0-.02,0-.03h-2.14s0,.02,0,.03Z" style="fill: #fff;"/>
  <path d="M61.88,31.73c.55,0,1.09,0,1.64,0,0-.03,0-.07,0-.1h-1.65s0,.07,0,.1Z" style="fill: #fff;"/>
  <path d="M58.19,62.08c-.68,0-1.36,0-2.04,0,0,.01,0,.02,0,.03h2.09s-.03-.02-.05-.03Z" style="fill: #fff;"/>
  <path d="M8.21,41.65v2.09s.03,0,.04,0v-2.09s-.03,0-.04,0Z" style="fill: #fff;"/>
  <path d="M35.57,40.39h2.04s0-.02,0-.03h-2.03s0,.02,0,.03Z" style="fill: #fff;"/>
  <path d="M38.16,66.29c0,.64,0,1.28,0,1.92,0,0,.02,0,.02,0,0-.65,0-1.29,0-1.94l-.02,.02Z" style="fill: #fff;"/>
  <path d="M40.14,40.26c-.62,0-1.24,0-1.85,0,0,.01,0,.02,0,.03,.61,0,1.22,0,1.83,0,0-.01,.01-.02,.02-.03Z" style="fill: #fff;"/>
  <path d="M61.8,29.62c-.46-.3-.9-.26-1,0h1Z" style="fill: #fff;"/>
  <path d="M80.49,66.67c.26,.02,.52,.04,.78,.05v2.45c.47-.84-.09-1.65,.18-2.41,.05,.06,.11,.11,.16,.17,.02-.03,.05-.06,.07-.09-.12-.07-.23-.21-.36-.21-.28-.02-.56,.02-.83,.04,0,0,0,0,0,0Z" style="fill: #fff;"/>
  <path d="M26.71,44.35c0,1.05,0,2.11,0,3.16,.02,0,.04,0,.07,0,0-1.07,0-2.13,0-3.2-.02,.01-.04,.02-.07,.04Z"/>
  <path d="M28.67,44.37c0,.86,0,1.72,0,2.57,.03,0,.06,0,.09,0,0-.86,0-1.71,0-2.57-.03,0-.06,0-.09,0Z"/>
  <path d="M30.35,42.83c0-.31,0-.61,0-.92,0-.15-.21-.33,.09-.41-.1-.08-.19-.23-.29-.23-.66-.01-1.32,0-1.98,.02-.54,.02-1.08,.05-1.69,.08,.03,.51,.06,1.01,.09,1.56,.08-.07,.13-.09,.13-.12,.04-.22,.04-.61,.12-.62,.39-.07,.8-.09,1.19-.02,.1,.02,.15,.39,.2,.54,.16,.06,.31,.11,.47,.17,.21-.17-.3-.75,.35-.77,.31,0,.62-.02,.93,0,.49,.03,.12,.55,.39,.72Z"/>
  <path d="M60.94,33.86c0,1.32,.01,2.56,0,3.8,0,.4,.23,.4,.51,.4,2.42,.04,4.85,.08,7.27,.12,5.11,.09,10.22,.19,15.34,.28,.68,.01,.67,0,.68-.66,.02-.89,.02-1.77,.06-2.66,.01-.34-.09-.47-.44-.48-1.94-.06-3.88-.14-5.82-.21-5.7-.2-11.4-.41-17.1-.61-.13,0-.27,0-.5,0Z"/>
  <path d="M68.1,57.24c.42,.07,.7,.11,1.14,.18-.14-.34-.24-.61-.38-.86-.04-.07-.29-.11-.32-.07-.16,.22-.28,.46-.45,.75Z"/>
</svg>