<?xml version="1.0" encoding="UTF-8"?>
<svg id="uuid-80fbfbb8-36d3-4562-b6c3-90c8719175e6" data-name="Calque 1" xmlns="http://www.w3.org/2000/svg" width="250" height="250" viewBox="0 0 250 250">
  <path d="M187.5,88v3h3v-3h-3Zm-3,0v3h3v-3h-3Zm3-9v3h3v-3h-3Zm-3,0v3h3v-3h-3Zm15,3v3h3v-3h-3Zm-3,0v3h3v-3h-3Zm-3,0v3h3v-3h-3Zm-3,0v3h3v-3h-3Zm-51-24v3h3v-3h-3Zm54,39v3h3v-3h-3Zm0-3v3h3v-3h-3Zm-3-6v3h3v-3h-3Zm-9,0v3h3v-3h-3Zm-3,3v3h3v-3h-3Zm-3,0v3h3v-3h-3Zm0,3v3h3v-3h-3Zm-3,0v3h3v-3h-3Zm0,3v3h3v-3h-3Zm0,3v3h3v-3h-3Zm3,3v3h3v-3h-3Zm-3,0v3h3v-3h-3Zm33,12v3h3v-3h-3Zm-51,39v3h3v-3h-3Zm0,3v3h3v-3h-3Zm0,3v3h3v-3h-3Zm-60-66v3h3v-3h-3Zm15,3v3h3v-3h-3Zm0-6v3h3v-3h-3Zm3,0v3h3v-3h-3Zm0-3v3h3v-3h-3Zm-3,0v3h3v-3h-3Zm0,12v3h3v-3h-3Zm30-39v3h3v-3h-3Zm6-6v3h3v-3h-3Zm0,3v3h3v-3h-3Zm6,3v3h3v-3h-3Zm-9,0v3h3v-3h-3Zm0-3v3h3v-3h-3Zm0-3v3h3v-3h-3Zm-3,0v3h3v-3h-3Zm33,51v3h3v-3h-3Zm0,3v3h3v-3h-3Zm0,3v3h3v-3h-3Zm33,0v3h3v-3h-3Zm-42,48v3h3v-3h-3Zm-6-42v3h3v-3h-3Zm0,3v3h3v-3h-3Zm3,3v3h3v-3h-3Zm0-3v3h3v-3h-3Zm-9,21v3h3v-3h-3Zm0,3v3h3v-3h-3Zm24-9v3h3v-3h-3Zm6-6v3h3v-3h-3Zm12-9v3h3v-3h-3Zm-9,6v3h3v-3h-3Zm-6,3v3h3v-3h-3Zm-3,3v3h3v-3h-3Zm3,0v3h3v-3h-3Zm3,0v3h3v-3h-3Zm3-3v3h3v-3h-3Zm3-3v3h3v-3h-3Zm3,0v3h3v-3h-3Zm0-3v3h3v-3h-3Zm0-3v3h3v-3h-3Zm3-3v3h3v-3h-3Zm-6,6v3h3v-3h-3Zm-3,0v3h3v-3h-3Zm-3,3v3h3v-3h-3Zm-3,0v3h3v-3h-3Zm-3,3v3h3v-3h-3Zm-3,3v3h3v-3h-3Zm0,3v3h3v-3h-3Zm6,3v3h3v-3h-3Zm0-3v3h3v-3h-3Zm-33,24v3h3v-3h-3Zm3,0v3h3v-3h-3Zm0-3v3h3v-3h-3Zm6,6v3h3v-3h-3Zm3,3v3h3v-3h-3Zm-9-3v3h3v-3h-3Zm-3,0v3h3v-3h-3Zm-21,3v3h3v-3h-3Zm0,3v3h3v-3h-3Zm-3,0v3h3v-3h-3Zm-39-6v3h3v-3h-3Zm-3,0v3h3v-3h-3Zm-3,0v3h3v-3h-3Zm6,3v3h3v-3h-3Zm12,6v3h3v-3h-3Zm-3-3v3h3v-3h-3Zm-3,0v3h3v-3h-3Zm0-3v3h3v-3h-3Zm-3,0v3h3v-3h-3Zm0-3v3h3v-3h-3Zm-3-3v3h3v-3h-3Zm0-3v3h3v-3h-3Zm-3,3v3h3v-3h-3Zm-3,0v3h3v-3h-3Zm-3,3v3h3v-3h-3Zm48-42v3h3v-3h-3Zm3,0v3h3v-3h-3Zm9-9v3h3v-3h-3Zm3,0v3h3v-3h-3Zm0-3v3h3v-3h-3Zm0-3v3h3v-3h-3Zm-3,3v3h3v-3h-3Zm-9,3v3h3v-3h-3Zm-3,6v3h3v-3h-3Zm3,0v3h3v-3h-3Zm3,0v3h3v-3h-3Zm0-3v3h3v-3h-3Zm3,0v3h3v-3h-3Zm3-15v3h3v-3h-3Zm9,0v3h3v-3h-3Zm-3,3v3h3v-3h-3Zm-6,3v3h3v-3h-3Zm-3,3v3h3v-3h-3Zm0,3v3h3v-3h-3Zm-3,0v3h3v-3h-3Zm-3,3v3h3v-3h-3Zm-3,0v3h3v-3h-3Zm-3,3v3h3v-3h-3Zm0,3v3h3v-3h-3Zm3,3v3h3v-3h-3Zm3,0v3h3v-3h-3Zm3-3v3h3v-3h-3Zm3-3v3h3v-3h-3Zm3-3v3h3v-3h-3Zm6-3v3h3v-3h-3Zm0-3v3h3v-3h-3Zm0-3v3h3v-3h-3Zm3-3v3h3v-3h-3Zm3-3v3h3v-3h-3Zm-6,0v3h3v-3h-3Zm-3,3v3h3v-3h-3Zm-3,0v3h3v-3h-3Zm-3,0v3h3v-3h-3Zm0,3v3h3v-3h-3Zm-3,0v3h3v-3h-3Zm0,3v3h3v-3h-3Zm-3,0v3h3v-3h-3Zm-3,3v3h3v-3h-3Zm-3,3v3h3v-3h-3Zm-6,3v3h3v-3h-3Zm3,0v3h3v-3h-3Zm0,3v3h3v-3h-3Zm-3,0v3h3v-3h-3Zm-3,0v3h3v-3h-3Zm0,3v3h3v-3h-3Zm3,0v3h3v-3h-3Zm3,0v3h3v-3h-3Zm3,0v3h3v-3h-3Zm0,3v3h3v-3h-3Zm-3,0v3h3v-3h-3Zm-3,0v3h3v-3h-3Zm-3,0v3h3v-3h-3Zm18,39v3h3v-3h-3Zm24-111v3h3v-3h-3Zm-3,0v3h3v-3h-3Zm0-3v3h3v-3h-3Zm-3,0v3h3v-3h-3Zm-3,0v3h3v-3h-3Zm-3,0v3h3v-3h-3Zm0-3v3h3v-3h-3Zm-3,0v3h3v-3h-3Zm-12,6v3h3v-3h-3Zm-3-3v3h3v-3h-3Zm0-3v3h3v-3h-3Zm-3,0v3h3v-3h-3Zm-3,0v3h3v-3h-3Zm0-3v3h3v-3h-3Zm-3,0v3h3v-3h-3Zm-3,0v3h3v-3h-3Zm-3,0v3h3v-3h-3Zm-3,0v3h3v-3h-3Zm0,3v3h3v-3h-3Zm-3,0v3h3v-3h-3Zm-3,3v3h3v-3h-3Zm0,3v3h3v-3h-3Zm-3,0v3h3v-3h-3Zm0,3v3h3v-3h-3Zm0,3v3h3v-3h-3Zm-3,0v3h3v-3h-3Zm0,3v3h3v-3h-3Zm0,3v3h3v-3h-3Zm0,3v3h3v-3h-3Zm57,27v3h3v-3h-3Zm-3,0v3h3v-3h-3Zm-3,0v3h3v-3h-3Zm-3,0v3h3v-3h-3Zm-3,3v3h3v-3h-3Zm-6,0v3h3v-3h-3Zm-3,3v3h3v-3h-3Zm-3,3v3h3v-3h-3Zm-3,3v3h3v-3h-3Zm-3,3v3h3v-3h-3Zm-3,3v3h3v-3h-3Zm-6,3v3h3v-3h-3Zm-3,6v3h3v-3h-3Zm0,3v3h3v-3h-3Zm15,0v3h3v-3h-3Zm3,0v3h3v-3h-3Zm3-3v3h3v-3h-3Zm3,0v3h3v-3h-3Zm0-3v3h3v-3h-3Zm3,0v3h3v-3h-3Zm0-3v3h3v-3h-3Zm3,0v3h3v-3h-3Zm0-3v3h3v-3h-3Zm-39,60v3h3v-3h-3Zm-6-9v3h3v-3h-3Zm-3-3v3h3v-3h-3Zm-3-3v3h3v-3h-3Zm0-3v3h3v-3h-3Zm51-99v3h3v-3h-3Zm0-3v3h3v-3h-3Zm0-3v3h3v-3h-3Zm-54,39v3h3v-3h-3Zm0,3v3h3v-3h-3Zm0,3v3h3v-3h-3Zm0,3v3h3v-3h-3Zm0,3v3h3v-3h-3Zm0,3v3h3v-3h-3Zm0,3v3h3v-3h-3Zm0,3v3h3v-3h-3Zm0,3v3h3v-3h-3Zm0,3v3h3v-3h-3Zm0,3v3h3v-3h-3Zm0,3v3h3v-3h-3Zm0,3v3h3v-3h-3Zm0,3v3h3v-3h-3Zm0,3v3h3v-3h-3Zm0,3v3h3v-3h-3Zm0,3v3h3v-3h-3Zm0,3v3h3v-3h-3Zm0,3v3h3v-3h-3Zm0,3v3h3v-3h-3Zm0,3v3h3v-3h-3Zm0,3v3h3v-3h-3Zm-3,0v3h3v-3h-3Zm0,3v3h3v-3h-3Zm-6,3v3h3v-3h-3Zm-3,0v3h3v-3h-3Zm0,3v3h3v-3h-3Zm-3,0v3h3v-3h-3Zm84,0v3h3v-3h-3Zm0-3v3h3v-3h-3Zm0-3v3h3v-3h-3Zm0-3v3h3v-3h-3Zm0-3v3h3v-3h-3Zm0-3v3h3v-3h-3Zm0-36v3h3v-3h-3Zm0,3v3h3v-3h-3Zm0,3v3h3v-3h-3Zm0,3v3h3v-3h-3Zm0,3v3h3v-3h-3Zm0,3v3h3v-3h-3Zm0,3v3h3v-3h-3Zm0,3v3h3v-3h-3Zm0,3v3h3v-3h-3Zm0,3v3h3v-3h-3Zm-3,9v3h3v-3h-3Zm0,3v3h3v-3h-3Zm0,3v3h3v-3h-3Zm-3,0v3h3v-3h-3Zm0,3v3h3v-3h-3Zm-3,0v3h3v-3h-3Zm0,3v3h3v-3h-3Zm-3,0v3h3v-3h-3Zm36-21v3h3v-3h-3Zm6-3v3h3v-3h-3Zm3-3v3h3v-3h-3Zm3-3v3h3v-3h-3Zm3,0v3h3v-3h-3Zm3-3v3h3v-3h-3Zm0-3v3h3v-3h-3Zm3,0v3h3v-3h-3Zm0-3v3h3v-3h-3Zm0-3v3h3v-3h-3Zm0-3v3h3v-3h-3Zm-3,0v3h3v-3h-3Zm-3,0v3h3v-3h-3Zm0,3v3h3v-3h-3Zm-3,0v3h3v-3h-3Zm0,3v3h3v-3h-3Zm-3,0v3h3v-3h-3Zm-3,0v3h3v-3h-3Zm0,3v3h3v-3h-3Zm-3,0v3h3v-3h-3Zm-3,0v3h3v-3h-3Zm0,3v3h3v-3h-3Zm-3,0v3h3v-3h-3Zm0,3v3h3v-3h-3Zm-3,0v3h3v-3h-3Zm0,3v3h3v-3h-3Zm0,3v3h3v-3h-3Zm0,3v3h3v-3h-3Zm3,0v3h3v-3h-3Zm0-24v3h3v-3h-3Zm6-30v3h3v-3h-3Zm-3-6v3h3v-3h-3Zm-3,0v3h3v-3h-3Zm-3,3v3h3v-3h-3Zm-3,0v3h3v-3h-3Zm-3,0v3h3v-3h-3Zm0,3v3h3v-3h-3Zm-3,3v3h3v-3h-3Zm-3,0v3h3v-3h-3Zm0,3v3h3v-3h-3Zm0,6v3h3v-3h-3Zm0,3v3h3v-3h-3Zm24-18v3h3v-3h-3Zm-3,0v3h3v-3h-3Zm-3,3v3h3v-3h-3Zm-3,3v3h3v-3h-3Zm-3,0v3h3v-3h-3Zm-3,3v3h3v-3h-3Zm-3,0v3h3v-3h-3Zm-3,0v3h3v-3h-3Zm0,3v3h3v-3h-3Zm-3,0v3h3v-3h-3Zm-3,0v3h3v-3h-3Zm0,3v3h3v-3h-3Zm-3,0v3h3v-3h-3Zm-3,3v3h3v-3h-3Zm0,3v3h3v-3h-3Zm-3,0v3h3v-3h-3Zm12,9v3h3v-3h-3Zm0,3v3h3v-3h-3Zm3,12v3h3v-3h-3Zm0,3v3h3v-3h-3Zm0,3v3h3v-3h-3Zm0,3v3h3v-3h-3Zm0,3v3h3v-3h-3Zm0,3v3h3v-3h-3Zm0,3v3h3v-3h-3Zm0,3v3h3v-3h-3Zm0,3v3h3v-3h-3Zm0,3v3h3v-3h-3Zm0,3v3h3v-3h-3Zm3,6v3h3v-3h-3Zm0,3v3h3v-3h-3Zm0,3v3h3v-3h-3Zm-3,3v3h3v-3h-3Zm0-3v3h3v-3h-3Zm-3,0v3h3v-3h-3Zm-3,0v3h3v-3h-3Zm0-3v3h3v-3h-3Zm-3,0v3h3v-3h-3Zm-9-3v3h3v-3h-3Zm-3,0v3h3v-3h-3Zm24,12v3h3v-3h-3Zm0-3v3h3v-3h-3Zm3,0v3h3v-3h-3Zm0-3v3h3v-3h-3Zm3,0v3h3v-3h-3Zm3,0v3h3v-3h-3Zm0-3v3h3v-3h-3Zm3,0v3h3v-3h-3Zm3-3v3h3v-3h-3Zm3,0v3h3v-3h-3Zm0-3v3h3v-3h-3Zm3,0v3h3v-3h-3Zm3,0v3h3v-3h-3Zm0-3v3h3v-3h-3Zm3,0v3h3v-3h-3Zm3-3v3h3v-3h-3Zm3,0v3h3v-3h-3Zm0-3v3h3v-3h-3Zm3,0v3h3v-3h-3Zm3-3v3h3v-3h-3Zm3,0v3h3v-3h-3Zm0-3v3h3v-3h-3Zm0-3v3h3v-3h-3Zm0-3v3h3v-3h-3Zm0-3v3h3v-3h-3Zm0-3v3h3v-3h-3Zm0-3v3h3v-3h-3Zm0-3v3h3v-3h-3Zm0-3v3h3v-3h-3Zm0-3v3h3v-3h-3Zm0-3v3h3v-3h-3Zm0-9v3h3v-3h-3Zm0-3v3h3v-3h-3Zm-3,0v3h3v-3h-3Zm0-3v3h3v-3h-3Zm0-3v3h3v-3h-3Zm0-3v3h3v-3h-3Zm0-3v3h3v-3h-3Zm0-3v3h3v-3h-3Zm0-3v3h3v-3h-3Zm0-3v3h3v-3h-3Zm-3,3v3h3v-3h-3Zm-3,3v3h3v-3h-3Zm-3,0v3h3v-3h-3Zm-3,3v3h3v-3h-3Zm-3,0v3h3v-3h-3Zm0,3v3h3v-3h-3Zm-3,0v3h3v-3h-3Zm-3,0v3h3v-3h-3Zm-3,3v3h3v-3h-3Zm-9,6v3h3v-3h-3Zm-3,0v3h3v-3h-3Zm-3,0v3h3v-3h-3Zm0,3v3h3v-3h-3Zm-3,0v3h3v-3h-3Zm-3,0v3h3v-3h-3Zm-3,0v3h3v-3h-3Zm-3,0v3h3v-3h-3Zm0-3v3h3v-3h-3Zm-3,0v3h3v-3h-3Zm-3,0v3h3v-3h-3Zm-3,0v3h3v-3h-3Zm0,3v3h3v-3h-3Zm0,3v3h3v-3h-3Zm-3,3v3h3v-3h-3Zm0,3v3h3v-3h-3Zm0,3v3h3v-3h-3Zm0,3v3h3v-3h-3Zm0,3v3h3v-3h-3Zm0,3v3h3v-3h-3Zm0,3v3h3v-3h-3Zm0,3v3h3v-3h-3Zm-3,3v3h3v-3h-3Zm0,3v3h3v-3h-3Zm0,3v3h3v-3h-3Zm0,3v3h3v-3h-3Zm0,3v3h3v-3h-3Zm0,3v3h3v-3h-3Zm0,3v3h3v-3h-3Zm0,3v3h3v-3h-3Zm-3,0v3h3v-3h-3Zm0,3v3h3v-3h-3Zm-3,0v3h3v-3h-3Zm-12,6v3h3v-3h-3Zm0,3v3h3v-3h-3Zm-3,0v3h3v-3h-3Zm0,3v3h3v-3h-3Zm-3,0v3h3v-3h-3Zm-3,0v3h3v-3h-3Zm0,3v3h3v-3h-3Zm-3,0v3h3v-3h-3Zm-3,0v3h3v-3h-3Zm0,3v3h3v-3h-3Zm48-108v3h3v-3h-3Zm0-3v3h3v-3h-3Zm-3,0v3h3v-3h-3Zm0-3v3h3v-3h-3Zm-3,0v3h3v-3h-3Zm0-3v3h3v-3h-3Zm-9,0v3h3v-3h-3Zm0-3v3h3v-3h-3Zm-3,0v3h3v-3h-3Zm0,3v3h3v-3h-3Zm-3,0v3h3v-3h-3Zm-3,0v3h3v-3h-3Zm-3,0v3h3v-3h-3Zm0,3v3h3v-3h-3Zm-3,0v3h3v-3h-3Zm0,3v3h3v-3h-3Zm-3,0v3h3v-3h-3Zm-3,0v3h3v-3h-3Zm0,3v3h3v-3h-3Zm0,3v3h3v-3h-3Zm-3,0v3h3v-3h-3Zm0,3v3h3v-3h-3Zm-3,3v3h3v-3h-3Zm0,12v3h3v-3h-3Zm21-45v3h3v-3h-3Zm0,3v3h3v-3h-3Zm-3,0v3h3v-3h-3Zm-3,0v3h3v-3h-3Zm-3,3v3h3v-3h-3Zm0,3v3h3v-3h-3Zm-3,0v3h3v-3h-3Zm-3,0v3h3v-3h-3Zm0,3v3h3v-3h-3Zm-3,0v3h3v-3h-3Zm-3,0v3h3v-3h-3Zm0,3v3h3v-3h-3Zm-3,0v3h3v-3h-3Zm-3,0v3h3v-3h-3Zm-3,0v3h3v-3h-3Zm0,3v3h3v-3h-3Zm-3,0v3h3v-3h-3Zm0,3v3h3v-3h-3Zm36-21v3h3v-3h-3Zm-39,21v3h3v-3h-3Zm-6,3v3h3v-3h-3Zm-3,3v3h3v-3h-3Zm-3,0v3h3v-3h-3Zm-3,0v3h3v-3h-3Zm-12,90v3h3v-3h-3Zm3,0v3h3v-3h-3Zm3,0v3h3v-3h-3Zm3,0v3h3v-3h-3Zm3,0v3h3v-3h-3Zm0,3v3h3v-3h-3Zm3,0v3h3v-3h-3Zm3,0v3h3v-3h-3Zm3,3v3h3v-3h-3Zm3,0v3h3v-3h-3Zm0,3v3h3v-3h-3Zm3,0v3h3v-3h-3Zm3,3v3h3v-3h-3Zm3,3v3h3v-3h-3Zm0-3v3h3v-3h-3Zm0-3v3h3v-3h-3Zm0-3v3h3v-3h-3Zm0-3v3h3v-3h-3Zm0-3v3h3v-3h-3Zm-3,0v3h3v-3h-3Zm0-3v3h3v-3h-3Zm0-6v3h3v-3h-3Zm0-3v3h3v-3h-3Zm0-3v3h3v-3h-3Zm0-3v3h3v-3h-3Zm0-3v3h3v-3h-3Zm0-3v3h3v-3h-3Zm0-3v3h3v-3h-3Zm0-3v3h3v-3h-3Zm-3,0v3h3v-3h-3Zm0-3v3h3v-3h-3Zm0-3v3h3v-3h-3Zm0-3v3h3v-3h-3Zm0-3v3h3v-3h-3Zm0-3v3h3v-3h-3Zm0-3v3h3v-3h-3Zm0-3v3h3v-3h-3Zm0-3v3h3v-3h-3Zm0-3v3h3v-3h-3Zm0-3v3h3v-3h-3Zm0-3v3h3v-3h-3Zm0-3v3h3v-3h-3Zm0-3v3h3v-3h-3Zm66-12v3h3v-3h-3Zm0-3v3h3v-3h-3Zm0-3v3h3v-3h-3Zm0-3v3h3v-3h-3Zm-3,0v3h3v-3h-3Zm0-3v3h3v-3h-3Zm0-3v3h3v-3h-3Zm0-3v3h3v-3h-3Zm0-3v3h3v-3h-3Zm-3-3v3h3v-3h-3Zm0-6v3h3v-3h-3Zm0,3v3h3v-3h-3Zm-3,0v3h3v-3h-3Zm-3,0v3h3v-3h-3Zm0,3v3h3v-3h-3Zm-3,0v3h3v-3h-3Zm-3,3v3h3v-3h-3Zm-3,0v3h3v-3h-3Zm0,3v3h3v-3h-3Zm-3,0v3h3v-3h-3Zm0,3v3h3v-3h-3Zm-3,0v3h3v-3h-3Zm-3,0v3h3v-3h-3Zm0,3v3h3v-3h-3Zm-3,0v3h3v-3h-3Zm0,3v3h3v-3h-3Zm-3,0v3h3v-3h-3Zm-3,0v3h3v-3h-3Zm0,3v3h3v-3h-3Zm-3,0v3h3v-3h-3Zm-3,0v3h3v-3h-3Zm0,3v3h3v-3h-3Zm-3,0v3h3v-3h-3Zm0,3v3h3v-3h-3Zm-3,0v3h3v-3h-3Zm-3,0v3h3v-3h-3Zm-3,3v3h3v-3h-3Zm-3,0v3h3v-3h-3Zm0,3v3h3v-3h-3Zm-3,0v3h3v-3h-3Zm-3,0v3h3v-3h-3Zm-3,0v3h3v-3h-3Zm-3,0v3h3v-3h-3Zm-3,0v3h3v-3h-3Zm0-3v3h3v-3h-3Zm-3,0v3h3v-3h-3Zm-3,0v3h3v-3h-3Zm0-3v3h3v-3h-3Zm-3-6v3h3v-3h-3Zm0,3v3h3v-3h-3Zm0,3v3h3v-3h-3Zm-3,0v3h3v-3h-3Zm0,3v3h3v-3h-3Zm0,3v3h3v-3h-3Zm0,3v3h3v-3h-3Zm0,3v3h3v-3h-3Zm0,3v3h3v-3h-3Zm0,3v3h3v-3h-3Zm0,3v3h3v-3h-3Zm0,3v3h3v-3h-3Zm0,3v3h3v-3h-3Zm0,3v3h3v-3h-3Zm0,3v3h3v-3h-3Zm0,3v3h3v-3h-3Zm0,3v3h3v-3h-3Zm-3,0v3h3v-3h-3Zm0,3v3h3v-3h-3Zm0,3v3h3v-3h-3Zm0,3v3h3v-3h-3Zm0,3v3h3v-3h-3Zm0,3v3h3v-3h-3Zm0,3v3h3v-3h-3Zm0,3v3h3v-3h-3Zm-3,0v3h3v-3h-3Zm0,3v3h3v-3h-3Zm0,3v3h3v-3h-3Zm0,3v3h3v-3h-3Zm0,3v3h3v-3h-3Zm0,3v3h3v-3h-3Z"/>
</svg>