<svg id="Ebene_1" data-name="Ebene 1" xmlns="http://www.w3.org/2000/svg" viewBox="0 0 148.58 150"><defs><style>.cls-1{fill:#fff;}.cls-2{fill:#aeaead;}.cls-3{fill:#7a7a79;}.cls-4{fill:#7f7e7e;}.cls-5{fill:#afafaf;}.cls-6{fill:#7e7d7d;}.cls-7{fill:#acacac;}.cls-8{fill:#adacac;}.cls-9{fill:#abaaaa;}.cls-10{fill:#222120;}.cls-11{fill:#21201f;}.cls-12{fill:#2e2e2d;}.cls-13{fill:#353433;}.cls-14{fill:#313130;}.cls-15{fill:#2b2a29;}.cls-16{fill:#272625;}.cls-17{fill:#252524;}.cls-18{fill:#252523;}.cls-19{fill:#2d2c2b;}.cls-20{fill:#20201f;}.cls-21{fill:#2c2c2b;}.cls-22{fill:#282827;}.cls-23{fill:#60605f;}</style></defs><path class="cls-1" d="M148.24,74v7c-1.61,2-4.49.47-6.14,2.28-1.94,5.34,2.66,4,5,4.88a6.5,6.5,0,0,1,1.12.83v7a6.43,6.43,0,0,1-1.16.83,8.07,8.07,0,0,1-2.39.43c-1.6.11-2.91.59-3,2.48-.12,2.11,1.14,2.86,3,3a8.6,8.6,0,0,1,2.4.43,6.78,6.78,0,0,1,1.15.84v7a5.84,5.84,0,0,1-1.11.81c-2.45.89-7.06-.39-5,5,1.69,1.7,4.5.27,6.09,2.2v7a5.44,5.44,0,0,1-1.11.81c-2.45.89-7.06-.39-5,5,1.69,1.7,4.5.28,6.09,2.2v7a6.29,6.29,0,0,1-1.16.83c-4.13-.13-6.15,1.85-6,6a6.35,6.35,0,0,1-.83,1.15h-7a6.22,6.22,0,0,1-.83-1.15,8.48,8.48,0,0,1-.44-2.39c-.11-1.6-.58-2.92-2.47-3-2.11-.13-2.87,1.14-3,3a8.48,8.48,0,0,1-.44,2.39,5.91,5.91,0,0,1-.83,1.15h-7a6.72,6.72,0,0,1-.83-1.15,8.13,8.13,0,0,1-.43-2.39c-.11-1.6-.59-2.92-2.48-3-2.11-.13-2.87,1.14-3,3a8.46,8.46,0,0,1-.43,2.39,6.4,6.4,0,0,1-.84,1.15h-7a6.25,6.25,0,0,1-.83-1.2c-.68-1.76-.13-3.74-1-5.45-2.7-1.68-4.53-1.49-4.81,2.16-.12,1.59,0,3.25-1.31,4.49h-7a5.18,5.18,0,0,1-.81-1.11c-.89-2.44.39-7.05-5-5-1.7,1.69-.27,4.5-2.2,6.08h-7a5.16,5.16,0,0,1-.82-1.14,8.11,8.11,0,0,1-.4-1.91c-.16-1.43,0-3.21-2-3.37-2.39-.19-2.35,1.74-2.53,3.37a7.89,7.89,0,0,1-.39,1.92,5.77,5.77,0,0,1-.83,1.13H1.36q0-73-.07-146.07C1.28.47,1.75,0,4.1,0Q74.71.15,145.32,0c2.69,0,3,.84,3,3.15-.09,21,0,41.9,0,62.85-1.61,2-4.49.47-6.14,2.27-1.94,5.35,2.66,4,5,4.89A6,6,0,0,1,148.24,74Z"/><path class="cls-2" d="M103.21,147.83l.06,1.06h-8c-.06-1-.15-1.94-.17-2.92-.14-6.55,1.56-7.59,8.09-5-1.35,1.82-5.25.2-5.24,3.43S101.88,146,103.21,147.83Z"/><path class="cls-3" d="M140.34,67c2.4-2.12,5.3-.41,7.9-1v8l-1,0A9,9,0,0,0,140.34,67Z"/><path class="cls-4" d="M148.24,89l-1.06-.11c-.88-3.71-3.32-5.86-6.89-6.86,2.37-2.46,5.32-.5,8-1Z"/><path class="cls-4" d="M148.24,118.93c-2.63-.52-5.58,1.44-8-1,3.57-1,6-3.15,6.89-6.86l1.06-.11Z"/><path class="cls-3" d="M148.24,133.91c-2.6-.63-5.5,1.08-7.9-1a9,9,0,0,0,6.88-6.9l1,0Z"/><path class="cls-5" d="M88.29,147.9v1h-8c.35-2.68-1.21-5.57.9-8.06C82.4,144.34,84.51,147,88.29,147.9Z"/><path class="cls-6" d="M148.24,104l-1.09-.19a6.17,6.17,0,0,1,0-7.61l1.09-.19Z"/><path class="cls-7" d="M118.15,147.78l.11,1.11h-8l.18-1.16A6.47,6.47,0,0,1,118.15,147.78Z"/><path class="cls-8" d="M125.26,148.89l.1-1.1a6.47,6.47,0,0,1,7.69-.07l.2,1.17Z"/><path class="cls-9" d="M140.25,148.89l.06-1.06c2-1.57,4.23-1.4,6.51-.86a7.34,7.34,0,0,1,1.42.92C145.79,150,142.89,148.37,140.25,148.89Z"/><path class="cls-3" d="M148.24,147.89l-1.11-.1a5.33,5.33,0,0,1,.13-6.91l1,0Z"/><path class="cls-9" d="M66.3,148.89v-1a5.28,5.28,0,0,1,7,0,.89.89,0,0,1,0,.94Z"/><path class="cls-10" d="M65.3,117c-9,0-18-.09-27,.17-3.26.09-3.84-1.1-3.78-4,.19-8.15,0-16.31.13-24.46.06-2.83-.76-3.7-3.62-3.64-8.16.19-16.32,0-24.48.12-2.84.06-4.08-.4-4.06-3.72.15-24.64.09-49.27.07-73.9C2.59,5.59,2.36,4,5.26,4c20.59.09,41.18,0,61.91,0-1.49,5.31-4.84,6.36-9.71,6.25-14.64-.31-29.3.05-43.95-.22C9.59,10,8.9,11.22,8.94,14.81c.17,20,.13,39.95,0,59.92,0,3,.37,4.49,4,4.29a171.17,171.17,0,0,1,18,0c3.24.15,3.82-1,3.78-4-.15-11.65.15-23.31-.17-34.95-.12-4.32,1.3-5.18,5.31-5.08,11.32.28,22.65-.06,34,.19,3.62.08,5.2-.67,4.63-4.55a52.17,52.17,0,0,1-.06-7.23c4.24,1.18,6.78,3.13,6.2,7.42-.48,3.58,1,4.92,4.39,4.25,4.69-.93,5.9,3.36,9,5.43-1.64,1.31-3.17.82-4.53.82-16,0-32,.12-48-.05-3.41,0-4.53.8-4.5,4.38q.25,30.71,0,61.41c0,3,.68,4,3.83,3.9,6.81-.21,13.64,0,20.46.08C66.83,113,67,115,65.3,117Z"/><path class="cls-11" d="M66.27,23.79a19,19,0,0,1,10.43-20A19.67,19.67,0,0,1,99.79,7q13.17,12.59,26,25.56c2.63,2.69,4.32,3.28,6.89,0,1.43-1.8,3-5.23,5.41-4.24s1,4.52,1,6.91c.29,7.14.22,14.3.53,21.45.16,3.77-1.06,5.46-5.08,5.42-8.48-.09-17,.19-25.46.29-1.14,0-2.65.43-3.25-.61-.89-1.53.92-2.21,1.65-3.2,2.12-2.88,7-4.86,6.46-8.17-.41-2.77-4.49-5-7-7.48Q97.6,33.64,88.18,24.34C80.42,16.64,74.81,16.41,66.27,23.79Z"/><path class="cls-12" d="M133.08,70.65c1.12,4.25-2,3.23-4.35,3.56-3.47.48-3.42-1.4-3.59-4-.24-3.45,1.17-4,4.21-4C132.93,66.06,133.65,67.6,133.08,70.65Z"/><path class="cls-12" d="M114.27,74c-4.11,1-3.78-1.45-4-4.11-.38-4,2.1-3.4,4.6-3.67,3.63-.38,3.31,1.73,3.52,4.2C118.66,74,117.21,74.88,114.27,74Z"/><path class="cls-13" d="M84.94,74.07c-3.17.64-4.56-.29-4.39-3.81.14-2.85.6-4.13,3.85-4.1s4.41.75,4.23,4.14C88.48,73,88.36,75,84.94,74.07Z"/><path class="cls-14" d="M100,74c-3.31.64-4.71-.13-4.64-3.68.06-3.25,1-4.08,4.19-4.18,3.53-.11,4,1.33,3.94,4.29S103.13,75.15,100,74Z"/><path class="cls-15" d="M73.63,70.18c.56,2.84-.17,4.23-3.46,4.07-2.81-.14-4.62-.22-4.29-3.87.23-2.57.15-4.35,3.63-4.18C72.42,66.35,74.49,66.57,73.63,70.18Z"/><path class="cls-16" d="M73.57,84.86c.66,3.14-.19,4.37-3.45,4.26-3-.1-4.51-.41-4.24-4,.2-2.65.23-4.33,3.68-4.14C72.51,81.19,74.7,81.32,73.57,84.86Z"/><path class="cls-17" d="M73.63,99.69c.37,2.7.2,4.54-3.39,4.32-2.83-.17-4.71-.22-4.34-3.91.25-2.45-.14-4.52,3.54-4.2C72.18,96.13,74.57,96,73.63,99.69Z"/><path class="cls-17" d="M147.15,96.15v7.61c-2.41-1-6.75,3.08-7.12-3.3C139.64,93.71,144.11,96.44,147.15,96.15Z"/><path class="cls-16" d="M66.34,111.07l2.47-.17c2.94-.21,5.16-.4,5.09,4.09-.08,4.8-2.87,3.75-5.51,3.78-.79,0-1.67.19-2.13-.76A10.92,10.92,0,0,1,66.34,111.07Z"/><path class="cls-15" d="M69.89,125.91c3.53-.93,3.81.88,3.93,3.66.15,3.34-1,4-4.2,4.17-4,.2-3.51-2.05-3.71-4.6C65.64,125.72,67.33,125.23,69.89,125.91Z"/><path class="cls-18" d="M118.15,147.78l-7.7-.05a22.1,22.1,0,0,0-.12-2.94c-.59-3.49.92-4.24,4.28-4.35,3.77-.12,3.91,1.71,3.66,4.41C118.18,145.82,118.18,146.8,118.15,147.78Z"/><path class="cls-17" d="M133.05,147.72l-7.69.07c0-.81-.1-1.63-.1-2.44,0-2.49-.8-5,3.61-4.94,4,.05,4.78,1.52,4.29,4.86C133.05,146.08,133.08,146.9,133.05,147.72Z"/><path class="cls-19" d="M140.34,67c7.54.1,7-1.32,6.88,6.9C138.91,74.26,140,75.45,140.34,67Z"/><path class="cls-16" d="M140.29,82c7.11-.4,7.11-.4,6.89,6.86C140,89.22,140,89.22,140.29,82Z"/><path class="cls-16" d="M147.18,111.05c.22,7.25.22,7.25-6.89,6.86C140,110.69,140,110.69,147.18,111.05Z"/><path class="cls-19" d="M147.22,126c.1,8.21.67,6.8-6.88,6.9C140,124.46,138.9,125.65,147.22,126Z"/><path class="cls-20" d="M73.34,148l-7,0c.77-2.51-3.29-6.93,2.83-7.3C74.08,140.32,74.19,140.57,73.34,148Z"/><path class="cls-21" d="M88.29,147.9a16.2,16.2,0,0,0-2.42.06c-3.8.63-5.39-.87-4.75-4.71a16.27,16.27,0,0,0,.07-2.42C89.94,140.28,88.62,139.71,88.29,147.9Z"/><path class="cls-22" d="M103.21,147.83a36.77,36.77,0,0,0-3.93.12c-3,.41-3.42-1.23-3.46-3.77s.92-3.56,3.44-3.28c1.3.15,2.62.06,3.94.08C103.2,143.27,103.21,145.55,103.21,147.83Z"/><path class="cls-20" d="M147.26,140.88q-.07,3.45-.13,6.91l-6.82,0a4.53,4.53,0,0,1-.08-.49C140,140.23,140,140.23,147.26,140.88Z"/><path class="cls-23" d="M66.34,111.07,66.26,118l-1-1.05c0-2,0-3.93,0-5.89Z"/></svg>