<svg id="Ebene_1" data-name="Ebene 1" xmlns="http://www.w3.org/2000/svg" viewBox="0 0 80 78"><defs><style>.cls-1{fill:#fefefe;}.cls-2{fill:#b6b6b6;}.cls-3{fill:#363636;}.cls-4{fill:#101010;}.cls-5{fill:#131313;}.cls-6{fill:#1c1c1c;}.cls-7{fill:#1a1a1a;}.cls-8{fill:#1d1d1d;}.cls-9{fill:#111;}.cls-10{fill:#555;}.cls-11{fill:#020202;}.cls-12{fill:#010101;}.cls-13{fill:#232323;}</style></defs><path class="cls-1" d="M.2,8.16v-4a20.61,20.61,0,0,0,4-4h4q2,3.2,4,0h4q2,3.2,4,0h3c1.66,2.29,3.33,2.56,5,0h3c1.66,2.56,3.32,2.29,5,0h3q2,3.2,4,0H79.89V29.05a1.1,1.1,0,0,1-1.3.09c-4.71-6.69-11-11.9-16.63-17.74C59.83,9.19,58.3,7,60.56,4.25a1.84,1.84,0,0,0-2-.82c-11.71.43-12-3.18-11,12.78,4.47-3.06,7-.39,9.69,2.81,3.2,3.79,7,7.08,10.47,10.63,3,3.08,5.61,6.3,2.55,11.13,4.5-.34,5.91-3.73,8.27-5.89a1.12,1.12,0,0,1,1.3.13c0,12.6-.16,25.2.11,37.79.07,3.42-.68,4.74-4.09,4a7.26,7.26,0,0,1-1-1.48c-1.16-8.87-.1-17.79-.54-25.67,0,5.42.1,11.85-.05,18.27-.12,5-1.32,6.23-6.24,6.32q-13.17.24-26.36,0c-4.69-.09-6-1.34-6.09-5.94-.2-9.11-.26-18.22,0-27.32.13-5.14,1.39-6.29,6.71-6.39,6.63-.12,13.26-.07,20-.18-3.12-.52-3.46-3.16-4.6-5.93-.16,6-4.13,6-8.13,6-3.48,0-7,.13-10.44,0-3.24-.15-4.5,1.35-4.54,4.4-.06,4.14.12,8.28-.11,12.42-.29,5.12-1.69,6.13-8,6.11s-7.69-1.07-7.81-6.31c-.19-8.78,0-17.55,0-26.33,0-4.07,1.84-6.08,6-6.15,4.63-.08,9.28.17,13.91-.53a116.85,116.85,0,0,0-16.84-.26c-2.26.12-3.12,1.5-3.12,3.65,0,11.08-.45,22.16,0,33.24.12,3,1.91,3.42,4.27,3.64,3.56.32,7.35-.88,10.62,1.51,1.39,5.68,1.94,11.35-.41,16.93-10.13,0-20.26-.08-30.38.07-2.15,0-2.59-.41-2.56-2.55C.28,63.86.2,53.42.2,43q3.21-2,0-4V35c2.14-1.33,2.14-2.65,0-4v-4c2.14-1.33,2.14-2.65,0-4v-4c1.53-1,1.53-2,0-3v-4C2.34,10.81,2.34,9.49.2,8.16Z"/><path class="cls-2" d="M33.08,76.79q0-8.34-.08-16.7c3.37.6,2.4,3.39,2.49,5.38.39,8.85.31,8.85,9.13,8.85q12.6,0,25.2,0c2.14,0,4.31-.13,6.08,1.45v1Z"/><path class="cls-3" d="M28.1.2c-.49,1.44.75,3.74-2.17,3.94-3.24.23-2.16-2.43-2.82-3.94Z"/><path class="cls-3" d="M36.06.2c-.75,1.45.41,4.18-2.84,3.94-2.93-.21-1.7-2.48-2.14-3.94Z"/><path class="cls-4" d="M4.19.2c.94,3.59-1.19,4.12-4,4Q-.92-.92,4.19.2Z"/><path class="cls-5" d="M12.16.2C11.85,1.68,13.25,4.06,10.1,4S8.27,1.75,8.17.2Z"/><path class="cls-6" d="M20.13.2C19.77,1.7,21,4.14,17.91,4s-2-2.17-1.77-3.84Z"/><path class="cls-7" d="M43,.2C43.21,1.85,44.32,4,41.23,4S39.4,1.7,39.05.2Z"/><path class="cls-7" d="M.2,8.16C1.64,8.45,4,6.61,4.27,9.62,4.62,13,1.53,11.24.2,12.14Z"/><path class="cls-8" d="M.2,23.08c1.27,1,4.44-.78,4.07,2.57-.33,3-2.6,1.22-4.07,1.41Z"/><path class="cls-5" d="M.2,31c1.43.7,4.36-1,4.07,2.42C4,36.52,1.59,34.55.2,35Z"/><path class="cls-9" d="M.2,39c1.49.53,4.3-1.23,4.07,2.25C4.06,44.36,1.56,42.39.2,43Z"/><path d="M.2,16.12c1.5.12,4-1.65,4,1.52S1.73,19.1.2,19.1Z"/><path class="cls-10" d="M79.89,35l-.46,0-.45.15c-1.78-2.07-1.79-4.14,0-6.2a1.91,1.91,0,0,0,.89.12Z"/><path class="cls-11" d="M75.9,75.78c-12.73,0-25.47-.1-38.19.1-3.31.06-4.13-1-4.12-4.15,0-3.87,1-7.84-.59-11.64-4.3-.11-8.6-.37-12.89-.27-2.42.06-3.09-.75-3.07-3.1q.15-18.54,0-37.1c0-2.42.77-3,3.12-3.09,6.93-.14,13.89.75,20.78-.62,1.22-.24,2.3,0,2.32,1.71S42.72,20,41,20c-5.8-.07-11.61.09-17.41-.08-2.6-.07-3.39.72-3.35,3.35q.23,14.9,0,29.81c0,2.66.89,3.28,3.42,3.36,9.78.32,9.69.42,9.82-9.34.07-4.58-2-10.67.91-13.31,2.5-2.26,8.5-.61,12.95-.79,3-.12,6.75,1.27,8.62-.62,1.45-1.47.59-5.22.78-8.23,2.66,1,3.46,2.81,3.12,5.09-.43,3,.51,4.29,3.7,3.82,2-.29,4.09-.12,4.25,3.16-9,0-17.91.14-26.84-.08-3.26-.08-4.23.82-4.16,4.13.23,9.77.17,19.54,0,29.31,0,2.63.76,3.33,3.34,3.29,9.78-.15,19.57-.18,29.35,0C72.4,72.94,73,72,73,69.25c-.18-7.12-.08-14.24,0-21.36,0-1.71-.62-4.23,2.16-4,2.09.16,1,2.4,1,3.61C76.09,56.92,76,66.35,75.9,75.78Z"/><path class="cls-12" d="M79,28.93l0,6.2c-2.42,5.54-4.15,6.76-11.31,7.37C73.14,36.77,70,32.87,65.78,29A134.18,134.18,0,0,1,55,18c-2.52-2.94-4.43-3.23-6.78-.08a1.91,1.91,0,0,1-2.41.95c0-4.91,0-9.94,0-15,0-1.73,1.19-2.14,2.68-2.14,4.91,0,9.82,0,15.41.41-6.22,4.4-2.71,7.09.54,10.13,4.11,3.83,8,7.93,11.88,12A8.17,8.17,0,0,1,79,28.93Z"/><path class="cls-13" d="M41.17,8c1.3-.12,2.22.16,2.17,1.79-.05,1.39-.58,2.1-2.06,2.06s-2.14-.43-2.22-1.94S39.82,7.93,41.17,8Z"/><path class="cls-5" d="M12.14,41c.19,1.74-.75,2-2.1,2s-2-.56-2-2S8.77,39,10.18,39,12.38,39.56,12.14,41Z"/></svg>