<?xml version="1.0" encoding="utf-8"?>
<!-- Generator: Adobe Illustrator 26.1.0, SVG Export Plug-In . SVG Version: 6.00 Build 0)  -->
<svg version="1.1" id="uuid-7b1cd523-cbff-497b-9016-1a39b5bb6275"
	 xmlns="http://www.w3.org/2000/svg" xmlns:xlink="http://www.w3.org/1999/xlink" x="0px" y="0px" viewBox="0 0 68.7 69.5"
	 style="enable-background:new 0 0 68.7 69.5;" xml:space="preserve">
<style type="text/css">
	.st0{clip-path:url(#SVGID_00000026874003571160583880000001540323107882615680_);}
	.st1{fill:none;}
	.st2{fill:none;stroke:#000000;stroke-width:0.9;}
	.st3{clip-path:url(#SVGID_00000072268650480663093880000014976639856379718055_);}
</style>
<g>
	<defs>
		<rect id="SVGID_1_" x="10.2" y="8.8" width="48.2" height="49.8"/>
	</defs>
	<clipPath id="SVGID_00000042005882543577424130000013704963379643969924_">
		<use xlink:href="#SVGID_1_"  style="overflow:visible;"/>
	</clipPath>
	<g style="clip-path:url(#SVGID_00000042005882543577424130000013704963379643969924_);">
		<path class="st1" d="M12.6,19.5c-1.1,0.9-2,3.2-2,5.2v25.5c0,4.3,3.5,7.9,7.9,7.9H44c1.6,0,3-0.5,4.2-1.2c0.6-0.4,1.2-0.9,1.6-1.4
			"/>
	</g>
</g>
<line class="st2" x1="46.9" y1="34.8" x2="21.7" y2="34.8"/>
<g>
	<defs>
		<rect id="SVGID_00000005975698575611689110000014725215415321050776_" x="10.2" y="-75.5" width="48.2" height="49.8"/>
	</defs>
	<clipPath id="SVGID_00000110465366372470206620000008969936140109816739_">
		<use xlink:href="#SVGID_00000005975698575611689110000014725215415321050776_"  style="overflow:visible;"/>
	</clipPath>
	<g style="clip-path:url(#SVGID_00000110465366372470206620000008969936140109816739_);">
		<path class="st1" d="M12.6-64.8c-1.1,0.9-2,3.2-2,5.2v25.5c0,4.4,3.5,7.9,7.9,7.9H44c1.6,0,3-0.5,4.2-1.2c0.6-0.4,1.2-0.9,1.6-1.4
			"/>
	</g>
</g>
<line class="st2" x1="34.3" y1="-62.2" x2="34.3" y2="-36.9"/>
<line class="st2" x1="46.9" y1="-49.5" x2="21.7" y2="-49.5"/>
</svg>
