<?xml version="1.0" encoding="UTF-8"?>
<svg id="uuid-db93d587-91a7-46ad-98c4-4adc33ebac4b" data-name="Ebene 1" xmlns="http://www.w3.org/2000/svg" viewBox="0 0 100 100">
  <polygon points="62.95 25.69 51.5 21.74 40.06 38.85 42.61 40.32 42.6 45.7 18.03 59.89 18.08 74.69 31.46 82.46 58.56 66.82 58.56 66.68 64.82 70.31 66.9 71.52 66.9 71.5 77.61 65.34 84.76 61.23 84.77 40.77 86.15 41.24 87.02 40.07 87.24 39.77 62.95 25.69"/>
  <g>
    <polygon points="74.83 48.62 74.83 48.62 74.83 48.62 74.83 48.62 73.49 49.37 73.49 49.37 71.08 50.73 71.05 50.74 71.05 50.71 70.79 50.86 70.79 50.89 68.26 52.31 68.26 52.31 68.26 55.93 68.26 55.93 68.26 56.27 68.26 56.27 68.26 58.36 68.26 60.63 68.26 60.63 68.26 60.97 68.26 60.97 68.26 63.91 68.26 63.91 68.26 64.19 68.26 64.26 68.26 65.54 68.26 65.54 68.26 65.54 74.83 61.84 74.83 48.62 74.83 48.62 74.83 48.62" style="fill: #fff;"/>
    <polygon points="84.17 43.23 84.17 43.23 84.17 43.23 84.17 43.23 84.17 43.23 84.17 43.23 82.84 43.98 82.84 43.98 82.84 43.98 82.83 43.98 80.4 45.35 80.4 45.32 80.13 45.47 80.13 45.5 77.6 46.92 77.6 50.54 77.6 50.54 77.6 50.88 77.6 50.88 77.6 52.97 77.6 52.97 77.6 55.24 77.6 55.24 77.6 55.58 77.6 55.58 77.6 58.52 77.6 58.52 77.6 58.87 77.6 58.87 77.6 60.15 79.54 59.06 84.17 56.45 84.17 43.23" style="fill: #fff;"/>
  </g>
</svg>