<?xml version="1.0" encoding="UTF-8"?>
<svg xmlns="http://www.w3.org/2000/svg" viewBox="0 0 100 100">
  <g style="isolation: isolate;">
    <g id="uuid-b9a11123-9ed4-4ce9-a628-2bc4301ec7eb" data-name="Ebene 1">
      <polygon points="99 64.9 99 64.89 99 63.43 39.75 29.13 8.07 47.17 8.08 48.63 8.08 48.63 8.08 48.63 8.07 48.63 7.39 49.02 7.4 49.02 .25 53.1 .25 54.57 59.5 88.86 99 66.33 99 64.9"/>
      <g style="mix-blend-mode: multiply; opacity: .2;">
        <polygon points="19.26 48.3 30.73 41.71 45.16 49.94 33.69 56.53 19.26 48.3"/>
      </g>
      <g style="isolation: isolate;">
        <polygon points="35.86 19.79 35.8 39.23 27.87 43.79 27.92 24.34 35.86 19.79"/>
        <polygon points="29.53 25.26 29.48 44.71 27.87 43.79 27.92 24.34 29.53 25.26"/>
        <polygon points="47.31 35.4 47.26 54.85 29.48 44.71 29.53 25.26 47.31 35.4" style="fill: #fff;"/>
        <polygon points="57.04 31.87 56.99 51.32 49.05 55.87 49.11 36.43 57.04 31.87"/>
        <polygon points="49.11 36.43 49.05 55.87 47.26 54.85 47.31 35.4 49.11 36.43"/>
        <path d="M29.64,32.45l-11.47,6.59v1.2s-.02,1.97-.02,1.97l2.28,1.3v4c-.08,.09-.12,.18-.11,.28,0,0,0,0,0,.01h0s0,.06,0,.08h0v.8h.02c.01,.13,.09,.26,.26,.36,.38,.22,.99,.22,1.37,0,.18-.1,.25-.23,.26-.36h.02v-.8h0s0-.04,0-.07c0,0,0-.01,0-.02,.01-.11-.04-.21-.14-.31v-3.03s9.9,5.65,9.9,5.65v3.94c-.08,.08-.12,.17-.12,.27,0,0,0,0,0,.01,0,.03,0,.06,0,.1h0v.8h.02c.01,.13,.09,.26,.26,.36,.38,.22,.99,.22,1.37,0,.18-.1,.25-.23,.26-.36h.02v-.8h0s0-.05,0-.07c0,0,0,0,0-.01,0,0,0,0,0-.01,0-.11-.04-.21-.14-.31v-4.2s10.41-5.97,10.41-5.97v-2.1s.02-1.07,.02-1.07l-14.43-8.23Z"/>
        <polygon points="82.59 46.45 67.43 55.15 40.09 39.55 40.09 37.25 49.11 36.43 82.59 44.14 82.59 46.45"/>
        <polygon points="67.43 55.15 67.42 59.26 67.42 59.51 67.41 62.97 67.41 63.2 67.4 66.67 67.4 66.9 67.4 66.9 67.39 70.37 67.39 70.61 67.38 74.6 63.89 72.61 63.89 72.61 63.69 72.49 60.64 70.76 60.44 70.64 57.4 68.91 57.2 68.79 40.03 59 40.03 58.96 40.04 57.05 40.04 56.35 40.04 55 40.04 54.77 40.05 54.38 40.05 53.74 40.05 53.71 40.05 51.81 40.05 51.3 40.05 50.74 40.06 49.14 40.06 48.46 40.06 47.61 40.06 47.38 40.07 46.56 40.07 46.14 40.07 45.8 40.07 44.04 40.08 43.91 40.08 43.68 40.08 43.19 40.08 42.97 40.09 39.55 43.07 41.25 44 41.78 44.07 41.82 47.29 43.66 49.09 44.69 56.99 49.2 67.43 55.15" style="fill: #fff;"/>
        <g>
          <polygon points="67.43 52.85 82.59 44.14 35.86 17.48 27.92 22.04 27.92 24.34 29.53 25.26 45.3 34.25 40.09 37.25 67.43 52.85"/>
          <polygon points="67.43 57.77 67.43 58 67.42 59.26 67.42 59.49 67.41 62.97 67.41 63.2 67.4 66.67 67.4 66.9 67.39 70.38 67.39 70.61 67.38 74.6 82.54 65.9 82.55 61.96 82.55 61.73 82.56 58.26 82.56 58.03 82.57 54.55 82.57 54.32 82.58 50.84 82.58 50.61 82.59 49.35 82.59 49.12 82.59 46.45 67.43 55.15 67.43 57.77"/>
        </g>
      </g>
      <g>
        <g style="mix-blend-mode: multiply;">
          <polygon points="82.58 52.67 82.58 52.9 67.42 61.55 67.42 61.32 82.58 52.67"/>
        </g>
        <g style="mix-blend-mode: multiply;">
          <polygon points="82.57 56.38 82.57 56.61 67.41 65.25 67.41 65.03 82.57 56.38"/>
        </g>
        <g style="mix-blend-mode: multiply;">
          <polygon points="82.56 60.09 82.56 60.31 67.4 68.96 67.4 68.96 67.4 68.73 82.56 60.09"/>
        </g>
        <g style="mix-blend-mode: multiply;">
          <polygon points="82.55 63.79 82.55 64.02 67.39 72.67 67.39 72.44 82.55 63.79"/>
        </g>
      </g>
      <g style="mix-blend-mode: multiply;">
        <polygon points="82.59 49.12 82.59 49.35 67.43 58 67.43 57.77 82.59 49.12"/>
      </g>
      <g>
        <g style="isolation: isolate;">
          <rect x="36.28" y="34.44" width=".34" height="0" transform="translate(-12.31 22.72) rotate(-29.87)"/>
        </g>
        <g style="isolation: isolate;">
          <rect x="39.02" y="36.03" width=".34" height="0" transform="translate(-12.74 24.3) rotate(-29.86)"/>
        </g>
      </g>
      <g>
        <polygon points="50.16 62.39 42.32 57.92 42.32 45.95 50.16 50.42 50.16 62.39"/>
        <polygon points="42.32 57.65 42.32 45.95 50.16 50.42 50.19 53.23 42.32 57.65"/>
        <g style="isolation: isolate;">
          <polygon points="44.01 58.7 44.11 58.65 44.11 58.8 44.01 58.85 44.01 58.7"/>
          <polygon points="42.25 57.7 42.35 57.65 44.11 58.65 44.01 58.7 42.25 57.7"/>
          <polygon points="44.01 58.85 44.11 58.8 44.37 58.95 44.27 59 44.01 58.85"/>
          <polygon points="44.27 58.85 44.37 58.8 44.37 58.95 44.27 59 44.27 58.85"/>
          <polygon points="42.26 54.04 42.36 53.98 42.35 57.65 42.25 57.7 42.26 54.04"/>
          <polygon points="42.13 53.96 42.23 53.91 42.36 53.98 42.26 54.04 42.13 53.96"/>
          <polygon points="42.13 53.67 42.23 53.61 42.23 53.91 42.13 53.96 42.13 53.67"/>
          <polygon points="42.13 53.67 42.23 53.61 42.36 53.68 42.27 53.74 42.13 53.67"/>
          <polygon points="44.27 58.85 44.37 58.8 46.12 59.8 46.02 59.85 44.27 58.85"/>
          <polygon points="46.02 59.85 46.12 59.8 46.12 59.95 46.02 60 46.02 59.85"/>
          <polygon points="46.02 60 46.12 59.95 46.39 60.1 46.29 60.15 46.02 60"/>
          <polygon points="46.29 60 46.39 59.95 46.39 60.1 46.29 60.15 46.29 60"/>
          <polygon points="44.28 55.19 44.38 55.13 44.37 58.8 44.27 58.85 44.28 55.19"/>
          <polygon points="42.13 53.67 42.27 53.74 44.02 54.74 44.02 55.04 42.26 54.04 42.13 53.96 42.13 53.67"/>
          <polygon points="44.02 54.74 44.12 54.68 44.12 54.98 44.02 55.04 44.02 54.74"/>
          <polygon points="42.27 53.74 42.36 53.68 44.12 54.68 44.02 54.74 42.27 53.74"/>
          <polygon points="44.28 54.89 44.38 54.83 44.38 55.13 44.28 55.19 44.28 54.89"/>
          <polygon points="48.04 61 48.14 60.95 48.14 61.1 48.04 61.15 48.04 61"/>
          <polygon points="46.29 60 46.39 59.95 48.14 60.95 48.04 61 46.29 60"/>
          <polygon points="48.04 61.15 48.14 61.1 48.4 61.25 48.3 61.3 48.04 61.15"/>
          <polygon points="48.3 61.15 48.4 61.1 48.4 61.25 48.3 61.3 48.3 61.15"/>
          <polygon points="42.28 50.08 42.37 50.02 42.36 53.68 42.27 53.74 42.28 50.08"/>
          <polygon points="42.14 50 42.24 49.94 42.37 50.02 42.28 50.08 42.14 50"/>
          <polygon points="42.15 49.7 42.24 49.65 42.24 49.94 42.14 50 42.15 49.7"/>
          <polygon points="42.15 49.7 42.24 49.65 42.38 49.72 42.28 49.78 42.15 49.7"/>
          <polygon points="46.3 56.34 46.4 56.28 46.39 59.95 46.29 60 46.3 56.34"/>
          <polygon points="44.28 54.89 44.38 54.83 46.13 55.83 46.04 55.89 44.28 54.89"/>
          <polygon points="44.28 55.19 44.28 54.89 46.04 55.89 46.03 56.19 44.28 55.19"/>
          <polygon points="46.04 55.89 46.13 55.83 46.13 56.13 46.03 56.19 46.04 55.89"/>
          <polygon points="46.3 56.04 46.4 55.98 46.4 56.28 46.3 56.34 46.3 56.04"/>
          <polygon points="48.3 61.15 48.4 61.1 50.15 62.1 50.06 62.15 48.3 61.15"/>
          <polygon points="44.29 51.23 44.39 51.17 44.38 54.83 44.28 54.89 44.29 51.23"/>
          <polygon points="42.28 49.78 42.38 49.72 44.13 50.72 44.03 50.78 42.28 49.78"/>
          <polygon points="44.03 50.78 44.13 50.72 44.13 51.02 44.03 51.08 44.03 50.78"/>
          <polygon points="44.29 50.93 44.39 50.87 44.39 51.17 44.29 51.23 44.29 50.93"/>
          <polygon points="48.31 57.49 48.41 57.43 48.4 61.1 48.3 61.15 48.31 57.49"/>
          <polygon points="46.3 56.04 46.4 55.98 48.15 56.98 48.05 57.04 46.3 56.04"/>
          <polygon points="48.05 57.04 48.15 56.98 48.15 57.28 48.05 57.34 48.05 57.04"/>
          <polygon points="48.32 57.19 48.41 57.14 48.41 57.43 48.31 57.49 48.32 57.19"/>
          <polygon points="42.29 46.11 42.39 46.06 42.38 49.72 42.28 49.78 42.29 46.11"/>
          <polygon points="46.31 52.38 46.41 52.32 46.4 55.98 46.3 56.04 46.31 52.38"/>
          <polygon points="44.29 50.93 44.39 50.87 46.14 51.87 46.05 51.93 44.29 50.93"/>
          <polygon points="46.05 51.93 46.14 51.87 46.14 52.17 46.05 52.23 46.05 51.93"/>
          <polygon points="44.29 51.23 44.29 50.93 46.05 51.93 46.05 52.23 44.29 51.23"/>
          <polygon points="46.31 52.08 46.41 52.02 46.41 52.32 46.31 52.38 46.31 52.08"/>
          <polygon points="50.07 58.49 50.17 58.43 50.3 58.51 50.2 58.57 50.07 58.49"/>
          <polygon points="48.32 57.19 48.41 57.14 50.17 58.13 50.07 58.19 48.32 57.19"/>
          <polygon points="50.07 58.19 50.17 58.13 50.3 58.21 50.2 58.27 50.07 58.19"/>
          <polygon points="50.2 58.27 50.3 58.21 50.3 58.51 50.2 58.57 50.2 58.27"/>
          <polygon points="44.04 46.96 44.14 46.91 44.14 47.06 44.04 47.11 44.04 46.96"/>
          <polygon points="44.3 47.26 44.4 47.21 44.39 50.87 44.29 50.93 44.3 47.26"/>
          <polygon points="44.04 46.96 44.14 46.91 44.4 47.06 44.3 47.11 44.04 46.96"/>
          <polygon points="44.3 47.11 44.4 47.06 44.4 47.21 44.3 47.26 44.3 47.11"/>
          <polygon points="48.33 53.53 48.42 53.47 48.41 57.14 48.32 57.19 48.33 53.53"/>
          <polygon points="46.31 52.08 46.41 52.02 48.16 53.02 48.06 53.08 46.31 52.08"/>
          <polygon points="48.06 53.08 48.16 53.02 48.16 53.32 48.06 53.38 48.06 53.08"/>
          <polygon points="48.33 53.23 48.43 53.17 48.42 53.47 48.33 53.53 48.33 53.23"/>
          <polygon points="46.06 48.11 46.16 48.06 46.16 48.21 46.06 48.26 46.06 48.11"/>
          <polygon points="46.32 48.41 46.42 48.36 46.41 52.02 46.31 52.08 46.32 48.41"/>
          <polygon points="46.06 48.11 46.16 48.06 46.42 48.21 46.32 48.26 46.06 48.11"/>
          <polygon points="46.32 48.26 46.42 48.21 46.42 48.36 46.32 48.41 46.32 48.26"/>
          <polygon points="46.32 48.26 46.32 48.41 46.31 52.08 46.31 52.38 46.3 56.04 46.3 56.34 46.29 60 46.29 60.15 46.02 60 46.02 59.85 46.03 56.19 46.04 55.89 46.05 52.23 46.05 51.93 46.06 48.26 46.06 48.11 46.32 48.26"/>
          <polygon points="50.08 54.53 50.18 54.47 50.31 54.55 50.21 54.6 50.08 54.53"/>
          <polygon points="48.33 53.23 48.43 53.17 50.18 54.17 50.08 54.23 48.33 53.23"/>
          <polygon points="50.21 54.3 50.31 54.25 50.31 54.55 50.21 54.6 50.21 54.3"/>
          <polygon points="50.08 54.23 50.18 54.17 50.31 54.25 50.21 54.3 50.08 54.23"/>
          <polygon points="48.07 49.26 48.17 49.21 48.17 49.36 48.07 49.41 48.07 49.26"/>
          <polygon points="48.34 49.56 48.44 49.51 48.43 53.17 48.33 53.23 48.34 49.56"/>
          <polygon points="48.34 49.41 48.44 49.36 48.44 49.51 48.34 49.56 48.34 49.41"/>
          <polygon points="48.07 49.26 48.17 49.21 48.44 49.36 48.34 49.41 48.07 49.26"/>
          <path d="M42.03,45.66l8.33,4.75-.04,12.19-8.33-4.75,.03-12.19Zm8.19,8.94v-.3s-.13-.08-.13-.08v-3.66s-1.74-1-1.74-1v-.15s-.26-.15-.26-.15v.15s-1.75-1-1.75-1v-.15s-.26-.15-.26-.15v.15s-1.75-1-1.75-1v-.15s-.26-.15-.26-.15v.15s-1.75-1-1.75-1v3.66s-.14-.08-.14-.08v.3s.13,.08,.13,.08v3.66s-.14-.08-.14-.08v.3s.13,.08,.13,.08v3.66s1.74,1,1.74,1v.15s.26,.15,.26,.15v-.15s1.75,1,1.75,1v.15s.26,.15,.26,.15v-.15s1.75,1,1.75,1v.15s.26,.15,.26,.15v-.15s1.75,1,1.75,1v-3.66s.14,.08,.14,.08v-.3s-.13-.08-.13-.08v-3.66s.14,.08,.14,.08h0Z"/>
          <polygon points="42.15 49.7 42.28 49.78 44.03 50.78 44.03 51.08 42.28 50.08 42.14 50 42.15 49.7"/>
          <polygon points="46.3 56.34 46.3 56.04 48.05 57.04 48.05 57.34 46.3 56.34"/>
          <polygon points="50.07 58.19 50.2 58.27 50.2 58.57 50.07 58.49 48.31 57.49 48.32 57.19 50.07 58.19"/>
          <polygon points="44.3 47.11 44.3 47.26 44.29 50.93 44.29 51.23 44.28 54.89 44.28 55.19 44.27 58.85 44.27 59 44.01 58.85 44.01 58.7 44.02 55.04 44.02 54.74 44.03 51.08 44.03 50.78 44.04 47.11 44.04 46.96 44.3 47.11"/>
          <polygon points="46.31 52.38 46.31 52.08 48.06 53.08 48.06 53.38 46.31 52.38"/>
          <polygon points="50.08 54.23 50.21 54.3 50.21 54.6 50.08 54.53 48.33 53.53 48.33 53.23 50.08 54.23"/>
          <polygon points="48.34 49.41 48.34 49.56 48.33 53.23 48.33 53.53 48.32 57.19 48.31 57.49 48.3 61.15 48.3 61.3 48.04 61.15 48.04 61 48.05 57.34 48.05 57.04 48.06 53.38 48.06 53.08 48.07 49.41 48.07 49.26 48.34 49.41"/>
          <polygon points="42.03 45.66 42.12 45.61 50.45 50.36 50.35 50.41 42.03 45.66"/>
          <polygon points="50.35 50.41 50.45 50.36 50.42 62.55 50.32 62.6 50.35 50.41"/>
        </g>
      </g>
      <g>
        <polygon points="61.66 68.79 53.83 64.32 53.83 52.34 61.67 56.81 61.66 68.79"/>
        <polygon points="53.83 64.04 53.83 52.34 61.67 56.81 61.7 59.62 53.83 64.04"/>
        <g style="isolation: isolate;">
          <polygon points="55.52 65.1 55.61 65.04 55.61 65.19 55.51 65.25 55.52 65.1"/>
          <polygon points="53.76 64.1 53.86 64.04 55.61 65.04 55.52 65.1 53.76 64.1"/>
          <polygon points="55.51 65.25 55.61 65.19 55.88 65.34 55.78 65.4 55.51 65.25"/>
          <polygon points="55.78 65.25 55.88 65.19 55.88 65.34 55.78 65.4 55.78 65.25"/>
          <polygon points="53.77 60.43 53.87 60.38 53.86 64.04 53.76 64.1 53.77 60.43"/>
          <polygon points="53.64 60.36 53.74 60.3 53.87 60.38 53.77 60.43 53.64 60.36"/>
          <polygon points="53.64 60.06 53.74 60 53.74 60.3 53.64 60.36 53.64 60.06"/>
          <polygon points="53.64 60.06 53.74 60 53.87 60.08 53.77 60.14 53.64 60.06"/>
          <polygon points="55.78 65.25 55.88 65.19 57.63 66.19 57.53 66.25 55.78 65.25"/>
          <polygon points="57.53 66.25 57.63 66.19 57.63 66.34 57.53 66.4 57.53 66.25"/>
          <polygon points="57.53 66.4 57.63 66.34 57.89 66.49 57.79 66.55 57.53 66.4"/>
          <polygon points="57.8 66.4 57.89 66.34 57.89 66.49 57.79 66.55 57.8 66.4"/>
          <polygon points="55.79 61.58 55.89 61.53 55.88 65.19 55.78 65.25 55.79 61.58"/>
          <polygon points="53.64 60.06 53.77 60.14 55.53 61.14 55.53 61.43 53.77 60.43 53.64 60.36 53.64 60.06"/>
          <polygon points="55.53 61.14 55.62 61.08 55.62 61.38 55.53 61.43 55.53 61.14"/>
          <polygon points="53.77 60.14 53.87 60.08 55.62 61.08 55.53 61.14 53.77 60.14"/>
          <polygon points="55.79 61.29 55.89 61.23 55.89 61.53 55.79 61.58 55.79 61.29"/>
          <polygon points="59.55 67.4 59.65 67.34 59.65 67.49 59.55 67.55 59.55 67.4"/>
          <polygon points="57.8 66.4 57.89 66.34 59.65 67.34 59.55 67.4 57.8 66.4"/>
          <polygon points="59.55 67.55 59.65 67.49 59.91 67.64 59.81 67.7 59.55 67.55"/>
          <polygon points="59.81 67.55 59.91 67.49 59.91 67.64 59.81 67.7 59.81 67.55"/>
          <polygon points="53.78 56.47 53.88 56.41 53.87 60.08 53.77 60.14 53.78 56.47"/>
          <polygon points="53.65 56.4 53.75 56.34 53.88 56.41 53.78 56.47 53.65 56.4"/>
          <polygon points="53.65 56.1 53.75 56.04 53.75 56.34 53.65 56.4 53.65 56.1"/>
          <polygon points="53.65 56.1 53.75 56.04 53.88 56.12 53.78 56.17 53.65 56.1"/>
          <polygon points="57.81 62.74 57.9 62.68 57.89 66.34 57.8 66.4 57.81 62.74"/>
          <polygon points="55.79 61.29 55.89 61.23 57.64 62.23 57.54 62.29 55.79 61.29"/>
          <polygon points="55.79 61.58 55.79 61.29 57.54 62.29 57.54 62.58 55.79 61.58"/>
          <polygon points="57.54 62.29 57.64 62.23 57.64 62.53 57.54 62.58 57.54 62.29"/>
          <polygon points="57.81 62.44 57.9 62.38 57.9 62.68 57.81 62.74 57.81 62.44"/>
          <polygon points="59.81 67.55 59.91 67.49 61.66 68.49 61.56 68.55 59.81 67.55"/>
          <polygon points="55.8 57.62 55.9 57.56 55.89 61.23 55.79 61.29 55.8 57.62"/>
          <polygon points="53.78 56.17 53.88 56.12 55.64 57.12 55.54 57.17 53.78 56.17"/>
          <polygon points="55.54 57.17 55.64 57.12 55.64 57.41 55.54 57.47 55.54 57.17"/>
          <polygon points="55.8 57.32 55.9 57.27 55.9 57.56 55.8 57.62 55.8 57.32"/>
          <polygon points="59.82 63.89 59.92 63.83 59.91 67.49 59.81 67.55 59.82 63.89"/>
          <polygon points="57.81 62.44 57.9 62.38 59.66 63.38 59.56 63.44 57.81 62.44"/>
          <polygon points="59.56 63.44 59.66 63.38 59.66 63.68 59.56 63.73 59.56 63.44"/>
          <polygon points="59.82 63.59 59.92 63.53 59.92 63.83 59.82 63.89 59.82 63.59"/>
          <polygon points="53.8 52.51 53.89 52.45 53.88 56.12 53.78 56.17 53.8 52.51"/>
          <polygon points="57.82 58.77 57.92 58.72 57.9 62.38 57.81 62.44 57.82 58.77"/>
          <polygon points="55.8 57.32 55.9 57.27 57.65 58.27 57.55 58.32 55.8 57.32"/>
          <polygon points="57.55 58.32 57.65 58.27 57.65 58.56 57.55 58.62 57.55 58.32"/>
          <polygon points="55.8 57.62 55.8 57.32 57.55 58.32 57.55 58.62 55.8 57.62"/>
          <polygon points="57.82 58.47 57.92 58.42 57.92 58.72 57.82 58.77 57.82 58.47"/>
          <polygon points="61.57 64.89 61.67 64.83 61.81 64.9 61.71 64.96 61.57 64.89"/>
          <polygon points="59.82 63.59 59.92 63.53 61.67 64.53 61.58 64.59 59.82 63.59"/>
          <polygon points="61.58 64.59 61.67 64.53 61.81 64.6 61.71 64.66 61.58 64.59"/>
          <polygon points="61.71 64.66 61.81 64.6 61.81 64.9 61.71 64.96 61.71 64.66"/>
          <polygon points="55.55 53.36 55.65 53.3 55.65 53.45 55.55 53.51 55.55 53.36"/>
          <polygon points="55.81 53.66 55.91 53.6 55.9 57.27 55.8 57.32 55.81 53.66"/>
          <polygon points="55.55 53.36 55.65 53.3 55.91 53.45 55.81 53.51 55.55 53.36"/>
          <polygon points="55.81 53.51 55.91 53.45 55.91 53.6 55.81 53.66 55.81 53.51"/>
          <polygon points="59.83 59.92 59.93 59.87 59.92 63.53 59.82 63.59 59.83 59.92"/>
          <polygon points="57.82 58.47 57.92 58.42 59.67 59.42 59.57 59.47 57.82 58.47"/>
          <polygon points="59.57 59.47 59.67 59.42 59.67 59.71 59.57 59.77 59.57 59.47"/>
          <polygon points="59.83 59.62 59.93 59.57 59.93 59.87 59.83 59.92 59.83 59.62"/>
          <polygon points="57.57 54.51 57.66 54.45 57.66 54.6 57.56 54.66 57.57 54.51"/>
          <polygon points="57.83 54.81 57.93 54.75 57.92 58.42 57.82 58.47 57.83 54.81"/>
          <polygon points="57.57 54.51 57.66 54.45 57.93 54.6 57.83 54.66 57.57 54.51"/>
          <polygon points="57.83 54.66 57.93 54.6 57.93 54.75 57.83 54.81 57.83 54.66"/>
          <polygon points="57.83 54.66 57.83 54.81 57.82 58.47 57.82 58.77 57.81 62.44 57.81 62.74 57.8 66.4 57.79 66.55 57.53 66.4 57.53 66.25 57.54 62.58 57.54 62.29 57.55 58.62 57.55 58.32 57.56 54.66 57.57 54.51 57.83 54.66"/>
          <polygon points="61.59 60.92 61.68 60.87 61.82 60.94 61.72 61 61.59 60.92"/>
          <polygon points="59.83 59.62 59.93 59.57 61.69 60.57 61.59 60.62 59.83 59.62"/>
          <polygon points="61.72 60.7 61.82 60.64 61.82 60.94 61.72 61 61.72 60.7"/>
          <polygon points="61.59 60.62 61.69 60.57 61.82 60.64 61.72 60.7 61.59 60.62"/>
          <polygon points="59.58 55.66 59.68 55.6 59.68 55.75 59.58 55.81 59.58 55.66"/>
          <polygon points="59.84 55.96 59.94 55.9 59.93 59.57 59.83 59.62 59.84 55.96"/>
          <polygon points="59.85 55.81 59.94 55.75 59.94 55.9 59.84 55.96 59.85 55.81"/>
          <polygon points="59.58 55.66 59.68 55.6 59.94 55.75 59.85 55.81 59.58 55.66"/>
          <path d="M53.53,52.06l8.33,4.75-.03,12.19-8.33-4.75,.03-12.19Zm8.19,8.94v-.3s-.13-.08-.13-.08v-3.66s-1.74-1-1.74-1v-.15s-.26-.15-.26-.15v.15s-1.75-1-1.75-1v-.15s-.26-.15-.26-.15v.15s-1.75-1-1.75-1v-.15s-.26-.15-.26-.15v.15s-1.75-1-1.75-1v3.66s-.14-.08-.14-.08v.3s.13,.08,.13,.08v3.66s-.14-.08-.14-.08v.3s.13,.08,.13,.08v3.66s1.74,1,1.74,1v.15s.26,.15,.26,.15v-.15s1.75,1,1.75,1v.15s.26,.15,.26,.15v-.15s1.75,1,1.75,1v.15s.26,.15,.26,.15v-.15s1.75,1,1.75,1v-3.66s.14,.08,.14,.08v-.3s-.13-.08-.13-.08v-3.66s.14,.08,.14,.08h0Z"/>
          <polygon points="53.65 56.1 53.78 56.17 55.54 57.17 55.54 57.47 53.78 56.47 53.65 56.4 53.65 56.1"/>
          <polygon points="57.81 62.74 57.81 62.44 59.56 63.44 59.56 63.73 57.81 62.74"/>
          <polygon points="61.58 64.59 61.71 64.66 61.71 64.96 61.57 64.89 59.82 63.89 59.82 63.59 61.58 64.59"/>
          <polygon points="55.81 53.51 55.81 53.66 55.8 57.32 55.8 57.62 55.79 61.29 55.79 61.58 55.78 65.25 55.78 65.4 55.51 65.25 55.52 65.1 55.53 61.43 55.53 61.14 55.54 57.47 55.54 57.17 55.55 53.51 55.55 53.36 55.81 53.51"/>
          <polygon points="57.82 58.77 57.82 58.47 59.57 59.47 59.57 59.77 57.82 58.77"/>
          <polygon points="61.59 60.62 61.72 60.7 61.72 61 61.59 60.92 59.83 59.92 59.83 59.62 61.59 60.62"/>
          <polygon points="59.85 55.81 59.84 55.96 59.83 59.62 59.83 59.92 59.82 63.59 59.82 63.89 59.81 67.55 59.81 67.7 59.55 67.55 59.55 67.4 59.56 63.73 59.56 63.44 59.57 59.77 59.57 59.47 59.58 55.81 59.58 55.66 59.85 55.81"/>
          <polygon points="53.53 52.06 53.63 52 61.96 56.75 61.86 56.81 53.53 52.06"/>
          <polygon points="61.86 56.81 61.96 56.75 61.93 68.94 61.83 69 61.86 56.81"/>
        </g>
      </g>
      <g>
        <g style="isolation: isolate;">
          <polygon points="64.38 47.16 64.39 48.38 66.73 49.71 66.73 48.5 64.38 47.16"/>
          <polygon points="66.73 48.5 66.73 49.71 69.86 47.95 69.85 46.73 66.73 48.5"/>
          <polygon points="64.38 47.16 66.73 48.5 69.85 46.73 67.51 45.4 64.38 47.16"/>
        </g>
        <g>
          <path d="M66.12,46.46c-.51,.29-.51,.76,0,1.05,.51,.29,1.33,.29,1.84,0,.51-.29,.51-.76,0-1.05-.51-.29-1.33-.29-1.84,0Z"/>
          <polygon points="66.06 47.47 66.18 47.54 68.02 46.5 67.89 46.43 66.06 47.47"/>
          <polygon points="66.06 46.5 67.89 47.54 68.02 47.47 66.18 46.43 66.06 46.5"/>
          <rect x="65.74" y="46.94" width="2.6" height=".1"/>
          <rect x="66.95" y="46.24" width=".17" height="1.48"/>
        </g>
      </g>
      <g>
        <g style="isolation: isolate;">
          <polygon points="70.22 44.11 70.22 45.33 72.57 46.66 72.56 45.45 70.22 44.11"/>
          <polygon points="72.56 45.45 72.57 46.66 75.69 44.9 75.68 43.68 72.56 45.45"/>
          <polygon points="70.22 44.11 72.56 45.45 75.68 43.68 73.34 42.35 70.22 44.11"/>
        </g>
        <g>
          <path d="M71.95,43.41c-.51,.29-.51,.76,0,1.05,.51,.29,1.33,.29,1.84,0,.51-.29,.51-.76,0-1.05-.51-.29-1.33-.29-1.84,0Z"/>
          <polygon points="71.89 44.42 72.01 44.5 73.85 43.45 73.73 43.38 71.89 44.42"/>
          <polygon points="71.89 43.45 73.73 44.5 73.85 44.42 72.01 43.38 71.89 43.45"/>
          <rect x="71.57" y="43.89" width="2.6" height=".1"/>
          <rect x="72.78" y="43.2" width=".17" height="1.48"/>
        </g>
      </g>
    </g>
  </g>
</svg>